<svg id="Capa_1" data-name="Capa 1" xmlns="http://www.w3.org/2000/svg" viewBox="0 0 1000 1000"><defs><style>.cls-1{fill:#231f20;}.cls-2{fill:#005e96;}.cls-3{fill:#ea851c;}.cls-4{fill:#8bb837;}.cls-5{fill:#d7181e;}</style></defs><title>Logos aliados [Recuperado]</title><path id="path6" class="cls-1" d="M344,404.69c5.18-.1,10.36-.57,15.54-.19a119.27,119.27,0,0,1,32.64,4.79c11.31,3.44,22.08,9.54,29.63,18.78,7.86,9.46,11.76,21.66,12.77,33.79a109.37,109.37,0,0,1,.37,12.28V593.88H389.39c0-5.4,0-10.79,0-16.19-5.45,5.51-11.69,10.41-18.89,13.41a62.55,62.55,0,0,1-20.88,4.43A109.91,109.91,0,0,1,327,594.44c-10-1.6-19.77-5.32-27.63-11.77-9.09-7.29-14.86-18.08-17.52-29.3a66.66,66.66,0,0,1,0-31.18A48.38,48.38,0,0,1,300.23,495c11.69-8.53,26.37-11.77,40.62-12.18h47.44c-.09-6.47.42-13-1.07-19.39a22.36,22.36,0,0,0-7.51-12.71,27.83,27.83,0,0,0-11-5.14c-6.51-1.6-13.27-1.69-20-1.47-7.38.31-15,1.84-21.17,6.07a51.06,51.06,0,0,0-10.14,9.28c-10-9.66-19.91-19.42-29.87-29.13,7.82-8.73,17.35-16.21,28.43-20.31,8.93-3.41,18.5-4.74,28-5.31m2,110.39c-5.47.59-11,2.35-15.12,6.17s-6,9.61-5.82,15.16c0,5.84,2.28,11.89,7,15.53,5.48,4.36,12.72,5.51,19.53,5.63,6.28-.06,12.72-.11,18.75-2.12a30.11,30.11,0,0,0,11.61-7.36,20.24,20.24,0,0,0,5-9.57c1.87-7.78,1.28-15.85,1.38-23.79H354.73a80.09,80.09,0,0,0-8.76.35Z"/><path id="path8" class="cls-1" d="M641.62,423.57c12.11-12.75,29.85-19.6,47.35-19.2A66.36,66.36,0,0,1,718.86,411c11.89,5.93,21.21,16.4,26.64,28.44,4,8.93,5.61,18.72,6,28.42.27,9.51.14,19,.17,28.55q0,48.81,0,97.63h-46.9V482.88a49.38,49.38,0,0,0-2.21-16.74,28.23,28.23,0,0,0-8.84-13.05,30,30,0,0,0-15.5-6.31A35,35,0,0,0,660,449.4,27.32,27.32,0,0,0,647.25,461c-3.56,6.26-4.59,13.59-4.56,20.7V594q-23.43,0-46.84,0,0-93.78,0-187.57,22.88,0,45.74,0c0,5.72,0,11.43,0,17.15Z"/><path id="path10" class="cls-1" d="M447.28,594q0-93.68,0-187.35,35.61,0,71.21,0c14.36.18,29.06,3.62,41,11.88A63.42,63.42,0,0,1,574.89,434,61.46,61.46,0,0,1,585,458.47c2.62,14.19,1.66,28.66,1.77,43,0,13.37.69,26.87-1.69,40.09a61.74,61.74,0,0,1-10.2,25,63.34,63.34,0,0,1-14.73,15c-12.37,8.83-27.82,12.27-42.82,12.38-23.34.06-46.68,0-70,0m46.06-146.3V552.8h14.44c5.61,0,11.39.35,16.75-1.63,6.26-2.1,11.12-7.35,13.55-13.39,2-5.92,2-12.26,2.36-18.42.23-7,.18-14,.24-21-.15-6.6.06-13.22-.41-19.81a74.73,74.73,0,0,0-1.33-12.75,23,23,0,0,0-8.17-13c-4.86-3.94-11.33-5.19-17.44-5.1q-10,0-20,0Z"/><path id="path13" class="cls-2" d="M257.66,406.82A11.89,11.89,0,1,1,254.77,429a11.78,11.78,0,0,1-6.4-9.21,13,13,0,0,1,.48-5.08A12,12,0,0,1,257.66,406.82Z"/><path id="path16" class="cls-3" d="M257.67,435a11.89,11.89,0,1,1-8.7,7.57A12,12,0,0,1,257.67,435Z"/><path id="path19" class="cls-4" d="M257.67,463.13a11.9,11.9,0,1,1-.93,23,11.91,11.91,0,0,1,.93-23Z"/><path id="path22" class="cls-5" d="M257,491.48a11.88,11.88,0,1,1-8.57,13.18,12.86,12.86,0,0,1,.5-5.52,11.85,11.85,0,0,1,8.07-7.66Z"/></svg>