<svg id="Capa_1" data-name="Capa 1" xmlns="http://www.w3.org/2000/svg" viewBox="0 0 1000 417.78"><defs><style>.cls-1{fill:#284270;}.cls-2{fill:#3d73a1;}.cls-3{fill:#19a850;}.cls-4{fill:#45b068;}.cls-5{fill:#a7d3b2;}.cls-6{fill:#7fc291;}</style></defs><title>BCV</title><path class="cls-1" d="M196.07,294.15h1.7L206,311.93c.64,1.38,1.37,3.19,1.37,3.19h.08s.73-1.81,1.38-3.19l8.24-17.78h1.7L221,322.44H219.3l-1.74-21.59c-.12-1.37-.12-3.75-.12-3.75h-.07s-.81,2.38-1.46,3.75L208.31,317h-1.78L199,300.85c-.6-1.33-1.49-3.83-1.49-3.83h-.08s0,2.46-.12,3.83l-1.74,21.59H193.8Z"/><path class="cls-1" d="M235.1,301.75a10.39,10.39,0,0,1,10.47,10.46,10.47,10.47,0,1,1-20.93,0,10.39,10.39,0,0,1,10.46-10.46m0,19.52a8.79,8.79,0,0,0,8.69-9,8.69,8.69,0,1,0-17.37,0,8.78,8.78,0,0,0,8.68,9"/><path class="cls-1" d="M249.16,302.23h1.7v3.56a8.61,8.61,0,0,1-.16,1.66h.08a9.32,9.32,0,0,1,8.57-5.7c5.26,0,6.67,3.11,6.67,7.88v12.81h-1.7v-12.2c0-3.52-.44-6.83-5-6.83a8.57,8.57,0,0,0-8.16,6.42,10.17,10.17,0,0,0-.32,2.75v9.86h-1.7V302.23Z"/><path class="cls-1" d="M270.67,294.15h2v3h-2Zm.16,8.08h1.69v20.21h-1.69Z"/><path class="cls-1" d="M278.26,303.89h-2.67v-1.53h2.67v-5.74H280v5.74h5.29v1.53H280V315c0,5.34,3.19,6,4.81,6a4.85,4.85,0,0,0,.93-.08v1.58a5.82,5.82,0,0,1-1,.08c-2.1,0-6.42-.77-6.42-7.47V303.89Z"/><path class="cls-1" d="M297.25,301.75a10.4,10.4,0,0,1,10.48,10.46,10.47,10.47,0,1,1-20.94,0,10.39,10.39,0,0,1,10.46-10.46m0,19.52a8.78,8.78,0,0,0,8.69-9,8.69,8.69,0,1,0-17.37,0,8.78,8.78,0,0,0,8.68,9"/><path class="cls-1" d="M311.32,302.23H313v3.84a8.13,8.13,0,0,1-.17,1.66h.08c1-3.11,3.28-5.66,6.47-5.66a6.32,6.32,0,0,1,1.17.12v1.69a6.56,6.56,0,0,0-.93-.08c-3.15,0-5.13,2.67-6,5.66a14.49,14.49,0,0,0-.61,4.24v8.73h-1.69v-20.2Z"/><path class="cls-1" d="M330.88,301.75c5.49,0,8.24,4.32,8.24,9.21,0,.44-.08,1.09-.08,1.09H322.83c0,5.86,4,9.21,8.65,9.21a9.14,9.14,0,0,0,6.26-2.54l.93,1.41a11,11,0,0,1-7.19,2.79,10.16,10.16,0,0,1-10.43-10.55c0-6.82,4.65-10.62,9.83-10.62m6.46,8.72c-.2-4.92-3.15-7.15-6.5-7.15-3.72,0-7.16,2.43-7.88,7.15Z"/><path class="cls-1" d="M351.77,301.75a10.39,10.39,0,0,1,10.47,10.46,10.47,10.47,0,1,1-20.94,0,10.39,10.39,0,0,1,10.47-10.46m0,19.52a8.79,8.79,0,0,0,8.69-9,8.69,8.69,0,1,0-17.38,0,8.79,8.79,0,0,0,8.69,9"/><path class="cls-1" d="M385.88,310.11h1.33v-.69c0-4.48-2.3-6-5.53-6a9.54,9.54,0,0,0-5.79,1.94l-1-1.37a10.57,10.57,0,0,1,6.83-2.22c4.64,0,7.15,2.58,7.15,7.63v13.06h-1.69v-2.67a9.37,9.37,0,0,1,.16-1.82h-.08s-1.82,5-7.08,5c-3.27,0-6.86-1.82-6.86-5.86,0-6.87,8.92-6.95,12.52-6.95m-5.58,11.23c4.4,0,6.91-4.56,6.91-8.56v-1.09h-1.3c-3.43,0-10.78,0-10.78,5.25,0,2.14,1.74,4.4,5.17,4.4"/><path class="cls-1" d="M402.69,294.15h1.7v23.68c0,2.83,1.45,3.15,2.38,3.15a4.83,4.83,0,0,0,.61,0v1.57a3.44,3.44,0,0,1-.73.09c-1.17,0-4-.44-4-4.25Z"/><path class="cls-1" d="M421,310.11h1.34v-.69c0-4.48-2.3-6-5.54-6a9.48,9.48,0,0,0-5.77,1.94l-1-1.37a10.57,10.57,0,0,1,6.83-2.22c4.64,0,7.15,2.58,7.15,7.63v13.06h-1.7v-2.67a8.84,8.84,0,0,1,.17-1.82h-.08s-1.83,5-7.08,5c-3.27,0-6.87-1.82-6.87-5.86,0-6.87,8.93-6.95,12.52-6.95m-5.57,11.23c4.4,0,6.91-4.56,6.91-8.56v-1.09h-1.29c-3.44,0-10.79,0-10.79,5.25,0,2.14,1.73,4.4,5.17,4.4"/><path class="cls-1" d="M447.06,301.75a9.73,9.73,0,0,1,7.23,2.87L453.24,306a8.76,8.76,0,0,0-6.18-2.59c-4.73,0-8.65,3.52-8.65,9a8.52,8.52,0,0,0,8.65,8.89,8.93,8.93,0,0,0,6.75-2.91l.89,1.41a10.31,10.31,0,0,1-7.64,3.16,10.16,10.16,0,0,1-10.43-10.55,10.27,10.27,0,0,1,10.43-10.63"/><path class="cls-1" d="M469.17,310.11h1.33v-.69c0-4.48-2.31-6-5.54-6a9.53,9.53,0,0,0-5.78,1.94l-1-1.37a10.6,10.6,0,0,1,6.83-2.22c4.65,0,7.16,2.58,7.16,7.63v13.06h-1.7v-2.67a9.37,9.37,0,0,1,.16-1.82h-.08s-1.82,5-7.07,5c-3.27,0-6.87-1.82-6.87-5.86,0-6.87,8.93-6.95,12.53-6.95m-5.58,11.23c4.4,0,6.91-4.56,6.91-8.56v-1.09h-1.3c-3.43,0-10.78,0-10.78,5.25,0,2.14,1.74,4.4,5.17,4.4"/><path class="cls-1" d="M476.81,294.15h1.69v23.68c0,2.83,1.46,3.15,2.39,3.15a4.77,4.77,0,0,0,.6,0v1.57a3.41,3.41,0,0,1-.72.09c-1.17,0-4-.44-4-4.25v-24.2Z"/><path class="cls-1" d="M484.12,294.15h2v3h-2Zm.16,8.08H486v20.21h-1.69Z"/><path class="cls-1" d="M498.79,301.75a7.81,7.81,0,0,1,7,4.57h.08a8.79,8.79,0,0,1-.16-1.67v-10.5h1.7v28.29h-1.7v-2.55a6.52,6.52,0,0,1,.16-1.53h-.08a7.74,7.74,0,0,1-7.32,4.57c-5.41,0-8.73-4.33-8.73-10.6s3.76-10.58,9.06-10.58m-.25,19.52c3.72,0,7.2-2.63,7.2-9,0-4.48-2.31-8.89-7-8.89-4,0-7.2,3.28-7.2,8.93,0,5.46,2.91,8.94,7,8.94"/><path class="cls-1" d="M523.35,310.11h1.34v-.69c0-4.48-2.3-6-5.54-6a9.48,9.48,0,0,0-5.77,1.94l-1-1.37a10.57,10.57,0,0,1,6.83-2.22c4.65,0,7.15,2.58,7.15,7.63v13.06H524.7v-2.67a9.37,9.37,0,0,1,.16-1.82h-.08s-1.82,5-7.07,5c-3.28,0-6.87-1.82-6.87-5.86,0-6.87,8.92-6.95,12.51-6.95m-5.57,11.23c4.4,0,6.91-4.56,6.91-8.56v-1.09H523.4c-3.44,0-10.79,0-10.79,5.25,0,2.14,1.73,4.4,5.17,4.4"/><path class="cls-1" d="M538.91,301.75a7.8,7.8,0,0,1,7,4.57H546a8.79,8.79,0,0,1-.16-1.67v-10.5h1.7v28.29h-1.7v-2.55a6.52,6.52,0,0,1,.16-1.53h-.08a7.72,7.72,0,0,1-7.31,4.57c-5.42,0-8.73-4.33-8.73-10.6s3.76-10.58,9-10.58m-.24,19.52c3.72,0,7.19-2.63,7.19-9,0-4.48-2.3-8.89-7-8.89-4,0-7.19,3.28-7.19,8.93,0,5.46,2.91,8.94,7,8.94"/><path class="cls-1" d="M569.51,301.75a7.81,7.81,0,0,1,7,4.57h.08a8.29,8.29,0,0,1-.17-1.67v-10.5h1.7v28.29h-1.7v-2.55a6.16,6.16,0,0,1,.17-1.53h-.08a7.74,7.74,0,0,1-7.32,4.57c-5.41,0-8.73-4.33-8.73-10.6s3.76-10.58,9.06-10.58m-.25,19.52c3.72,0,7.19-2.63,7.19-9,0-4.48-2.3-8.89-7-8.89-4,0-7.19,3.28-7.19,8.93,0,5.46,2.91,8.94,7,8.94"/><path class="cls-1" d="M591.61,301.75c5.49,0,8.24,4.32,8.24,9.21,0,.44-.08,1.09-.08,1.09h-16.2c0,5.86,4,9.21,8.64,9.21a9.18,9.18,0,0,0,6.27-2.54l.93,1.41a11,11,0,0,1-7.2,2.79,10.16,10.16,0,0,1-10.42-10.55c0-6.82,4.65-10.62,9.82-10.62m6.47,8.72c-.2-4.92-3.16-7.15-6.51-7.15-3.72,0-7.15,2.43-7.88,7.15Z"/><path class="cls-1" d="M609.88,302.23h1.81l6.23,15.84c.37,1,.69,2.19.69,2.19h.08s.32-1.21.69-2.19l6.22-15.84h1.78l-7.92,20.21h-1.61Z"/><path class="cls-1" d="M629.48,294.15h2v3h-2Zm.16,8.08h1.69v20.21h-1.69Z"/><path class="cls-1" d="M644.14,301.75a7.81,7.81,0,0,1,7,4.57h.08a8.79,8.79,0,0,1-.16-1.67v-10.5h1.7v28.29h-1.7v-2.55a6.52,6.52,0,0,1,.16-1.53h-.08a7.73,7.73,0,0,1-7.31,4.57c-5.42,0-8.73-4.33-8.73-10.6s3.76-10.58,9-10.58m-.24,19.52c3.72,0,7.19-2.63,7.19-9,0-4.48-2.3-8.89-7-8.89-4,0-7.19,3.28-7.19,8.93,0,5.46,2.91,8.94,7,8.94"/><path class="cls-1" d="M668.71,310.11H670v-.69c0-4.48-2.3-6-5.53-6a9.49,9.49,0,0,0-5.78,1.94l-1-1.37a10.58,10.58,0,0,1,6.84-2.22c4.64,0,7.15,2.58,7.15,7.63v13.06h-1.7v-2.67a9.37,9.37,0,0,1,.16-1.82h-.08s-1.82,5-7.08,5c-3.27,0-6.87-1.82-6.87-5.86,0-6.87,8.94-6.95,12.53-6.95m-5.57,11.23c4.4,0,6.91-4.56,6.91-8.56v-1.09h-1.3c-3.43,0-10.79,0-10.79,5.25,0,2.14,1.74,4.4,5.18,4.4"/><path class="cls-1" d="M685.44,302.23h1.7v12.2c0,3.52.44,6.83,5,6.83,5,0,8.29-4.44,8.29-9.17v-9.86h1.69v20.2H700.4v-3.55a8.48,8.48,0,0,1,.16-1.66h-.08a9.2,9.2,0,0,1-8.37,5.69c-5,0-6.67-2.74-6.67-7.88Z"/><path class="cls-1" d="M707.18,302.23h1.7v3.84a8.61,8.61,0,0,1-.16,1.66h.08c1-3.11,3.28-5.66,6.47-5.66a6.32,6.32,0,0,1,1.17.12v1.69a6.76,6.76,0,0,0-.93-.08c-3.15,0-5.13,2.67-6,5.66a14.47,14.47,0,0,0-.6,4.24v8.73h-1.7v-20.2Z"/><path class="cls-1" d="M718.82,294.15h1.7v10.5a8.79,8.79,0,0,1-.16,1.67h.08a7.72,7.72,0,0,1,7.31-4.57c5.41,0,8.73,4.32,8.73,10.58,0,6.43-3.76,10.6-9.05,10.6a7.81,7.81,0,0,1-7-4.57h-.08a9.17,9.17,0,0,1,.16,1.78v2.3h-1.7Zm8.69,27.12c4,0,7.19-3.28,7.19-8.94,0-5.45-2.9-8.93-7-8.93-3.72,0-7.19,2.63-7.19,9,0,4.48,2.3,8.89,7,8.89"/><path class="cls-1" d="M751.08,310.11h1.33v-.69c0-4.48-2.31-6-5.54-6a9.49,9.49,0,0,0-5.78,1.94l-1-1.37a10.58,10.58,0,0,1,6.84-2.22c4.64,0,7.15,2.58,7.15,7.63v13.06h-1.7v-2.67a9.37,9.37,0,0,1,.16-1.82h-.08s-1.82,5-7.08,5c-3.26,0-6.87-1.82-6.87-5.86,0-6.87,8.93-6.95,12.54-6.95m-5.59,11.23c4.41,0,6.92-4.56,6.92-8.56v-1.09h-1.3c-3.44,0-10.79,0-10.79,5.25,0,2.14,1.74,4.4,5.17,4.4"/><path class="cls-1" d="M758.91,302.23h1.7v3.56a8.61,8.61,0,0,1-.16,1.66h.08a9.3,9.3,0,0,1,8.57-5.7c5.25,0,6.67,3.11,6.67,7.88v12.81h-1.7v-12.2c0-3.52-.45-6.83-5-6.83a8.56,8.56,0,0,0-8.16,6.42,9.78,9.78,0,0,0-.33,2.75v9.86h-1.69V302.23Z"/><path class="cls-1" d="M791.44,310.11h1.33v-.69c0-4.48-2.3-6-5.53-6a9.49,9.49,0,0,0-5.78,1.94l-1-1.37a10.6,10.6,0,0,1,6.83-2.22c4.65,0,7.15,2.58,7.15,7.63v13.06h-1.69v-2.67a9.37,9.37,0,0,1,.16-1.82h-.09s-1.81,5-7.07,5c-3.27,0-6.87-1.82-6.87-5.86,0-6.87,8.94-6.95,12.53-6.95m-5.58,11.23c4.41,0,6.92-4.56,6.92-8.56v-1.09h-1.3c-3.43,0-10.79,0-10.79,5.25,0,2.14,1.74,4.4,5.17,4.4"/><rect class="cls-1" x="799.28" y="319.89" width="2.47" height="2.55"/><path class="cls-1" d="M245.67,236.6a21.19,21.19,0,0,0-13.46-4.92c-9.24,0-15.48,7.09-15.48,16.09,0,11,7.8,16.81,16.32,16.81,5.88,0,10.09-1.68,15.36-6.49l-.6,15.87a32.12,32.12,0,0,1-18.12,4.92c-19,0-31-13.22-31-29,0-18.05,13-32.24,32.08-32.24a33.2,33.2,0,0,1,18.16,5.2Z"/><path class="cls-1" d="M282.29,278.87c-17.63,0-29.05-13.09-29.05-29.17,0-18.39,12.26-32.11,30.63-32.11,17.89,0,29.2,13.12,29.2,29.22,0,18.38-12.13,32.06-30.78,32.06m1.1-47.77c-7.57,0-12.49,6.34-12.49,16.67,0,12.38,4.91,17.66,12,17.66,7.81,0,12.49-6.24,12.49-16.83,0-12.49-5.25-17.5-12-17.5m24-39.67L287.6,210.64l-13,.62,10.21-18.77Z"/><path class="cls-1" d="M390.33,276.74c.61-5.17.74-13.47.74-20.44V243c0-7-1.47-11-7.1-11a11.14,11.14,0,0,0-11.18,11.19v21.24c0,4.18.13,9.25.47,12.38H353.81c.61-5.17.71-13.47.71-20.44V243c0-7-1.2-11-6.82-11a11.25,11.25,0,0,0-11.31,11.19v21.24c0,4.18.12,9.25.49,12.38H317.54c.47-5.17.73-13.47.73-20.44V239.72c0-7-.26-14.63-.73-19.82,4.2,0,14.3-1.19,17.89-1.53l.84,10.78c4.8-7.21,12.27-11.57,19.23-11.57,9.24,0,14.53,4.74,16.35,12,4.29-7.19,11.87-12,19.92-12,12,0,17.54,7.72,17.54,20.47v26.31a118.28,118.28,0,0,0,.49,12.38Z"/><path class="cls-1" d="M443.34,278.88c-17.68,0-29.09-13.08-29.09-29.18,0-18.4,12.24-32.12,30.65-32.12,17.87,0,29.18,13.13,29.18,29.23,0,18.39-12.14,32.07-30.74,32.07m1.08-47.79c-7.56,0-12.5,6.35-12.5,16.69,0,12.36,4.94,17.65,12,17.65,7.78,0,12.48-6.24,12.48-16.82,0-12.49-5.28-17.52-12-17.52"/><path class="cls-2" d="M490.1,257.62l-6.71-15.48c-3-7.11-7.23-16.94-10-22.12,1.9,0,17.17-1.2,18.73-1.4L505.6,255l5.4-16.21c1.67-5.06,5.06-14.53,6.59-19.47,6.76,0,12.75,0,18.29-.48L512.07,277l-13.81.71c-2.05-5.64-5-12.83-8.16-20.06"/><path class="cls-2" d="M535,262.19c0-11.52,9.83-19.22,29.55-19.22,1.31,0,2.88.15,4.45.24l.1-1.68c.24-6.36-2.53-9.6-9.84-9.6a34.88,34.88,0,0,0-17.41,5.27l-2.53-13.32a48.9,48.9,0,0,1,23.54-6.28c16.57,0,24.05,8.06,23.67,23.09l-.6,21c-.13,3.35,1,4.46,3.47,4.46a10.07,10.07,0,0,0,3.6-.74l-.84,10.82a27.74,27.74,0,0,1-9.71,1.91c-6,0-11-2.64-12.39-9.38-3.23,5.67-10.22,9.5-17.53,9.5-10.68,0-17.53-6.13-17.53-16.1m33.75-5.43.11-5.39c-1.3-.09-2.51-.24-3.83-.24-9.63,0-13.32,3.85-13.32,8.91,0,4.07,2.5,7.08,7.3,7.08,5.41,0,9.51-3.84,9.74-10.36"/><path class="cls-2" d="M671.14,276.74a203.17,203.17,0,0,0,.73-20.44V243c0-7-1.45-11-7.1-11a11.15,11.15,0,0,0-11.17,11.19v21.24c0,4.18.12,9.25.48,12.38H634.63c.6-5.17.72-13.47.72-20.44V243c0-7-1.2-11-6.85-11a11.24,11.24,0,0,0-11.29,11.19v21.24c0,4.18.14,9.25.47,12.38H598.35c.45-5.17.72-13.47.72-20.44V239.72c0-7-.27-14.63-.72-19.82,4.23,0,14.3-1.19,17.89-1.53l.85,10.78c4.81-7.21,12.24-11.57,19.23-11.57,9.25,0,14.52,4.74,16.32,12,4.34-7.19,11.91-12,20-12,12,0,17.54,7.72,17.54,20.47v26.31a118.28,118.28,0,0,0,.49,12.38Z"/><path class="cls-2" d="M724.14,278.88c-17.66,0-29.07-13.08-29.07-29.18,0-18.4,12.24-32.12,30.62-32.12,17.93,0,29.2,13.13,29.2,29.23,0,18.39-12.12,32.07-30.75,32.07m1.07-47.79c-7.56,0-12.47,6.35-12.47,16.69,0,12.36,4.91,17.65,12,17.65,7.8,0,12.48-6.24,12.48-16.82,0-12.49-5.28-17.52-12-17.52"/><path class="cls-2" d="M803.67,221.59l-3.95,12.86a27.45,27.45,0,0,0-14.06-4.2c-4.81,0-7.8,1.68-7.8,5.15,0,7.33,28.34,5.79,28.34,24,0,12.52-10.46,19.45-24.73,19.45C775,278.88,765,277,760,274.07l.59-14.4c5.29,3.24,13.59,6.51,20.67,6.51,5.17,0,8.17-1.93,8.17-5.06,0-8.4-28.11-6.14-28.11-25,0-10.33,8.75-18.52,23.06-18.52,7.56,0,14.89,1.81,19.33,4"/><path class="cls-3" d="M795.86,94.85h-4.28a6.94,6.94,0,0,0-6.93,6.92v71h18.11v-71a6.91,6.91,0,0,0-6.89-6.92"/><path class="cls-4" d="M773,125.12a6.94,6.94,0,0,0-7-6.93h-4.26a6.92,6.92,0,0,0-6.91,6.93v47.62H773Z"/><path class="cls-5" d="M743.13,151.32a6.91,6.91,0,0,0-6.93-6.9H732a6.93,6.93,0,0,0-6.93,6.9v21.42h18.12V151.32Z"/><path class="cls-6" d="M713.32,138.73a6.93,6.93,0,0,0-6.93-6.93h-4.24a7,7,0,0,0-6.95,6.93v34h18.12v-34Z"/><path class="cls-1" d="M203.58,148.47h12.63c6.37,0,10.9,3.29,10.9,9.11a8.34,8.34,0,0,1-4.28,7.55v.11c3.88,1.14,5.72,4.72,5.72,8.3,0,7.06-5.67,10.25-12.19,10.25H203.58Zm12.63,14.43a4.22,4.22,0,0,0,4.38-4.53c0-2.54-1.49-4.38-4.47-4.38H210v8.91Zm.65,15.37a5.1,5.1,0,1,0,0-10.2H210v10.2Z"/><path class="cls-1" d="M250.58,174.73H238.2l-3,9.06H228.6L241,148.47h6.72l12.44,35.32h-6.62Zm-6.21-20.14s-.8,3.49-1.5,5.47l-3.13,9.45H249l-3.13-9.45c-.65-2-1.4-5.47-1.4-5.47Z"/><path class="cls-1" d="M262.22,148.47h11.39c3.83,0,5.57.3,7.11,1,3.53,1.59,5.77,5,5.77,9.65,0,4.23-2.24,8.15-6,9.65v.09a9,9,0,0,1,1.19,1.75L289,183.79h-7.16l-7-13.18h-6.17v13.18h-6.42V148.47ZM274.41,165c3.43,0,5.57-2,5.57-5.57s-1.44-5.48-6.47-5.48h-4.87v11Z"/><path class="cls-1" d="M292.46,148.47h11.39c3.83,0,5.58.3,7.12,1,3.53,1.59,5.77,5,5.77,9.65,0,4.23-2.24,8.15-6,9.65v.09a9,9,0,0,1,1.19,1.75l7.26,13.18h-7.16l-7-13.18h-6.16v13.18h-6.42ZM304.64,165c3.43,0,5.58-2,5.58-5.57s-1.45-5.48-6.47-5.48h-4.87v11Z"/><path class="cls-1" d="M340.26,174.73H327.87l-3,9.06h-6.62l12.44-35.32h6.71l12.44,35.32h-6.62ZM334,154.59s-.79,3.49-1.49,5.47l-3.14,9.45h9.25l-3.13-9.45c-.65-2-1.39-5.47-1.39-5.47Z"/><path class="cls-1" d="M351.89,148.47h6.42l13.38,20.39a54.8,54.8,0,0,1,2.94,5.47h.09s-.34-3.38-.34-5.47V148.47h6.36v35.32h-6.36L361,163.44a51.83,51.83,0,0,1-2.94-5.46H358s.35,3.38.35,5.46v20.35H351.9V148.47Z"/><path class="cls-1" d="M403,147.88a17.85,17.85,0,0,1,18.3,18.05,18.43,18.43,0,0,1-3.88,11.19l4,3.59-3.68,4.07-3.93-3.87A17.61,17.61,0,0,1,403,184.39a18.09,18.09,0,0,1-18.21-18.46A17.84,17.84,0,0,1,403,147.88m0,30.64a11.49,11.49,0,0,0,6.17-1.85L405.21,173l3.69-4,3.83,3.84a13.17,13.17,0,0,0,1.93-6.82c0-7-5.12-12.18-11.68-12.18s-11.59,5.17-11.59,12.18c0,7.21,5.12,12.59,11.59,12.59"/><path class="cls-1" d="M425.31,148.47h6.41V171.1c0,4.73,3.08,7.41,7.81,7.41s7.86-2.69,7.86-7.46V148.47h6.42V171.1c0,7.91-5.72,13.28-14.23,13.28S425.31,179,425.31,171.1Z"/><rect class="cls-1" x="459.77" y="148.47" width="6.41" height="35.32"/><polygon class="cls-1" points="472.65 148.47 479.07 148.47 479.07 178.27 494.35 178.27 494.35 183.79 472.65 183.79 472.65 148.47"/><polygon class="cls-1" points="496.98 148.47 503.39 148.47 503.39 178.27 518.66 178.27 518.66 183.79 496.98 183.79 496.98 148.47"/><path class="cls-1" d="M540,174.73H527.62l-3,9.06H518l12.44-35.32h6.72l12.43,35.32H543Zm-6.22-20.14s-.79,3.49-1.49,5.47l-3.13,9.45h9.25l-3.13-9.45c-.65-2-1.4-5.47-1.4-5.47Z"/></svg>