<svg id="Capa_1" data-name="Capa 1" xmlns="http://www.w3.org/2000/svg" viewBox="0 0 1000 417.78"><defs><style>.cls-1{fill:#284270;}.cls-2{fill:#3d73a1;}.cls-3{fill:#19a850;}.cls-4{fill:#45b068;}.cls-5{fill:#a7d3b2;}.cls-6{fill:#7fc291;}</style></defs><title>paquete</title><path class="cls-1" d="M238.08,274.41h1.7L248,292.2c.65,1.37,1.37,3.19,1.37,3.19h.08s.73-1.82,1.38-3.19l8.24-17.79h1.7l2.26,28.3h-1.74l-1.74-21.59c-.12-1.37-.12-3.76-.12-3.76h-.07s-.81,2.38-1.46,3.76l-7.6,16.13h-1.78L241,281.12c-.61-1.33-1.5-3.84-1.5-3.84h-.08s0,2.47-.12,3.84l-1.74,21.59h-1.74Z"/><path class="cls-1" d="M277.12,282a10.39,10.39,0,0,1,10.46,10.47,10.47,10.47,0,1,1-20.93,0A10.39,10.39,0,0,1,277.12,282m0,19.53a8.79,8.79,0,0,0,8.68-9.06,8.69,8.69,0,1,0-17.37,0,8.79,8.79,0,0,0,8.69,9.06"/><path class="cls-1" d="M291.18,282.5h1.7v3.55a8.29,8.29,0,0,1-.17,1.67h.09a9.29,9.29,0,0,1,8.56-5.7c5.26,0,6.67,3.11,6.67,7.88v12.81h-1.7v-12.2c0-3.52-.44-6.84-5-6.84a8.56,8.56,0,0,0-8.16,6.43,10.17,10.17,0,0,0-.32,2.75v9.86h-1.7V282.5Z"/><path class="cls-1" d="M312.68,274.41h2v2.95h-2Zm.16,8.09h1.69v20.21h-1.69Z"/><path class="cls-1" d="M320.27,284.15h-2.66v-1.53h2.66v-5.74H322v5.74h5.29v1.53H322v11.12c0,5.34,3.19,6,4.81,6a4.85,4.85,0,0,0,.93-.08v1.58a5.68,5.68,0,0,1-1,.08c-2.1,0-6.42-.77-6.42-7.47V284.15Z"/><path class="cls-1" d="M339.27,282a10.4,10.4,0,0,1,10.47,10.47,10.47,10.47,0,1,1-20.94,0A10.39,10.39,0,0,1,339.27,282m0,19.53a8.79,8.79,0,0,0,8.68-9.06,8.69,8.69,0,1,0-17.37,0,8.79,8.79,0,0,0,8.69,9.06"/><path class="cls-1" d="M353.33,282.5H355v3.83a8.29,8.29,0,0,1-.17,1.67h.08c1-3.12,3.28-5.66,6.47-5.66a6.87,6.87,0,0,1,1.17.11v1.7a6.56,6.56,0,0,0-.93-.08c-3.15,0-5.13,2.67-6,5.66A14.45,14.45,0,0,0,355,294v8.73h-1.69V282.5Z"/><path class="cls-1" d="M372.89,282c5.49,0,8.24,4.32,8.24,9.21,0,.45-.08,1.1-.08,1.1H364.84c0,5.86,4,9.21,8.65,9.21a9.14,9.14,0,0,0,6.26-2.54l.93,1.41a11,11,0,0,1-7.19,2.79,10.16,10.16,0,0,1-10.43-10.55c0-6.83,4.66-10.63,9.83-10.63m6.46,8.73c-.2-4.93-3.15-7.15-6.5-7.15-3.72,0-7.15,2.42-7.88,7.15Z"/><path class="cls-1" d="M393.78,282a10.4,10.4,0,0,1,10.47,10.47,10.47,10.47,0,1,1-20.93,0A10.39,10.39,0,0,1,393.78,282m0,19.53a8.79,8.79,0,0,0,8.69-9.06,8.69,8.69,0,1,0-17.38,0,8.79,8.79,0,0,0,8.69,9.06"/><path class="cls-1" d="M427.89,290.37h1.33v-.68c0-4.48-2.3-6-5.53-6a9.49,9.49,0,0,0-5.78,1.94l-1-1.38a10.57,10.57,0,0,1,6.83-2.22c4.64,0,7.15,2.59,7.15,7.64v13.06h-1.69V300a9.24,9.24,0,0,1,.16-1.82h-.08s-1.82,5-7.07,5c-3.27,0-6.87-1.82-6.87-5.86,0-6.87,8.92-7,12.52-7m-5.58,11.24c4.4,0,6.91-4.56,6.91-8.57V292h-1.29c-3.44,0-10.79,0-10.79,5.26,0,2.14,1.74,4.4,5.17,4.4"/><path class="cls-1" d="M444.7,274.41h1.7V298.1c0,2.83,1.45,3.15,2.38,3.15a3.89,3.89,0,0,0,.61-.05v1.58a3.44,3.44,0,0,1-.73.09c-1.17,0-4-.45-4-4.25Z"/><path class="cls-1" d="M463.05,290.37h1.33v-.68c0-4.48-2.3-6-5.53-6a9.49,9.49,0,0,0-5.78,1.94l-1-1.38a10.57,10.57,0,0,1,6.83-2.22c4.65,0,7.15,2.59,7.15,7.64v13.06h-1.7V300a8.72,8.72,0,0,1,.17-1.82h-.08s-1.82,5-7.08,5c-3.27,0-6.86-1.82-6.86-5.86,0-6.87,8.92-7,12.52-7m-5.58,11.24c4.41,0,6.91-4.56,6.91-8.57V292h-1.29c-3.44,0-10.79,0-10.79,5.26,0,2.14,1.74,4.4,5.17,4.4"/><path class="cls-1" d="M489.07,282a9.77,9.77,0,0,1,7.24,2.87l-1.06,1.38a8.76,8.76,0,0,0-6.18-2.59c-4.73,0-8.65,3.51-8.65,9a8.52,8.52,0,0,0,8.65,8.9,8.92,8.92,0,0,0,6.75-2.92l.89,1.42a10.32,10.32,0,0,1-7.64,3.15,10.16,10.16,0,0,1-10.43-10.55A10.27,10.27,0,0,1,489.07,282"/><path class="cls-1" d="M511.18,290.37h1.33v-.68c0-4.48-2.3-6-5.54-6a9.53,9.53,0,0,0-5.78,1.94l-1-1.38a10.6,10.6,0,0,1,6.83-2.22c4.65,0,7.16,2.59,7.16,7.64v13.06h-1.7V300a9.24,9.24,0,0,1,.16-1.82h-.08s-1.82,5-7.07,5c-3.27,0-6.87-1.82-6.87-5.86,0-6.87,8.93-7,12.53-7m-5.58,11.24c4.4,0,6.91-4.56,6.91-8.57V292h-1.29c-3.44,0-10.79,0-10.79,5.26,0,2.14,1.74,4.4,5.17,4.4"/><path class="cls-1" d="M518.82,274.41h1.69V298.1c0,2.83,1.46,3.15,2.39,3.15a3.84,3.84,0,0,0,.6-.05v1.58a3.41,3.41,0,0,1-.72.09c-1.17,0-4-.45-4-4.25V274.41Z"/><path class="cls-1" d="M526.13,274.41h2v2.95h-2Zm.16,8.09H528v20.21h-1.69Z"/><path class="cls-1" d="M540.8,282a7.81,7.81,0,0,1,7,4.57h.08a8.61,8.61,0,0,1-.16-1.66V274.41h1.7v28.3h-1.7v-2.55a6.67,6.67,0,0,1,.16-1.54h-.08a7.74,7.74,0,0,1-7.32,4.57c-5.41,0-8.73-4.32-8.73-10.59,0-6.43,3.76-10.59,9.06-10.59m-.25,19.53c3.72,0,7.2-2.63,7.2-9,0-4.48-2.31-8.89-7-8.89-4,0-7.2,3.27-7.2,8.93,0,5.46,2.91,8.94,7,8.94"/><path class="cls-1" d="M565.37,290.37h1.33v-.68c0-4.48-2.3-6-5.53-6a9.49,9.49,0,0,0-5.78,1.94l-1-1.38a10.57,10.57,0,0,1,6.83-2.22c4.65,0,7.15,2.59,7.15,7.64v13.06h-1.69V300a9.24,9.24,0,0,1,.16-1.82h-.08s-1.82,5-7.07,5c-3.28,0-6.87-1.82-6.87-5.86,0-6.87,8.92-7,12.52-7m-5.58,11.24c4.4,0,6.91-4.56,6.91-8.57V292h-1.29c-3.44,0-10.79,0-10.79,5.26,0,2.14,1.74,4.4,5.17,4.4"/><path class="cls-1" d="M580.92,282a7.82,7.82,0,0,1,7,4.57H588a8.13,8.13,0,0,1-.17-1.66V274.41h1.7v28.3h-1.7v-2.55a6.3,6.3,0,0,1,.17-1.54h-.08a7.74,7.74,0,0,1-7.32,4.57c-5.42,0-8.73-4.32-8.73-10.59,0-6.43,3.76-10.59,9-10.59m-.24,19.53c3.72,0,7.19-2.63,7.19-9,0-4.48-2.3-8.89-7-8.89-4,0-7.19,3.27-7.19,8.93,0,5.46,2.91,8.94,7,8.94"/><path class="cls-1" d="M611.52,282a7.81,7.81,0,0,1,7,4.57h.08a8.13,8.13,0,0,1-.17-1.66V274.41h1.7v28.3h-1.7v-2.55a6.3,6.3,0,0,1,.17-1.54h-.08a7.74,7.74,0,0,1-7.32,4.57c-5.41,0-8.73-4.32-8.73-10.59,0-6.43,3.76-10.59,9.06-10.59m-.25,19.53c3.72,0,7.19-2.63,7.19-9,0-4.48-2.3-8.89-7-8.89-4,0-7.19,3.27-7.19,8.93,0,5.46,2.91,8.94,7,8.94"/><path class="cls-1" d="M633.62,282c5.5,0,8.24,4.32,8.24,9.21,0,.45-.08,1.1-.08,1.1h-16.2c0,5.86,4,9.21,8.65,9.21a9.17,9.17,0,0,0,6.26-2.54l.93,1.41a11,11,0,0,1-7.19,2.79,10.16,10.16,0,0,1-10.43-10.55c0-6.83,4.65-10.63,9.82-10.63m6.47,8.73c-.2-4.93-3.15-7.15-6.5-7.15-3.72,0-7.16,2.42-7.89,7.15Z"/><path class="cls-1" d="M651.89,282.5h1.82l6.22,15.84c.37,1,.69,2.19.69,2.19h.08s.32-1.22.69-2.19l6.23-15.84h1.78l-7.93,20.21h-1.61Z"/><path class="cls-1" d="M671.49,274.41h2v2.95h-2Zm.16,8.09h1.69v20.21h-1.69Z"/><path class="cls-1" d="M686.15,282a7.8,7.8,0,0,1,7,4.57h.08a8.61,8.61,0,0,1-.16-1.66V274.41h1.7v28.3h-1.7v-2.55a6.67,6.67,0,0,1,.16-1.54h-.08a7.72,7.72,0,0,1-7.31,4.57c-5.42,0-8.73-4.32-8.73-10.59,0-6.43,3.76-10.59,9-10.59m-.24,19.53c3.72,0,7.2-2.63,7.2-9,0-4.48-2.31-8.89-7-8.89-4,0-7.19,3.27-7.19,8.93,0,5.46,2.91,8.94,7,8.94"/><path class="cls-1" d="M710.72,290.37h1.33v-.68c0-4.48-2.3-6-5.53-6a9.49,9.49,0,0,0-5.78,1.94l-1-1.38a10.61,10.61,0,0,1,6.84-2.22c4.64,0,7.15,2.59,7.15,7.64v13.06h-1.7V300a9.24,9.24,0,0,1,.16-1.82h-.08s-1.82,5-7.08,5c-3.27,0-6.87-1.82-6.87-5.86,0-6.87,8.94-7,12.53-7m-5.57,11.24c4.4,0,6.91-4.56,6.91-8.57V292h-1.3c-3.43,0-10.79,0-10.79,5.26,0,2.14,1.74,4.4,5.18,4.4"/><path class="cls-1" d="M727.46,282.5h1.69v12.2c0,3.52.44,6.83,5,6.83,5,0,8.29-4.45,8.29-9.18v-9.86h1.69V302.7h-1.69v-3.55a8.66,8.66,0,0,1,.16-1.67h-.08a9.19,9.19,0,0,1-8.37,5.7c-5,0-6.66-2.75-6.66-7.88Z"/><path class="cls-1" d="M749.19,282.5h1.7v3.83a8.79,8.79,0,0,1-.16,1.67h.08c1-3.12,3.28-5.66,6.47-5.66a6.87,6.87,0,0,1,1.17.11v1.7a6.76,6.76,0,0,0-.93-.08c-3.15,0-5.13,2.67-6,5.66a14.43,14.43,0,0,0-.6,4.24v8.73h-1.7V282.5Z"/><path class="cls-1" d="M760.83,274.41h1.7v10.51a8.61,8.61,0,0,1-.16,1.66h.08a7.72,7.72,0,0,1,7.31-4.57c5.42,0,8.73,4.32,8.73,10.59,0,6.43-3.76,10.59-9,10.59a7.81,7.81,0,0,1-7-4.57h-.08a9.3,9.3,0,0,1,.16,1.78v2.31h-1.7Zm8.69,27.13c4,0,7.2-3.28,7.2-8.94,0-5.45-2.91-8.93-7-8.93-3.72,0-7.19,2.63-7.19,9,0,4.49,2.3,8.9,7,8.9"/><path class="cls-1" d="M793.09,290.37h1.33v-.68c0-4.48-2.31-6-5.54-6a9.49,9.49,0,0,0-5.78,1.94l-1-1.38A10.57,10.57,0,0,1,789,282c4.64,0,7.15,2.59,7.15,7.64v13.06h-1.7V300a9.24,9.24,0,0,1,.16-1.82h-.08s-1.82,5-7.07,5c-3.27,0-6.88-1.82-6.88-5.86,0-6.87,8.93-7,12.54-7m-5.58,11.24c4.4,0,6.91-4.56,6.91-8.57V292h-1.3c-3.43,0-10.79,0-10.79,5.26,0,2.14,1.74,4.4,5.18,4.4"/><path class="cls-1" d="M800.92,282.5h1.7v3.55a8.79,8.79,0,0,1-.16,1.67h.08a9.3,9.3,0,0,1,8.57-5.7c5.25,0,6.67,3.11,6.67,7.88v12.81h-1.7v-12.2c0-3.52-.44-6.84-5-6.84A8.56,8.56,0,0,0,803,290.1a9.78,9.78,0,0,0-.33,2.75v9.86h-1.69V282.5Z"/><path class="cls-1" d="M833.45,290.37h1.33v-.68c0-4.48-2.3-6-5.53-6a9.49,9.49,0,0,0-5.78,1.94l-1-1.38a10.6,10.6,0,0,1,6.83-2.22c4.65,0,7.15,2.59,7.15,7.64v13.06h-1.69V300a9.24,9.24,0,0,1,.16-1.82h-.09a7.74,7.74,0,0,1-7.07,5c-3.27,0-6.86-1.82-6.86-5.86,0-6.87,8.93-7,12.52-7m-5.58,11.24c4.41,0,6.92-4.56,6.92-8.57V292h-1.3c-3.43,0-10.78,0-10.78,5.26,0,2.14,1.73,4.4,5.16,4.4"/><rect class="cls-1" x="841.29" y="300.16" width="2.47" height="2.55"/><path class="cls-1" d="M287.68,216.87A21.11,21.11,0,0,0,274.22,212C265,212,258.74,219,258.74,228c0,11.05,7.8,16.8,16.33,16.8,5.88,0,10.08-1.67,15.35-6.48l-.6,15.87a32.12,32.12,0,0,1-18.12,4.92c-19,0-31-13.23-31-29.06,0-18,13-32.23,32.07-32.23a33.2,33.2,0,0,1,18.16,5.2Z"/><path class="cls-1" d="M324.3,259.14c-17.63,0-29.05-13.09-29.05-29.18,0-18.38,12.26-32.1,30.63-32.1,17.89,0,29.2,13.12,29.2,29.22,0,18.38-12.13,32.06-30.78,32.06m1.1-47.77c-7.57,0-12.49,6.34-12.49,16.67,0,12.38,4.91,17.66,12,17.66,7.8,0,12.49-6.24,12.49-16.84,0-12.48-5.26-17.49-12-17.49m24-39.67-19.82,19.2-13,.63,10.21-18.78Z"/><path class="cls-1" d="M432.34,257c.61-5.18.74-13.47.74-20.44V223.24c0-7-1.47-11.05-7.1-11.05a11.14,11.14,0,0,0-11.18,11.19v21.24c0,4.18.13,9.25.47,12.39H395.82c.61-5.18.71-13.47.71-20.44V223.24c0-7-1.2-11.05-6.82-11.05a11.26,11.26,0,0,0-11.31,11.19v21.24c0,4.18.12,9.25.49,12.39H359.56c.46-5.18.72-13.47.72-20.44V220c0-7-.26-14.63-.72-19.83,4.19,0,14.29-1.18,17.88-1.53l.84,10.79c4.8-7.21,12.27-11.57,19.23-11.57,9.24,0,14.53,4.74,16.35,12,4.29-7.2,11.87-12,19.92-12,12,0,17.54,7.72,17.54,20.46v26.32a121.08,121.08,0,0,0,.49,12.38Z"/><path class="cls-1" d="M485.35,259.15c-17.68,0-29.08-13.08-29.08-29.19,0-18.4,12.23-32.11,30.64-32.11,17.88,0,29.18,13.13,29.18,29.23,0,18.39-12.14,32.07-30.74,32.07m1.08-47.79c-7.56,0-12.5,6.35-12.5,16.68,0,12.37,4.94,17.66,12,17.66,7.78,0,12.49-6.24,12.49-16.82,0-12.49-5.29-17.52-12-17.52"/><path class="cls-2" d="M532.11,237.89l-6.71-15.48c-3-7.11-7.23-16.94-10-22.12,1.9,0,17.17-1.21,18.73-1.41l13.47,36.37L553,219c1.68-5.06,5.06-14.53,6.59-19.47,6.76,0,12.75,0,18.29-.48l-23.81,58.14-13.81.72c-2-5.65-5-12.84-8.16-20.06"/><path class="cls-2" d="M577.05,242.45c0-11.51,9.83-19.21,29.55-19.21,1.31,0,2.88.14,4.45.24l.1-1.68c.24-6.37-2.52-9.6-9.84-9.6a34.78,34.78,0,0,0-17.41,5.27l-2.52-13.32a48.83,48.83,0,0,1,23.53-6.29c16.57,0,24.05,8.07,23.67,23.1l-.6,21c-.13,3.35,1,4.46,3.47,4.46a10.07,10.07,0,0,0,3.6-.74l-.84,10.81a27.52,27.52,0,0,1-9.71,1.92c-6,0-11-2.65-12.39-9.38-3.23,5.66-10.21,9.49-17.52,9.49-10.69,0-17.54-6.12-17.54-16.1M610.81,237l.1-5.39c-1.3-.1-2.5-.24-3.83-.24-9.63,0-13.32,3.84-13.32,8.91,0,4.07,2.5,7.08,7.3,7.08,5.41,0,9.51-3.84,9.75-10.36"/><path class="cls-2" d="M713.15,257a203.29,203.29,0,0,0,.73-20.44V223.24c0-7-1.45-11.05-7.1-11.05a11.16,11.16,0,0,0-11.17,11.19v21.24c0,4.18.12,9.25.48,12.39H676.64c.6-5.18.72-13.47.72-20.44V223.24c0-7-1.2-11.05-6.85-11.05a11.25,11.25,0,0,0-11.29,11.19v21.24c0,4.18.14,9.25.47,12.39H640.36c.46-5.18.72-13.47.72-20.44V220c0-7-.26-14.63-.72-19.83,4.23,0,14.31-1.18,17.89-1.53l.85,10.79c4.81-7.21,12.24-11.57,19.23-11.57,9.25,0,14.52,4.74,16.32,12,4.34-7.2,11.91-12,20-12,12,0,17.54,7.72,17.54,20.46v26.32a118.28,118.28,0,0,0,.49,12.38Z"/><path class="cls-2" d="M766.15,259.15c-17.66,0-29.07-13.08-29.07-29.19,0-18.4,12.24-32.11,30.63-32.11,17.92,0,29.19,13.13,29.19,29.23,0,18.39-12.12,32.07-30.75,32.07m1.07-47.79c-7.56,0-12.47,6.35-12.47,16.68,0,12.37,4.91,17.66,12,17.66,7.8,0,12.48-6.24,12.48-16.82,0-12.49-5.28-17.52-12-17.52"/><path class="cls-2" d="M845.68,201.86l-3.95,12.86a27.34,27.34,0,0,0-14.05-4.2c-4.82,0-7.81,1.67-7.81,5.15,0,7.32,28.34,5.79,28.34,24,0,12.52-10.46,19.45-24.73,19.45-6.49,0-16.48-1.9-21.51-4.81l.59-14.39c5.29,3.24,13.59,6.51,20.67,6.51,5.17,0,8.17-1.93,8.17-5.07,0-8.4-28.11-6.13-28.11-25,0-10.33,8.76-18.53,23.06-18.53,7.56,0,14.89,1.82,19.33,4"/><path class="cls-3" d="M837.87,75.12h-4.28A6.93,6.93,0,0,0,826.67,82l0,71h18.11V82a6.91,6.91,0,0,0-6.89-6.91"/><path class="cls-4" d="M815,105.39A6.94,6.94,0,0,0,808,98.46h-4.27a6.92,6.92,0,0,0-6.91,6.93V153H815Z"/><path class="cls-5" d="M785.14,131.59a6.91,6.91,0,0,0-6.93-6.9H774a6.92,6.92,0,0,0-6.92,6.9L767,150v3h18.13V131.59Z"/><path class="cls-6" d="M755.33,119a6.92,6.92,0,0,0-6.93-6.92h-4.24a7,7,0,0,0-6.95,6.92v34h18.12V119Z"/><path class="cls-1" d="M245.59,128.74h12.63c6.37,0,10.9,3.28,10.9,9.1a8.34,8.34,0,0,1-4.28,7.56v.1c3.88,1.14,5.72,4.73,5.72,8.31,0,7.06-5.67,10.25-12.19,10.25H245.59Zm12.63,14.42a4.21,4.21,0,0,0,4.38-4.52c0-2.54-1.49-4.38-4.47-4.38H252v8.9Zm.65,15.38a5.1,5.1,0,1,0,0-10.2H252v10.2Z"/><path class="cls-1" d="M292.59,155H280.21l-3,9.06h-6.61l12.44-35.32h6.71l12.44,35.32h-6.62Zm-6.21-20.14s-.8,3.48-1.5,5.47l-3.13,9.45H291l-3.13-9.45c-.65-2-1.4-5.47-1.4-5.47Z"/><path class="cls-1" d="M304.23,128.74h11.39c3.83,0,5.57.29,7.12,1,3.53,1.59,5.76,5,5.76,9.65,0,4.23-2.23,8.16-6,9.65v.1a9.07,9.07,0,0,1,1.19,1.74L331,164.05h-7.16l-7-13.18h-6.17v13.18h-6.42V128.74Zm12.19,16.56c3.43,0,5.57-2,5.57-5.57,0-3.38-1.44-5.47-6.46-5.47h-4.88v11Z"/><path class="cls-1" d="M334.47,128.74h11.39c3.83,0,5.58.29,7.12,1,3.53,1.59,5.77,5,5.77,9.65,0,4.23-2.24,8.16-6,9.65v.1a8.53,8.53,0,0,1,1.19,1.74l7.26,13.18h-7.16l-7-13.18h-6.17v13.18h-6.42Zm12.19,16.56c3.43,0,5.57-2,5.57-5.57,0-3.38-1.45-5.47-6.47-5.47h-4.87v11Z"/><path class="cls-1" d="M382.27,155H369.88l-3,9.05h-6.62l12.44-35.31h6.72l12.44,35.31h-6.62Zm-6.22-20.14s-.79,3.48-1.49,5.47l-3.14,9.45h9.25l-3.13-9.45c-.65-2-1.39-5.47-1.39-5.47Z"/><path class="cls-1" d="M393.9,128.74h6.42l13.38,20.39a54.8,54.8,0,0,1,2.94,5.47h.1s-.35-3.38-.35-5.47V128.74h6.36v35.31h-6.36L403,143.71a54.8,54.8,0,0,1-2.94-5.47H400s.35,3.38.35,5.47v20.34h-6.41V128.74Z"/><path class="cls-1" d="M445,128.14a17.86,17.86,0,0,1,18.3,18.06,18.43,18.43,0,0,1-3.88,11.19l4,3.58-3.68,4.08-3.93-3.88A17.6,17.6,0,0,1,445,164.66a18.08,18.08,0,0,1-18.2-18.46A17.83,17.83,0,0,1,445,128.14m0,30.64a11.48,11.48,0,0,0,6.17-1.84l-3.93-3.73,3.68-4,3.83,3.83a13.13,13.13,0,0,0,1.93-6.81c0-7-5.12-12.19-11.68-12.19s-11.59,5.18-11.59,12.19c0,7.21,5.12,12.58,11.59,12.58"/><path class="cls-1" d="M467.32,128.74h6.41v22.63c0,4.73,3.09,7.41,7.81,7.41s7.86-2.69,7.86-7.46V128.74h6.42v22.63c0,7.91-5.72,13.28-14.23,13.28s-14.27-5.37-14.27-13.28Z"/><rect class="cls-1" x="501.78" y="128.74" width="6.41" height="35.32"/><polygon class="cls-1" points="514.67 128.74 521.09 128.74 521.09 158.54 536.36 158.54 536.36 164.06 514.67 164.06 514.67 128.74"/><polygon class="cls-1" points="538.99 128.74 545.4 128.74 545.4 158.54 560.67 158.54 560.67 164.06 538.99 164.06 538.99 128.74"/><path class="cls-1" d="M582,155H569.63l-3,9.05H560l12.43-35.31h6.72l12.43,35.31H585Zm-6.22-20.14s-.79,3.48-1.49,5.47l-3.13,9.45h9.25l-3.13-9.45c-.65-2-1.39-5.47-1.39-5.47Z"/></svg>