<svg id="Capa_1" data-name="Capa 1" xmlns="http://www.w3.org/2000/svg" viewBox="0 0 1000 417.78"><defs><style>.cls-1{fill:#1d418c;}.cls-2{fill:#2195d3;}</style></defs><title>paquete</title><path class="cls-1" d="M206.49,271.05c1.92,9.38,8,16.11,17.38,19.57,16.82,6.2,44.32,1.25,75-12.14l8.26-26.58c-21.6,11.51-54.8,26.17-68.57,15.87-16.31-12.22,2.67-44.85,29.59-67,22.36-18.36,53.58-36.62,68.71-44.63l4.87-15.67c-6.1,2.6-14.95,6.75-23,10.66C259.48,179.8,198.63,233,206.49,271.05"/><path class="cls-1" d="M242.56,254.71c1.9,4.76,6.75,7.43,13.87,7.8,12.35.68,31.56-5.86,52.76-17.18L314,230c-15.58,9.66-38,21.68-47.76,17.86-9.1-3.56-1.15-24.15,17.7-40.33,15.22-13.06,35.55-26.95,47.72-34.39l2.73-8.81q-7.08,3.6-14.61,8c-42.46,24.8-84.9,63.12-77.17,82.39"/><path class="cls-1" d="M482.14,169.46c-13-29.2-74.87-29.57-141.81-6.24l-11,29.78c56.48-24.13,108.52-30.6,118.41-11,12,23.69-42.33,72.85-116.65,105.34A353,353,0,0,1,288.61,303L284,315.5a323.91,323.91,0,0,0,60.32-16.35C434,265.89,498.11,205.33,482.14,169.46"/><path class="cls-2" d="M441.83,99.57c-10.82-18.13-51.38-13.48-95.11,10l-4.27,22.1c34.37-22.17,68.08-31.77,76-18.48,9.33,15.61-22.15,53.45-64.71,80.44a208.12,208.12,0,0,1-26,14.17l-2.22,11.47a232,232,0,0,0,49.16-24.44c50.45-32.54,79.28-75,67.14-95.29"/><path class="cls-1" d="M539.29,206.09l16.08-34.29s2.26-6.17,8.14-6.17c6.32,0,7.69,7.15,7.69,7.15l7.6,33.33h-7.75l-2.45-10H552.05l-4.82,10Zm21-27.69-5.34,11.51h12.3l-2.83-11.51s-.48-2.15-1.94-2.15-2.19,2.15-2.19,2.15"/><path class="cls-1" d="M519.7,293.83,532,271.17s1.8-4.09,5.68-4.09c4.18,0,4.73,4.73,4.73,4.73l3.37,22H540.7l-1.12-6.63H528.64L525,293.83Zm15.24-18.3-4.1,7.61H539l-1.31-7.61s-.2-1.42-1.17-1.42-1.56,1.42-1.56,1.42"/><path class="cls-1" d="M587,293.83l12.35-22.66s1.79-4.09,5.67-4.09c4.18,0,4.73,4.73,4.73,4.73l3.37,22H608l-1.13-6.63H596l-3.69,6.61Zm15.24-18.3-4.1,7.61h8.14L605,275.53s-.2-1.42-1.17-1.42-1.56,1.42-1.56,1.42"/><path class="cls-1" d="M732.07,293.83l12.33-22.66s1.8-4.09,5.69-4.09c4.17,0,4.72,4.73,4.72,4.73l3.38,22h-5.13l-1.12-6.63H741l-3.68,6.61Zm15.23-18.3-4.1,7.61h8.14L750,275.53s-.2-1.42-1.17-1.42-1.56,1.42-1.56,1.42"/><path class="cls-1" d="M617.56,206.09l17-34.45s2.42-6.2,8.31-6.2c6.33,0,7.54,7.19,7.54,7.19l6.8,33.49H649.4l-2.21-10.07H630.6l-5.08,10Zm21.7-27.82-5.64,11.56H646l-2.57-11.56s-.41-2.15-1.89-2.15-2.25,2.14-2.25,2.14"/><path class="cls-1" d="M685.9,206.09l17-34.45s2.41-6.2,8.3-6.2c6.34,0,7.54,7.19,7.54,7.19l6.81,33.49h-7.77l-2.22-10.07H698.93l-5.07,10Zm21.7-27.82L702,189.83H714.3l-2.56-11.56s-.42-2.15-1.89-2.15-2.25,2.14-2.25,2.14"/><path class="cls-1" d="M577.54,206.11l10.12-37s.77-3.44,3.54-3.48c3.32,0,3.65,2.59,3.65,2.59l4.86,20s.16,1.35,1,1.33S602,188.5,602,188.5L612,168.44s1.13-2.81,3.92-2.79c3,0,2.9,3.62,2.9,3.62l-1.29,36.82h-7.11L611.1,188s.18-1.42-.76-1.42c-.7,0-1.08,1.07-1.08,1.07l-6.56,13.11s-1.3,3.43-4.15,3.36c-3-.08-3.58-3.52-3.58-3.52l-3-12.47s-.2-1.32-1.08-1.32-1.11,1.24-1.11,1.24l-5,18.11Z"/><path class="cls-1" d="M545.2,260.58,557.68,215s.94-4.23,4.37-4.28c4.1-.07,4.49,3.18,4.49,3.18l6,24.64s.2,1.66,1.26,1.63,1.5-1.31,1.5-1.31l12.4-24.72s1.41-3.48,4.85-3.44c3.73,0,3.58,4.46,3.58,4.46l-1.6,45.37h-8.76l.8-22.35s.22-1.74-.93-1.74c-.85,0-1.33,1.31-1.33,1.31l-8.09,16.16s-1.61,4.23-5.11,4.14c-3.71-.1-4.41-4.34-4.41-4.34L563,238.36s-.23-1.61-1.33-1.62-1.36,1.53-1.36,1.53l-6.19,22.31Z"/><path class="cls-1" d="M665.57,165.2h12.28c7.37,0,12.54,3.65,11.06,12a13.19,13.19,0,0,1-9.18,10.26L688.37,206l-9.12.18-9.65-21.45h-.11L666.23,206h-7.35Zm4.24,17.73h2.68c3.63,0,7.34-1.08,8.11-5.47s-2.46-5-6.09-5h-2.85Z"/><path class="cls-1" d="M529.31,211c13.42,0,22.59,11.07,20.16,24.84s-15.5,24.84-28.93,24.84S498,249.61,500.38,235.84,515.87,211,529.31,211m-7.12,40.35c8.27,0,16.44-7.06,17.93-15.51s-4.19-15.49-12.46-15.49-16.43,7.05-17.93,15.49,4.19,15.51,12.46,15.51"/><polygon class="cls-1" points="596.19 260.56 604.78 210.74 631.25 210.74 629.75 219.78 612.19 219.78 610.52 229.52 624.63 229.52 623.08 238.56 608.97 238.56 606.7 251.53 626.43 251.53 624.76 260.56 596.19 260.56"/><path class="cls-1" d="M636.81,210.74h14.91c8.95,0,15.23,4.42,13.43,14.6A16,16,0,0,1,654,237.8l10.26,22.79-11.29.1L641.7,234.48h-.13l-4.36,26.21h-9.06ZM642,232.26h3.25c4.41,0,8.91-1.32,9.85-6.64,1-5.47-3-6.1-7.4-6.1h-3.46Z"/><polygon class="cls-1" points="701.65 260.69 711.05 210.48 720.36 210.48 711.59 260.59 701.65 260.69"/><path class="cls-1" d="M749.34,211c13.42,0,22.59,11.07,20.17,24.84s-15.5,24.84-28.93,24.84-22.6-11.07-20.17-24.84S735.9,211,749.34,211m-7.12,40.35c8.27,0,16.44-7.06,17.93-15.51s-4.19-15.49-12.46-15.49-16.43,7.05-17.92,15.49,4.18,15.51,12.45,15.51"/><path class="cls-1" d="M737,176.93h8c6.46,0,11,5.86,9.76,13.2a16.18,16.18,0,0,1-15.48,13.59h-7Zm3.88,21.83c4.63,0,7.8-4.38,8.56-8.63.8-4.57-1.61-8.24-5.81-8.24H741.2l-3,16.87Z"/><polygon class="cls-1" points="754.38 203.72 759.1 176.93 774.1 176.93 773.18 181.89 763.26 181.89 762.33 187.25 770.28 187.25 769.4 192.2 761.45 192.2 760.29 198.76 771.42 198.76 770.43 203.72 754.38 203.72"/><path class="cls-1" d="M451.27,267h8c6.46,0,11,5.85,9.76,13.2A16.19,16.19,0,0,1,453.5,293.8h-7Zm3.87,21.82c4.63,0,7.81-4.37,8.56-8.62.8-4.57-1.62-8.24-5.81-8.24h-2.45l-3,16.86Z"/><polygon class="cls-1" points="470.18 293.8 474.9 267.02 489.73 266.91 488.97 271.98 479.07 271.98 478.13 277.33 486.08 277.33 485.21 282.29 477.26 282.29 476.1 288.84 487.23 288.84 486.35 293.8 470.18 293.8"/><path class="cls-1" d="M507.51,267h9c6.27,0,6.8,4.8,6.35,7.34a7.42,7.42,0,0,1-4.49,5.5,5.56,5.56,0,0,1,3.71,6.57,9.24,9.24,0,0,1-9.42,7.37h-9.9Zm1.19,21.82h2.64c3.45,0,4.85-1,5.26-3.36s-.64-3.35-4.07-3.35h-2.64ZM510.62,278h2.79a3.82,3.82,0,0,0,3.9-3c.3-1.73-.85-3-2.84-3h-2.8Z"/><path class="cls-1" d="M551.44,267h8.42c5,0,8.58,2.5,7.57,8.24a9,9,0,0,1-6.29,7l5.67,11.6-6.42,0-6.18-13.5h-.08l-2.36,13.39h-5.06Zm2.9,12.14h1.84c2.48,0,5-.74,5.57-3.75s-1.7-3.43-4.18-3.43h-2Z"/><path class="cls-1" d="M572.71,267h8.41c5,0,8.59,2.5,7.58,8.24a9,9,0,0,1-6.29,7L588,293.84l-6.31,0-6.19-13.39h-.07L573,293.8l-5,0Zm2.9,12.14h1.84c2.48,0,5-.74,5.56-3.75s-1.69-3.43-4.17-3.43h-2Z"/><path class="cls-1" d="M614.38,293.82l4.68-24.91s.35-1.87,1.65-1.93,2.36,1.45,2.36,1.45L631,280.51s.6.93,1,.72.54-1.4.54-1.4L635,267h5.64l-4.77,25-.17.76a1.31,1.31,0,0,1-1.25,1,1.85,1.85,0,0,1-1.81-1l-8.7-12.57s-.43-.82-1-.76-.73,1-.73,1l-2.56,13.36Z"/><path class="cls-1" d="M663.76,296.42l-3.22-4.29a15.89,15.89,0,0,1-8,2.29c-7.57,0-12.73-6.24-11.37-14s8.75-14,16.31-14,12.74,6.26,11.37,14a16.77,16.77,0,0,1-4.5,8.63l3.76,5Zm-4.25-13.86,1.89,2.5a9.79,9.79,0,0,0,2.19-4.65c.85-4.76-2.35-8.74-7-8.74s-9.26,4-10.1,8.74,2.35,8.75,7,8.75a8.65,8.65,0,0,0,4-1L655.15,285Z"/><path class="cls-1" d="M693.17,267,690,285.73c-.85,4.83-5.12,8.7-11,8.7-4.52,0-8.73-2.61-7.52-9.45l3.17-18,5.15-.06-3.14,17.28c-.42,2.34-.5,5.23,3.44,5.23,3.51,0,4.64-2.46,5.2-5.66l3-16.79Z"/><polygon class="cls-1" points="692.39 293.8 697.27 267.02 702.28 266.91 697.59 293.8 692.39 293.8"/><polygon class="cls-1" points="701.48 293.8 706.2 267.02 711.25 266.91 707.39 288.84 716.96 288.84 716.24 293.8 701.48 293.8"/><polygon class="cls-1" points="718.38 293.8 723.11 267.02 728.15 266.91 724.29 288.84 733.86 288.84 733.15 293.8 718.38 293.8"/><path class="cls-1" d="M546.76,169.63A13.87,13.87,0,0,0,539,165l-.34-.07c-.21-.05-.41-.07-.59-.1h0a12.17,12.17,0,0,0-2.72-.13l-.43,0c-11.42.85-20.37,10.73-21.51,22.13s5.79,20.09,17.59,19.2a16.39,16.39,0,0,0,6.09-1.79l.08,0c.07-.05.15-.07.22-.12h0a6.62,6.62,0,0,0,2.23-2l1.51-9.23s-.81.77-1.79,1.6v0c-2.17,1.83-4.72,3.61-7.8,3.85-6.4.48-11.18-4.66-10.45-12,.66-6.69,6-13.25,12.71-13.76a10.23,10.23,0,0,1,6.49,1.55l.65.46.12.09a1.33,1.33,0,0,1,.19.14h0a26.12,26.12,0,0,1,2.75,2.31Z"/><path class="cls-1" d="M505.21,216.19a17,17,0,0,0-9.46-5.65l-.41-.08a16.5,16.5,0,0,0-4.11-.3l-.5,0c-14,1-24.9,13.12-26.29,27.05s7.08,24.55,21.5,23.47a19.82,19.82,0,0,0,7.81-2.4h0a8.08,8.08,0,0,0,2.72-2.41l1.85-11.28s-1,.94-2.18,1.95v0c-2.66,2.23-5.78,4.42-9.52,4.7-7.83.58-13.7-5.68-12.8-14.69.82-8.17,7.3-16.2,15.54-16.81a12.58,12.58,0,0,1,7.94,1.88l.79.57a1.88,1.88,0,0,1,.18.12c.06.06.14.1.21.16h0a30.92,30.92,0,0,1,3.35,2.81Z"/><path class="cls-1" d="M707.43,216.19a17,17,0,0,0-9.46-5.65l-.41-.08a16.51,16.51,0,0,0-4.11-.3l-.5,0c-14,1-24.9,13.12-26.29,27.05s7.07,24.55,21.5,23.47a19.73,19.73,0,0,0,7.8-2.4h0a8.2,8.2,0,0,0,2.73-2.41l1.84-11.28s-1,.94-2.18,1.95v0c-2.65,2.23-5.77,4.42-9.52,4.7-7.82.58-13.69-5.68-12.79-14.69.82-8.17,7.3-16.2,15.54-16.81a12.55,12.55,0,0,1,7.93,1.88l.79.57a1.22,1.22,0,0,1,.19.12c.06.06.14.1.2.16h0a30.46,30.46,0,0,1,3.36,2.81Z"/><path class="cls-1" d="M567.51,162.62l-2-.05c-2.11.07-1.28-1.55-1.28-1.55l4.94-7.67a1.06,1.06,0,0,1,.88-.48h6.21a1.05,1.05,0,0,1,.74,1.8l-6.86,6.88A3.19,3.19,0,0,1,567.51,162.62Z"/></svg>