<svg id="Capa_1" data-name="Capa 1" xmlns="http://www.w3.org/2000/svg" viewBox="0 0 1000 417.78"><defs><style>.cls-1{fill:#1d418c;}.cls-2{fill:#2195d3;}</style></defs><title>CCB</title><path class="cls-1" d="M216.54,278c1.92,9.37,8,16.11,17.38,19.56,16.82,6.21,44.32,1.26,75-12.13l8.26-26.59c-21.6,11.52-54.8,26.17-68.57,15.87-16.31-12.22,2.67-44.84,29.59-67,22.36-18.36,53.58-36.62,68.71-44.63l4.87-15.68c-6.1,2.6-14.95,6.75-23,10.67C269.53,186.69,208.68,239.92,216.54,278"/><path class="cls-1" d="M252.61,261.6c1.9,4.76,6.75,7.44,13.87,7.81,12.35.67,31.56-5.87,52.76-17.19L324,236.91c-15.58,9.65-38,21.67-47.76,17.86-9.1-3.56-1.15-24.16,17.7-40.33,15.22-13.07,35.55-26.95,47.72-34.4l2.73-8.8q-7.08,3.6-14.61,8c-42.46,24.79-84.9,63.12-77.17,82.38"/><path class="cls-1" d="M492.19,176.36c-13-29.2-74.87-29.58-141.81-6.25l-11,29.78c56.48-24.13,108.52-30.6,118.41-11,12,23.69-42.33,72.85-116.65,105.34a354.71,354.71,0,0,1-42.46,15.59L294,322.4A323.21,323.21,0,0,0,354.33,306C444,272.78,508.16,212.23,492.19,176.36"/><path class="cls-2" d="M451.88,106.46c-10.82-18.12-51.38-13.47-95.11,10l-4.27,22.09c34.37-22.16,68.08-31.76,76-18.47,9.33,15.61-22.15,53.44-64.71,80.44a208,208,0,0,1-26,14.16l-2.22,11.48a232.5,232.5,0,0,0,49.16-24.44c50.45-32.55,79.28-75,67.14-95.3"/><path class="cls-1" d="M549.34,213l16.08-34.29s2.26-6.17,8.14-6.17c6.32,0,7.69,7.15,7.69,7.15l7.6,33.34H581.1l-2.45-10H562.1l-4.82,10Zm21-27.68L565,196.8h12.3l-2.83-11.5s-.48-2.15-1.94-2.15-2.19,2.15-2.19,2.15"/><path class="cls-1" d="M529.75,300.73l12.34-22.67s1.8-4.09,5.68-4.09c4.18,0,4.73,4.73,4.73,4.73l3.37,22h-5.12l-1.12-6.62H538.69L535,300.73ZM545,282.43l-4.1,7.6H549l-1.31-7.6s-.2-1.43-1.17-1.43-1.56,1.43-1.56,1.43"/><path class="cls-1" d="M597.06,300.73l12.35-22.67s1.79-4.09,5.67-4.09c4.18,0,4.73,4.73,4.73,4.73l3.37,22h-5.12l-1.13-6.62H606l-3.69,6.61Zm15.24-18.3-4.1,7.6h8.14l-1.31-7.6s-.2-1.43-1.17-1.43-1.56,1.43-1.56,1.43"/><path class="cls-1" d="M742.12,300.73l12.33-22.67s1.8-4.09,5.69-4.09c4.17,0,4.72,4.73,4.72,4.73l3.38,22h-5.13L762,294.12H751.05l-3.68,6.61Zm15.23-18.3-4.1,7.6h8.14l-1.31-7.6s-.2-1.43-1.17-1.43-1.56,1.43-1.56,1.43"/><path class="cls-1" d="M627.61,213l17-34.44s2.42-6.21,8.31-6.21c6.33,0,7.54,7.19,7.54,7.19l6.8,33.49h-7.77l-2.21-10.07H640.65l-5.08,10Zm21.7-27.81-5.64,11.56H656l-2.57-11.55S653,183,651.56,183s-2.25,2.15-2.25,2.15"/><path class="cls-1" d="M696,213l17-34.44s2.41-6.21,8.3-6.21c6.34,0,7.54,7.19,7.54,7.19L735.56,213h-7.77l-2.22-10.07H709l-5.07,10Zm21.7-27.81L712,196.73h12.34l-2.56-11.55s-.42-2.16-1.89-2.16-2.25,2.15-2.25,2.15"/><path class="cls-1" d="M587.59,213l10.12-37s.77-3.45,3.54-3.49c3.32,0,3.65,2.6,3.65,2.6l4.86,20s.16,1.35,1,1.33S612,195.4,612,195.4l10.07-20.06s1.13-2.82,3.92-2.8c3,0,2.9,3.62,2.9,3.62L627.6,213h-7.11l.66-18.14s.18-1.41-.76-1.41c-.7,0-1.08,1.06-1.08,1.06l-6.56,13.11s-1.3,3.43-4.15,3.36c-3-.08-3.58-3.51-3.58-3.51L602,195s-.2-1.32-1.08-1.32-1.11,1.24-1.11,1.24l-5,18.11Z"/><path class="cls-1" d="M555.25,267.47l12.48-45.56s.94-4.23,4.37-4.28c4.1-.07,4.49,3.19,4.49,3.19l6,24.64s.2,1.66,1.26,1.62,1.5-1.3,1.5-1.3l12.4-24.73s1.41-3.47,4.85-3.44c3.73,0,3.58,4.46,3.58,4.46l-1.6,45.38h-8.76l.8-22.36s.22-1.74-.93-1.74c-.85,0-1.33,1.32-1.33,1.32l-8.09,16.15s-1.61,4.23-5.11,4.14c-3.71-.09-4.41-4.34-4.41-4.34L573,245.25s-.23-1.61-1.33-1.62-1.36,1.53-1.36,1.53l-6.19,22.31Z"/><path class="cls-1" d="M675.62,172.1H687.9c7.37,0,12.54,3.64,11.06,12a13.16,13.16,0,0,1-9.18,10.26l8.64,18.53-9.12.18-9.65-21.45h-.11l-3.26,21.23h-7.35Zm4.24,17.72h2.68c3.63,0,7.34-1.08,8.11-5.47s-2.46-5-6.09-5h-2.85Z"/><path class="cls-1" d="M539.36,217.9c13.42,0,22.59,11.07,20.16,24.84s-15.5,24.84-28.93,24.84S508,256.51,510.43,242.74s15.49-24.84,28.93-24.84m-7.12,40.34c8.27,0,16.44-7.06,17.93-15.5s-4.19-15.5-12.46-15.5-16.43,7-17.93,15.5,4.19,15.5,12.46,15.5"/><polygon class="cls-1" points="606.24 267.45 614.83 217.64 641.3 217.64 639.8 226.67 622.24 226.67 620.58 236.42 634.68 236.42 633.13 245.45 619.02 245.45 616.75 258.42 636.48 258.42 634.81 267.45 606.24 267.45"/><path class="cls-1" d="M646.86,217.63h14.91c9,0,15.23,4.43,13.43,14.6a16,16,0,0,1-11.14,12.47l10.26,22.79-11.29.09-11.28-26.21h-.13l-4.36,26.21H638.2ZM652,239.16h3.25c4.41,0,8.91-1.32,9.85-6.65s-3-6.09-7.4-6.09h-3.46Z"/><polygon class="cls-1" points="711.7 267.58 721.1 217.37 730.41 217.37 721.64 267.48 711.7 267.58"/><path class="cls-1" d="M759.39,217.9c13.42,0,22.59,11.07,20.17,24.84s-15.5,24.84-28.93,24.84-22.6-11.07-20.17-24.84S746,217.9,759.39,217.9m-7.12,40.34c8.27,0,16.44-7.06,17.93-15.5s-4.19-15.5-12.46-15.5-16.43,7-17.92,15.5,4.18,15.5,12.45,15.5"/><path class="cls-1" d="M747.07,183.83h8c6.46,0,11.05,5.85,9.76,13.2a16.19,16.19,0,0,1-15.48,13.59h-7ZM751,205.65c4.63,0,7.8-4.38,8.56-8.62.8-4.57-1.61-8.25-5.81-8.25h-2.45l-3,16.87Z"/><polygon class="cls-1" points="764.43 210.61 769.15 183.82 784.15 183.82 783.23 188.79 773.31 188.79 772.38 194.14 780.33 194.14 779.45 199.1 771.5 199.1 770.35 205.65 781.47 205.65 780.48 210.61 764.43 210.61"/><path class="cls-1" d="M461.32,273.91h7.95c6.46,0,11.05,5.86,9.76,13.21a16.2,16.2,0,0,1-15.48,13.58h-7Zm3.87,21.83c4.63,0,7.81-4.38,8.56-8.62.8-4.58-1.62-8.25-5.81-8.25h-2.45l-3,16.87Z"/><polygon class="cls-1" points="480.23 300.7 484.95 273.91 499.78 273.8 499.02 278.88 489.12 278.88 488.18 284.22 496.13 284.22 495.26 289.18 487.31 289.18 486.15 295.73 497.28 295.73 496.4 300.7 480.23 300.7"/><path class="cls-1" d="M517.56,273.92h9c6.27,0,6.8,4.79,6.35,7.33a7.43,7.43,0,0,1-4.49,5.51,5.54,5.54,0,0,1,3.71,6.56,9.25,9.25,0,0,1-9.42,7.38h-9.9Zm1.19,21.82h2.64c3.45,0,4.85-1.06,5.26-3.36S526,289,522.58,289h-2.64Zm1.92-10.85h2.79a3.83,3.83,0,0,0,3.9-3c.3-1.72-.85-3-2.84-3h-2.8Z"/><path class="cls-1" d="M561.49,273.91h8.42c5.05,0,8.58,2.51,7.57,8.24a9,9,0,0,1-6.29,7l5.67,11.6-6.42,0-6.18-13.51h-.08l-2.36,13.4h-5.06Zm2.9,12.14h1.84c2.48,0,5-.74,5.57-3.74s-1.7-3.43-4.18-3.43h-2Z"/><path class="cls-1" d="M582.76,273.91h8.41c5.05,0,8.59,2.51,7.58,8.24a9,9,0,0,1-6.29,7L598,300.74l-6.31,0-6.19-13.4h-.07l-2.36,13.4-5,0Zm2.9,12.14h1.84c2.48,0,5-.74,5.56-3.74s-1.69-3.43-4.17-3.43h-2Z"/><path class="cls-1" d="M624.43,300.71l4.68-24.91s.35-1.87,1.65-1.93a3.26,3.26,0,0,1,2.36,1.45l7.93,12.09s.6.92,1,.71.54-1.4.54-1.4L645,273.93h5.64l-4.77,25-.17.77a1.32,1.32,0,0,1-1.25,1,1.87,1.87,0,0,1-1.81-1L634,287.11s-.43-.82-1-.76-.73,1-.73,1l-2.56,13.36Z"/><path class="cls-1" d="M673.81,303.32l-3.22-4.3a15.8,15.8,0,0,1-8,2.3c-7.57,0-12.73-6.25-11.37-14s8.75-14,16.31-14,12.74,6.25,11.37,14a16.8,16.8,0,0,1-4.5,8.64l3.76,4.95Zm-4.25-13.87,1.89,2.5a9.74,9.74,0,0,0,2.19-4.65c.85-4.76-2.35-8.74-7-8.74s-9.26,4-10.1,8.74,2.35,8.75,7,8.75a8.53,8.53,0,0,0,4-1l-2.38-3.15Z"/><path class="cls-1" d="M703.22,273.85,700,292.62c-.85,4.84-5.12,8.7-11,8.7-4.52,0-8.73-2.61-7.52-9.44l3.17-18,5.15-.06-3.14,17.28c-.42,2.34-.5,5.23,3.44,5.23,3.51,0,4.64-2.46,5.2-5.65l3-16.8Z"/><polygon class="cls-1" points="702.44 300.7 707.32 273.91 712.34 273.8 707.64 300.7 702.44 300.7"/><polygon class="cls-1" points="711.53 300.7 716.25 273.91 721.3 273.8 717.45 295.73 727.01 295.73 726.29 300.7 711.53 300.7"/><polygon class="cls-1" points="728.43 300.7 733.16 273.91 738.2 273.8 734.34 295.73 743.91 295.73 743.2 300.7 728.43 300.7"/><path class="cls-1" d="M556.81,176.52a13.93,13.93,0,0,0-7.74-4.62l-.34-.07-.59-.1h0a13.3,13.3,0,0,0-2.72-.14l-.43,0c-11.42.85-20.37,10.72-21.51,22.12S529.24,213.84,541,213a16.61,16.61,0,0,0,6.09-1.8l.08-.05a2.39,2.39,0,0,0,.22-.12h0a6.65,6.65,0,0,0,2.23-2l1.51-9.22s-.81.76-1.79,1.59v0c-2.17,1.83-4.72,3.62-7.8,3.85-6.4.48-11.18-4.65-10.45-12,.66-6.68,6-13.25,12.71-13.76a10.29,10.29,0,0,1,6.49,1.55l.65.46.12.09a1.39,1.39,0,0,1,.19.15v0a26.12,26.12,0,0,1,2.75,2.31Z"/><path class="cls-1" d="M515.26,223.08a17,17,0,0,0-9.46-5.64,4.18,4.18,0,0,0-.41-.09,15.66,15.66,0,0,0-4.11-.29l-.5,0c-14,1-24.9,13.12-26.29,27s7.08,24.56,21.5,23.47a19.5,19.5,0,0,0,7.81-2.4h0a8.08,8.08,0,0,0,2.72-2.41l1.85-11.27s-1,.94-2.18,1.94v0c-2.66,2.23-5.78,4.43-9.52,4.7-7.83.58-13.7-5.68-12.8-14.69.82-8.16,7.3-16.19,15.54-16.81a12.58,12.58,0,0,1,7.94,1.88c.28.21.55.41.79.57l.18.12a1.66,1.66,0,0,0,.21.16h0a32.28,32.28,0,0,1,3.35,2.81Z"/><path class="cls-1" d="M717.48,223.08a17,17,0,0,0-9.46-5.64l-.41-.09a15.67,15.67,0,0,0-4.11-.29l-.5,0c-14,1-24.89,13.12-26.29,27s7.07,24.56,21.5,23.47a19.41,19.41,0,0,0,7.8-2.4h0a8.2,8.2,0,0,0,2.73-2.41l1.84-11.27s-1,.94-2.18,1.94v0c-2.65,2.23-5.77,4.43-9.52,4.7-7.82.58-13.69-5.68-12.79-14.69.82-8.16,7.3-16.19,15.54-16.81a12.55,12.55,0,0,1,7.93,1.88l.79.57.19.12c.06.06.14.11.2.16h0a31.78,31.78,0,0,1,3.36,2.81Z"/><path class="cls-1" d="M577.56,169.52l-2-.06c-2.11.07-1.28-1.54-1.28-1.54l4.94-7.68a1.06,1.06,0,0,1,.88-.48h6.21a1.05,1.05,0,0,1,.74,1.8l-6.86,6.89A3.23,3.23,0,0,1,577.56,169.52Z"/></svg>