<svg id="Capa_1" data-name="Capa 1" xmlns="http://www.w3.org/2000/svg" viewBox="0 0 1000 417.78"><defs><style>.cls-1{fill:#959ca1;}.cls-2,.cls-3{fill:#07549c;}.cls-3{font-size:32.36px;font-family:HelveticaNeue-Medium, Helvetica Neue;font-weight:500;}</style></defs><title>GS</title><path class="cls-1" d="M485.27,163.06h-3.84a5.14,5.14,0,0,0-2-3.23,6.37,6.37,0,0,0-3.91-1.17,6.71,6.71,0,0,0-5.42,2.32,11.94,11.94,0,0,0,0,13,6.52,6.52,0,0,0,5.32,2.37,6.24,6.24,0,0,0,6-3.86,6.85,6.85,0,0,0,.49-2.66h-6.38v-3.21h10v12.58H483l-.65-2.94a8.32,8.32,0,0,1-3.14,2.65,9.47,9.47,0,0,1-4.18.91,10,10,0,0,1-7.81-3.37,12.83,12.83,0,0,1-3-8.88,15.93,15.93,0,0,1,.74-5,11.12,11.12,0,0,1,2.28-3.91,10.35,10.35,0,0,1,8.07-3.33,10.86,10.86,0,0,1,6.83,2A8.34,8.34,0,0,1,485.27,163.06Z"/><path class="cls-1" d="M489.14,155.94H493V175.7h11.49v3.53H489.14Z"/><path class="cls-1" d="M515.81,155.33a10.51,10.51,0,0,1,8.17,3.28q3,3.28,3,9t-3,9a11.81,11.81,0,0,1-16.36,0q-3-3.27-3-9c0-3.79,1-6.79,3-9A10.48,10.48,0,0,1,515.81,155.33Zm0,3.37a6.48,6.48,0,0,0-5.32,2.35,12.19,12.19,0,0,0,0,13.1,7.13,7.13,0,0,0,10.61,0,12.17,12.17,0,0,0,0-13.09A6.45,6.45,0,0,0,515.81,158.7Z"/><path class="cls-1" d="M529.8,155.94h10.07a8.56,8.56,0,0,1,5.47,1.48,6.08,6.08,0,0,1,1,7.36,4.8,4.8,0,0,1-2.29,1.88,5.51,5.51,0,0,1,3,2,6.11,6.11,0,0,1,1,3.67,6.28,6.28,0,0,1-2.17,5,8.83,8.83,0,0,1-6,1.87H529.8Zm3.78,3.25v6.21h5.5a5.09,5.09,0,0,0,3.18-.79,2.94,2.94,0,0,0,1-2.47,2.57,2.57,0,0,0-1-2.2,5.09,5.09,0,0,0-3-.75Zm0,9.39v7.22h6.09a5.31,5.31,0,0,0,3.35-.9,3.33,3.33,0,0,0,1.13-2.77,3.17,3.17,0,0,0-1.13-2.68,5.9,5.9,0,0,0-3.57-.87Z"/><path class="cls-1" d="M556.73,155.94h4.36l8.56,23.29H565.5l-2.09-6h-9.07l-2,6h-4Zm2.16,3.92L555.42,170h6.94Z"/><path class="cls-1" d="M571.24,155.94h3.9V175.7h11.48v3.53H571.24Z"/><path class="cls-1" d="M481.84,192.87l-3.68,0a3.76,3.76,0,0,0-.39-1.73,4.26,4.26,0,0,0-1.12-1.37,5.53,5.53,0,0,0-3.65-1.12,5.09,5.09,0,0,0-3.11.88,2.7,2.7,0,0,0-.14,4.38,13.23,13.23,0,0,0,4.45,1.72c3.42.85,5.65,1.79,6.71,2.82a5.63,5.63,0,0,1,1.58,4.24A6.51,6.51,0,0,1,480,208a11.84,11.84,0,0,1-13.33-.07,7.25,7.25,0,0,1-1.88-2.53,8.58,8.58,0,0,1-.69-3.48h3.76a4.26,4.26,0,0,0,1.69,3.51,6.57,6.57,0,0,0,4.2,1.25,5.28,5.28,0,0,0,3.26-1,2.88,2.88,0,0,0,1.28-2.38,2.12,2.12,0,0,0-.09-.59,3.5,3.5,0,0,0-.28-.66,3.9,3.9,0,0,0-.9-1.22,10.28,10.28,0,0,0-4.08-1.61l-1-.25a12.45,12.45,0,0,1-5.5-2.61,5.79,5.79,0,0,1-1.63-4.34,5.73,5.73,0,0,1,2.37-4.73,10,10,0,0,1,6.28-1.83,8.92,8.92,0,0,1,6.1,2A6.8,6.8,0,0,1,481.84,192.87Z"/><path class="cls-1" d="M485.28,186.1h3.89v9.16h11V186.1h3.9v23.29h-3.9V198.73h-11v10.66h-3.89Z"/><path class="cls-1" d="M514.18,186.1h4.36l8.56,23.29H523l-2.09-6h-9.07l-2,6h-4Zm2.16,3.92-3.47,10.1h6.94Z"/><path class="cls-1" d="M528.69,186.1h8.88c.72,0,1.33,0,1.85.05a10.32,10.32,0,0,1,1.33.16,6,6,0,0,1,4.28,3.11,8.36,8.36,0,0,1,.83,3.84,7.89,7.89,0,0,1-.68,3.33,6.19,6.19,0,0,1-2,2.41,5.92,5.92,0,0,1-2.05.91,14.2,14.2,0,0,1-3.29.3h-5.28v9.18h-3.89Zm3.89,3.37v7.34h5A5.15,5.15,0,0,0,541,196a3.44,3.44,0,0,0,1-2.78,3.6,3.6,0,0,0-1-2.8,4.58,4.58,0,0,0-3.14-.9Z"/><path class="cls-1" d="M548.1,186.1h16.7v3.42H551.91v6.07h11.9v3.26h-11.9v7h13.32v3.5H548.1Z"/><path class="cls-1" d="M567.7,186.1h11l.21,0a6.59,6.59,0,0,1,4.83,1.71,6.36,6.36,0,0,1,1.75,4.76,6.28,6.28,0,0,1-.85,3.36A5,5,0,0,1,582.2,198a3.48,3.48,0,0,1,2,1.45,4.4,4.4,0,0,1,.54,1.34,7.47,7.47,0,0,1,.21,1.87l.2,3.34a5,5,0,0,0,.25,1.77,1.6,1.6,0,0,0,.72.92v.68h-4.34a4.52,4.52,0,0,1-.39-1.08c0-.27-.1-.56-.14-.88s0-.68,0-1.11l-.13-2.78a5.83,5.83,0,0,0-.26-1.84,2.71,2.71,0,0,0-.69-1.15,4.07,4.07,0,0,0-2.76-.75h-5.89v9.59H567.7Zm3.81,3.28v7.15h5.55a5.59,5.59,0,0,0,3.48-.86,3.32,3.32,0,0,0,1.08-2.76,3.28,3.28,0,0,0-1-2.69,5.46,5.46,0,0,0-3.42-.84Z"/><path class="cls-1" d="M606.56,192.87l-3.68,0a3.76,3.76,0,0,0-.39-1.73,4.26,4.26,0,0,0-1.12-1.37,5.53,5.53,0,0,0-3.65-1.12,5.09,5.09,0,0,0-3.11.88,2.7,2.7,0,0,0-.14,4.38,13.33,13.33,0,0,0,4.45,1.72q5.13,1.28,6.71,2.82a5.63,5.63,0,0,1,1.58,4.24,6.51,6.51,0,0,1-2.46,5.28,11.84,11.84,0,0,1-13.33-.07,7.38,7.38,0,0,1-1.88-2.53,8.58,8.58,0,0,1-.69-3.48h3.76a4.34,4.34,0,0,0,.43,2,4.46,4.46,0,0,0,1.26,1.53,6.57,6.57,0,0,0,4.2,1.25,5.28,5.28,0,0,0,3.26-1,2.88,2.88,0,0,0,1.28-2.38,2.12,2.12,0,0,0-.09-.59,3.5,3.5,0,0,0-.28-.66,3.9,3.9,0,0,0-.9-1.22,10.28,10.28,0,0,0-4.08-1.61l-1-.25a12.45,12.45,0,0,1-5.5-2.61,5.79,5.79,0,0,1-1.63-4.34,5.73,5.73,0,0,1,2.37-4.73,10,10,0,0,1,6.28-1.83,8.92,8.92,0,0,1,6.1,2A6.8,6.8,0,0,1,606.56,192.87Z"/><path class="cls-1" d="M484.86,223.54H481a4.76,4.76,0,0,0-1.86-3.25,6.53,6.53,0,0,0-4-1.18,6.32,6.32,0,0,0-5.18,2.26,7.77,7.77,0,0,0-1.36,2.73,13.46,13.46,0,0,0-.46,3.66,10.43,10.43,0,0,0,1.86,6.55,6.09,6.09,0,0,0,5.07,2.39,6,6,0,0,0,4.23-1.51,5.79,5.79,0,0,0,1.86-4H485a8.23,8.23,0,0,1-.76,3.55,9.3,9.3,0,0,1-2.2,2.93,10.2,10.2,0,0,1-7.09,2.52,9.91,9.91,0,0,1-7.84-3.28q-2.88-3.28-2.88-9t2.91-9A11.85,11.85,0,0,1,482,217.74,8.07,8.07,0,0,1,484.86,223.54Z"/><path class="cls-1" d="M497.79,215.65a10.51,10.51,0,0,1,8.17,3.28q3,3.28,3,9t-3,9a11.81,11.81,0,0,1-16.36,0q-3-3.27-3-9c0-3.79,1-6.79,3-9A10.51,10.51,0,0,1,497.79,215.65Zm0,3.37a6.45,6.45,0,0,0-5.31,2.35,12.16,12.16,0,0,0,0,13.1,7.13,7.13,0,0,0,10.61,0,12.12,12.12,0,0,0,0-13.09A6.45,6.45,0,0,0,497.79,219Z"/><path class="cls-1" d="M511.78,216.26h5.63L523,234.9l5.69-18.63h5.62v23.29h-3.68V220.31l-5.78,19.24h-3.79l-5.7-19.25v19.25h-3.59Z"/><path class="cls-1" d="M538.19,216.26h5.63l5.59,18.64,5.69-18.63h5.63v23.29H557V220.31l-5.77,19.24h-3.8l-5.69-19.25v19.25h-3.59Z"/><path class="cls-1" d="M564.45,216.26h3.89v14.48a6.53,6.53,0,0,0,1.3,4.46,6.34,6.34,0,0,0,8.06,0,6.46,6.46,0,0,0,1.31-4.45V216.26h3.89V231q0,4.42-2.41,6.82t-6.83,2.41c-3,0-5.3-.78-6.87-2.33s-2.34-3.85-2.34-6.9Z"/><path class="cls-1" d="M586.59,216.26h4.11l10.85,17.44V216.26h3.75v23.29h-4.08l-10.91-17.42v17.42h-3.72Z"/><path class="cls-1" d="M609.16,216.26h3.9v23.29h-3.9Z"/><path class="cls-1" d="M614.79,216.26H633v3.42h-7.15v19.87H622V219.68h-7.19Z"/><path class="cls-1" d="M633.32,216.26h4.81l5.69,10.59,5.5-10.59h4.48l-8,14.09v9.2h-3.89v-9Z"/><path class="cls-2" d="M539.67,292.64a129.7,129.7,0,0,1-16.34,16.3l20.94,25.12a161,161,0,0,0,20-19.81l.51-.6c1.78-2.12,3.5-4.29,5.16-6.49L552.46,294q-2.58,2.55-5.28,4.95Z"/><path class="cls-2" d="M486.94,279.39a85.62,85.62,0,0,1-8.85,5.14l2.23,4.45c-1.16.59-2.34,1.15-3.53,1.68l30,66.8a163.18,163.18,0,0,0,32.4-19.35L494.61,280c-1.6,1.23-3.23,2.4-4.91,3.52Z"/><path class="cls-2" d="M366.62,163l-64.87-40.49A163.55,163.55,0,0,0,288,150q36.23,13,72.13,26.93A86.61,86.61,0,0,1,366.62,163"/><path class="cls-2" d="M471.8,95.19a118.76,118.76,0,0,1,22.91,9.1l8.62-16.48a136.43,136.43,0,0,1,12.86,7.64l14.62-21.78a160.76,160.76,0,0,0-15.31-9.11L512.34,63a163.88,163.88,0,0,0-21.4-8.79c-2.32-.76-4.65-1.48-7-2.14-4.51-1.26-9.08-2.34-13.68-3.22L463.18,86q5.29,1,10.51,2.47Z"/><path class="cls-2" d="M332.62,127.43a132.56,132.56,0,0,1,18.43-15.38l5.38,5.86a120.7,120.7,0,0,1,11.72-11.44l-21.71-31a161.86,161.86,0,0,0-16.22,13l-.48.45q-5,4.53-9.5,9.46-5.36,5.8-10.12,12.09c-1.67,2.2-3.28,4.45-4.84,6.73l15.1,10.28c1.86-1.7,3.75-3.35,5.68-4.93Z"/><path class="cls-2" d="M390.58,104.61c2.06-1,4.15-1.89,6.27-2.74l-11.1-27.59c2.49-1,5-1.94,7.57-2.81l1.92,5.64.78,2.33,1.83,5.36q6.11-2.07,12.41-3.55L410,75.49A135.3,135.3,0,0,1,425.41,73l-2.8-26.09a163,163,0,0,0-34.29,7.49l-.74.25q-4.29,1.45-8.49,3.15l-1,.4a164.37,164.37,0,0,0-26.29,13.66l24.36,38,1.33,2.07,3.06,4.77a107.68,107.68,0,0,1,11.64-6.5Z"/><path class="cls-2" d="M535.58,120.5c1.32,1.43,2.61,2.88,3.86,4.37l-2.85,3.43a123.25,123.25,0,0,1,7.45,9.91l3.64-2.46c1,1.41,1.89,2.85,2.8,4.3l27.78-17.26a163.81,163.81,0,0,0-16.92-22.59l-1.74-1.9a162.17,162.17,0,0,0-23.5-20.93l-10.51,14.4a145.17,145.17,0,0,1,20.93,18.63Z"/><path class="cls-2" d="M320.57,203.4A117.7,117.7,0,0,1,323.09,184l-5.48-1.18a126.77,126.77,0,0,1,4-14.45L285.8,156A163,163,0,0,0,277,211.67l37.88-.64c-.05-2.63,0-5.27.11-7.9Z"/><path class="cls-2" d="M372,337.12q-3.14-1.67-6.2-3.48L381,308.07a115.75,115.75,0,0,1-12.48-8.56l-29.41,37.37c4.16,3.28,8.49,6.35,12.95,9.21,1.54,1,3.1,1.94,4.67,2.88,2.29,1.35,4.61,2.66,7,3.9q2,1,3.93,2a163.23,163.23,0,0,0,23.23,9.37l7.92-25a136.35,136.35,0,0,1-22.8-9.55Z"/><path class="cls-2" d="M427.46,293.13,425,311.91q-3-.44-6-1.05l-5.29,25.61c-2.71-.57-5.4-1.21-8.07-1.94L397,366.07a160.56,160.56,0,0,0,20.85,4.27c1.44.2,2.88.38,4.33.54q6.65.74,13.33.92.13-38.91,1.16-77.81a83.45,83.45,0,0,1-9.2-.86"/><path class="cls-2" d="M477.64,335l-1.53-5.1q-5.82.16-11.51-.21L463,322c-1.67.35-3.35.65-5,.92l-1.1-6.92a105.36,105.36,0,0,1-10.78,1.16l.4,7c-1.7.1-3.4.16-5.11.18l.59,47.55a161.52,161.52,0,0,0,28.77-2.93l1.84-.37a163.63,163.63,0,0,0,27.72-8.32l-11.4-28.56q-5.56,1.92-11.26,3.36"/><path class="cls-2" d="M358.53,235.25l-6.88,1.66a83.38,83.38,0,0,1,1.82-11.86q-13.82,1.83-27.7,3.18-.94-5.52-1.34-11.1-23.6.84-47.21,1A161.58,161.58,0,0,0,282,248.93c.87,3.46,1.87,6.88,3,10.27q2.24,6.85,5.05,13.47,34.49-17.75,70.09-33.06c-.56-1.44-1.07-2.89-1.55-4.36"/><path class="cls-2" d="M339.14,311.37c2.35-2,2.51-6.31,2-10.79a53.29,53.29,0,0,0-2.81-12.1q2.14-3.17,4.39-6.26l-.1-.12c-2.4.79-4.83,1.55-7.28,2.25a47.88,47.88,0,0,0-10.68-6.66c-4.18-1.87-8.56-3-11.82-1.29-.24.13-.48.26-.72.41-1-2-2-4.05-2.91-6.1l-16.62,7.84A162.42,162.42,0,0,0,334,332.71l6.26-7.33.08.06,5.94-7.2q-3.67-3.32-7.12-6.87"/><path class="cls-2" d="M447.22,90.31c3.44-.56,6.94-1,10.48-1.19l6.18-41.4a162.21,162.21,0,0,0-34.82-1.42l.69,10.34,2.49,37.11,1.1,16.55a94.62,94.62,0,0,1,10.54-3.18q1.47-8.43,3.34-16.81"/><text class="cls-3" transform="translate(465.34 268.01)">BARRANQUILLA</text></svg>