<svg id="Capa_1" data-name="Capa 1" xmlns="http://www.w3.org/2000/svg" viewBox="0 0 1000 417.78"><defs><style>.cls-1{fill:#959ca1;}.cls-2,.cls-3{fill:#07549c;}.cls-3{font-size:32.36px;font-family:HelveticaNeue-Medium, Helvetica Neue;font-weight:500;}</style></defs><title>paquete</title><path class="cls-1" d="M473.45,165.54h-3.84a5.14,5.14,0,0,0-2-3.23,6.37,6.37,0,0,0-3.91-1.17,6.69,6.69,0,0,0-5.42,2.32,11.88,11.88,0,0,0,0,13,6.51,6.51,0,0,0,5.31,2.37,6.24,6.24,0,0,0,6.05-3.86,7,7,0,0,0,.49-2.66h-6.38v-3.21h10v12.58h-2.56l-.65-2.94a8.32,8.32,0,0,1-3.14,2.65,9.46,9.46,0,0,1-4.18.9,10,10,0,0,1-7.82-3.36,12.87,12.87,0,0,1-3-8.88,15.93,15.93,0,0,1,.74-5,11,11,0,0,1,2.28-3.91,10.35,10.35,0,0,1,8.07-3.33,10.86,10.86,0,0,1,6.83,2A8.34,8.34,0,0,1,473.45,165.54Z"/><path class="cls-1" d="M477.32,158.42h3.89v19.76H492.7v3.53H477.32Z"/><path class="cls-1" d="M504,157.81a10.51,10.51,0,0,1,8.17,3.28q3,3.28,3,9t-3,9a11.81,11.81,0,0,1-16.36,0q-3-3.27-3-9c0-3.8,1-6.79,3-9A10.48,10.48,0,0,1,504,157.81Zm0,3.37a6.5,6.5,0,0,0-5.32,2.34,12.2,12.2,0,0,0,0,13.11,7.13,7.13,0,0,0,10.61,0,12.19,12.19,0,0,0,0-13.1A6.48,6.48,0,0,0,504,161.18Z"/><path class="cls-1" d="M518,158.42h10.07a8.56,8.56,0,0,1,5.47,1.48,6.08,6.08,0,0,1,1,7.36,4.8,4.8,0,0,1-2.29,1.88,5.46,5.46,0,0,1,3,2,6.11,6.11,0,0,1,1,3.67,6.28,6.28,0,0,1-2.17,5,8.83,8.83,0,0,1-6,1.87H518Zm3.78,3.25v6.21h5.49a5.1,5.1,0,0,0,3.19-.79,2.94,2.94,0,0,0,1-2.47,2.57,2.57,0,0,0-1-2.2,5.09,5.09,0,0,0-3-.75Zm0,9.39v7.21h6.09a5.28,5.28,0,0,0,3.34-.89,3.32,3.32,0,0,0,1.14-2.77,3.15,3.15,0,0,0-1.14-2.68,5.84,5.84,0,0,0-3.56-.87Z"/><path class="cls-1" d="M544.9,158.42h4.37l8.56,23.29h-4.15l-2.09-6h-9.07l-2,6h-4Zm2.17,3.92-3.47,10.09h6.94Z"/><path class="cls-1" d="M559.42,158.42h3.89v19.76H574.8v3.53H559.42Z"/><path class="cls-1" d="M470,195.35l-3.68,0a3.76,3.76,0,0,0-.39-1.73,4.26,4.26,0,0,0-1.12-1.37,5.53,5.53,0,0,0-3.65-1.12,5.09,5.09,0,0,0-3.11.88,2.65,2.65,0,0,0-1.19,2.2,2.68,2.68,0,0,0,1.05,2.18,13.23,13.23,0,0,0,4.45,1.72c3.42.85,5.65,1.79,6.71,2.81a5.67,5.67,0,0,1,1.58,4.25,6.51,6.51,0,0,1-2.46,5.28,11.88,11.88,0,0,1-13.33-.07,7.25,7.25,0,0,1-1.88-2.53,8.58,8.58,0,0,1-.69-3.48h3.76a4.34,4.34,0,0,0,.43,2,4.44,4.44,0,0,0,1.26,1.53,6.56,6.56,0,0,0,4.19,1.25,5.29,5.29,0,0,0,3.27-1,2.87,2.87,0,0,0,1.27-2.38,2.46,2.46,0,0,0-.08-.59,3.5,3.5,0,0,0-.28-.66,3.9,3.9,0,0,0-.9-1.22,10.28,10.28,0,0,0-4.08-1.61l-1-.26a12.33,12.33,0,0,1-5.51-2.61,5.78,5.78,0,0,1-1.62-4.33,5.71,5.71,0,0,1,2.37-4.73,10,10,0,0,1,6.28-1.83,8.92,8.92,0,0,1,6.1,2A6.79,6.79,0,0,1,470,195.35Z"/><path class="cls-1" d="M473.46,188.58h3.89v9.16h11v-9.16h3.89v23.29h-3.89V201.21h-11v10.66h-3.89Z"/><path class="cls-1" d="M502.35,188.58h4.37l8.56,23.29h-4.15l-2.09-6H500l-2,6h-4Zm2.17,3.91-3.47,10.1H508Z"/><path class="cls-1" d="M516.87,188.58h8.88c.71,0,1.33,0,1.85,0a10.55,10.55,0,0,1,1.33.16,6,6,0,0,1,4.28,3.11,8.36,8.36,0,0,1,.83,3.84,7.89,7.89,0,0,1-.68,3.33,6.26,6.26,0,0,1-2,2.41,5.92,5.92,0,0,1-2,.91,14.2,14.2,0,0,1-3.29.3h-5.28v9.18h-3.89Zm3.89,3.37v7.34h5a5.15,5.15,0,0,0,3.34-.86,3.44,3.44,0,0,0,1-2.78,3.6,3.6,0,0,0-1-2.8A4.58,4.58,0,0,0,526,192Z"/><path class="cls-1" d="M536.28,188.58H553V192H540.09v6.07H552v3.26h-11.9v7h13.32v3.5H536.28Z"/><path class="cls-1" d="M555.88,188.58h11l.21,0a6.59,6.59,0,0,1,4.83,1.71,7.23,7.23,0,0,1,.9,8.12,5,5,0,0,1-2.49,2,3.53,3.53,0,0,1,2,1.46,4.67,4.67,0,0,1,.54,1.34,7.47,7.47,0,0,1,.21,1.87l.2,3.34a5,5,0,0,0,.25,1.77,1.6,1.6,0,0,0,.72.92v.68H570a4.52,4.52,0,0,1-.39-1.08c-.06-.27-.1-.57-.14-.88s-.05-.68-.05-1.11l-.13-2.78a5.83,5.83,0,0,0-.26-1.84,2.81,2.81,0,0,0-.69-1.15,4.07,4.07,0,0,0-2.76-.75h-5.89v9.59h-3.81Zm3.81,3.28V199h5.55a5.63,5.63,0,0,0,3.48-.86,3.32,3.32,0,0,0,1.08-2.76,3.28,3.28,0,0,0-1-2.69,5.46,5.46,0,0,0-3.42-.84Z"/><path class="cls-1" d="M594.74,195.35l-3.68,0a3.76,3.76,0,0,0-.39-1.73,4.26,4.26,0,0,0-1.12-1.37,5.53,5.53,0,0,0-3.65-1.12,5.09,5.09,0,0,0-3.11.88,2.7,2.7,0,0,0-.14,4.38,13.23,13.23,0,0,0,4.45,1.72c3.42.85,5.65,1.79,6.71,2.81a5.67,5.67,0,0,1,1.58,4.25,6.51,6.51,0,0,1-2.46,5.28,11.88,11.88,0,0,1-13.33-.07,7.25,7.25,0,0,1-1.88-2.53,8.58,8.58,0,0,1-.69-3.48h3.76a4.34,4.34,0,0,0,.43,2,4.44,4.44,0,0,0,1.26,1.53,6.57,6.57,0,0,0,4.2,1.25,5.28,5.28,0,0,0,3.26-1,2.88,2.88,0,0,0,1.28-2.38,2.06,2.06,0,0,0-.09-.59,3.5,3.5,0,0,0-.28-.66,3.9,3.9,0,0,0-.9-1.22,10.28,10.28,0,0,0-4.08-1.61l-1-.26a12.23,12.23,0,0,1-5.5-2.61,6.19,6.19,0,0,1,.74-9.06,10,10,0,0,1,6.28-1.83,8.92,8.92,0,0,1,6.1,2A6.79,6.79,0,0,1,594.74,195.35Z"/><path class="cls-1" d="M473,226h-3.82a4.76,4.76,0,0,0-1.86-3.25,6.47,6.47,0,0,0-4.05-1.18,6.29,6.29,0,0,0-5.17,2.26,7.81,7.81,0,0,0-1.36,2.72,13.59,13.59,0,0,0-.46,3.67,10.38,10.38,0,0,0,1.86,6.54,6.07,6.07,0,0,0,5.07,2.4,6,6,0,0,0,4.23-1.51,5.87,5.87,0,0,0,1.86-4h3.8a8.37,8.37,0,0,1-.76,3.55,9.3,9.3,0,0,1-2.2,2.93,10.2,10.2,0,0,1-7.09,2.52,9.89,9.89,0,0,1-7.84-3.29q-2.88-3.27-2.88-9t2.91-9a11.85,11.85,0,0,1,14.86-1.15A8.07,8.07,0,0,1,473,226Z"/><path class="cls-1" d="M486,218.13a10.51,10.51,0,0,1,8.17,3.28q3,3.28,3,9t-3,9a11.81,11.81,0,0,1-16.36,0q-3-3.27-3-9c0-3.79,1-6.79,3-9A10.48,10.48,0,0,1,486,218.13Zm0,3.37a6.47,6.47,0,0,0-5.31,2.34,12.18,12.18,0,0,0,0,13.11,7.13,7.13,0,0,0,10.61,0,12.19,12.19,0,0,0,0-13.1A6.47,6.47,0,0,0,486,221.5Z"/><path class="cls-1" d="M500,218.74h5.63l5.59,18.64,5.7-18.64h5.62V242h-3.68V222.79L513,242h-3.79l-5.7-19.25V242H500Z"/><path class="cls-1" d="M526.37,218.74H532l5.59,18.64,5.69-18.64h5.63V242h-3.69V222.79L539.45,242h-3.8L530,222.78V242h-3.59Z"/><path class="cls-1" d="M552.63,218.74h3.89v14.48a6.54,6.54,0,0,0,1.3,4.46,6.34,6.34,0,0,0,8.06,0,6.48,6.48,0,0,0,1.31-4.45V218.74h3.89v14.71a9.24,9.24,0,0,1-2.41,6.82q-2.4,2.41-6.83,2.41T555,240.35q-2.34-2.32-2.34-6.9Z"/><path class="cls-1" d="M574.77,218.74h4.11l10.85,17.44V218.74h3.75V242H589.4l-10.92-17.42V242h-3.71Z"/><path class="cls-1" d="M597.34,218.74h3.89V242h-3.89Z"/><path class="cls-1" d="M603,218.74h18.21v3.42H614V242h-3.86V222.16H603Z"/><path class="cls-1" d="M621.5,218.74h4.8l5.7,10.59,5.5-10.59H642l-8,14.09V242h-3.89v-9Z"/><path class="cls-2" d="M527.85,295.12a129.7,129.7,0,0,1-16.34,16.3l20.94,25.12a161.7,161.7,0,0,0,20-19.81l.51-.6c1.78-2.12,3.5-4.29,5.16-6.49l-17.45-13.17c-1.72,1.7-3.47,3.35-5.27,4.95Z"/><path class="cls-2" d="M475.12,281.87a85.62,85.62,0,0,1-8.85,5.14l2.23,4.45c-1.16.59-2.34,1.15-3.53,1.68l30,66.79a162.66,162.66,0,0,0,32.4-19.34L482.79,282.5q-2.4,1.85-4.92,3.52Z"/><path class="cls-2" d="M354.8,165.5,289.93,125a164.36,164.36,0,0,0-13.74,27.44q36.24,13.05,72.14,26.93a86.61,86.61,0,0,1,6.47-13.88"/><path class="cls-2" d="M460,97.67a118.76,118.76,0,0,1,22.91,9.1l8.62-16.48a136.43,136.43,0,0,1,12.86,7.64L519,76.15A160.76,160.76,0,0,0,503.68,67l-3.16-1.61a163.44,163.44,0,0,0-21.41-8.79q-3.47-1.16-7-2.14-6.76-1.89-13.69-3.22L451.35,88.5q5.31,1,10.51,2.47Z"/><path class="cls-2" d="M320.8,129.91a131.41,131.41,0,0,1,18.43-15.38l5.38,5.86A120.7,120.7,0,0,1,356.33,109l-21.71-31a161.86,161.86,0,0,0-16.22,13l-.49.45q-4.94,4.53-9.49,9.46-5.35,5.81-10.12,12.09c-1.67,2.2-3.28,4.45-4.84,6.73l15.1,10.28c1.86-1.7,3.75-3.35,5.68-4.93Z"/><path class="cls-2" d="M378.75,107.09q3.11-1.47,6.28-2.74l-11.1-27.59c2.49-1,5-1.94,7.57-2.81l1.92,5.64.78,2.33L386,87.28q6.11-2.09,12.4-3.55L398.22,78a135.3,135.3,0,0,1,15.37-2.54l-2.8-26.09a162.34,162.34,0,0,0-34.29,7.49l-.74.25q-4.29,1.45-8.49,3.15l-1,.4A164.37,164.37,0,0,0,340,74.29l24.36,38,1.33,2.07,3.06,4.77a106.74,106.74,0,0,1,11.64-6.5Z"/><path class="cls-2" d="M523.76,123c1.32,1.43,2.61,2.88,3.86,4.37l-2.85,3.43a123.25,123.25,0,0,1,7.45,9.91l3.64-2.46c1,1.41,1.89,2.85,2.8,4.3l27.78-17.26a162.48,162.48,0,0,0-16.93-22.59l-1.73-1.9a162.17,162.17,0,0,0-23.5-20.93l-10.51,14.4a144.56,144.56,0,0,1,20.92,18.63Z"/><path class="cls-2" d="M308.75,205.87a117.72,117.72,0,0,1,2.52-19.42l-5.48-1.18a126.77,126.77,0,0,1,4-14.45L274,158.51a163,163,0,0,0-8.82,55.64l37.87-.64c0-2.63,0-5.27.12-7.9Z"/><path class="cls-2" d="M360.16,339.6q-3.14-1.67-6.2-3.48l15.17-25.57A114.41,114.41,0,0,1,356.65,302l-29.41,37.38q6.24,4.92,12.95,9.21c1.54,1,3.1,1.94,4.67,2.88,2.29,1.35,4.61,2.66,7,3.9q1.95,1,3.93,2A163.23,163.23,0,0,0,379,366.73l7.91-25a137.44,137.44,0,0,1-22.79-9.55Z"/><path class="cls-2" d="M415.64,295.61l-2.5,18.78q-3-.43-6-1.05L401.87,339c-2.71-.57-5.4-1.21-8.07-1.94l-8.63,31.54A160.56,160.56,0,0,0,406,372.82c1.44.2,2.88.38,4.33.54q6.63.74,13.33.92.13-38.91,1.16-77.81a83.45,83.45,0,0,1-9.2-.86"/><path class="cls-2" d="M465.82,337.5l-1.53-5.1q-5.82.17-11.51-.21l-1.59-7.76c-1.68.35-3.35.65-5,.92l-1.1-6.92a105.36,105.36,0,0,1-10.78,1.16l.4,7c-1.7.1-3.41.16-5.11.17l.59,47.56a161.52,161.52,0,0,0,28.77-2.93l1.84-.37a163.9,163.9,0,0,0,27.72-8.32l-11.4-28.57q-5.56,1.94-11.26,3.37"/><path class="cls-2" d="M346.71,237.73l-6.88,1.66a83.38,83.38,0,0,1,1.82-11.86q-13.81,1.83-27.7,3.18c-.63-3.68-1.08-7.39-1.34-11.1q-23.6.84-47.22,1a161.6,161.6,0,0,0,4.76,30.78c.87,3.46,1.87,6.88,3,10.27q2.24,6.84,5.05,13.47,34.49-17.75,70.09-33.06c-.56-1.44-1.08-2.89-1.55-4.36"/><path class="cls-2" d="M327.32,313.85c2.35-2,2.51-6.31,2-10.79a53.29,53.29,0,0,0-2.81-12.1c1.43-2.12,2.89-4.2,4.39-6.26l-.1-.12c-2.4.79-4.83,1.55-7.28,2.25a48.11,48.11,0,0,0-10.69-6.67c-4.17-1.86-8.55-3-11.81-1.28-.24.13-.48.26-.72.41-1-2-2-4.05-2.91-6.1L280.8,281a162.42,162.42,0,0,0,41.36,54.16l6.26-7.33.08.06,5.94-7.2q-3.68-3.32-7.12-6.87"/><path class="cls-2" d="M435.4,92.79c3.44-.56,6.94-1,10.48-1.2l6.18-41.39a162.86,162.86,0,0,0-34.82-1.43l.69,10.35,2.49,37.11,1.1,16.55a94.44,94.44,0,0,1,10.53-3.18q1.49-8.43,3.35-16.81"/><text class="cls-3" transform="translate(453.52 270.49)">BARRANQUILLA</text></svg>