<svg id="Capa_1" data-name="Capa 1" xmlns="http://www.w3.org/2000/svg" viewBox="0 0 1000 417.78"><defs><style>.cls-1{fill:#25262e;}.cls-2{fill:#1d8fbc;}.cls-3{fill:#24252d;}.cls-4{fill:#25252d;}.cls-5{fill:#24252c;}.cls-6{fill:#95949b;}.cls-7{fill:#747375;}.cls-8{fill:#25262d;}</style></defs><title>paquete</title><path class="cls-1" d="M647,225.37c-.08,16.06-.2,32.11-.18,48.17,0,2.35-.85,3-3.05,2.94-5.49-.11-11-.12-16.46,0-2.29.05-3-.72-3-3,.22-24.76.28-49.52.53-74.28.06-7,2.65-9.22,9.68-9.25,3.08,0,6.17.19,9.23-.05,4.46-.35,7.43,1.59,9.44,5.38,8.48,16.06,18.39,31.36,25.57,48.12a4.61,4.61,0,0,0,1.89,2.23c-.25-3.74-.73-7.48-.73-11.23,0-13.78.2-27.56.23-41.34,0-2.15.52-3.19,2.89-3.14q8.43.16,16.87,0c2.2,0,2.72.88,2.7,2.87-.31,23.81-.35,47.62-.93,71.43-.27,11.43-1.58,12.23-13.07,12.23-1.74,0-3.48,0-5.22,0-4.61.1-7.79-1.93-10-6-7.08-13-14.34-26-21.43-39a82.78,82.78,0,0,1-3.31-7.73,15.8,15.8,0,0,1-1.33-2.49C646.89,222.61,646.3,223.93,647,225.37Z"/><path class="cls-1" d="M815.69,276.44H790.36c-2.09,0-2.45-1.81-3.19-3.16-5.59-10.2-11.14-20.42-16.74-30.61-.56-1-.85-2.3-2-2.88-2.79-1.36-4.86.18-4.85,3.32.05,10.17-.08,20.34,0,30.51,0,2-.39,2.93-2.63,2.88-6.29-.12-12.58-.09-18.88,0-1.94,0-2.55-.67-2.51-2.57q.51-31.52.91-63c.08-5.75.16-11.52,0-17.27-.07-2.68.53-3.85,3.52-3.74,5.89.23,11.78.14,17.68.05,2,0,2.89.57,2.83,2.74-.24,9,.38,17.93-.68,26.87-.15,1.25-1.37,3.26.69,3.81s4.06.61,5.52-1.86c5.56-9.46,11.44-18.72,16.94-28.21,1.5-2.57,3.13-3.48,6-3.39,6.16.2,12.32.13,18.48,0,2.56,0,3.58.26,1.84,3-6.79,10.58-13.4,21.29-20.23,31.84-1.63,2.51-5.29,4.52-5.45,6.93-.14,2.1,4.1,3.72,5.61,6.3C800.52,250.49,807.86,263.06,815.69,276.44Z"/><path class="cls-1" d="M429.59,178.14c5.49,0,11-.06,16.47,0,6.81.1,11.25,4.84,10.82,11.63-1.16,18.67-2.2,37.36-3.7,56-.78,9.78-2.8,19.31-9.34,27.27-8.68,10.55-22.8,14.13-37.21,9.19-11.75-4-20.85-16.64-21.07-29.17-.13-7,3.81-11.75,9.74-11.85s10.5,4.61,10.9,11.1c.43,7.17,2.47,10.08,8.19,11.7,5.41,1.52,10.54-.59,14.23-5.76,3-4.24,3.56-9.18,3.93-14.11,1.06-14.26,1.93-28.53,3-42.79.19-2.51-.57-3.29-3.06-3.23-6.15.14-12.31.13-18.47,0-7.22-.11-12.71-8-10.1-14.37a8.47,8.47,0,0,1,8.4-5.67C418.08,178.11,423.84,178.14,429.59,178.14Z"/><path class="cls-2" d="M242.59,235.09c.28-2.93.43-5.88.89-8.77.71-4.56,3.54-7.14,7-6.69,3.84.49,5.82,3.58,5,8.45-1.77,11.16.38,21.29,7.63,30.11,9.11,11.06,21.08,15.64,35,13.4,14.77-2.39,25.71-11,29.57-25.54,5.1-19.22,9.11-38.76,12.43-58.4.38-2.21-1.36-6.22,3.58-6,4.65.18,8.28,3.24,8.36,7.47.08,3.91-.83,7.72-1.66,11.5-3.69,16.69-6.75,33.57-11.39,50-5.87,20.82-26.45,34.21-49.29,33.53-20.91-.62-40.19-16.12-45.37-36.32A54,54,0,0,1,242.59,235.09Z"/><path class="cls-1" d="M286.61,181.61c6.1,0,6.11,0,5.05,5.81a159.67,159.67,0,0,1-13.29,41c-4.86,10.06,1.49,20.3,12.93,21a15.6,15.6,0,0,0,16.26-11.06,297.56,297.56,0,0,0,11.63-53.18c.36-2.92,1.32-3.72,4.21-3.66,8.72.17,8.58,0,7.31,8.89a335.61,335.61,0,0,1-11.52,51.17,27.87,27.87,0,0,1-28.32,19.81c-12.45-.56-24.31-10.48-26.7-22.31a18.84,18.84,0,0,1,1.75-12.47,147.15,147.15,0,0,0,14-42.44C280.33,181.6,280.42,181.62,286.61,181.61Z"/><path class="cls-1" d="M732.53,222.86c0,16.84,0,33.69,0,50.53,0,2.14-.43,3.15-2.85,3.1-6-.14-12-.1-18.06,0-2.15,0-3.11-.53-3.07-2.92.37-22.19.64-44.38.93-66.56.05-4.55.2-9.1,0-13.64-.09-2.54.48-3.58,3.29-3.47,5.74.22,11.51.23,17.25,0,3-.13,3.52,1,3.49,3.71-.14,9.75-.06,19.52-.06,29.28Z"/><path class="cls-3" d="M297,295.29a5.45,5.45,0,0,1,4.2-4.1c19.72-4.55,32.51-17.54,42.07-34.45,3.54-6.26,6.05-13,8.92-19.73,0,9.35,0,18.7-.05,28.05a4.69,4.69,0,0,1-1,2.13,83.47,83.47,0,0,1-25.3,26.46,9.52,9.52,0,0,1-5.6,1.68C312.61,295.23,305,295.29,297,295.29Z"/><path class="cls-1" d="M305.61,181.61c6.44,0,6.45,0,5.65,6a206.27,206.27,0,0,1-12.95,48.56c-1.67,4.22-4.92,5.86-8.42,4.4-3.29-1.37-4.42-4.7-2.81-8.77,6-15.07,10.37-30.57,12.13-46.7C299.79,179.79,303.4,182.17,305.61,181.61Z"/><path class="cls-4" d="M235.43,246.26a47.38,47.38,0,0,0,36.91,41.82c3.9.91,7.81,1.74,11.72,2.6,2.43.53,4.45,1.56,5.44,4.6-10.87,0-21.37,0-31.87,0a6.3,6.3,0,0,1-2.94-1.07c-2.74-1.66-5.47-3.34-8.08-5.18-8.29-5.81-13.88-12.75-12.13-24,1-6.14.25-12.53.3-18.81C235,245.81,235.25,245.83,235.43,246.26Z"/><path class="cls-1" d="M264.09,181.6c6.21,0,6.21,0,4.93,6.15a155.65,155.65,0,0,1-6.72,23.88c-1.58,4.13-4.54,5.82-8,4.63s-4.82-4.53-3.35-8.58a127,127,0,0,0,6.34-23.56c.33-2.08,1.24-2.73,3.19-2.54C261.67,181.7,262.89,181.6,264.09,181.6Z"/><path class="cls-5" d="M234.74,237.37c0-14.84-.22-29.68,0-44.52.1-8.77,3.14-11.39,11.38-11.31,2.43,0,2.87.68,2.44,3-1.77,9.46-4.49,18.67-6.87,28-2.12,8.27-5,16.33-6.18,24.84C235.26,237.69,235,237.74,234.74,237.37Z"/><path class="cls-6" d="M647,225.37c-1.28-2.14-1-4.38-.56-7.29,1.65,2,2.36,3.62,2.25,5.62C646.27,222.38,647.71,225,647,225.37Z"/><path class="cls-7" d="M234.74,237.37a4.4,4.4,0,0,1,.73-.07l0,9-.33,0-.32-.09A28.12,28.12,0,0,1,234.74,237.37Z"/><path class="cls-1" d="M618.34,210.27c-2.37-11-9-18.3-20.47-20.6a78.9,78.9,0,0,0-32.64.17C553.6,192.35,547,199.7,544.34,211A98.7,98.7,0,0,0,542.09,235a87.8,87.8,0,0,0,1.18,17.17c2.11,14.35,9.05,21.85,23.08,24.52a82,82,0,0,0,29.92-.07c10.82-1.93,18-8.27,21-18.66C621.78,242.21,621.77,226.17,618.34,210.27ZM593.58,250.2c-1.8,6.75-5.9,9.81-13.21,9.58-7.06-.23-10.91-3.52-12-10.41a97.18,97.18,0,0,1,.17-31.88c1.23-7.47,5-10.77,12-11,8.45-.23,11.81,2.29,13.64,10.27a18.69,18.69,0,0,1,.5,2.75c.31,4,.56,8,.83,12.05C594.77,237.74,595.21,244.05,593.58,250.2Z"/><path class="cls-8" d="M539.1,213.7C537,201,530.45,191.88,517,189.45a80.82,80.82,0,0,0-31.49.31c-12.2,2.6-18.87,10.26-21.39,22.15a114,114,0,0,0-2.21,23.83,94.75,94.75,0,0,0,1.28,16.08c2.12,13.9,8.54,21.59,20.86,24.41,10.16,2.33,20.43,2.11,30.71.64,12.84-1.84,20.42-9.53,23.32-21.72A104.25,104.25,0,0,0,539.1,213.7Zm-25.76,36.86c-1.45,6.64-5.9,9.45-13.08,9.22-6.83-.22-10.65-3.4-12-10.13a52.51,52.51,0,0,1-1-7.15c-.16-2.94,0-5.89,0-8.83,0-6.54,0-13.12,2.07-19.45,1.85-5.67,5.54-7.87,12.91-7.7,6.31.14,10,2.56,11.23,8.22A82.6,82.6,0,0,1,513.34,250.56Z"/></svg>