<svg id="Capa_1" data-name="Capa 1" xmlns="http://www.w3.org/2000/svg" viewBox="0 0 1000 417.78"><defs><style>.cls-1{fill:#25262e;}.cls-2{fill:#1d8fbc;}.cls-3{fill:#24252d;}.cls-4{fill:#25252d;}.cls-5{fill:#24252c;}.cls-6{fill:#95949b;}.cls-7{fill:#747375;}.cls-8{fill:#25262d;}</style></defs><title>JOO</title><path class="cls-1" d="M622.08,197.54c-.07,16.05-.19,32.11-.17,48.16,0,2.35-.85,3-3,3-5.49-.11-11-.12-16.47,0-2.28.05-3-.72-2.95-3,.22-24.75.28-49.51.52-74.27.07-7,2.65-9.22,9.68-9.26,3.08,0,6.18.2,9.24,0,4.46-.36,7.43,1.59,9.43,5.38,8.49,16.06,18.4,31.36,25.58,48.11a4.63,4.63,0,0,0,1.89,2.24c-.26-3.74-.73-7.49-.73-11.23,0-13.78.2-27.56.22-41.34,0-2.15.53-3.19,2.9-3.15,5.62.11,11.25.12,16.87,0,2.2-.05,2.72.88,2.7,2.86-.31,23.81-.36,47.63-.93,71.43-.27,11.44-1.59,12.24-13.07,12.24-1.74,0-3.48,0-5.22,0-4.61.1-7.79-1.93-10-6-7.07-13-14.33-26-21.43-39-1.33-2.45-2.21-5.15-3.31-7.73a17.69,17.69,0,0,1-1.32-2.49C622,194.78,621.38,196.09,622.08,197.54Z"/><path class="cls-1" d="M790.77,248.6c-9.07,0-17.21,0-25.34,0-2.08,0-2.44-1.82-3.18-3.16-5.59-10.2-11.14-20.42-16.74-30.62-.56-1-.86-2.3-2-2.87-2.79-1.36-4.86.18-4.85,3.31,0,10.18-.08,20.35,0,30.52,0,2-.39,2.92-2.63,2.88-6.29-.12-12.59-.09-18.88,0-1.94,0-2.55-.67-2.52-2.58q.53-31.5.92-63c.07-5.76.16-11.52,0-17.27-.08-2.68.53-3.86,3.52-3.74,5.88.23,11.78.13,17.67,0,2,0,2.9.57,2.84,2.74-.24,8.95.38,17.93-.69,26.87-.14,1.25-1.36,3.25.7,3.8s4.06.62,5.51-1.85c5.56-9.46,11.45-18.72,17-28.21,1.49-2.58,3.13-3.49,6-3.39,6.15.2,12.32.13,18.48,0,2.55-.05,3.57.25,1.84,2.95-6.8,10.58-13.4,21.29-20.24,31.84-1.62,2.51-5.29,4.52-5.44,6.92-.14,2.11,4.1,3.73,5.61,6.3C775.6,222.65,782.94,235.22,790.77,248.6Z"/><path class="cls-1" d="M404.67,150.31c5.49,0,11-.06,16.47,0,6.8.09,11.24,4.83,10.82,11.62-1.16,18.68-2.2,37.37-3.7,56-.78,9.77-2.8,19.3-9.34,27.26-8.68,10.56-22.8,14.13-37.21,9.19-11.75-4-20.86-16.63-21.08-29.17-.12-7,3.82-11.75,9.75-11.84s10.5,4.6,10.89,11.09c.44,7.17,2.48,10.09,8.2,11.7,5.41,1.53,10.54-.58,14.22-5.75,3-4.24,3.56-9.18,3.93-14.11,1.07-14.26,1.94-28.54,3-42.79.19-2.51-.57-3.29-3.06-3.24-6.15.14-12.32.13-18.47,0-7.22-.11-12.72-8-10.11-14.37a8.48,8.48,0,0,1,8.41-5.67C393.16,150.28,398.91,150.3,404.67,150.31Z"/><path class="cls-2" d="M217.66,207.25c.29-2.92.44-5.87.89-8.77.72-4.55,3.54-7.13,7-6.69,3.85.5,5.83,3.59,5.05,8.46-1.78,11.16.37,21.29,7.63,30.1,9.11,11.07,21.08,15.64,35,13.4,14.76-2.38,25.71-11,29.57-25.54,5.1-19.21,9.1-38.75,12.43-58.4.37-2.2-1.36-6.22,3.57-6,4.66.17,8.29,3.24,8.37,7.47a49.65,49.65,0,0,1-1.66,11.49c-3.69,16.7-6.76,33.57-11.39,50-5.88,20.83-26.45,34.22-49.29,33.54-20.91-.62-40.19-16.12-45.38-36.32A55.12,55.12,0,0,1,217.66,207.25Z"/><path class="cls-1" d="M261.69,153.78c6.1,0,6.11,0,5.05,5.81a159.73,159.73,0,0,1-13.29,41c-4.86,10.06,1.49,20.3,12.93,21a15.6,15.6,0,0,0,16.26-11.06,297.64,297.64,0,0,0,11.63-53.17c.35-2.92,1.31-3.72,4.21-3.66,8.71.17,8.58,0,7.31,8.89a335.22,335.22,0,0,1-11.52,51.16A27.86,27.86,0,0,1,266,233.56c-12.46-.56-24.31-10.47-26.71-22.31A18.94,18.94,0,0,1,241,198.79a146.87,146.87,0,0,0,14-42.44C255.41,153.77,255.5,153.78,261.69,153.78Z"/><path class="cls-1" d="M707.61,195c0,16.84,0,33.68,0,50.52,0,2.15-.44,3.16-2.85,3.11-6-.14-12-.11-18.06,0-2.16,0-3.11-.53-3.07-2.92q.55-33.28.92-66.57c.06-4.54.2-9.1,0-13.64-.09-2.53.48-3.57,3.28-3.46,5.75.22,11.51.23,17.26,0,3-.13,3.52,1,3.48,3.7-.13,9.76,0,19.52,0,29.28Z"/><path class="cls-3" d="M272.06,267.45a5.45,5.45,0,0,1,4.21-4.09c19.71-4.55,32.51-17.54,42.07-34.46,3.53-6.25,6.05-13,8.91-19.73,0,9.36,0,18.71,0,28.06a4.84,4.84,0,0,1-1,2.13,83.79,83.79,0,0,1-25.3,26.46,9.48,9.48,0,0,1-5.6,1.67C287.68,267.4,280.06,267.45,272.06,267.45Z"/><path class="cls-1" d="M280.69,153.77c6.44,0,6.45,0,5.65,6a205.76,205.76,0,0,1-13,48.57c-1.66,4.22-4.92,5.85-8.42,4.4-3.29-1.37-4.41-4.71-2.81-8.77,6-15.07,10.38-30.57,12.14-46.7C274.87,152,278.47,154.33,280.69,153.77Z"/><path class="cls-4" d="M210.51,218.43a47.38,47.38,0,0,0,36.91,41.82c3.9.9,7.81,1.73,11.72,2.59,2.43.54,4.44,1.57,5.44,4.61-10.87,0-21.37,0-31.87-.05a6.3,6.3,0,0,1-2.94-1.07c-2.74-1.66-5.47-3.34-8.09-5.18-8.28-5.81-13.87-12.75-12.13-24,1-6.14.26-12.54.31-18.82C210.11,218,210.33,218,210.51,218.43Z"/><path class="cls-1" d="M239.17,153.77c6.21,0,6.21,0,4.93,6.15a156.67,156.67,0,0,1-6.72,23.87c-1.58,4.14-4.55,5.83-8,4.64s-4.83-4.53-3.35-8.58a127.63,127.63,0,0,0,6.34-23.57c.33-2.07,1.24-2.72,3.19-2.53C236.75,153.86,238,153.77,239.17,153.77Z"/><path class="cls-5" d="M209.81,209.53c0-14.84-.21-29.68,0-44.52.1-8.76,3.14-11.39,11.38-11.31,2.43,0,2.87.68,2.44,3-1.77,9.46-4.49,18.68-6.88,28-2.11,8.26-5,16.33-6.17,24.84C210.34,209.86,210.1,209.9,209.81,209.53Z"/><path class="cls-6" d="M622.08,197.54c-1.27-2.14-1-4.38-.55-7.29,1.64,1.95,2.35,3.61,2.24,5.62C621.35,194.54,622.79,197.13,622.08,197.54Z"/><path class="cls-7" d="M209.81,209.53a4.62,4.62,0,0,1,.74-.06l0,9-.33,0-.32-.1A28.42,28.42,0,0,1,209.81,209.53Z"/><path class="cls-1" d="M593.41,182.44c-2.36-11-9-18.3-20.46-20.61a78.9,78.9,0,0,0-32.64.18c-11.63,2.5-18.25,9.86-20.89,21.2a98.62,98.62,0,0,0-2.25,23.91,88.58,88.58,0,0,0,1.17,17.18c2.11,14.35,9,21.85,23.09,24.52a82,82,0,0,0,29.92-.07c10.82-1.93,18-8.27,21-18.66C596.86,214.37,596.85,198.34,593.41,182.44Zm-24.76,39.92c-1.79,6.76-5.89,9.82-13.2,9.58-7.06-.22-10.91-3.51-12.05-10.4a97.51,97.51,0,0,1,.16-31.89c1.23-7.47,5-10.77,12-11C564,178.46,567.36,181,569.2,189a18.22,18.22,0,0,1,.5,2.75c.3,4,.56,8,.83,12C569.85,209.91,570.29,216.22,568.65,222.36Z"/><path class="cls-8" d="M514.18,185.87c-2.1-12.71-8.65-21.82-22.13-24.25a80.58,80.58,0,0,0-31.48.31c-12.2,2.6-18.88,10.26-21.4,22.15A114.66,114.66,0,0,0,437,207.91,95.9,95.9,0,0,0,438.25,224c2.11,13.9,8.54,21.59,20.86,24.41,10.16,2.33,20.43,2.1,30.71.63,12.83-1.83,20.42-9.53,23.32-21.72A104.2,104.2,0,0,0,514.18,185.87Zm-25.76,36.86c-1.45,6.64-5.91,9.44-13.09,9.22-6.83-.22-10.65-3.41-12-10.13a52.42,52.42,0,0,1-1-7.16c-.17-2.93,0-5.88,0-8.82,0-6.55,0-13.13,2.07-19.46,1.85-5.66,5.54-7.86,12.91-7.69,6.31.14,10,2.55,11.23,8.22A82.6,82.6,0,0,1,488.42,222.73Z"/></svg>