<svg id="Capa_1" data-name="Capa 1" xmlns="http://www.w3.org/2000/svg" viewBox="0 0 2020 445.99"><defs><style>.cls-1{fill:#9bcb53;}.cls-2{fill:#d2dc3b;}.cls-3{fill:#f0d50c;}.cls-4{fill:#edd40e;}.cls-5{fill:#ece22a;}.cls-6{fill:#ece229;}.cls-7{fill:#b9b778;}.cls-8{fill:#d3dc3a;}.cls-9{fill:#dedf33;}.cls-10{fill:#d8dd37;}.cls-11{fill:#e3e030;}.cls-12{fill:#e98fb8;}.cls-13{fill:#d5b782;}.cls-14{fill:#f3779d;}.cls-15{fill:#9cca51;}.cls-16{fill:#e7e12d;}.cls-17{fill:#f588a2;}.cls-18{fill:#f4809f;}.cls-19{fill:#f47d9e;}.cls-20{fill:#f483a0;}.cls-21{fill:#f48ea3;}.cls-22{fill:#ea90b7;}.cls-23{fill:#5ddc87;}.cls-24{fill:#c4d542;}.cls-25{fill:#029ecf;}.cls-26{fill:#01a1cf;}.cls-27{fill:#c3d543;}.cls-28{fill:#7dacda;}.cls-29{fill:#7db1d9;}.cls-30{fill:#049bd0;}.cls-31{fill:#7fb7d7;}.cls-32{fill:#f4d609;}.cls-33{fill:#f1be02;}.cls-34{fill:#f1be01;}.cls-35{fill:#f4d60a;}.cls-36{fill:#f8d70a;}.cls-37{fill:#f6bf03;}.cls-38{fill:#f8d70b;}.cls-39{fill:#b4c462;}.cls-40{fill:#d8dd36;}.cls-41{fill:#d3c322;}.cls-42{fill:#dedf32;}.cls-43{fill:#ecbd02;}.cls-44{fill:#e8d310;}.cls-45{fill:#c2c95f;}.cls-46{fill:#d5b983;}.cls-47{fill:#cfc223;}.cls-48{fill:#dbc51e;}.cls-49{fill:#d6c420;}.cls-50{fill:#e2ba05;}.cls-51{fill:#e4d212;}.cls-52{fill:#ea93b7;}.cls-53{fill:#01dda3;}.cls-54{fill:#ddc51d;}.cls-55{fill:#59da89;}.cls-56{fill:#96d868;}.cls-57{fill:#01a4ce;}.cls-58{fill:#01a8cd;}.cls-59{fill:#d8c51f;}.cls-60{fill:#e7bc03;}.cls-61{fill:#e0c61b;}.cls-62{fill:#f9b177;}.cls-63,.cls-64{fill:#b0acab;}.cls-64{font-size:68.68px;font-family:CenturyGothic, Century Gothic;}.cls-65{letter-spacing:0em;}.cls-66{letter-spacing:0em;}</style></defs><title>ML</title><path class="cls-1" d="M243.66,414.23a8.37,8.37,0,0,0,0-3.27c-5.16-9.09-5.09-19-5.33-29.07-.88-36,1.94-72-.81-108-.66-5.1-.9-10.1,3.93-13.62a8,8,0,0,1,5.51,0c3.18,2.64,4.41,6.39,5.12,10.18,5.2,28,13.91,54.7,28,79.57a9.61,9.61,0,0,1,.78,8C271.63,378,255.27,393.71,247,414.23Z"/><path class="cls-2" d="M119.62,224.51Q81.25,167.12,42.85,109.76c-3.38-5.05-7.09-9.88-10.64-14.81V88.3c2.71-2.12,1-8.84,7.46-7,30.91,34.69,57.77,72.59,87.41,108.29a21.5,21.5,0,0,1,5.29,13.66c-1.28,8-4.27,15.07-10.49,20.57Z"/><path class="cls-3" d="M129.55,31.76l3.36,3.88c22.64,23.47,44,48,59.71,76.7-.13,5.71-2.66,9.6-8.47,11a10.16,10.16,0,0,1-8.69-4C155.6,94.42,134.18,70.7,116.9,43.8c-1.22-4.45-.68-8.54,2.58-12Z"/><path class="cls-4" d="M367.85,31.76h3.36c8.6,11.82,1.85,23.79.43,35.71a20.89,20.89,0,0,1-1.76,4.71c-14.13,18.32-28.18,36.73-43,54.54-3.48,4.18-6.27,9.28-12.59,10-6.85-.83-9.79-5.61-11.74-11.4a10.76,10.76,0,0,1,.46-4.81c13-14.93,24.91-30.81,37.5-46.1C351.35,61.26,362.32,48.23,367.85,31.76Z"/><path class="cls-3" d="M367.85,31.76c2.5,16.34-8.74,25.91-18,36.64-15.31,17.66-26.11,39.12-45.72,53.15-4.91,1-5.43-2.65-6.39-5.85A16.63,16.63,0,0,1,301,103.24c18.75-23,34.55-48.31,56.63-68.57a28.31,28.31,0,0,0,.11-2.91Z"/><path class="cls-5" d="M119.48,31.76q0,6.64,0,13.31c4.67,7.9,4.86,17,6.68,25.59.39,3.6.1,7.08-2,10.19-15.48-4.14-19.54-19.49-29.13-29.41-3.24-3.35-6.45-7.85-2.43-13.06,3.44-4.28,10.71-.93,13.43-6.62Z"/><path class="cls-6" d="M367.92,71.67c-.91-13.46,5.4-26.35,3.29-39.91h10.07c3.25,4.66,8.18,5.91,13.43,6.52C396.21,54.15,384.42,68.85,367.92,71.67Z"/><path class="cls-7" d="M280.91,358.08c-19.73-29.36-30.14-61.93-33.93-96.78-4.73-5-4.49-11.77-6.61-17.72-1.14-6.56-1.81-13.07,2-19.1,4.56-4.2,10.25-4.07,15.91-4a33.94,33.94,0,0,1,7.95,1.23c14.1,5.61,29.47,9.06,39.23,22.23a11.16,11.16,0,0,1,.72,4.92c-7.29,14.23-17.16,27.67-14.21,45.08-.95,12.42,13.15,21,9,34.21C294.77,338.41,289.38,349.26,280.91,358.08Z"/><path class="cls-8" d="M448.7,77.62c7.31,7.76,8.85,15.45,2.33,25.06-27.63,40.74-54.78,81.8-82.11,122.74a6.44,6.44,0,0,1-3.87-2.27c-3.21-5.21-6.66-10.28-9.52-15.72a17.73,17.73,0,0,1-1-7c7-17,19.61-30.36,31-44.36C406.67,130,426.1,102.54,448.7,77.62Z"/><path class="cls-9" d="M424.9,51.76a32.15,32.15,0,0,1,13.94,12.3c2.54,6.92-1.85,11.59-5.62,16.29-23.91,29.8-47.75,59.64-71.15,89.83-4.46,5.76-9.64,10.75-17.16,12.48-6.91-.41-9.33-5.87-12.3-10.73a12.69,12.69,0,0,1-.36-7.17,53.81,53.81,0,0,1,13.28-19.47c23-25.17,42.41-53.19,63.87-79.57C413.83,60.27,416.93,53.36,424.9,51.76Z"/><path class="cls-10" d="M344.34,181.46c24.79-22,42.26-50.12,62.91-75.55,11-13.53,24.17-25.62,31.59-41.85,4.46,3.68,8.71,7.52,9.86,13.56-1.16,11.45-10.32,17.61-16.81,25.71-24.38,30.4-48.29,61.17-72.25,91.9-1.24,1.6-1.29,4.11-1.89,6.2-7.53,1.64-9.18-4.92-12.7-8.9C343.2,189,340.74,185.38,344.34,181.46Z"/><path class="cls-11" d="M424.9,51.76q-34.27,44.46-68.61,88.85c-2.3,3-5.75,5-8.66,7.52-5.39-16.4,6.33-28.66,10.48-42.75a596.79,596.79,0,0,0,50-63.21C414.43,44.13,420.47,46.56,424.9,51.76Z"/><path class="cls-12" d="M330.68,341.15c-11.49.4-18.58-7.66-26.74-13.66-3.45-9.7,2.69-14.57,9.71-19,11-3.72,21.85,1.38,32.81.61a12.66,12.66,0,0,1,4.84,1.14c3.14,2.9,4.22,6.87,5.58,10.69,1.28,4.55,2.22,9.17,3.14,13.81a7.9,7.9,0,0,1-2.18,6.48l.15.05A53.12,53.12,0,0,1,330.68,341.15Z"/><path class="cls-13" d="M314.05,311.07c-4.35,4.89-9,9.6-10.11,16.43-1,.21-2,.42-3,.61-3.76-11.5-12.63-21-13.57-33.58,14.55-6.76,19.65-23.49,33.4-31.11,8.85.39,12.06,6.85,15,13.64a12.43,12.43,0,0,1,.07,4.71C330.37,292.83,324.81,303.85,314.05,311.07Z"/><path class="cls-14" d="M357.84,341.2l-.09-6.74c-1.95-2.33-2.45-5.49-1.21-7.69,10.17-18.08,21.89-35.08,37.19-49.38,1.16-1.09,3.14-.52,4.71.12l-.16.1c2.09,7.92,2.4,15.84-.15,23.73Q391.16,334.36,357.84,341.2Z"/><path class="cls-15" d="M304.09,244.79c-11.12-8.86-24.69-13.24-37-19.84,2-1-1-.7,1.19-1.09,33.16-6,66.32-6.92,99.46.23a4.68,4.68,0,0,0,1.22,1.33l-4.53,9.39a8.69,8.69,0,0,1-4.47,2.41c-15.74-2.14-30.83-.45-45,7.23C311.51,246.31,307.79,247.72,304.09,244.79Z"/><path class="cls-16" d="M408.12,42.17c-8.2,26.37-27.54,44.57-46.89,62.77a7.55,7.55,0,0,1-2.23-4.52,50.23,50.23,0,0,1,8.81-28.75h.11C380.6,63.5,391,53.54,394.71,38.28,399.78,37.55,404.13,39.24,408.12,42.17Z"/><path class="cls-17" d="M334.27,281.1l0-3.33a9.2,9.2,0,0,1,3.6-5.67c8.27-5.69,15-12.86,21.12-20.75,3.84-5,7-11.69,15.41-9.94,4.74,2,8.8,4.61,10.4,9.82-6.81,15.44-18.06,27.8-28.68,40.59-3,3.59-6.77,5.75-11.74,5C336.92,294.13,334.65,288.21,334.27,281.1Z"/><path class="cls-18" d="M354.4,321.17c-3.88-2.43-3.24-6.33-3.35-10-1.1-1.27-2.4-2.73-2.27-4.31,1-11.78,30.29-45.43,42.37-48.84a17.5,17.5,0,0,1,6.38,13.09C380.84,285.84,371.44,306.74,354.4,321.17Z"/><path class="cls-19" d="M354.4,321.17c8.51-19.71,25.67-33.27,37.17-50.87.46-.71,3.91.5,6,.82q.43,3.19.9,6.39c-15.94,17.32-31.62,34.81-40.68,56.95C352.94,331,354.85,325.76,354.4,321.17Z"/><path class="cls-20" d="M391.15,258c-16.62,15.31-32.64,31.05-40.1,53.15l-3.31-.07c-4.77-4.8-7.58-10-3.42-16.59,12.78-3.87,16.6-16.36,24.44-25,5.46-6,7.63-14.8,16-18.31Z"/><path class="cls-21" d="M374.35,241.41c-10.45,5-13.52,16.65-21.91,23.51-4.52,3.69-7.58,9.48-14.47,9.65,1.56-16.95,11.91-28.69,23.83-39.5.86-.11,1.72-.2,2.59-.27Z"/><path class="cls-22" d="M330.68,341.15l27.31.1C348.87,345.63,339.77,345.83,330.68,341.15Z"/><path class="cls-19" d="M398.13,301.34l.15-23.73C402.8,285.55,402.53,293.46,398.13,301.34Z"/><path class="cls-23" d="M243.7,224.82l.6,20.09c1.07,5.48,2.49,11-.89,16.23-3.55,2.84-3,6.68-2.62,10.5C243,302,231.1,328,215.68,353c-1.71,2.77-4.31,5-8.08,4.9l-21-30.31a5.41,5.41,0,0,1-.76-4.92c9.78-15.88,10.65-33.45,9.77-51.35.71-11,3.61-21.77,2.29-32.89,4.41-11.71,16.08-12.37,25.52-16.47A34.92,34.92,0,0,1,234,220.66C237.74,220.93,241.26,221.65,243.7,224.82Z"/><path class="cls-24" d="M207.6,357.88c18.93-25.78,27.76-55.37,33.18-86.25,4.75,4.52,2.82,10.36,2.84,15.63.14,41.23.06,82.46,0,123.7C229.65,394.59,219.08,375.94,207.6,357.88Z"/><path class="cls-25" d="M96,261.15c3.07-10.26,10.53-16.32,20-20.44,3.65,3.1,4.87,7.33,5,11.8q.6,35.4,0,70.8c-.07,4.46-1.3,8.69-5,11.78a34.55,34.55,0,0,1-20-20.53A101.15,101.15,0,0,1,96,261.15Z"/><path class="cls-26" d="M115.91,335.09q0-47.19,0-94.38l8.4-6.15a5.12,5.12,0,0,1,4.89,1.39c3.36,3.73,3.64,8.17,3,12.83-2.18,29-1.5,58.09-.35,87.15a11.25,11.25,0,0,1-2.26,5.2C124,341.57,119.68,338.9,115.91,335.09Z"/><path class="cls-27" d="M125.7,235.07l-1.35-.51q-2.35-5-4.73-10.05l.81-.64c11.91-6.84,24.89-3.65,37.48-3.84,13.86-.2,27.72.09,41.59-.19,8.33.87,17.46-2,24.45,5.14-7.65,5-17.46,5.7-24.31,12.22-3,5.83-7.68,9.41-14.34,10.23C166,240.88,146.51,234.76,125.7,235.07Z"/><path class="cls-28" d="M129.63,341.13a19.59,19.59,0,0,0,.24-2.86c-.73-11.72,2.68-22.6,6.87-33.33,5.32-9.3,8-20.14,16.14-27.84a5.22,5.22,0,0,1,4.94,1.2,23.33,23.33,0,0,1,4.73,12.75c-3.48,16.6,3,34.37-6,50.34l0-.14c-8.31,2.33-16.65,2-25,.21l-1.09.27Z"/><path class="cls-29" d="M156.6,341.39c.46-17.88-2.61-36,3.13-53.53,14.87,1.45,13.06,15.75,19,24.13.48,7.91-.13,15.56-5.53,22C168.19,337.68,163.83,342.69,156.6,341.39Z"/><path class="cls-30" d="M96,261.15v53.41C85.32,296.76,85.66,279,96,261.15Z"/><path class="cls-31" d="M173.17,334c-.93-7.71,1.18-15,3.32-22.22,9.06-.57,10.09,5.47,10.26,12.22-.07,1.19-.14,2.38-.2,3.56C181.71,328.94,179.11,334.88,173.17,334Z"/><path class="cls-29" d="M131.65,341.46l25-.21C148.35,345.89,140,345.22,131.65,341.46Z"/><path class="cls-32" d="M190,111.64c-17.22-22.06-34.38-44.16-51.71-66.13-2.41-3.06-5.31-5.64-5.37-9.87,16.3-1.36,27.14,10.32,40.26,16.56,9.92,13.44,18.9,27.63,31.39,39.06,2.58,7.34-2.32,12.19-5.86,17.52C196.25,111.09,193.74,113.23,190,111.64Z"/><path class="cls-33" d="M190,111.64l6.63-3.42c10.88-1.08,14.46,8,19.83,14.31,6,7,12.11,14,16.56,22.22,8.21,13.23,3,30.66,13.74,43.09l1.48,1.88c-4.4,11.7-8.31,4.93-12.58-.21-17.58-21.16-33.82-43.41-52.73-63.5a3.92,3.92,0,0,1,.39-4.42C187.69,119.69,189.94,116.39,190,111.64Z"/><path class="cls-34" d="M300.71,114.94c.07,2.73.7,5.19,3.38,6.61,0,1.11,0,2.22,0,3.33a337.46,337.46,0,0,1-49.21,61.65,7.09,7.09,0,0,1-7.62,1.7l-.5-.39c-.45-12.74,3.42-24.61,7.5-36.44,11.67-15.76,20.67-33.79,38.49-44.33C297.49,107.6,298.18,112.18,300.71,114.94Z"/><path class="cls-35" d="M300.71,114.94,294,108.26c-4.58-2.11-8.73-4.51-7.21-10.67,16.55-18.07,29.05-39.52,47.45-56.07,6.95-5.19,15.24-5.88,23.44-6.85-13,22.54-31,41.36-46.9,61.72C306.28,102.14,301.53,107.39,300.71,114.94Z"/><path class="cls-36" d="M334.23,41.52c-13.77,20.42-26.17,41.95-46.86,56.76a8,8,0,0,1-6.86-6.73C293,69.12,308.34,49.78,334.23,41.52Z"/><path class="cls-37" d="M280.51,91.55l6.86,6.73q3.31,5,6.62,10c-16,11.92-23,31.91-39.74,43.14C259,129.73,267.33,109.59,280.51,91.55Z"/><path class="cls-37" d="M233,144.75c-15.22-9.15-21.07-27.47-36.39-36.53l6.81-16.57c1.9-2,3.8-1.86,5.71,0A153.37,153.37,0,0,1,233,144.75Z"/><path class="cls-38" d="M209.14,91.64h-5.71c-16.66-8.2-25.2-22.52-30.26-39.45C190.94,60.17,199.36,76.51,209.14,91.64Z"/><path class="cls-39" d="M243.41,261.14q.45-8.12.89-16.24c4.66,4.87,2,10.89,2.68,16.4Z"/><path class="cls-40" d="M38.56,80.82A40,40,0,0,1,52.33,61.66c10.46,6,16.18,16.39,23.39,25.33,21.54,26.71,42.78,53.66,64,80.61,3.87,4.91,7.25,9.82,6.36,16.45-1,5.68-3.87,10.45-7.11,15.07-2.62,2.71-4.28,7-9.42,5.61-5.79-20.45-23.24-32.87-35-49.16-16.39-22.66-34.83-43.86-52.19-65.84C40.42,87.28,39.79,83.81,38.56,80.82Z"/><path class="cls-41" d="M129.56,204.73l6.71-6.66c4.12.58,7,3.22,9,6.4,6.61,10.31,16.05,13.93,27.95,12.27,9.22,1.66,20.88-4.83,26.78,7.84l-79.59-.71Z"/><path class="cls-42" d="M143,184.77c-3.79-18.91-19.62-30-30.1-44.39-19.44-26.77-42.32-51-60.55-78.72A23.92,23.92,0,0,1,65.45,51C84.83,65.62,95.9,87.24,111.8,104.79c11.92,13.14,20.74,28.81,33.92,40.94,5.75,6.19,9.77,13.21,10.62,21.76-.22,7.13-3.71,12.66-8.74,17.43A3.76,3.76,0,0,1,143,184.77Z"/><path class="cls-11" d="M143,148.16c-20.92-20.92-37.19-45.61-56-68.22C79.26,70.72,72.59,60.69,65.46,51c3.43-4.65,8.57-6.52,13.77-8.31,18.36,18.19,31,41.2,50.2,58.69C133.35,117.16,145.86,130.48,143,148.16Z"/><path class="cls-16" d="M126.16,101.6C106,85.48,91.58,64.92,79.23,42.72c4.1-2.54,8.28-4.85,13.39-4.34,5.45,17.57,23,26.87,30.14,43.27,4.94,4.15,6.19,9.67,5.94,15.75A7.49,7.49,0,0,1,126.16,101.6Z"/><path class="cls-4" d="M183.31,121.59q0,1.65,0,3.3c2,6-.73,9.54-6.2,11.64a10.14,10.14,0,0,1-8.9-3.76c-15.9-19.81-33.85-38.13-45.39-61.11C117.68,63.29,120,54,119.49,45.07c21.17,22.19,38.59,47.37,57.8,71.12C179,118.26,181.29,119.81,183.31,121.59Z"/><path class="cls-43" d="M176.52,134.85l6.79-10c19.11,8.58,26.28,28.23,39.19,42.48,6.7,7.4,15.1,13.92,19.24,24.16,2.07,5.15,4.37-.66,5.51-3.3,18.16-12.51,27.75-32.4,41.93-48.36,4.74-5.34,10-9.94,14.9-15l10,10a4.34,4.34,0,0,1,1.14,2.88c0,1.06-.1,1.59-.28,1.6-17,23.19-35.51,45.26-53.51,67.7-14,17.4-19.25,17.13-33.06-.28-17.85-22.51-36.53-44.38-53.5-67.58A5.57,5.57,0,0,1,176.52,134.85Z"/><path class="cls-44" d="M314.11,138.2c0-1.1,0-2.21,0-3.31,14.49-17.63,29.14-35.15,43.37-53,3.1-3.89,5.69-8,10.34-10.24q-3.35,15-6.67,29.93c-7.06,15.57-19.09,27.72-29.05,41.29-2.62,3.57-5.9,6.51-10.86,6.42C316.35,147.18,312.54,144.38,314.11,138.2Z"/><path class="cls-44" d="M176.52,134.85c0,1.11,0,2.22,0,3.32-1.85,5.09-2.36,11.38-10.17,11.1-17.79-13.57-28.68-32.49-40.12-51l-3.48-16.64.06-10c14.48,17.63,29.12,35.14,43.34,53C169.27,128.52,171.85,132.64,176.52,134.85Z"/><path class="cls-45" d="M361.8,235.07,338,274.57l-3.75,3.21c-4.9-4-6.86-10.86-13.29-13.35-8.57-2.51-13.29-8.89-16.8-16.47,0-1.06,0-2.12,0-3.17C322.39,236.12,340.44,226,361.8,235.07Z"/><path class="cls-46" d="M304.13,248a51.74,51.74,0,0,1,16.8,16.47q-11.22,13.65-22.43,27.3c-3,3.69-6.41,5.73-11.11,2.8C285.53,276.38,292.09,261.2,304.13,248Z"/><path class="cls-47" d="M367.7,224.09,267.05,225l-6.66-.54a3.18,3.18,0,0,1,.73-4.49,17.22,17.22,0,0,1,7.4-2.52,56.49,56.49,0,0,1,8-.49c8.15.08,16.29-.39,24.44-.28s16.24-.12,24.35,0C338,220.37,347,210.6,357.89,208,364.27,211.48,366.65,217.39,367.7,224.09Z"/><path class="cls-48" d="M260.47,221.47c0,1,0,2-.07,2.94l-16.7.41L233.59,224q-1.2-3.19,2-4.49C243.79,221.33,252.69,214.23,260.47,221.47Z"/><path class="cls-49" d="M357.89,208c-6.9,11.59-17.25,15.5-30.32,13.34,0-14.41,9.25-22.73,20.17-29.94q5,5,10,10.07C357.8,203.61,357.85,205.78,357.89,208Z"/><path class="cls-50" d="M273.84,221.3l-6.69,0c-2.15-2.31-2.59-5.3-.78-7.49,17.69-21.45,31.38-46.21,53.67-63.86,9.17.78,12.38,7.18,14.2,14.87v6.64c-2.88,9-9.5,15.41-15.28,22.44C306.55,207.27,291.71,216.74,273.84,221.3Z"/><path class="cls-48" d="M317.49,191.37c5.42-6.78,8.19-15.74,16.75-19.93l10.1,10,3.39,9.9L327.57,221.3H300.72C298.11,206.82,313.66,202.32,317.49,191.37Z"/><path class="cls-51" d="M334.24,164.8l-13.33-13.34a2,2,0,0,1-.78-2.2c.26-.73.51-1.1.77-1.1,16.15-13.19,24.5-33,40.24-46.56l.09,3.34q-6.81,21.59-13.6,43.19Z"/><path class="cls-52" d="M344.32,294.51l3.42,16.59c-11.24,7.52-22.46-3.63-33.69,0a157.3,157.3,0,0,1,20.22-30Z"/><path class="cls-53" d="M186.75,324l-10.26-12.22c-9.05-5.6-6-19.51-16.76-23.93-3.52-2.28-3.42-6.12-4.19-9.58,5.27-15.18,11.66-29.31,30.53-31.58,10.91,4.83,9.72,16.28,13.82,24.84C199.63,290.05,204,309.68,186.75,324Z"/><path class="cls-54" d="M233.59,221.39V224L224,225,200,224.58c-9.47-6.51-20.17-1.8-30.19-3.25C159.3,210.81,145,202.68,146.3,184.68l6.87-16.57a4.07,4.07,0,0,1,4.35-.64c9.81,9.77,18.66,20.48,28.95,29.82,10.46,9.48,22,17,36.27,19.48C226.69,217.56,230.83,217.9,233.59,221.39Z"/><path class="cls-55" d="M199.89,271.54,186.59,248q-1.76-1.14-1.17-2.28t1.17-1.14l13-7.39C208.13,248.59,198.79,260.1,199.89,271.54Z"/><path class="cls-56" d="M186.59,244.6V248c-15.51,4.88-20.77,20.09-31,30.26H154c-9.25-2.61-10.89-12.4-17.18-17.82-4.46-4.76-5.53-10.85-6.7-16.9q-2.2-4.24-4.39-8.5C148,225.64,166.93,237.44,186.59,244.6Z"/><path class="cls-57" d="M130.09,243.57c5.89,3.31,5.58,10.39,9.32,15,3.12,15.39.72,30.9,1,46.35q-5.3,16.67-10.57,33.32C124,306.69,123.7,275.12,130.09,243.57Z"/><path class="cls-58" d="M140.44,304.94c-7.39-15.3-5.37-30.8-1-46.35,7.09,4.93,9.64,13.17,14.56,19.7Z"/><path class="cls-59" d="M146.3,184.68c4.12,14.56,18.36,22.75,23.52,36.65-19.16,3.55-25.4-11.2-33.55-23.26l6.71-13.3C144.09,184.75,145.19,184.72,146.3,184.68Z"/><path class="cls-51" d="M156.4,168.1h-3.23c-1.64-7.53-4.64-14.39-10.21-20l-16.8-46.56c0-1.1,0-2.21.08-3.31,15.37,15.08,27,33.11,40.24,49.9a5.76,5.76,0,0,1,1.9,4C166.41,159,163.46,165.07,156.4,168.1Z"/><path class="cls-60" d="M166.5,151.5c0-1.1,0-2.21,0-3.31l10.05-10c22.4,21.29,39.3,47.1,58.48,71,8.15,10.16,12.37,8.29,18.66.54q23.85-29.4,47.39-59.05c3.8-4.79,7.5-9.52,13.05-12.44l6.79,10c0,1.1,0,2.2,0,3.3-18.4,22.9-38.5,44.53-53.76,69.82l-6.68.18-26.88-.07-13.41-.13C202.52,197.83,182.27,176.36,166.5,151.5Z"/><path class="cls-61" d="M317.49,191.37c-.78,12.63-13.31,18.79-16.77,29.94H273.84C288.65,211.7,304.53,203.63,317.49,191.37Z"/><path class="cls-50" d="M166.5,151.5c21,20.94,41.14,42.47,53.68,69.76-28.31-9.42-48.4-28.51-63.78-53.16Z"/><path class="cls-62" d="M656.37,187.56l-12.24-83-3.39-.49L585.44,215,529.89,103.75c-9.69,44-15.6,86.56-21.34,129.18-.51,3.8-3.56,9.2,4.29,9.82,6.27.5,9-2,9.51-8.35.6-8.24,2.08-16.42,3.23-24.63q4.17-29.6,8.39-59.18c16.39,25.41,28.85,51.25,41.72,76.88,2.58,5.14,3.18,13.7,10,13.8,5.94.09,6.4-8.13,8.78-12.8,13.28-26.11,26.15-52.41,41.4-83.16,4,29.79,7.11,55.53,11.24,81.12,1,6-1.43,17,9.69,15.83,12.08-1.28,5.32-11.11,4.83-17C660.6,212.64,658.22,200.12,656.37,187.56Z"/><path class="cls-62" d="M1051.78,99.79c-44.36-.05-78.88,32.05-78.85,73.32,0,40.92,35.07,73.15,79.37,73,43.29-.13,77.36-32.22,77.47-72.93C1129.87,130.85,1096.92,99.84,1051.78,99.79Zm-.19,132.07c-34.42-.52-62.51-27.06-62.37-58.93.14-31.52,30-59.89,62.45-59.39,35.39.54,62.36,27.18,61.67,60.91C1112.69,206.44,1084.8,232.37,1051.59,231.86Z"/><path class="cls-62" d="M1507.81,99.79c-44.44-.2-76.2,30-76.38,72.63-.17,42.3,32.06,73.7,75.66,73.71,42.48,0,75.43-31.39,75.8-72.22C1583.27,131.35,1551.49,100,1507.81,99.79Zm-2.8,132c-31.94-.94-58.82-27.9-58.66-58.83.16-32.24,29.33-60.27,61.83-59.41,32.87.87,58.82,27.48,58.54,60C1566.43,207,1539.11,232.79,1505,231.79Z"/><path class="cls-62" d="M1259.19,103.06c-8.39-.33-8.81,4.6-8.62,10.63.13,4.43,0,8.87,0,13.3,0,25.68,0,51.35,0,81.42L1147.67,102.49l-4.09,2.39c0,40.81-.15,81.63.15,122.44,0,6.17-4,15.89,8.72,15.37s7.6-10.34,7.71-16.25c.52-27.95.23-55.91.23-88.51l102.33,105.12,4.26-2.38q0-63.82,0-127.66C1267,107.55,1266.43,103.35,1259.19,103.06Z"/><path class="cls-62" d="M1364.7,105.62c-17.83-3.67-35.68-1.35-53.45-2.67-10.9-.81-13.23,4-12.94,13.62.56,18.83.16,37.68.17,56.53,0,19.4.29,38.81-.13,58.2-.19,8.47,2.57,12,11.5,11.65,15.64-.64,31.38.46,47-.78,36.93-2.95,59.69-27.4,60.22-67C1417.5,139.42,1397.87,112.45,1364.7,105.62ZM1401.6,179c-1.33,26.94-18.84,45-46.15,47.72-41.46,4-41.46,4-41.46-37.35V172.73c0-14.4.6-28.84-.2-43.21-.59-10.71,4-13.82,13.77-12.7,11.09,1.26,22.36,1.43,33.28,3.53C1387.17,125.41,1403.08,148.81,1401.6,179Z"/><path class="cls-62" d="M757.06,110.55c-5.08-10.25-8.77-7.39-12.81.74C738.34,123.18,732,134.87,726,146.71c-14.32,28.13-28.66,56.25-42.72,84.5-1.66,3.32-6.85,8.19-.11,10.88,4.17,1.67,10.05,2.48,13.53-2.9,1.21-1.86,2.61-3.75,3.17-5.83,9-33.54,32.3-42.48,64.2-36.75a16.19,16.19,0,0,0,5,0c9.88-1.39,15.46,3.25,19.32,12,4.47,10.11,10,19.73,15,29.65,3,6,8.29,4.36,13.12,4.32,2.51,0,4.12-1.23,3.85-4.4-.53-1.16-1.16-2.69-1.9-4.17Q787.72,172.28,757.06,110.55Zm-31.68,73.13,24.84-49.48c8.73,16.82,16.11,31,24.26,46.75C758.58,185,743.87,181.7,725.38,183.68Z"/><path class="cls-62" d="M945.27,131c4.59,3.76,8.22,7.88,14,2.12,6.36-6.39.27-10-3.43-13.52C941,105.35,922.9,99.38,897.63,99.75c-1.84.21-8.64.21-15.06,1.78-43.3,10.58-66.87,53.63-52.49,95.38s61.71,61.32,104.41,43c8.21-3.52,16.2-7.56,22.47-14.14,2.94-3.08,7.44-6,2.61-11-3.89-4-7.68-6.27-12.44-.66-2.47,2.9-5.88,5.11-9.11,7.26-24.95,16.64-59.86,13.29-79.88-7.57-20.54-21.38-22-53.39-3.57-77.48C875.46,109.1,915.51,106.59,945.27,131Z"/><path class="cls-63" d="M1676.27,176.4c0-19.17,0-34.68,0-50.19,0-5.77.25-11.88,8.25-11.63s7.64,6.59,7.65,12.21c0,25.47.47,51-.19,76.42-.29,10.93,3.39,15,14.37,14.12,8.88-.73,17.88-.21,26.82-.11,5,.06,11.09-.39,11.56,6.47.56,8.09-6.37,6.27-10.85,6.13-18.35-.56-42.23,7.66-53.6-2.84C1667.79,215.45,1678.38,191.28,1676.27,176.4Z"/><path class="cls-63" d="M1634.46,175c-.73,6.11-4.32,10.29-10.59,10.47s-10.64-3.74-10.91-10.11c-.26-5.91,3.65-8.8,9.52-9.11C1628.8,165.94,1633.36,168,1634.46,175Z"/><path class="cls-63" d="M1624.3,193c3.76.44,6.5,2.4,6.38,6.21-.16,4.51-3.24,7-7.73,6.68-3.65-.26-6.35-2.71-6.39-6.39C1616.51,194.77,1619.81,193,1624.3,193Z"/><path class="cls-63" d="M1630.41,152.55c-1.07,3.55-3.45,5.88-7.16,5.67s-6.61-3-6.39-6.37c.27-4,3.16-7.24,7.9-6.31A6.57,6.57,0,0,1,1630.41,152.55Z"/><path class="cls-63" d="M1970.84,171.25c-7.1-2.6-6.37-6.08-1.5-10.63,19.09-17.86.48-41.45-18-43.92-11.59-1.55-23.11-2.89-34.86-2.66-8.5.16-12,3.55-11.93,11.95.2,31.45.06,62.9.12,94.35,0,3.83.11,7.34,4.95,9.25,22.3,8.77,62.71-2.94,78.21-23v-20C1982.53,181.1,1978.62,174.1,1970.84,171.25Zm-36.52-44.44c11.72,1.83,26.14-.09,26.72,17.56.36,10.86-12.25,18-28.82,18.79-17,.8-10.41-11.44-11.3-15.77C1919.42,133.65,1919.58,124.51,1934.32,126.81Zm3.39,90.46c-18,1.33-19.18-7.63-17.06-20-.83-11.89-2.93-22.75,15.37-21.61,23.35,1.46,38,8.78,37.21,21.89C1972.52,209.8,1959.28,215.67,1937.71,217.27Z"/><path class="cls-63" d="M1825.32,121.82c-4.31-7.69-8.89-5.22-12.26.73-19.91,35-39.63,70.18-59.51,105.45,12.53,5.07,17.56-1.06,22.28-9.8,4.86-9,7.37-22.64,18.14-24.26,16.9-2.54,35-3,51.61.4,10.18,2.11,13.12,16.78,18.3,26.34,4.45,8.21,9.73,11.63,20.37,6.92C1864.55,192.2,1845,157,1825.32,121.82Zm3.08,58.4c-9.1-.82-23.48,4.24-26.11-2.6-3.68-9.58,7.8-19,12.74-28.57,3.52-6.8,6.64-3.78,9.1.59,5.28,9.37,10.23,18.93,16.06,29.8C1834.71,179.84,1831.51,180.51,1828.4,180.22Z"/><text class="cls-64" transform="translate(655.55 331.13) scale(1.01 1)">Cent<tspan class="cls-65" x="165.63" y="0">r</tspan><tspan x="186.02" y="0">o de C</tspan><tspan class="cls-66" x="416.53" y="0">r</tspan><tspan x="436.92" y="0">ecimiento Emp</tspan><tspan class="cls-66" x="939.77" y="0">r</tspan><tspan x="960.16" y="0">esarial</tspan></text></svg>