<svg id="Capa_1" data-name="Capa 1" xmlns="http://www.w3.org/2000/svg" viewBox="0 0 1000 417.78"><defs><style>.cls-1{fill:#ef891c;}.cls-2{fill:#343434;}</style></defs><title>paquete</title><path class="cls-1" d="M616.4,156a100.51,100.51,0,0,0-25.91-67.49,2.06,2.06,0,0,0-3.6,1.36V222.15a2.06,2.06,0,0,0,3.6,1.37A100.54,100.54,0,0,0,616.4,156"/><path class="cls-1" d="M515.53,75.85a80.13,80.13,0,0,1,33.22,7.21l.68,70.46-49.6-76.14a81,81,0,0,1,15.7-1.53m0-20.69a100.44,100.44,0,0,0-45.21,10.69,2.05,2.05,0,0,0-.78,3L567,218.38a2,2,0,0,0,1.7.93,2,2,0,0,0,2.08-2.07L569.34,71.85a2,2,0,0,0-1-1.73,100.25,100.25,0,0,0-52.83-15"/><path class="cls-1" d="M414.67,156a100.37,100.37,0,0,0,24.66,66,2.05,2.05,0,0,0,3.61-1.33l.55-130a2.05,2.05,0,0,0-3.6-1.36A100.41,100.41,0,0,0,414.67,156"/><path class="cls-1" d="M480.43,155l51.81,79.46A80.59,80.59,0,0,1,481,228.38L480.43,155M461.29,89.43a2,2,0,0,0-2.08,2.07l1.2,147.87a2.08,2.08,0,0,0,.95,1.72,100.87,100.87,0,0,0,100.28,4.66,2.05,2.05,0,0,0,.76-2.94L463,90.36a2,2,0,0,0-1.7-.93"/><polygon class="cls-1" points="359.83 339.81 359.83 339.67 358.73 339.81 329.22 294.56 329.58 339.67 324.75 339.67 324.97 287.82 329.22 287.82 329.22 288.04 330.46 287.82 359.76 332.78 359.32 287.82 364.15 287.82 364.15 339.81 359.83 339.81"/><path class="cls-1" d="M409.19,339.59l-.8-5.86a12.38,12.38,0,0,1-5.28,4.87,19.9,19.9,0,0,1-9.08,1.8q-7.25,0-10.25-2.93c-2-2-3-4.81-3-8.57a11.21,11.21,0,0,1,1.84-6.81,8.39,8.39,0,0,1,3.84-3,22.75,22.75,0,0,1,5.71-1.39,58.89,58.89,0,0,1,7.22-.4h8.42a69,69,0,0,0-.44-7.25,7.42,7.42,0,0,0-2-4.47c-1.41-1.41-4-2.12-7.69-2.12a14.64,14.64,0,0,0-5.56.88,8.85,8.85,0,0,0-3.3,2.19,6.92,6.92,0,0,0-1.57,2.82,10.66,10.66,0,0,0-.41,2.75h-4.39a17.53,17.53,0,0,1,.48-3.81,9.69,9.69,0,0,1,2-4,11.41,11.41,0,0,1,4.54-3.18,21,21,0,0,1,8.06-1.28,26.37,26.37,0,0,1,7.14.8,11.12,11.12,0,0,1,4.43,2.35,9.43,9.43,0,0,1,2.85,5.38,47.15,47.15,0,0,1,.66,7.43v14l.74,9.81ZM407.8,320.7q-5.21,0-9.34,0a31.32,31.32,0,0,0-7.06.77,8.56,8.56,0,0,0-4.47,2.46,7.39,7.39,0,0,0-1.54,5.09,9.92,9.92,0,0,0,.48,3.18,6,6,0,0,0,1.57,2.49,7.07,7.07,0,0,0,2.93,1.62,16.26,16.26,0,0,0,4.54.54,15.34,15.34,0,0,0,8.46-2.19,10.1,10.1,0,0,0,4.43-6.15Z"/><path class="cls-1" d="M442.88,339.81a13.52,13.52,0,0,1-6.15-1.17,7.94,7.94,0,0,1-3.41-3.19,12.3,12.3,0,0,1-1.43-4.68,52.81,52.81,0,0,1-.29-5.6V304.44h-5v-3.95h5V289.13l4.83-.95v12.31h10.26v3.95H436.43v20.73a35,35,0,0,0,.26,4.46,9.6,9.6,0,0,0,1,3.34,5,5,0,0,0,2.12,2.08,7.69,7.69,0,0,0,3.59.73h3.67v4Z"/><path class="cls-1" d="M460.31,300.49h4.84v39.18h-4.84Zm.07-16h4.91v9h-4.91Z"/><polygon class="cls-1" points="492.75 339.67 477.45 300.49 482.87 300.49 495.54 334.98 507.84 300.49 513.04 300.49 497.95 339.67 492.75 339.67"/><path class="cls-2" d="M559.47,339.67l-5.2-14H530.33l-5.13,14h-5.05l19.92-51.85H545l19.78,51.85Zm-17.21-46.21L532.08,321h20.44Z"/><path class="cls-2" d="M577.27,357.24V310.59l-.66-10.1h4.1l.95,7.1a22.8,22.8,0,0,1,1.73-2.31,14.67,14.67,0,0,1,2.85-2.56,17.1,17.1,0,0,1,4-2.05,15.49,15.49,0,0,1,5.31-.84,15.82,15.82,0,0,1,7.1,1.46,12.45,12.45,0,0,1,4.76,4.1,17.86,17.86,0,0,1,2.68,6.41,38.7,38.7,0,0,1,.84,8.39,38.19,38.19,0,0,1-.84,8.35,17.38,17.38,0,0,1-2.68,6.33,12.36,12.36,0,0,1-4.76,4,16.11,16.11,0,0,1-7.1,1.43,17.08,17.08,0,0,1-8.61-1.87,14.38,14.38,0,0,1-4.86-4.43v16q0,3.81.07,7.25Zm4.84-30a12.75,12.75,0,0,0,1.24,3.07,11.24,11.24,0,0,0,2.38,3,12.1,12.1,0,0,0,3.74,2.23,14.33,14.33,0,0,0,5.31.88q5.78,0,8.49-4.17t2.71-12q0-7.77-2.71-12.09t-8.49-4.32a12.12,12.12,0,0,0-5,1,14,14,0,0,0-3.67,2.35,16,16,0,0,0-2.52,2.86,20.18,20.18,0,0,0-1.5,2.49Z"/><path class="cls-2" d="M627.51,357.24V310.59l-.66-10.1H631l.95,7.1a21.37,21.37,0,0,1,1.73-2.31,14.67,14.67,0,0,1,2.85-2.56,17.1,17.1,0,0,1,4-2.05,15.49,15.49,0,0,1,5.31-.84,15.82,15.82,0,0,1,7.1,1.46,12.52,12.52,0,0,1,4.76,4.1,18,18,0,0,1,2.67,6.41,38.06,38.06,0,0,1,.85,8.39,37.56,37.56,0,0,1-.85,8.35,17.54,17.54,0,0,1-2.67,6.33,12.44,12.44,0,0,1-4.76,4,16.11,16.11,0,0,1-7.1,1.43,17.05,17.05,0,0,1-8.61-1.87,14.42,14.42,0,0,1-4.87-4.43v16q0,3.81.08,7.25Zm4.83-30a13.23,13.23,0,0,0,1.25,3.07,10.85,10.85,0,0,0,2.38,3,12,12,0,0,0,3.73,2.23,14.41,14.41,0,0,0,5.31.88q5.79,0,8.5-4.17t2.71-12q0-7.77-2.71-12.09t-8.5-4.32a12.19,12.19,0,0,0-5,1,13.94,13.94,0,0,0-3.66,2.35,15.7,15.7,0,0,0-2.53,2.86,21.52,21.52,0,0,0-1.5,2.49Z"/><path class="cls-2" d="M700.89,311.69a10.61,10.61,0,0,0-.47-3.22,6,6,0,0,0-1.65-2.56,8.36,8.36,0,0,0-3.19-1.76,16.26,16.26,0,0,0-5-.66,18.61,18.61,0,0,0-5.09.58,8.72,8.72,0,0,0-3.19,1.58,5.2,5.2,0,0,0-1.61,2.2,7.16,7.16,0,0,0-.44,2.45,5,5,0,0,0,1.14,3.41,8.29,8.29,0,0,0,3,2.08,21.64,21.64,0,0,0,4.18,1.32c1.56.34,3.14.67,4.76,1a45.44,45.44,0,0,1,4.76,1.21,15.43,15.43,0,0,1,4.17,2,10,10,0,0,1,3,3.19,11,11,0,0,1-2.68,13.18q-3.79,2.89-12.23,2.82-7.54-.15-11.64-3.18t-4.1-9.78h4.39q0,4.55,2.9,6.81c1.92,1.51,4.74,2.3,8.45,2.34a22.61,22.61,0,0,0,5.2-.51,9.83,9.83,0,0,0,3.45-1.46,5.75,5.75,0,0,0,1.9-2.24,6.52,6.52,0,0,0,.59-2.74,5.77,5.77,0,0,0-1.1-3.67,7.85,7.85,0,0,0-2.93-2.23,20.51,20.51,0,0,0-4.18-1.35c-1.56-.34-3.14-.69-4.76-1s-3.2-.73-4.76-1.17a15.09,15.09,0,0,1-4.21-1.9,9.91,9.91,0,0,1-3-3.15,9.47,9.47,0,0,1-1.14-4.91,9.29,9.29,0,0,1,3.74-7.73q3.73-2.88,11.35-2.82,7.77.08,11.32,3.08t3.55,8.86Z"/></svg>