<svg id="Capa_1" data-name="Capa 1" xmlns="http://www.w3.org/2000/svg" viewBox="0 0 1000 417.78"><defs><style>.cls-1{fill:#ef891c;}.cls-2{fill:#343434;}</style></defs><title>NA</title><path class="cls-1" d="M600.86,158.71A100.46,100.46,0,0,0,575,91.22a2.05,2.05,0,0,0-3.59,1.36V224.84a2.06,2.06,0,0,0,3.59,1.37,100.49,100.49,0,0,0,25.91-67.5"/><path class="cls-1" d="M500,78.54a80.13,80.13,0,0,1,33.22,7.21l.68,70.46L484.3,80.07A81,81,0,0,1,500,78.54m0-20.69a100.52,100.52,0,0,0-45.22,10.69,2,2,0,0,0-.77,2.95l97.44,149.58a2,2,0,0,0,1.7.93,2,2,0,0,0,2.08-2.07L553.81,74.54a2.09,2.09,0,0,0-1-1.74A100.36,100.36,0,0,0,500,57.85"/><path class="cls-1" d="M399.14,158.71a100.37,100.37,0,0,0,24.66,66,2.05,2.05,0,0,0,3.61-1.33l.55-130a2.05,2.05,0,0,0-3.6-1.36,100.41,100.41,0,0,0-25.22,66.69"/><path class="cls-1" d="M464.9,157.69l51.81,79.46a80.59,80.59,0,0,1-51.22-6.08l-.59-73.38M445.76,92.12a2,2,0,0,0-2.08,2.07l1.2,147.87a2.08,2.08,0,0,0,.95,1.72,100.93,100.93,0,0,0,100.28,4.66,2.05,2.05,0,0,0,.76-2.94L447.45,93.05a2,2,0,0,0-1.69-.93"/><polygon class="cls-1" points="344.3 342.5 344.3 342.36 343.2 342.5 313.68 297.24 314.05 342.36 309.22 342.36 309.44 290.51 313.68 290.51 313.68 290.73 314.93 290.51 344.23 335.47 343.79 290.51 348.62 290.51 348.62 342.5 344.3 342.5"/><path class="cls-1" d="M393.66,342.28l-.81-5.86a12.3,12.3,0,0,1-5.27,4.87,19.9,19.9,0,0,1-9.08,1.8q-7.25,0-10.25-2.93t-3-8.57a11.28,11.28,0,0,1,1.83-6.81,8.42,8.42,0,0,1,3.85-3,22.75,22.75,0,0,1,5.71-1.39,58.84,58.84,0,0,1,7.21-.4h8.43a69,69,0,0,0-.44-7.25,7.54,7.54,0,0,0-2-4.47q-2.13-2.12-7.69-2.12a14.74,14.74,0,0,0-5.57.88,8.89,8.89,0,0,0-3.29,2.19,7,7,0,0,0-1.58,2.82,11.07,11.07,0,0,0-.4,2.75h-4.39a18.1,18.1,0,0,1,.47-3.81,9.83,9.83,0,0,1,2-4A11.34,11.34,0,0,1,374,303.8a20.78,20.78,0,0,1,8.05-1.28,26.06,26.06,0,0,1,7.15.8,11.12,11.12,0,0,1,4.43,2.35,9.43,9.43,0,0,1,2.85,5.38,47.15,47.15,0,0,1,.66,7.43v14l.73,9.81Zm-1.39-18.89q-5.2,0-9.34,0a31.41,31.41,0,0,0-7.07.77,8.64,8.64,0,0,0-4.47,2.46,7.43,7.43,0,0,0-1.53,5.09,10.21,10.21,0,0,0,.47,3.18,6.13,6.13,0,0,0,1.58,2.49,7.07,7.07,0,0,0,2.93,1.62,16.26,16.26,0,0,0,4.54.54,15.34,15.34,0,0,0,8.46-2.19,10.14,10.14,0,0,0,4.43-6.15Z"/><path class="cls-1" d="M427.35,342.5a13.52,13.52,0,0,1-6.15-1.17,7.94,7.94,0,0,1-3.41-3.19,12.13,12.13,0,0,1-1.43-4.68,52.81,52.81,0,0,1-.29-5.6V307.13h-5v-3.95h5V291.82l4.83-.95v12.31h10.26v3.95H420.9v20.73a35,35,0,0,0,.26,4.46,9.6,9.6,0,0,0,1,3.34,5,5,0,0,0,2.12,2.08,7.69,7.69,0,0,0,3.59.73h3.66v4Z"/><path class="cls-1" d="M444.78,303.18h4.83v39.18h-4.83Zm.07-16h4.91v9h-4.91Z"/><polygon class="cls-1" points="477.22 342.36 461.92 303.18 467.33 303.18 480 337.67 492.31 303.18 497.51 303.18 482.42 342.36 477.22 342.36"/><path class="cls-2" d="M543.94,342.36l-5.2-14h-24l-5.12,14h-5.06l19.93-51.85h4.9l19.78,51.85Zm-17.21-46.22-10.18,27.54H537Z"/><path class="cls-2" d="M561.74,359.93V313.28l-.66-10.1h4.1l1,7.1a21.37,21.37,0,0,1,1.73-2.31,14.35,14.35,0,0,1,2.85-2.56,17.1,17.1,0,0,1,4-2.05,15.49,15.49,0,0,1,5.31-.84,15.82,15.82,0,0,1,7.1,1.46,12.52,12.52,0,0,1,4.76,4.1,18,18,0,0,1,2.67,6.41,38.06,38.06,0,0,1,.85,8.39,37.47,37.47,0,0,1-.85,8.34,17.52,17.52,0,0,1-2.67,6.34,12.44,12.44,0,0,1-4.76,4,16.11,16.11,0,0,1-7.1,1.43,17.05,17.05,0,0,1-8.61-1.87,14.42,14.42,0,0,1-4.87-4.43v16q0,3.81.08,7.25Zm4.83-30a13.23,13.23,0,0,0,1.25,3.07,10.85,10.85,0,0,0,2.38,3,12,12,0,0,0,3.73,2.23,14.41,14.41,0,0,0,5.31.88q5.79,0,8.5-4.17t2.71-12q0-7.77-2.71-12.09t-8.5-4.32a12.19,12.19,0,0,0-5,.95,13.94,13.94,0,0,0-3.66,2.35,15.65,15.65,0,0,0-2.53,2.85,23.35,23.35,0,0,0-1.5,2.49Z"/><path class="cls-2" d="M612,359.93V313.28l-.66-10.1h4.1l1,7.1a21.08,21.08,0,0,1,1.72-2.31,14.71,14.71,0,0,1,2.86-2.56,17.1,17.1,0,0,1,4-2.05,15.45,15.45,0,0,1,5.31-.84,15.82,15.82,0,0,1,7.1,1.46,12.52,12.52,0,0,1,4.76,4.1,18,18,0,0,1,2.67,6.41,38.06,38.06,0,0,1,.85,8.39,37.47,37.47,0,0,1-.85,8.34,17.52,17.52,0,0,1-2.67,6.34,12.44,12.44,0,0,1-4.76,4,16.11,16.11,0,0,1-7.1,1.43,17,17,0,0,1-8.61-1.87,14.42,14.42,0,0,1-4.87-4.43v16q0,3.81.08,7.25Zm4.83-30a12.81,12.81,0,0,0,1.25,3.07,10.85,10.85,0,0,0,2.38,3,12,12,0,0,0,3.73,2.23,14.41,14.41,0,0,0,5.31.88q5.79,0,8.5-4.17t2.71-12q0-7.77-2.71-12.09t-8.5-4.32a12.19,12.19,0,0,0-5,.95,13.94,13.94,0,0,0-3.66,2.35,15.65,15.65,0,0,0-2.53,2.85,23.35,23.35,0,0,0-1.5,2.49Z"/><path class="cls-2" d="M685.36,314.38a10.61,10.61,0,0,0-.47-3.22,6,6,0,0,0-1.65-2.56,8.36,8.36,0,0,0-3.19-1.76,16.29,16.29,0,0,0-5-.66,18.58,18.58,0,0,0-5.08.58,8.72,8.72,0,0,0-3.19,1.58,5.2,5.2,0,0,0-1.61,2.2,7.16,7.16,0,0,0-.44,2.45,5,5,0,0,0,1.14,3.41,8.29,8.29,0,0,0,3,2.08A21.64,21.64,0,0,0,673,319.8c1.56.34,3.14.67,4.75,1a45.62,45.62,0,0,1,4.77,1.21,15.43,15.43,0,0,1,4.17,2,9.86,9.86,0,0,1,3,3.19A11,11,0,0,1,687,340.34q-3.81,2.9-12.23,2.82Q667.2,343,663.1,340T659,330.2h4.39q0,4.55,2.89,6.81c1.93,1.51,4.75,2.3,8.46,2.34a22.61,22.61,0,0,0,5.2-.51,9.69,9.69,0,0,0,3.44-1.46,5.69,5.69,0,0,0,1.91-2.24,6.51,6.51,0,0,0,.58-2.74,5.77,5.77,0,0,0-1.09-3.67,7.93,7.93,0,0,0-2.93-2.23,20.51,20.51,0,0,0-4.18-1.35l-4.76-1c-1.61-.34-3.2-.73-4.76-1.17a15.09,15.09,0,0,1-4.21-1.9,9.7,9.7,0,0,1-3-3.15A9.47,9.47,0,0,1,659.8,313a9.29,9.29,0,0,1,3.74-7.73q3.74-2.88,11.35-2.82c5.18.05,8.94,1.08,11.31,3.08s3.56,5,3.56,8.86Z"/></svg>