<svg id="Capa_1" data-name="Capa 1" xmlns="http://www.w3.org/2000/svg" viewBox="0 0 2020 445.99"><defs><style>.cls-1{fill:#079651;}.cls-2{fill:#04954e;}</style></defs><title>SB</title><g id="m2xeK4.tif"><path class="cls-1" d="M19.22,270.12c3.06-9.59,10.17-15.78,17.77-21.73,14.11-11,29.47-20.08,45.13-28.66,4.59-2.51,9.23-12.34,8.3-17.48-.86-4.7-3.59-6.43-8.66-5-11.16,3.12-22.25,6.48-33.41,9.62a21.05,21.05,0,0,1-9,.78c-8.37-1.34-12.3-8.4-8.8-16.09,3.63-8,9.67-13.6,17.44-17.56,18.07-9.21,37.41-14.77,56.92-19.85,3.22-.84,6.43-1.76,9.64-2.64,1.63-.45,3.3-1.23,3-3.11s-2-2.26-3.78-2.22c-6.19.13-11.88,2.49-17.79,3.89-.68.16-1.34.41-2.4.74,5.23-5.21,21.2-10.23,27.8-8.8,3.43.75,6.17,2.51,7.05,6.26s-.85,6.23-3.43,8.35c-3.69,3-8.24,4.16-12.72,5.35-14.71,3.91-29.74,6.53-44.18,11.43-5.77,2-11.53,4-16.42,7.79a15.76,15.76,0,0,0-2.34,1.94c-2,2.27-4.71,4.55-3.23,7.89s4.79,2.59,7.68,2.51c8.51-.23,16.31-4,24.71-4.88,1-.1,2-.37,3-.47,13.19-1.25,18.41,4.43,16,17.52a45.52,45.52,0,0,1-2,7.56c-1.15,3.08.44,3.22,2.64,2.77a27.66,27.66,0,0,0,9.47-4.23c4.38-2.84,8.88-5.49,12.44-9.42a8.2,8.2,0,0,1,5.36-2.66,4.94,4.94,0,0,1,5.23,3.18c.93,2.42,0,4.58-1.95,6.2a93.21,93.21,0,0,0-14.4,14.51c-2.37,3-4,6.43-4.07,10.34,0,1.83.26,4.25,2.43,4.64,2.59.46,2.56-2.27,3.17-3.88.5-1.34.28-3,.87-4.24s-1.42-6.38,3.37-2.61c1,.75,1.55-1,2.1-1.7,3.25-4.45,6.39-9,9.68-13.41a40.61,40.61,0,0,1,12.92-11.51c2.82-1.55,5.78-2.89,8.94-.51a2.42,2.42,0,0,0,2,.34c4.65-1.92,8.9-.76,13.29,1.14,4,1.74,5.11,3.9,2.76,7.71-1.82,3-4,5.69-5.77,8.69a20.94,20.94,0,0,0-2.68,15.91c.71,2.95-.09,4.92-3.05,5.65-3.17.78-5.11-.86-5.77-3.79-1.34-6,.49-11.48,2.7-16.9.65-1.6,1.38-3.17,2.07-4.75.31-.43.53-.9,0-1.29-.09-.07-.55.33-.84.52-3.24,2.56-5.5,5.91-7.63,9.4a9.77,9.77,0,0,0-1.44,7.46,12.49,12.49,0,0,1,0,3.86c-.26,2.57-1.47,4.63-4.24,4.68-3,.06-4.86-1.82-5.36-4.74-.63-3.66.16-7.22,1.15-10.74A56.39,56.39,0,0,1,146,212c-6.66,3.44-13.72,12.27-15,18.57-.46,2.31-.75,4.86,2.52,5.49,2.4.46,1.46,1.61.7,2.71-2.51,3.67-7,4.76-10.67,2.16-2-1.42-2.91-1.08-4.47.59a18.15,18.15,0,0,1-13.89,6.14c-4,0-5.75-2-6-5.84-.38-6.72,2.11-12.81,4.13-19.39-3.6.24-7,.29-10.29.76-1.77.25-2,2.31-2.71,3.67C83.33,240.32,76.71,254,68.2,266.73a65,65,0,0,1-23.84,21.82A26.66,26.66,0,0,1,35,291.89c-8.13.91-13.08-3.09-15.78-10.44Zm59-37.91c-12.57,3.87-28.4,14.33-35.78,23.3a26.07,26.07,0,0,0-5,8.57c-.58,1.86-1.08,3.76.55,5.28s3.53.95,5.33.36A13,13,0,0,0,46,268.41C60.05,259.67,69.84,247.17,78.2,232.21Z"/><path class="cls-1" d="M246,63.44c0,10.31-.11,20.63.08,30.94.06,2.92-.83,3.83-3.65,3.61s-5.52-.09-8.28,0c-6.71.12-9.19,2.59-9.2,9.29,0,25.71,0,51.42-.06,77.13,0,1.39,1.08,3.53-1.17,4.1s-4.14.69-4.13-2.88c.12-28.18,0-56.36.1-84.54,0-4.61,2-6.5,6.73-6.67,3.77-.14,7.56-.17,11.32,0,2.47.11,3.26-.72,3.2-3.19-.15-6.53-.19-13.07,0-19.6.09-2.78-.88-3.39-3.47-3.36-12.49.11-25,.05-37.48.05-17.14,0-34.28.07-51.42-.07-2.95,0-4.06.64-3.94,3.8.25,6.38.17,12.78,0,19.17-.06,2.44.68,3.39,3.17,3.19,2.31-.18,4.65,0,7,0,7.46,0,9.08,1.66,9.09,9.31q0,18.31,0,36.61c0,14.82,0,29.63,0,44.45,0,1.68.9,4-2.37,3.95s-2.29-2.41-2.29-4q-.07-38.35,0-76.7c0-7.86-2.15-10-10.13-10-9.31,0-9.29,0-9.31-9.23,0-8.43-.08-16.85-.12-25.27Z"/><path class="cls-1" d="M430,63.44c0,10.46-.07,20.92.07,31.38,0,2.63-.61,3.68-3.38,3.43a75.88,75.88,0,0,0-7.84,0c-7.79.1-10.15,2.45-10.15,10.16,0,25.43,0,50.86-.07,76.29,0,1.45,1.17,3.7-1.58,4.21s-3.79-.47-3.76-3.46c.14-14.53.06-29.06.06-43.59,0-13.51,0-27,0-40.54,0-5.92,1.58-7.44,7.52-7.48,3.64,0,7.27-.11,10.9,0,2.13.08,3.09-.38,3-2.82-.16-7-.13-14,0-20.92,0-2.15-.72-2.7-2.76-2.7q-45.33.09-90.67,0c-2.31,0-3,.81-2.95,3q.15,10.24,0,20.49c0,2.33.91,3,3.1,2.91,3.19-.14,6.39,0,9.59,0q6.06,0,6.47,6c.05.87.05,1.74.05,2.61q0,41.19,0,82.39c0,1.32.83,3.25-1,3.86-2.66.91-3.82-.14-3.79-3.2.14-14.53.06-29.06.06-43.59,0-11.34,0-22.67,0-34,0-6.72-2.81-9.54-9.46-9.69-9.85-.22-9.85-.22-9.85-9.92q0-12.42,0-24.84Z"/><path class="cls-2" d="M191.57,259.78c6.68,0,13.37.14,20.05,0,3.13-.1,4.42.55,4.88,4.11,1.76,13.49,5.16,26.65,13.56,37.65,12.67,16.59,30,24.52,50.67,25.7,13.2.76,25.48-2.24,37.46-7.85,13.67-6.41,22.13-16.94,27.09-30.77a119.06,119.06,0,0,0,5.87-25.81c.3-2.42,1.16-3,3.51-3,14.53.11,29.06.08,43.59,0,2,0,3.38.07,3.05,2.73-4.4,35.72-14.87,68.44-45.47,91-16.44,12.11-35.4,17.62-55.43,19.94-21.75,2.5-43.22,1.24-64-5.87-29.49-10.07-48.42-30.9-59.22-59.61-5.4-14.34-8.28-29.26-9.83-44.47-.29-2.83.31-3.83,3.34-3.74C177.62,259.93,184.6,259.78,191.57,259.78Z"/><path class="cls-1" d="M541.66,374.71c-1.87.52-2.92-1-4.17-1.82C503,350.94,465.9,335.42,425.72,327.44c-1.74-.34-3.07-.84-4.64.83-8.23,8.71-18.42,10.54-29.58,7.43-4.05-1.12-6.27-.33-8.86,3.16C367.37,359.4,346.7,371.91,322,377.65c-30.41,7.06-60.7,6.83-90.63-2.85-1.93-.63-4.06-1-5.7-2.11-8-5.36-16.43-4.41-25.34-2.9-16.35,2.78-32.71,1.76-48.88-1.9a40.41,40.41,0,0,1-12.47-5c-10.35-6.41-12-18.58-3.76-27.52,7.38-8,17-11.82,27.21-14.62,2.86-.79,7.16.09,8.23-2.51.83-2-1.55-5.3-2.52-8-5.42-15.17-7.81-30.91-8.59-46.92-.06-1.2-1.44-3.37,1.55-3.56,2.82-.18,2.5,1.89,2.65,3.5a184,184,0,0,0,9.63,44.54c14.54,40.3,43.16,63.09,85.51,68.86,23.95,3.26,47.54,1.57,70.53-5.92,32.43-10.57,53.72-32.72,65.72-64.3,5.34-14.06,8.29-28.67,10.26-43.52.16-1.19-.58-3.45,1.9-3,2,.36.92,2.15.85,3.26-.14,2.45-.56,4.88-.94,7.81a51.29,51.29,0,0,1,13.71-4.38c16.22-2.43,31.34,2,46.29,7.42,1.21.44,2.25,1.37,3.65,1.29s2.74-.78,3-2.11c.31-1.66-1.43-1.56-2.43-1.73-4-.7-8-1.29-11.71-3.12-5.84-2.89-7.22-6.18-4.79-12.41,2.89-7.43,8-13.43,13-19.47,2.65-3.2,2.24-4.93-1.61-6.59-4.22-1.82-8.43,1-9.37,5.61-1.52,7.39-3.48,14.75-10.4,19.32-1.3.86-2.79,2.2-4.33,1.08s-1-3.23-.6-4.86c.94-3.56,3.41-6.37,5.05-9.6,1.51-3,3.14-5.87,4.67-8.83.46-.91.83-1.94-.24-2.73-1.29-1-2.16,0-3,.78-1.53,1.52-1.86,3.58-2.2,5.58-.9,5.24-3.93,8.9-8.34,11.64-3.61,2.23-7,1.75-9.9-1.08-1.17-1.14-1.69-1.49-3.1-.48-9.91,7.08-16.6.31-16.26-9.48,0-.85-.07-1.71-.16-3.56-4.91,4.66-9.36,8.71-13.61,12.95a18.56,18.56,0,0,1-9.41,5.06c-3.27.73-5.88,0-7.63-2.67-1.15-1.74-2-1.51-3.32-.51s-3,1.83-4.31,2.94a6.21,6.21,0,0,1-8.37.25c-2.5-1.85-5-1.88-7.74-1.07-1.67.49-3.4.77-5.1,1.12-7.47,1.55-10.05.29-13.13-6.55-3.21,2.49-6.21,5.23-10.16,6.47-6.2,1.94-10.31-.41-11.51-6.73-2.19-11.49,4-25,14-30.57,5.39-3,8.48-2.69,13,1.35,3.88,3.46,8.33,3,11.68-1,5.8-6.89,11.91-13.5,19.45-18.59a14.2,14.2,0,0,1,5.91-2.62,6.29,6.29,0,0,1,6.85,8.65,11.63,11.63,0,0,1-5.15,5.7c-7.53,4.66-15.08,9.28-22.58,14-6.57,4.11-9.28,10.52-10.2,17.82-.46,3.64,1.7,5.34,5.18,5.42,5.44.12,8.89-3.12,11.61-7.27,3.51-5.36,7-10.71,11.7-15.12a22.7,22.7,0,0,1,4.5-3.39c1.53-.83,3.47-1.29,4.76.41,1.13,1.52.33,3.13-.76,4.37-3,3.38-6.18,6.55-9,10.08-1.3,1.65-5.06,3.25-2.38,5.84s4.71-.73,6.43-2.37c4.13-3.94,6.95-8.92,10.17-13.57,1.41-2,3.19-3.92,5.72-2.29,2.79,1.8,1.68,4.4.15,6.46-1.73,2.32-3.84,4.35-5.7,6.57a55.62,55.62,0,0,0-3.66,4.86c-.89,1.35-1.6,3-.3,4.4s3,.56,4.34-.22a20.24,20.24,0,0,0,3.16-2.3c9.55-8.17,20.29-14.48,31.41-20.22,3.57-1.84,7.1-3.25,11.17-1.31.91.43,2.26,0,3.39-.09,4.18-.5,6,1.77,4.37,5.69-1.47,3.55-4.39,6.11-6.59,9.16-1.36,1.88-2.88,3.66-4.08,5.63a3.89,3.89,0,0,0,.83,5.15c1.48,1.36,2.72-.06,3.87-.78a10.87,10.87,0,0,0,5.4-7.47,30.29,30.29,0,0,1,4.3-10.86c1.74-2.63,3.82-4.64,6.77-.95,1.73,2.17,3.69,2.13,5.91.11a34.62,34.62,0,0,1,6.49-4.33c4.18-2.31,8.23-2,11.44,1.67,1.64,1.87,2.6,1.49,4.07.06A48.07,48.07,0,0,1,499,211.4,23.8,23.8,0,0,1,509.21,210c4.45.39,7.69,3.27,8.21,7.1q.84,6.22-6,8.92c-6.16,2.42-12.66,3-19.16,3.72a9.55,9.55,0,0,0-4.57,1.22,97.09,97.09,0,0,0-23.31,21.4A12.62,12.62,0,0,0,463,255c-2.06,4.76-.89,6.95,4.24,7.2,7.19.35,13.58,2.85,19.58,6.57,4.41,2.74,4.7,6,.81,9.43-7.77,6.81-16.73,8.23-26.48,5.51q-9.42-2.62-18.79-5.46c-12.62-3.8-24,.32-35.28,5.35-1.7.77-4.63,9.95-4.13,11.9.33,1.32,1.3.8,2,.92,3.3.53,6.62.88,9.88,1.58,8.24,1.74,11.78,5.64,12.37,13.92.17,2.49.93,3.14,3.35,3.8,25.17,6.81,50.67,12.75,73.25,26.7A163.64,163.64,0,0,1,539.59,372a27.5,27.5,0,0,1,2,2.76ZM369.35,207.83c2.91-1.53,5.85-3,8.72-4.61,1-.56,2.86-1,1.88-2.7-.86-1.47-2.48-1.34-3.77-.36-2.71,2.08-5.49,4.11-7.38,7.06-.41.14-.8.36-.47.81C368.41,208.15,369,207.91,369.35,207.83Zm-175,145.48a156.26,156.26,0,0,1-15.27-18.6,4.64,4.64,0,0,0-3.89-2.25c-8.47-.46-16.11,1.65-22.67,7.09-2.64,2.18-6,4.39-5.17,8.41s4.85,4.84,8.08,5.74C168.13,357.23,180.75,355.16,194.4,353.31Zm127-114.92c0,1.82-.21,3.59,1.56,4.42s3,0,4.35-1.06a17.4,17.4,0,0,0,4.56-5.7c3.46-6.57,3.29-7-2.49-11.27-1.28-.94-1.82-1-2.64.25A35.06,35.06,0,0,0,321.45,238.39ZM416.9,238c.69,1.07-.64,4,2.45,3.61,3.68-.43,12.08-9.29,12.6-12.93.33-2.34-.78-3.66-3.08-3.62C424,225.12,416.91,232.66,416.9,238Zm-14.82,80.88c3.85-.89,7.47-1.55,11-2.58,3.21-.94,3.52-3.11,1-5.35-3.2-2.83-7.27-2.29-9.54,1.36A14.82,14.82,0,0,0,402.08,318.85Zm89.26-95.16c5.64-.2,11.27-.29,16.59-2.34,1.19-.46,2.65-1,2.28-2.67-.31-1.41-1.86-1.39-2.89-1.39C501.23,217.29,495.79,219.12,491.34,223.69Z"/><path class="cls-2" d="M322.2,171.08c10.31-.74,13.35,2.93,10.95,13.22-.93,4-2.82,7.6-4.65,11.22q-15.25,30.3-30.57,60.56c-.57,1.13-1.54,2.16-1.18,4a145.16,145.16,0,0,1,28.92,1.26c3.59.47,7.15,1.18,10.74,1.68,2.24.31,5.4,3.09,5.61-2.33.06-1.74,2.45-.76,3.78-.87s1.37,1.07,1.44,2.11c1.83,28.11-19.07,55-47.55,60.32-21.58,4-41.66.32-58.72-14.52-12.12-10.54-17.34-24.68-20.28-39.94a17.25,17.25,0,0,1-.62-3.86c.06-1.52-1.81-4.09,1.71-4.13,2.29,0,5.27-1,5.07,3.18a21.68,21.68,0,0,0,.58,3.87c1,7.13,1,7.16,7.94,4.59a108.78,108.78,0,0,1,22.72-5.75c2.73-.38,4.48-1.31,5.77-4.16,5.27-11.6,14.15-20.41,24.67-27A52.27,52.27,0,0,0,309,211.35c2-4.32,4.72-8.32,6.95-12.55a52.69,52.69,0,0,0,3.71-8.31c.84-2.59,3.18-6.12.14-7.88-2.67-1.54-4.82,1.88-6.55,3.87-6.21,7.11-12.25,14.36-18.34,21.58-2.06,2.44-4.05,4.94-6.07,7.42-1.45,1.79-3.45,2.64-5.38,1.48s-1.19-3.45-.35-5.05a39.8,39.8,0,0,1,4.13-6.12q7.14-9.06,14.43-18c3-3.7,3.78-8.06,3.92-12.63,0-1.18-.12-2.32-1.37-3a2.91,2.91,0,0,0-3.57.76,24.31,24.31,0,0,0-3.23,4.06q-18.94,30-37.84,60a70.46,70.46,0,0,1-5.09,7,12.12,12.12,0,0,1-6.79,4.47c-2.87.61-5.6.24-7.46-2.27s-1.12-5.21.73-7.57c6.08-7.78,12.05-15.65,18.31-23.29,10.3-12.54,19.32-25.76,23.62-41.68a73.1,73.1,0,0,0,2.32-12.59c-6,2-10.35,5.92-15.6,8.82-.49-1.92.75-2.9,1.53-4,6.4-8.71,14.67-15.24,24.13-20.29,2.56-1.37,5.49-2.73,8.23-.82s2.44,5.11,1.9,8c-.47,2.53.2,3.29,2.85,3.08a27.61,27.61,0,0,1,7.35.56c6.94,1.34,9,5,6.82,11.59-.28.81-.53,1.63-.79,2.44l-.42.51Zm-31.67,74.67c-.92-1-1.51,0-2.06.42a60.76,60.76,0,0,0-11,10.89c-1.09,1.35-2.76,3.36-.76,4.9,1.78,1.38,3.6-.18,4.82-1.64a61.49,61.49,0,0,0,8.91-14.63l.46-.45-.5,0ZM318.15,310c-9.77,2.25-18.67.39-26.47-5.94-1.6-1.3-2.68-.46-3.92.06q-11.17,4.71-22.32,9.51c-1.72.75-3.67,1.16-5.36,2.84A53.74,53.74,0,0,0,277,320.29c14.85,1,29.19-.56,41.77-9.59l1.14-1A1.14,1.14,0,0,0,318.15,310Zm-7.31-34.77c-7.75-1.08-14.28-.29-20.73-.81-2.32-.19-3.53.55-4.66,2.72-2.84,5.45-7.69,8.62-13.58,10-6.41,1.49-11.46-2-12-8.41-.2-2.25-.65-3.07-3-2.72-4,.6-8.05,1.24-11.7,3.13-3.5,1.8-7.27,3.73-6.82,8.51.3,3.22,4.41,4.92,10.17,4.61,8-.43,15.95-.68,23.87-1.5,5.86-.6,12.11.26,17.45-2.79C296.53,284.14,302.61,279.16,310.84,275.26Zm6.61,11.23c10.3,2.26,11.63,3.41,13.61,11.1,2.66-3.6,4.25-7.57,5.9-11.55,1.09-2.61-.06-2.85-2.19-3C329.05,282.8,323.75,284.38,317.45,286.49Zm-15.23,12.27a21.31,21.31,0,0,0,10,3.13c2.19.16,4.37-.14,5.6-2.4.82-1.5.26-2.84-.67-4-1.56-1.93-3.54-2.91-6.08-2.17A20.53,20.53,0,0,0,302.22,298.76Zm-42.15,3.73c-7.33-3.65-14.33-1.28-21-4.07,3.92,7.84,5,8.38,12.17,6.52C253.74,304.28,256.23,303.56,260.07,302.49Z"/><path class="cls-2" d="M818,265c-8.71,18.27-17.48,36.52-26.1,54.83-5.12,10.88-10.05,21.85-15,32.82-.91,2-1.89,3.15-4.43,3.21-2.69.07-3.37-1.35-4.23-3.3-13.26-29.95-27.77-59.31-41.89-88.89-1.53.53-.83,1.74-.83,2.55q0,33.35.11,66.69a53.32,53.32,0,0,0,.29,5.65c.8,7.72,1.06,7.95,9.08,8.29,2.51.11,5-.23,4.81,3.71-.12,2.89-.61,4.1-3.93,3.85a229.23,229.23,0,0,0-30.9,0c-2.52.15-3.79-.19-3.72-3.1.06-2.6.18-4.31,3.58-4.48,9.95-.53,10.1-.67,10.33-10.55.62-26.86.67-53.73,0-80.6-.24-9.12-.66-9.61-9.72-9.85-3.32-.09-4.25-1.21-4.17-4.37.06-2.54,1-3.33,3.34-3.2a260.9,260.9,0,0,0,34.36,0c2.59-.2,3.16,1.48,3.91,3.22C754,267.58,767,292.86,778.94,318.61c.3.65.71,1.26,1.38,2.44,4.61-9.4,9.2-18.38,13.45-27.52,8.19-17.59,17-34.91,24.18-53,.85-2.12,2.08-2.44,4-2.3a244.42,244.42,0,0,0,31.33,0c2.18-.12,4.06-.12,3.93,3-.11,2.54-.05,4.33-3.56,4.49-10.06.46-10.08.63-10.45,10.9q-1.43,40.28,0,80.56c0,1.16.17,2.32.18,3.48.05,3.89,2,5.88,5.89,6,1.45,0,2.9.26,4.35.18,3.44-.19,3.51,1.94,3.55,4.52,0,3.07-1.6,3.06-3.92,3-14.95-.6-29.91-.63-44.86,0-2.41.1-3.82,0-3.69-3.05.11-2.57.16-4.33,3.55-4.52,9.64-.56,10.19-.69,10.32-10.15.33-23.79.11-47.59.11-71.39Z"/><path class="cls-2" d="M351.47,142.63q0-20.68,0-41.38c0-7.92-3.61-11.23-11.64-10.79-7.41.4-7.51.4-7.36-7.1.07-3.86-1.72-8.82.82-11.28,2.31-2.23,7.2-.63,10.94-.63,24.25-.06,48.5,0,72.75-.1,3.12,0,4.47.57,4.2,4-.31,4.19-.15,8.42,0,12.63.05,1.89-.59,2.61-2.49,2.51-3-.15-6.09-.11-9.13-.2a9.36,9.36,0,0,0-9.81,9.72c.19,18,.12,36,.09,54,0,10.31-.28,20.62-.12,30.92.05,3.31-.9,4.11-4.13,4.07-13.5-.19-27-.16-40.52,0-2.85,0-3.65-.76-3.62-3.63C351.55,171.09,351.47,156.86,351.47,142.63Z"/><path class="cls-2" d="M167.87,143.55c0-13.22,0-26.44,0-39.66,0-9.83-3.53-13.24-13.49-13.27-5.69,0-5.81,0-5.65-5.85.12-4.16-1.88-9.7.88-12.07,2.38-2,7.76-.68,11.81-.68,23.83,0,47.66.08,71.48-.11,3.74,0,4.74,1,4.42,4.58a67,67,0,0,0,0,10.88c.2,2.83-.89,3.53-3.46,3.29a57.06,57.06,0,0,0-6.54,0c-7.36.2-11.27,4-11.37,11.42-.11,9.15,0,18.31,0,27.46,0,18.16-.08,36.32.08,54.48,0,3.44-.6,4.8-4.44,4.73-13.22-.25-26.44-.21-39.66,0-3.34.05-4.14-1-4.1-4.18C168,170.87,167.87,157.21,167.87,143.55Z"/><path class="cls-2" d="M1926.56,296.94c.16,13.14-.33,27.23.59,41.3.5,7.64,1,8.18,8.76,8.65,1.89.12,4.66-1.11,4.95,2.51.27,3.27.05,5.29-4.41,5-14.64-.86-29.3-.68-44-.08-2.24.09-4,.26-3.78-2.93.18-2.37-.33-4.86,3.36-4.58,1.29.1,2.61-.11,3.91-.14,4-.08,5.91-1.73,6.22-6,1.31-18.29.47-36.59.62-54.89.09-11.17.33-22.35-.57-33.53-.36-4.47-2.3-6.24-6.43-6.36-1.45,0-2.9-.18-4.36-.17-3.71,0-2.43-2.76-2.69-4.69-.35-2.56,1.2-2.9,3.19-2.77,20.47,1.34,40.93-.34,61.39-.23a69.69,69.69,0,0,1,11.27.95c14.37,2.49,21.24,12.73,19,27.59-1.93,12.67-9.79,20.36-20.93,25.2-3,1.31-3.66,2.12-1.72,5.11,9.29,14.37,18.24,29,28.26,42.86,2.52,3.5,4.94,7,10,7.72,2.8.39,1,3.4,1.3,5.19s-1.16,1.94-2.59,1.85a180.46,180.46,0,0,0-26.1-.13c-1.56.12-2.15-.41-2.91-1.77-9.93-17.55-20.17-34.91-31.36-51.69-1.2-1.79-2.92-3.21-4.23-4.94-1.55-2.06-1-3.51,1.62-3.88a14.21,14.21,0,0,1,2.61,0c9,.35,15.42-3.71,19.3-11.59,4-8.14,4.26-16.55-.22-24.63-2.29-4.11-6.23-6.39-10.79-7.51-4.85-1.18-9.78-1-14.72-.94-3.09,0-3.8,1.34-4,4.18C1926.33,266.38,1926.65,281.19,1926.56,296.94Z"/><path class="cls-2" d="M1381.25,357.31a65,65,0,0,1-20.68-2.27c-21.6-6.1-34.21-20.5-38.33-42.28a81.13,81.13,0,0,1,1-35c5.67-22.62,24.33-38.05,48.84-40.74,12.39-1.36,24.68-1.17,36.65,2.61,19.78,6.25,31.79,19.66,35.45,40.1,2.88,16.08,1.7,32-5.82,46.68-10.28,20.13-27.92,29-49.72,30.89C1386.2,357.5,1383.72,357.31,1381.25,357.31Zm38.69-57.38c0-15.43-1.76-28-9-39.11-8.18-12.65-20.33-16-34.43-14.32-13,1.53-21.32,8.87-25.85,20.92s-4.88,24.34-3.7,36.86c1,10.81,3.52,21.17,9.94,30.18,8,11.27,19.48,14.53,32.55,13.13,12.06-1.29,20.19-8.18,24.87-19.16A70.82,70.82,0,0,0,1419.94,299.93Z"/><path class="cls-2" d="M1270.1,289c1.93,1.37,4.19,1,6.26,1.38,22.43,4.29,31.52,25.33,19.1,44.78-7.16,11.22-17.89,17-31,18.74-9,1.19-18,.46-26.94.24-8-.2-16-.4-23.94.19-1.21.09-2.8.65-3.22-1.23-.29-1.31-.27-2.87,1.16-3.44,7.15-2.88,6.58-9.05,6.58-15q0-37.9,0-75.82a8.42,8.42,0,0,0,0-.87c-1.14-11.8.36-11.84-11.15-12.2-3.64-.11-2.6-2.62-2.81-4.62-.26-2.46,1.07-3,3.15-2.86,19.3,1.25,38.6-.12,57.89-.26a54.83,54.83,0,0,1,14.21,1.81c21.38,5.49,20.27,28.36,10.68,38.25C1285.38,282.94,1282.34,284.72,1270.1,289ZM1242,319.83h.33c0,7.4,0,14.8,0,22.2,0,1.39-.19,2.7,2,3.18,15.37,3.45,27.77-4.34,30.34-19.47a44.36,44.36,0,0,0,.27-10c-.65-10.94-7-18.12-17.72-20.08a49.63,49.63,0,0,0-12.13-.54c-2.45.15-3.18.93-3.13,3.34C1242.1,305.6,1242,312.71,1242,319.83Zm.33-52.71H1242v13.07c0,6,0,6,6.17,6,13.83.05,21-4.79,23-16.28,1.84-10.67-.81-22.34-17.12-22.74-2.74-.07-5.5.31-8.24.19s-3.51,1.17-3.47,3.64C1242.39,256.38,1242.33,261.75,1242.33,267.12Z"/><path class="cls-2" d="M934.05,357.53a67.87,67.87,0,0,1-25.7-4c-17.33-6.53-28.23-19-32.52-36.92a79.84,79.84,0,0,1,.4-39.24c5.16-19.71,18-32,37.2-37.8a82.57,82.57,0,0,1,46-.52c20.42,5.56,33.27,18.87,37.4,39.85,2.95,15,2.1,29.93-4.07,44C981.58,348.34,960.21,357.17,934.05,357.53Zm38.73-61.35c-.15-12-2.25-24.9-9.78-36.67-11.87-18.55-48.32-18.73-58.12,4.5a66.38,66.38,0,0,0-5.33,21.4c-1.15,16.28,0,32.26,8.6,46.69,7.29,12.3,18.75,16.65,32.58,15.63,12.69-.93,21.31-7.61,26.32-19.06C971.36,318.8,972.72,308.35,972.78,296.18Z"/><path class="cls-1" d="M1119.81,321.55c.18-1.66.33-2.33.32-3-.17-21.06.45-42.12-.37-63.18-.34-8.74-.82-9.27-9.59-9.6-2.68-.1-4.33-.35-4.34-3.74,0-3.19,1.12-4,4.07-3.81a222.55,222.55,0,0,0,30.88,0c2.08-.13,3.75,0,3.61,2.86-.13,2.41.24,4.45-3.38,4.67-10.27.63-10.58.79-10.65,11.22-.22,31.95-1,63.91.65,95.84.18,3.29-.92,4.14-3.93,3.47a54.07,54.07,0,0,0-8.15-1.41,7.31,7.31,0,0,1-5.43-3c-23.58-27-46.16-54.91-68.85-82.69-.89-1.1-1.82-2.17-2.87-3.4-1,1.31-.61,2.64-.61,3.83q0,31.4.13,62.77c0,1.89,0,3.78.19,5.66.71,8,1.11,8.34,9.17,8.74,2.21.1,4.71-.57,4.68,3.3,0,3.29-.58,4.58-4.33,4.26a216.54,216.54,0,0,0-30.46,0c-2.2.12-3.75.08-3.59-2.75.13-2.28-.56-4.67,3.19-4.8,9.48-.32,10.41,1,10.69-11.55.6-26.58.64-53.16,0-79.74-.23-8.75-.87-9.58-9.47-9.69-4-.06-4.56-1.76-4.38-5,.21-3.86,2.79-2.42,4.73-2.34a229.34,229.34,0,0,0,25.69-.13,6.18,6.18,0,0,1,6.16,2.82c19.23,25.53,39.63,50.11,60.7,74.14C1115.84,317.15,1117.49,319,1119.81,321.55Z"/><path class="cls-2" d="M1806.89,319c-6.1,0-12.21.05-18.31,0-1.83,0-2.91.41-3.52,2.32-2.07,6.49-4.44,12.88-6.42,19.39-1.19,3.93.17,5.66,4.29,6.17a33.27,33.27,0,0,0,4.35.22c3.12,0,4.2,1.27,4.07,4.5-.14,3.63-2.26,2.91-4.45,2.81a279,279,0,0,0-30.47.07c-1.88.13-3.29,0-3.12-2.28.14-1.93-1.12-4.91,2.46-4.9,6.87,0,9.65-4.22,12-9.91q19.59-47.65,38.15-95.71c1.22-3.15,2.69-4.08,5.93-4,7.58.23,7.6,0,10.53,6.94q20,47,39.9,94c2.13,5.06,4.58,9,10.89,8.63,3.66-.22,2.48,2.69,2.67,4.64.24,2.57-1.24,2.64-3.3,2.56-14.94-.63-29.9-.7-44.84-.05-2.34.11-3.58-.17-3.51-2.86.06-2.31-.13-4.51,3.16-4.37a6.53,6.53,0,0,0,.86-.11c9.72-.87,9.83-1,6.35-10.34-1.88-5-4-10-5.72-15-.76-2.22-1.88-2.81-4.09-2.76C1818.8,319.05,1812.84,319,1806.89,319Zm16.76-9.64c-5.83-14.24-11.4-27.87-17.3-42.32-5.7,14.59-11,28.26-16.54,42.32Z"/><path class="cls-2" d="M564,357.3c-10.93.37-21.25-2.22-31.26-6.43-2.71-1.14-3.62-2.61-2.93-5.71,1.53-7,1.74-14.11,1.68-21.23,0-2.56.41-4,3.53-4.08s3.78,1.34,3.69,3.9c0,.72.2,1.46.12,2.17-1,9.51,4.16,14.78,12.18,18.37a37.08,37.08,0,0,0,24.22,2.53c10.84-2.55,18.34-13.67,16.79-24.73-1-7.08-5.14-11.46-11.83-13.61-8-2.59-16.58-2.87-24.7-5.11-2.09-.58-4.2-1.1-6.27-1.77-12-3.89-18.3-12.22-18.93-24.78-1-20.58,9.84-34.87,30.11-39a76.43,76.43,0,0,1,42.41,3.13c3.11,1.14,3.93,2.87,3.36,5.91a99.9,99.9,0,0,0-1.86,19c0,3.24-1.94,2.88-4,3-2.33.12-3.62-.56-3.39-3.16.11-1.14-.29-2.34-.14-3.47,1.09-8.05-4-11.47-10.37-13.87-7.57-2.85-15.28-3.43-23-.81a19,19,0,0,0-12.93,21.19c1,6.52,4.66,10.72,11,12.7,8.07,2.53,16.46,3.46,24.72,5,24.91,4.62,34.92,25.72,22.76,48.39-8,14.9-21.45,20.92-37.5,22.43C569,357.5,566.46,357.3,564,357.3Z"/><path class="cls-2" d="M1705.47,326c4-10,7.56-19,11.15-28,5.75-14.39,11.64-28.73,16.28-43.53,2.21-7,1.42-8.13-5.84-8.6a16.35,16.35,0,0,0-3-.12c-3.5.48-3.5-1.64-3.63-4.23-.19-3.42,1.83-3.39,4.15-3.24a251.5,251.5,0,0,0,30.45.05c1.63-.09,4.14-1,4.13,2.22,0,2.47.92,5.43-3.42,5.4-5.32-.05-7.82,3.63-9.75,8-9.23,20.63-17.55,41.64-26.13,62.55-4.83,11.79-9.42,23.68-14,35.59-.8,2.1-1.73,2.86-4,2.89-9.78.14-9.76.22-13.52-8.9q-17-41.17-34-82.33c-1.61-3.88-3.62-7.59-5.16-11.5-1.87-4.74-5.42-6.76-10.19-6.41-3.94.29-3.67-2-3.77-4.63-.11-3.27,2-3,4.06-2.88,14.8.74,29.6.62,44.4-.05,3.26-.15,5.7,0,5.23,4.43-.27,2.5-1.13,3-3.47,3.11-10.49.37-11.32,1.39-7.46,11.26C1686.85,279.68,1696,302.24,1705.47,326Z"/><path class="cls-2" d="M1626.73,91.48c9.27.24,20.59-.85,31.89.62,17.24,2.24,27.72,12.1,30.88,29.33,4.38,23.93-7.41,46.52-28.77,55.22-10.65,4.34-21.82,4.44-33,4.06-9-.31-18-.49-27-.17-1.12,0-2.47.65-3-.84a2.48,2.48,0,0,1,1.57-3.19c3.84-1.72,4.31-5,4.31-8.66,0-19.61.08-39.22.1-58.83,0-1.88-.3-3.76-.28-5.64,0-4.37-1.94-6.36-6.41-6-1.27.08-3,.67-4-1a3.16,3.16,0,0,1,2.87-4.86C1605.53,91.47,1615.11,91.48,1626.73,91.48Zm-4.18,43.27h0c0,11.6,0,23.2,0,34.8,0,2.6,1,3.61,3.54,3.71a115.19,115.19,0,0,0,16.09-.08c11.91-1.2,20.16-7.36,24.65-18.5a53.79,53.79,0,0,0,2-35.36c-2.89-10.36-9.33-17.62-20.36-19.73a77.18,77.18,0,0,0-22.51-.83c-2.64.27-3.39,1.39-3.37,3.8C1622.58,113.29,1622.55,124,1622.55,134.75Z"/><path class="cls-2" d="M1914.09,137.13c0-10.74.15-21.49,0-32.23-.13-6.93-.48-7.21-7.1-7.48-2.68-.11-3.42-1-3.43-3.57,0-2.89,1.73-2.45,3.43-2.37,17.42.84,34.82-.4,52.24-.17a71.21,71.21,0,0,1,13,1.27c17.74,3.55,28.11,16.65,28.47,34.86.24,11.78-1.53,22.83-8.51,32.61-10.29,14.42-24.91,20.21-42,20.69-13.19.38-26.39-1.06-39.59-.05-.84.07-1.88.19-2.24-.83a2.22,2.22,0,0,1,1.09-3c5.1-2.17,4.89-6.59,4.87-11,0-9.59,0-19.17,0-28.75Zm18.91-3.35c0,11.75,0,23.49,0,35.24,0,2.82.89,4.32,4,4.27,5.07-.1,10.17.3,15.21-.1,11.3-.89,19.79-6.3,24.46-16.84a53.15,53.15,0,0,0,2.05-39c-3.09-9.49-9.57-15.79-19.61-17.73a76.22,76.22,0,0,0-22.52-.83c-2.57.27-3.28,1.18-3.42,3.7C1932.48,112.9,1932.77,123.34,1933,133.78Z"/><path class="cls-2" d="M1249,135.28c0,11.18-.33,22.36.31,33.54.26,4.51,2.17,6.17,6.39,6.14,1.36,0,3.09-.54,4,1a4.45,4.45,0,0,1,.12,3.81c-.52,1.38-1.92,1.05-3,1q-17-.79-33.93,0c-1.64.08-3.27.28-3.3-2.22,0-2.17.3-3.39,3-3.6,7.48-.59,7.63-.74,7.82-8.26q.78-30.51,0-61c-.19-7.65-.36-7.75-7.73-8.25-2.22-.16-3.09-.81-3.09-3.06s.76-3,3.06-2.89c16.41.9,32.82-.35,49.22-.06a40.36,40.36,0,0,1,8.19,1c10.58,2.41,15.35,12.09,12,24-2.22,7.9-7.79,12.75-15,15.94-2.57,1.14-3.25,1.91-1.49,4.56,7.53,11.37,14.47,23.13,22.66,34,1.4,1.87,2.84,3.87,5.4,4s2.37,2,2.37,3.71c0,2.24-1.63,2.08-3.08,2a119.66,119.66,0,0,0-19.12,0c-1.66.16-2.12-1-2.82-2.16-7.3-12.53-14.53-25.11-22.56-37.2a34.75,34.75,0,0,0-4.33-5.43c-1.56-1.55-.9-2.58,1.06-2.88a39.31,39.31,0,0,1,4.33-.37c13.15-.66,18.42-18.16,12.29-28-2-3.15-5-4.74-8.52-5.56a42.76,42.76,0,0,0-9.52-.77c-3-.05-4.73.84-4.44,4.19.1,1.14-.27,2.31-.27,3.46Q1249,120.69,1249,135.28Z"/><path class="cls-2" d="M1532.38,354q-26.36,0-52.72,0c-2.75,0-5.5.22-8.26.31-1.25.05-2.76.56-3.16-1.32-.29-1.36-.1-2.86,1.26-3.41,7-2.79,6.46-8.73,6.47-14.58.07-21.79.26-43.58.28-65.36,0-5.8-.58-11.6-.62-17.4,0-4.17-1.9-6.17-6-6.29-1.45,0-2.91-.32-4.34-.22-3.75.27-3.2-2.3-3.33-4.63-.15-2.86,1.6-2.95,3.66-2.85,14.95.72,29.9.69,44.84,0,2.14-.1,4.14-.23,4,3-.12,2.44.17,4.87-3.46,4.48a11.24,11.24,0,0,0-1.74,0c-7.65.45-8.17.75-8.58,8.27-1.45,26.27-.49,52.57-.57,78.85,0,3.7-1.51,8.67,1.17,10.76,2.29,1.79,7,.55,10.59.59a204.75,204.75,0,0,0,23.49-.82c6.31-.66,7.06-1.24,8.24-7.34a57.25,57.25,0,0,0,1.41-7.25c.22-3.81,2.74-3.52,5.25-3.32,3.24.26,2,2.68,1.76,4.29a132.93,132.93,0,0,0-1.35,20.4c.11,3.9-1.4,4.63-4.8,4.44-4.48-.24-9-.06-13.49-.06Z"/><path class="cls-1" d="M761.34,155.29a18.77,18.77,0,0,0,.37-2.32c-.12-16.41.39-32.82-.38-49.23-.26-5.53-.73-6-6.49-6.28-2.23-.12-4.23.06-4.07-3.39s2.44-2.6,4.24-2.53c7.12.27,14.22.29,21.34,0,1.69-.07,3.88-.89,4.11,2.3s-1.44,3.52-3.94,3.64c-6.25.3-6.49.36-6.75,6.39-1,24.1-.75,48.2.07,72.3,0,.14,0,.29,0,.43.42,6.26.45,6-6,5.26-4.2-.49-7-2.36-9.72-5.52-16.81-19.64-33.16-39.66-49.53-59.67-.91-1.12-1.84-2.23-2.76-3.34-1.49.56-.84,1.76-.84,2.61q0,24.63.11,49.25c0,.87.06,1.74.11,2.61.43,6.45.7,6.73,7.15,7.19,1.7.13,3.48-.3,3.42,2.54,0,2.37-.58,3.49-3.16,3.29a159.76,159.76,0,0,0-23.05,0c-1.94.14-3.41-.08-3.34-2.68.06-2.14.65-3,3-3.15,7.47-.56,7.75-.68,7.81-8.27.16-20.34.23-40.68,0-61-.1-7.2-.33-8.57-7.76-8.29-2.34.09-3-1-3-3.16,0-2.47,1.2-2.89,3.28-2.76a141,141,0,0,0,20.45,0c2.49-.2,3.59,1.12,4.87,2.82,15.31,20.29,31.59,39.8,48.38,58.88C759.78,153.67,760.29,154.17,761.34,155.29Z"/><path class="cls-2" d="M657.27,238.27h23.51c1.9,0,4-.35,3.72,2.7-.18,2.25.59,4.63-3.2,4.82-9.11.44-10.39-1-10.67,11.21q-.93,40.08,0,80.17c.24,8.86.73,9.48,9.48,9.6,3.88.05,4.63,1.69,4.37,5-.16,2.05-.78,2.72-2.91,2.62q-23.29-1-46.59,0c-2.2.1-3-.66-2.72-2.67.28-1.75-1.25-4.38,2.12-4.75.58-.06,1.16-.09,1.74-.12,9.37-.54,9.72-.62,9.91-10.18.55-26.87.44-53.74.06-80.62,0-.43,0-.87-.06-1.3-.63-8.17-1.08-8.7-9.37-9-2.8-.1-4.64-.24-4.55-3.93.07-3,1-3.69,3.79-3.63C643.05,238.37,650.16,238.27,657.27,238.27Z"/><path class="cls-2" d="M1593.59,238.25c8,0,16,0,23.94,0,2.08,0,3.74,0,3.59,2.92-.14,2.42.18,4.43-3.43,4.63-10.16.57-10.33.73-10.52,10.84-.52,26.87-.64,53.74.08,80.61.24,8.85.69,9.34,9.53,9.53,3.47.08,4.58,1.21,4.37,4.62-.16,2.54-1,3.1-3.43,3q-22.63-1-45.28,0c-2.44.1-3.78-.13-3.66-3.12.12-2.61.21-4.28,3.58-4.46,9.86-.52,10.05-.65,10.28-10.65.59-26.15.44-52.3.08-78.45,0-1,0-2-.13-3-.77-8.19-1.08-8.7-9.5-8.82-3.58,0-4.41-1.29-4.33-4.61.07-2.77,1.33-3,3.5-3C1579.37,238.3,1586.48,238.25,1593.59,238.25Z"/><path class="cls-1" d="M539.84,130.37c0-8.85.1-17.71,0-26.56-.1-5.6-.74-6.18-6.35-6.38-2.64-.09-4.58-.32-4.15-3.78.21-1.63.56-2.29,2.3-2.22q17.85.69,35.69,0c1.8-.07,2.31.77,2.22,2.36s.43,3.25-2,3.55-5.84-1-7.61,1.89c-1.49,2.43-.89,5.38-.94,8.11-.31,16.26-1,32.53.74,48.73,1,9.18,5.91,13.89,15,15.37a41.8,41.8,0,0,0,13,.06c10-1.52,15.8-7.62,16.64-17.66,1.35-16.38.88-32.78.37-49.17-.19-6.11-1-6.88-7.25-7.21-2.64-.14-4-.66-3.8-3.72.16-2,.89-2.44,2.66-2.3,8,.64,16,.14,23.94,0,1.84,0,2.74.32,2.59,2.31-.12,1.69.43,3.67-2.38,3.62-5.05-.09-6.65,2.83-6.93,7.46-.83,13.64-.28,27.29-.41,40.93a79.52,79.52,0,0,1-1,12.14C609.83,172,600,181,584.28,182.7A64.27,64.27,0,0,1,560.1,181c-12.72-3.49-18.85-11.29-19.38-24.5-.18-4.35-.4-8.7-.48-13.05s0-8.71,0-13.07Z"/><path class="cls-1" d="M1124,91.4c9.87,0,19.74.12,29.61-.08,3.09-.06,3.67.8,3.2,3.73-.71,4.43-1,8.94-1.29,13.43-.13,1.82-.47,3-2.71,3s-2.55-1-2.68-2.89c-.69-9.87,0-8-8.85-9-5.74-.65-11.6-.17-17.41-.29-2.4-.06-3.25.87-3.25,3.32q0,12.63-.36,25.26c-.07,2.39.91,3,3.06,2.92,4.5-.1,9,0,13.49,0,6.37,0,6.37,0,7.17-6.39.21-1.6-.41-3.59,2.47-3.54,2.13,0,3.12.43,3.07,2.86-.14,7.55-.1,15.11,0,22.66,0,2-.64,2.85-2.75,2.81-1.88,0-2.81-.42-3.08-2.59-1-8-1.06-8.08-9-8.67-3.76-.28-7.55-.07-11.33-.13-2.14,0-3.13.79-3.1,3.1q.22,14.37.2,28.75c0,2.26.46,3.41,3.12,3.31,7.54-.3,15.09-.38,22.64-.47,4.59,0,7.4-1.84,7.62-6.81a26.5,26.5,0,0,1,1-5.56c.58-2.24,2.5-1.54,4-1.5,1.79,0,1.41,1.39,1.33,2.55-.39,5.36-1,10.71-1,16.07,0,2.94-.92,3.71-3.7,3.67q-20.91-.33-41.83-.39c-5.07,0-10.15.18-15.22.29-1,0-2.2.24-2.69-.89a2.16,2.16,0,0,1,1.11-3c4.89-2.09,4.79-6.24,4.83-10.57.18-20.47.58-40.95-.15-61.42-.26-7-.33-7.14-7.09-7.47-2.61-.13-3.47-.92-3.48-3.58,0-3.37,2.23-2.35,3.87-2.36,9.73,0,19.46,0,29.18,0Z"/><path class="cls-1" d="M1392.84,182.89c-8.13.47-15.8-1.52-23.31-4.45-2.5-1-3.8-2.2-3.07-5.17,1.26-5.11,1.07-10.39,1.3-15.6.1-2.16.29-3.58,3.06-3.48s2.54,1.65,2.61,3.5c.44,11.3,6.88,17,20.31,18,10.51.8,18.27-4.94,20.26-15,1.43-7.21-1.81-13.18-9-15.18-6.4-1.79-13-2.84-19.54-4.17-10-2.05-17.07-7.11-18.43-18-1.43-11.4,1.32-21.49,11.53-27.61,14.25-8.54,29.41-7.06,44.51-2,1.88.63,2.25,1.95,2.05,3.76-.53,5-1.06,10.1-1.4,15.16-.16,2.36-1.55,2.32-3.25,2.36-1.88.06-2.4-.72-2.55-2.55-.83-9.78-2.34-11.74-10.28-14-9.33-2.66-18.16-.54-22.73,5.44a13.09,13.09,0,0,0,6.7,20.92c5.84,1.78,11.93,2.38,17.9,3.54,20.63,4,28.07,23.14,15.79,40.48-6.35,9-15.42,12.86-26,14A64.64,64.64,0,0,1,1392.84,182.89Z"/><path class="cls-2" d="M1790.75,153.41c-4.36,0-8.72.08-13.07,0-1.8,0-3,.29-3.62,2.19-1.46,4.54-3.21,9-4.51,13.6-1.22,4.31-.25,5.44,4.26,5.83,1,.09,2,.14,3,.16,2,0,2.17,1.35,2.23,3,.07,1.86-.66,2.73-2.5,2.63a195.71,195.71,0,0,0-24.34,0c-1.57.11-2.54-.45-2.45-2.2.07-1.55-.35-3.49,2.13-3.44,5.17.11,7.19-3.24,8.85-7.43,9.68-24.37,19.51-48.68,29.19-73,1-2.52,1.93-4.23,5.14-3.86,3,.34,5.49-.3,7.14,3.69,10.08,24.51,20.59,48.84,30.94,73.24,1.68,4,3.25,7.87,8.74,7.46,2.48-.19,2,1.86,2.12,3.41.1,2.15-1.33,2.21-2.89,2.19-8-.12-16-.27-23.93-.31-3,0-6.09.24-9.13.27-1.77,0-3.81.62-3.85-2.55,0-2.71,1.25-3,3.42-3.16,6.79-.38,7.13-.89,4.75-7.17-1.8-4.72-2.54-10.92-6-13.65s-9.76-.57-14.8-.8Zm-.18-39.71c-4.22,10.72-8.19,20.78-12.13,30.85-.41,1,.07,1.59,1.24,1.59,7.86,0,15.73,0,24.11,0C1799.29,135.08,1795.1,124.79,1790.57,113.7Z"/><path class="cls-1" d="M993,158.89c5.38-13.56,10.36-25.87,15.13-38.27,2.29-5.93,4.14-12,6.29-18,1.37-3.79-.28-5.12-3.84-5.14-1.16,0-2.33-.19-3.48-.12-2.79.19-2.39-1.72-2.48-3.47s.59-2.54,2.52-2.44a241.16,241.16,0,0,0,24.79,0c1.65-.08,2.52.44,2.37,2.17-.12,1.46.66,3.71-1.79,3.68-6-.08-7.67,4.47-9.47,8.72-10,23.6-19.94,47.23-29,71.2-.8,2.12-1.13,4.62-4.51,4-3.1-.56-6.5,1.31-8.45-3.59-9-22.74-18.53-45.3-27.88-67.92-1-2.41-2.21-4.73-3.22-7.13-1.43-3.42-3.75-5.5-7.63-5.22-2.42.17-3.33-.72-3.3-3.23s1.34-2.77,3.33-2.68c11.61.54,23.22.32,34.82,0,2.18-.06,3.19.36,3.14,2.79,0,2.12-.48,3.39-2.9,3.13a8.48,8.48,0,0,0-1.74.07c-5.41.41-6.29,1.46-4.35,6.46C978.29,121.82,985.43,139.71,993,158.89Z"/><path class="cls-1" d="M1512.81,180.71c-5.51,0-11,0-16.53,0-1.56,0-3.33.5-3.31-2.11,0-1.95-.22-3.48,2.71-3.72,7.53-.61,7.59-.79,7.81-8.18q.88-30.9,0-61.82c-.22-6.9-.37-7.13-7.1-7.45-2.65-.13-3.45-1-3.46-3.61,0-2.92,1.77-2.41,3.45-2.35q16.77.6,33.51,0c1.92-.07,3.35-.07,3.33,2.6,0,2.45-.79,3.21-3.24,3.35-7.11.42-7.24.54-7.4,7.55q-.75,31.35,0,62.7c.16,6.5.44,6.76,7,7.22,2.28.16,3.79.39,3.68,3.37-.11,3.17-2,2.45-3.87,2.44-5.51,0-11,0-16.52,0Z"/><path class="cls-2" d="M860.05,180.75c-5.65,0-11.29,0-16.94,0-1.68,0-3.23.09-3.18-2.38,0-1.94.17-3.48,2.7-3.42,1.29,0,2.59-.24,3.89-.32,2.66-.15,3.69-1.54,3.93-4.18A145.54,145.54,0,0,0,851,155.7c-.23-17.27.51-34.54-.41-51.79-.33-6.09-.6-6.16-6.68-6.56-1.78-.12-3.95.49-4-2.57,0-2.23.32-3.48,3.07-3.36,11.45.53,22.91.5,34.37,0,2.06-.08,2.87.44,2.77,2.6-.08,1.92-.08,3.52-2.7,3.3-6.41-.51-7.76.08-7.83,8.64-.17,20-.07,40.05-.07,60.07,0,.73.05,1.45.11,2.17.51,5.92.81,6.32,6.72,6.66,2.47.14,4.06.39,3.8,3.57s-2.27,2.14-4,2.13c-5.37,0-10.74,0-16.1,0Z"/><path class="cls-1" d="M225.45,237.17a7.16,7.16,0,0,1-3.46,3c-2.37,1.23-4.94,3.39-7.61,1.28s-1.9-5.37-1.07-8.1c1.93-6.3,5.39-11.85,9.2-17.17.76-1.07,1.62-2.06,2.34-3.14.54-.82,1.4-1.84.61-2.74a2.63,2.63,0,0,0-3.27-.2,18.53,18.53,0,0,0-5.87,5.72c-5,7.3-9.94,14.64-14.95,21.94-1.67,2.44-3.54,6.47-6.8,4.19-2.89-2,.25-5.2,1.68-7.49,3.16-5,6.61-9.88,9.86-14.86,1.11-1.69,2.34-3.55,1.16-5.62-.63-1.12-1.87-.49-2.73,0-2,1.12-5.34.17-5.61,4.15-.56,8.29-4.89,14.71-10.89,20.13a16.83,16.83,0,0,1-3.2,2.23c-8.52,4.68-15.68.84-16.06-8.83-.45-11.6,4.57-20.5,14.44-26.47,5.19-3.13,9.72-2.4,13.53,1.95,1.41,1.61,2.91,1.06,4.33,1a15.32,15.32,0,0,0,8-3.21c1.13-.83,2.59-1.71,3.56-.88,2.74,2.36,5.05.55,7.51-.27,3.56-1.19,7.12-1.46,10.58.24,4.38,2.15,5.23,5.5,2.55,9.6-3.41,5.22-7,10.36-10.18,15.69C220.6,233.35,221.29,235.25,225.45,237.17Zm-48.32-8.58c-.17,2.68-.12,4.27,1.58,5.17s3-.2,4.24-1.2a21.46,21.46,0,0,0,6.46-9.59c.91-2.6-2.93-8.26-5.64-8.25a1.91,1.91,0,0,0-1.24.92C179.9,220,177.72,224.51,177.13,228.59Z"/><path class="cls-1" d="M959.4,197.86c1.25-.33,2,.4,2.72,1.46,1.07,1.67-.6,2-1.36,2.57-11,8-22.14,15.91-33.1,24-2.27,1.68-3.34.14-4.78-.87-2.15-1.52-.53-2.74.4-3.93,5-6.38,10.09-12.73,15.12-19.11a3.92,3.92,0,0,1,2.76-1.83C947.21,199.46,953.24,198.65,959.4,197.86Z"/><path class="cls-1" d="M1621.83,199.87c0,1-.84,1.4-1.52,1.89-11.14,8.07-22.32,16.07-33.4,24.21-2.29,1.68-3.41,0-4.79-1.08-1.73-1.35-.51-2.55.39-3.67,5-6.36,10.12-12.68,15.1-19.08a4.88,4.88,0,0,1,3.55-2.08c5.75-.68,11.49-1.39,17.22-2.21C1620.19,197.59,1621,198.56,1621.83,199.87Z"/><path class="cls-1" d="M128.52,197.52a2.19,2.19,0,0,1-1.73-3c1-2.62,1.06-6.5,5-6.59,1.56,0,3.8.84,3.53,3.47C135,194.33,131.49,197.76,128.52,197.52Z"/><path class="cls-1" d="M387.48,216.45c-1.88-.12-2.67-1.4-2.53-3.21.26-3.48,2.83-5,5.74-5.64,1.53-.36,2.7.75,2.77,2.56C393.55,212.43,389.9,216.39,387.48,216.45Z"/><path class="cls-1" d="M198.84,201.8c.95-2.17,1.73-3.84,2.41-5.56.78-2,2.37-1.29,3.69-1.1,1.11.17,2.5.62,2.71,1.84.29,1.68-1.5,1.86-2.53,2.42C203.37,200.35,201.74,201.65,198.84,201.8Z"/><path class="cls-1" d="M541.56,374.79l.6.35-.51.19c0-.21,0-.41,0-.62Z"/></g></svg>