<svg id="Capa_1" data-name="Capa 1" xmlns="http://www.w3.org/2000/svg" viewBox="0 0 1000 417.78"><defs><style>.cls-1{fill:#201b19;}.cls-2{fill:#201a19;}.cls-3{fill:#0a0508;}.cls-4{fill:#090508;}.cls-5{fill:#0a0609;}.cls-6{fill:#0b0609;}.cls-7{fill:#080507;}.cls-8{fill:#0f090e;}.cls-9{fill:#130d11;}.cls-10{fill:#0f0a0f;}.cls-11{fill:#100a0f;}.cls-12{fill:#110c10;}.cls-13{fill:#141216;}.cls-14{fill:#211e26;}.cls-15{fill:#191824;}.cls-16{fill:#171114;}.cls-17{fill:#1b1b22;}.cls-18{fill:#c5281e;}.cls-19{fill:#080508;}.cls-20{fill:#060507;}.cls-21{fill:#060508;}.cls-22{fill:#060405;}.cls-23{fill:#090608;}</style></defs><title>UN</title><path class="cls-1" d="M293.73,169.47V238c0,5.85-.39,6.23-6.21,6.24H224.21a9.92,9.92,0,0,1-3.29-.3,3.38,3.38,0,0,1-2.57-2.91,24.73,24.73,0,0,1-.24-3.09q0-42.46,0-84.91a17.17,17.17,0,0,1,.19-2.68c.41-2.52,1.61-3.61,4.19-3.67,3.32-.08,6.64-.06,10-.05,10.72,0,21.45,0,32.17.06a5.94,5.94,0,0,0,5.83-3.31c8.07-13.71,14-28.41,20.23-43,.49-1.14.95-2.29,1.46-3.42.19-.44.44-.91,1.07-.71a1,1,0,0,1,.61,1c0,.55,0,1.11,0,1.66v70.58Z"/><path class="cls-1" d="M296.2,169.24V97.83c0-.62-.1-1.39.66-1.57,1-.24,1,.7,1.29,1.28,3.34,7.71,6.6,15.45,10,23.14a221.82,221.82,0,0,0,11.8,23.21,5.2,5.2,0,0,0,5.09,2.75c13.7,0,27.4,0,41.1,0a17.83,17.83,0,0,1,2.07.06,3.59,3.59,0,0,1,3.49,3.24,22.82,22.82,0,0,1,.26,3.3q0,42.24,0,84.49a20.45,20.45,0,0,1-.07,2.07c-.32,3.21-1.56,4.38-4.79,4.42-4.09,0-8.17,0-12.25,0l-53.35,0a10,10,0,0,1-2.88-.27,2.69,2.69,0,0,1-2.18-2.66c0-1.17-.12-2.35-.12-3.52V169.24Z"/><path class="cls-1" d="M295.26,245.93h53.35c4.25,0,4.82.4,5.86,4.48,1.49,5.88,3,11.74,4.18,17.71.58,3.05-.78,4.39-3.76,3.68-17.38-4.11-34.47-9.28-51.78-13.61l-7.22-1.81a6.82,6.82,0,0,0-3.47.12Q264,264,235.61,271.34c-4.13,1.08-5.66-.34-5-4.46.81-5,2.11-9.85,3-14.79.78-4.11,2.68-6.16,7.82-6.16h53.77Z"/><path class="cls-1" d="M573.46,222.56c0-6.69.06-12.75-.05-18.81,0-1.6.44-2,2-1.89,2.48.13,5,.07,7.47,0,1,0,1.48.09,1.48,1.3q-.08,17.41,0,34.85c0,1.09-.43,1.23-1.34,1.21-2.7-.05-5.4-.07-8.09,0a2.38,2.38,0,0,1-2.33-1.28q-5.77-8.59-11.67-17.1c-.36-.53-.56-1.26-1.47-1.57,0,6.08-.06,12.07.05,18,0,1.56-.38,2-1.93,1.91-2.55-.14-5.12-.07-7.67,0-1,0-1.32-.21-1.32-1.25q.06-17.43,0-34.85c0-1,.37-1.28,1.32-1.27,2.77.06,5.54.08,8.3,0,1.11,0,1.56.56,2.09,1.34C564.52,209.49,568.81,215.75,573.46,222.56Z"/><path class="cls-1" d="M452.76,173.48c0-6,.07-12,0-17.95,0-1.69.51-2.11,2.1-2,2.49.13,5,.07,7.47,0,1.07,0,1.45.3,1.44,1.41q0,17.24,0,34.46c0,1.08-.32,1.46-1.41,1.43-2.7-.06-5.4-.08-8.1,0a2.44,2.44,0,0,1-2.33-1.31c-3.83-5.66-7.7-11.3-11.55-16.94l-1.48-2.15v15.85c0,4.52,0,4.52-4.51,4.52-1.73,0-3.46-.05-5.19,0-.9,0-1.19-.28-1.18-1.18q0-17.44,0-34.88c0-.86.21-1.32,1.15-1.21a7.66,7.66,0,0,0,.83,0c2.9,0,6.28-.83,8.57.37s3.5,4.45,5.14,6.83Q448,167,452.3,173.39A2.43,2.43,0,0,0,452.76,173.48Z"/><path class="cls-1" d="M384.49,166.06c0-3.59.08-7.19,0-10.78-.05-1.51.46-1.84,1.86-1.78,2.62.11,5.26.11,7.88,0,1.44-.06,1.87.37,1.86,1.84-.07,7.05-.09,14.1,0,21.15.07,4.47,3.2,6.91,7.61,6.19a5.58,5.58,0,0,0,5-5.91c.08-7.05.1-14.1,0-21.15,0-1.76.51-2.22,2.19-2.13,2.62.14,5.26.08,7.88,0,1.1,0,1.57.16,1.56,1.43-.07,7.33.14,14.66-.09,22-.21,6.75-4.06,13.69-14.33,14.48a37,37,0,0,1-9.91-.53c-6.88-1.34-11.16-6.63-11.39-14-.12-3.59,0-7.18,0-10.78Z"/><path class="cls-1" d="M432.85,220.56c0-5.6,0-11.2,0-16.81,0-1.37.25-1.91,1.79-1.9,9.2.08,18.4.06,27.59,0,1.22,0,1.75.2,1.65,1.56-.16,2.06.65,4.76-.38,6s-3.88.36-5.92.4c-3.87.06-7.75.05-11.62,0-1.14,0-1.53.3-1.56,1.5-.09,4.51-.14,4.51,4.34,4.51,4,0,8,0,12,0,1.18,0,1.81.17,1.7,1.56-.15,1.92.6,4.41-.35,5.62s-3.61.36-5.51.4c-3.6.08-7.19.06-10.79,0-1.07,0-1.38.28-1.42,1.39-.18,6-.22,6,5.75,6,4.15,0,8.3.07,12.45,0,1.5,0,1.88.43,1.78,1.85a42.79,42.79,0,0,0,0,5.19c0,1-.17,1.44-1.33,1.43q-14.43-.08-28.84,0c-1.43,0-1.33-.74-1.33-1.69C432.86,231.9,432.85,226.23,432.85,220.56Z"/><path class="cls-2" d="M747,220.45c0-5.53,0-11.07,0-16.6,0-1.45.2-2,1.87-2q13.59.14,27.19,0c1.43,0,2,.31,1.84,1.8-.17,2,.62,4.6-.38,5.81s-3.75.35-5.73.38c-3.8.06-7.61.05-11.42,0-1.23,0-1.84.14-1.83,1.66,0,4.37-.07,4.36,4.29,4.36,4,0,8,.07,12,0,1.41,0,1.82.42,1.69,1.75-.2,1.91.81,4.45-.42,5.55-1,.94-3.54.3-5.4.31-3.6,0-7.2,0-10.79,0-1.09,0-1.47.29-1.38,1.38.15,1.92-.77,4.37.34,5.64s3.53.34,5.38.36c4.22.06,8.44,0,12.66,0,1.14,0,1.62.26,1.56,1.49-.09,1.86-.09,3.74,0,5.6.06,1.16-.42,1.36-1.45,1.35-9.55,0-19.1,0-28.65,0-1.29,0-1.41-.5-1.4-1.58C747,231.94,747,226.2,747,220.45Z"/><path class="cls-1" d="M532.21,172c0-5.6,0-11.2,0-16.8,0-1.34.33-1.75,1.71-1.74q13.79.09,27.58,0c1.21,0,1.74.2,1.64,1.56-.14,2.06.68,4.75-.35,6s-3.87.37-5.92.41c-3.87.07-7.74.06-11.61,0-1.17,0-1.51.33-1.53,1.51-.08,4.39-.12,4.39,4.2,4.39,4.08,0,8.16.05,12.24,0,1.25,0,1.75.28,1.62,1.6-.17,1.91.77,4.38-.35,5.61s-3.65.36-5.55.4c-3.53.07-7.06.06-10.58,0-1.14,0-1.65.26-1.57,1.49a28.71,28.71,0,0,1,0,4.35c-.12,1.38.48,1.57,1.67,1.56,5.53-.06,11.07,0,16.6-.06,1.36,0,1.78.36,1.69,1.71-.11,1.86-.06,3.73,0,5.6,0,.9-.28,1.19-1.18,1.19q-14.52,0-29,0c-1.3,0-1.23-.69-1.23-1.57C532.22,183.52,532.21,177.78,532.21,172Z"/><path class="cls-1" d="M635.52,164.37c-.83,0-1.67,0-2.49.12-1.75.22-2.93.09-3.65-2.07-.86-2.55-5.26-3.45-7.56-1.93a2.5,2.5,0,0,0-1.27,2.44,2.42,2.42,0,0,0,1.9,2c2.59.7,5.2,1.32,7.79,2a47.84,47.84,0,0,1,4.69,1.58c4.43,1.76,7.26,4.88,7.35,9.78a11.33,11.33,0,0,1-6.68,11c-6,2.9-12.17,2.53-18.39.94a10.9,10.9,0,0,1-6.9-5.55,16,16,0,0,1-1.72-5.06c-.17-.91,0-1.25.93-1.31,3-.18,5.93-.37,8.9-.61,1-.09,1,.44,1.22,1.18,1,3.9,3.53,5.54,7.57,5,1.94-.25,3.48-1.21,3.81-3.22s-.93-3.3-2.71-3.89c-3.06-1-6.19-1.84-9.28-2.8a24.34,24.34,0,0,1-3-1.26c-4-1.89-6.32-4.86-6.08-9.44s2.84-7.64,7-9.13a25.61,25.61,0,0,1,16.89-.13c4.23,1.36,6.36,4.58,7.17,8.84.16.85,0,1.1-.87,1.12-1.52,0-3,.14-4.55.22Z"/><path class="cls-1" d="M488.18,153.53c3.67,0,7.19,0,10.71,0,1.14,0,1.31.65,1.58,1.5q3.64,11.73,7.37,23.44c.14.45.33.88.63,1.67,2.35-7.61,4.6-14.87,6.84-22.13,1.37-4.45,1.35-4.46,6-4.46,1.86,0,3.73,0,5.6,0,1.05,0,1.5.07,1,1.37q-6.49,17.28-12.86,34.63a1.6,1.6,0,0,1-1.77,1.29c-3.31-.05-6.63,0-9.95,0a1.51,1.51,0,0,1-1.71-1.09q-6.66-17.78-13.38-35.54A2.6,2.6,0,0,1,488.18,153.53Z"/><path class="cls-1" d="M716,201.89c5.25,0,10.51,0,15.76,0,1.25,0,1.7.27,1.63,1.59-.11,2.14-.08,4.29,0,6.43,0,1-.33,1.28-1.3,1.26-2.83-.06-5.67.09-8.5-.06-1.72-.09-2,.54-2,2.1.07,8,0,16,.07,24.06,0,1.65-.44,2.1-2.05,2-2.62-.14-5.26-.12-7.88,0-1.42.07-1.68-.43-1.67-1.73.06-8.16,0-16.32.07-24.47,0-1.54-.34-2.05-1.94-2-2.82.14-5.66,0-8.5.06-1.06,0-1.48-.28-1.44-1.39.07-2.14.09-4.29,0-6.43-.06-1.26.5-1.46,1.59-1.45C705.17,201.92,710.56,201.89,716,201.89Z"/><path class="cls-1" d="M478.4,220.51c0-5.67,0-11.34,0-17,0-1.23.25-1.69,1.58-1.64,2.83.11,5.67.11,8.5,0,1.37-.06,1.57.46,1.56,1.66,0,8.22,0,16.45-.07,24.67,0,1.57.39,1.95,1.93,1.91,4.84-.11,9.68,0,14.52-.07,1.32,0,1.64.38,1.58,1.62-.11,2.07-.09,4.15,0,6.22,0,1.11-.32,1.38-1.39,1.38q-13.38-.06-26.75,0c-1.23,0-1.46-.41-1.45-1.53C478.43,232,478.4,226.24,478.4,220.51Z"/><path class="cls-1" d="M483.35,172.26c0,5.6,0,11.21,0,16.81,0,1.25-.18,1.83-1.65,1.76-2.83-.13-5.67-.06-8.5,0-1,0-1.5-.09-1.5-1.31q.07-17.33,0-34.65c0-1.19.49-1.34,1.48-1.33,2.9,0,5.81.08,8.71,0,1.24,0,1.47.41,1.46,1.53C483.33,160.78,483.35,166.52,483.35,172.26Z"/><path class="cls-1" d="M660.16,172.16c0,5.67,0,11.33,0,17,0,1.23-.28,1.71-1.59,1.66-2.83-.09-5.67-.07-8.5,0-1.12,0-1.55-.2-1.54-1.44q.08-17.2,0-34.41c0-1.23.4-1.49,1.53-1.46,2.83.07,5.67.09,8.5,0,1.3,0,1.61.41,1.6,1.65C660.13,160.83,660.16,166.5,660.16,172.16Z"/><path class="cls-3" d="M503.05,313.48c2.34-5.26,5.45-10.11,8.09-15.22.83-1.61,2-1.31,3.28-1.31.87,0,.55.66.47,1-1.18,5.73-2.41,11.45-3.6,17.17-.38,1.81-1.7.36-2.73,1.35,1.23-5.63,2-10.7,3.49-15.69l-4.59,8.28c-1.1,2-2.3,3.92-3.26,6-.53,1.12-1.32,1-2.2,1-1.25.05-1-1-1.1-1.61-.68-4.42-1.25-8.86-1.95-13.9-1.09,5.1-2.12,9.63-3,14.19-.23,1.22-.76,1.38-1.78,1.33-.71,0-1-.2-.82-1,1.24-5.78,2.42-11.58,3.68-17.36.31-1.46,1.58-.62,2.41-.79,1.14-.23,1.18.71,1.27,1.42.61,4.64,1.18,9.29,1.77,13.94C502.55,312.69,502.41,313.16,503.05,313.48Z"/><path class="cls-4" d="M392.91,297.13c1.94-.76,2.54.23,2.83,1.91.8,4.53,1.69,9,2.61,13.94l6.79-12.34c.36-.66.69-1.34,1.05-2,1-1.77,1-1.76,3.45-1.57-1.77,3.27-3.5,6.44-5.23,9.62-1.52,2.78-3.1,5.53-4.53,8.35-.64,1.25-1.64,1-2.64,1s-.9-1-1-1.5C395.07,308.74,394,302.92,392.91,297.13Z"/><path class="cls-5" d="M580,302.11c-1,4.11-2,8.1-2.79,12.14-.31,1.6-.92,2.16-2.45,1.65-.25-.63.21-1.18.2-1.91-1.22.72-2.13,1.73-3.44,2.19a3.84,3.84,0,0,1-4-.66,3.38,3.38,0,0,1-1-3.59c.65-2.67,1.38-5.33,1.88-8,.31-1.7,1-2.47,2.84-1.79-.73,3-1.46,6.1-2.18,9.16-.53,2.23.34,3.17,2.58,2.63a5.56,5.56,0,0,0,4.26-4.31c.49-1.93,1-3.86,1.34-5.82C577.54,302.12,578.29,301.53,580,302.11Z"/><path class="cls-5" d="M520.83,315.82c.92-4.15,1.85-8.25,2.71-12.36.19-.86.19-1.6,1.41-1.56,1.61,0,.35,1.31,1,1.87a9.58,9.58,0,0,1,3.39-2.08c3-.85,5.36,1.15,4.83,4.19s-1.31,6.06-1.89,9.1c-.23,1.21-1,1.13-1.85,1-1.27-.13-.55-1.07-.45-1.54.53-2.56,1.18-5.09,1.77-7.63.53-2.25-.55-3.32-2.8-2.78a5.45,5.45,0,0,0-4,4.08,57.33,57.33,0,0,0-1.3,5.84C523.35,315.55,522.87,316.64,520.83,315.82Z"/><path class="cls-6" d="M642.91,315.84c.92-4.15,1.87-8.3,2.72-12.47.19-.95.35-1.53,1.49-1.47,1.56.09.17,1.28,1,1.72.93-.4,1.75-1.44,3-1.83,3.21-1,5.67.91,5.09,4.18-.54,3-1.3,6.06-1.9,9.1-.25,1.23-1.12,1-1.9.95-1.15-.13-.46-1-.38-1.42.56-2.63,1.23-5.22,1.83-7.84.48-2.08-.44-3.08-2.53-2.72a5.1,5.1,0,0,0-4,3.26,28.38,28.38,0,0,0-1.65,6.8C645.42,315.81,644.71,316.53,642.91,315.84Z"/><path class="cls-7" d="M609.49,310.4c.08-4.51,2.14-7.72,5.58-8.69,3-.85,5.82.61,6.36,3.26.13.59.23,1.14-.61,1.15-.55,0-1.08.87-1.69-.21-1.48-2.63-4.61-2.55-6.18.11a9.42,9.42,0,0,0-1.26,4.32c-.07,1.5.36,2.82,1.78,3.43a3.31,3.31,0,0,0,3.75-1,4.59,4.59,0,0,0,.88-1.13c.65-1.22,1.5-.34,2.12-.12s.1.88-.08,1.26a6.32,6.32,0,0,1-7,3.55C610.7,315.68,609.44,313.65,609.49,310.4Z"/><path class="cls-7" d="M581.26,310.39c.08-4.53,2.14-7.73,5.59-8.69,2.92-.82,5.58.49,6.28,3.09.16.6.47,1.26-.57,1.33-.6,0-1.17.93-1.74-.41-.93-2.2-3.75-2.38-5.46-.48a7.61,7.61,0,0,0-1.8,6.36c.29,2,2.17,2.86,4.08,2.09a4.38,4.38,0,0,0,2.24-2c.66-1.22,1.51-.33,2.12-.11s.08.88-.1,1.26a6.33,6.33,0,0,1-6.79,3.6C582.57,315.83,581.2,313.69,581.26,310.39Z"/><path class="cls-8" d="M440.92,297.12c-1.22,5.89-2.47,11.79-3.62,17.71-.25,1.29-1,1.35-1.92,1.19-1.21-.21-.46-1-.34-1.56,1-5.19,2.14-10.37,3.12-15.58C438.48,297.21,439.11,296.43,440.92,297.12Z"/><path class="cls-9" d="M520.14,302.12c-.9,4.27-1.88,8.55-2.66,12.85-.24,1.31-1,1.09-1.78,1.06-1.42,0-.53-1-.44-1.45.68-3.57,1.51-7.12,2.1-10.7C517.65,302.1,518.35,301.46,520.14,302.12Z"/><path class="cls-10" d="M409.52,316c-.95.1-1.37,0-1.12-1.08.89-3.94,1.73-7.9,2.45-11.87.24-1.36,1.07-1.25,1.92-1.13,1.2.18.44,1.13.35,1.56-.71,3.76-1.58,7.5-2.33,11.25C410.62,315.61,410.47,316.27,409.52,316Z"/><path class="cls-11" d="M428.85,316.51c1-4.67,1.87-8.62,2.57-12.61.3-1.71.9-2.49,2.75-1.77-.89,4.29-1.81,8.63-2.68,13C431.16,316.77,430,315.64,428.85,316.51Z"/><path class="cls-12" d="M622.05,316c.85-4.2,1.75-8.22,2.47-12.27.3-1.69,1-2.21,2.74-1.64-.9,4.32-1.82,8.65-2.7,13C624.19,316.89,623,315.72,622.05,316Z"/><path class="cls-13" d="M639.52,297.21c-1.93,1.15-2.43,3.84-5.35,3.41C635.53,298.83,635.91,296,639.52,297.21Z"/><path class="cls-14" d="M518.42,299.29c.33-1-.22-2.65,1.86-2.39.71.09.89.22.81,1C520.88,299.67,519.81,299.67,518.42,299.29Z"/><path class="cls-15" d="M625.6,299.28c0-1.85.56-3,2.67-2.15C628.2,298.92,627.6,300,625.6,299.28Z"/><path class="cls-16" d="M414.4,297.13c0,1.86-.69,2.85-2.64,2.15C411.72,297.43,412.29,296.29,414.4,297.13Z"/><path class="cls-17" d="M432.48,299.32c.26-1.21-.1-2.67,1.83-2.42.7.09.88.22.82,1C435,299.74,433.84,299.59,432.48,299.32Z"/><path class="cls-18" d="M245.44,185.49q0,10.69,0,21.38A28.55,28.55,0,0,0,247,217.44a9.69,9.69,0,0,0,9.61,6.4,9.81,9.81,0,0,0,9.58-6.54,25.38,25.38,0,0,0,1.6-8.7c0-15.64.06-31.28,0-46.91,0-2,.43-2.77,2.61-2.69,4.63.18,9.27.13,13.9,0,1.68,0,2.18.64,2.18,2.17,0,15.5,0,31,0,46.5,0,6.1-.91,12-4.23,17.41-4.59,7.43-11.46,11-19.87,12a41,41,0,0,1-16-.84c-9.81-2.66-16-8.84-18.46-18.81a42.25,42.25,0,0,1-1-9.86c-.12-15.36,0-30.72-.1-46.08,0-2,.53-2.61,2.54-2.54q6.94.21,13.9,0c1.93-.06,2.29.66,2.28,2.39C245.4,169.44,245.44,177.46,245.44,185.49Z"/><path class="cls-18" d="M348.65,214.52a12.24,12.24,0,0,0,.51-4.21q0-24.18,0-48.36c0-2.88,0-2.88,3-2.89,3.67,0,7.34.05,11,0,1.43,0,1.92.42,1.91,1.88q0,36.74,0,73.48c0,1.38-.33,1.95-1.84,1.94-7.33-.07-14.66-.06-22,0a1.89,1.89,0,0,1-2.16-1.58c-2.17-6.74-4.45-13.43-6.48-20.22-1.5-5-3.27-9.9-4.87-14.86-2-6.26-4-12.52-6.1-19-.83,1-.55,1.86-.55,2.66q0,25,0,50c0,3,0,3-3,3-3.46,0-6.93-.1-10.38,0-1.91.08-2.44-.51-2.44-2.42.07-20.75,0-41.51,0-62.26,0-3.53.06-7.06,0-10.59,0-1.48.33-2.06,1.95-2,7.12.08,14.25.07,21.37,0a2.3,2.3,0,0,1,2.72,2c1.93,6.38,4.14,12.67,6.19,19,2.57,8,5,15.94,7.65,23.88C346.19,207.42,346.93,211.06,348.65,214.52Z"/><path class="cls-1" d="M684,229.19c-1.48-2.78-3.25-5.31-6.63-6.36.56-.22.94-.39,1.33-.52,5.49-1.85,8-5.89,7.31-11.86-.53-4.67-4-7.7-9.43-8.22-7.6-.72-15.21-.15-22.82-.36-1.15,0-1.36.43-1.35,1.46q0,17.22,0,34.45c0,1.23.4,1.5,1.53,1.47,2.84-.07,5.68-.09,8.51,0,1.24,0,1.65-.24,1.62-1.57-.1-4,0-8-.07-12,0-1.4.5-1.6,1.7-1.47a4.47,4.47,0,0,1,3.59,2.48c2.07,3.74,4.1,7.5,6.16,11.24.31.56.38,1.35,1.34,1.34,4,0,8.07,0,12.41,0C687.32,235.65,685.68,232.41,684,229.19Zm-12.06-12.68a26.39,26.39,0,0,1-7,.56c-.72,0-1-.33-1-1,0-1,0-1.93,0-2.9,0-3.75,0-3.77,3.78-3.72a32.71,32.71,0,0,1,3.7.27,3,3,0,0,1,3,3.1A3.26,3.26,0,0,1,671.92,216.51Z"/><path class="cls-1" d="M604.58,186.63c-2.6-4.52-3.92-10-9.62-12.36l.9-.24c5.2-1.51,8.11-5.49,7.86-10.75s-3.18-8.63-8.76-9.32c-8-1-16-.26-24-.43-1,0-.87.65-.87,1.26,0,11.55,0,23.1,0,34.65,0,1.11.35,1.4,1.41,1.38,2.84-.07,5.68-.1,8.51,0,1.4,0,1.76-.41,1.73-1.76-.09-3.94.05-7.89-.08-11.83-.05-1.59.66-1.72,1.84-1.51a4.64,4.64,0,0,1,3.37,2.49c2,3.75,4.11,7.49,6.15,11.25.41.75.74,1.37,1.81,1.35,3.86-.07,7.73,0,11.94,0C605.89,189.18,605.3,187.87,604.58,186.63Zm-14.64-18.7c-2.45.93-5,.68-7.57.7-.7,0-.73-.44-.73-.95,0-.9,0-1.8,0-2.7,0-3.9,0-3.9,4.05-3.89a16.48,16.48,0,0,1,4.08.35,3.14,3.14,0,0,1,2.32,3.07A3.21,3.21,0,0,1,589.94,167.93Z"/><path class="cls-1" d="M418.41,214.87c-1.67-7.89-5.81-11.89-13.85-12.75-6.33-.68-12.71-.13-19.07-.23-1.32,0-.91,1-.92,1.62,0,5.67,0,11.34,0,17s0,11.48,0,17.21c0,1.14.27,1.54,1.47,1.52,5.6-.06,11.2.07,16.8-.06,8.37-.18,14-4.68,15.6-12.38A28.94,28.94,0,0,0,418.41,214.87ZM407,225c-.71,3.85-2.11,5.24-5.93,5.67-5,.57-5,.57-5-4.26v-5.8c0-2.91.06-5.81,0-8.71,0-1.21.37-1.63,1.52-1.44a7.63,7.63,0,0,0,.83,0c6.45.12,8.61,2.25,8.85,8.75A26,26,0,0,1,407,225Z"/><path class="cls-1" d="M781.27,166.49c-1.81-8.5-6.62-12.6-15.27-12.86-5.67-.18-11.35,0-17-.13-1.34,0-1.58.41-1.57,1.64.07,5.67,0,11.35,0,17s0,11.35,0,17c0,.77-.3,1.65,1.11,1.63,6.23-.11,12.47.09,18.68-.24,7-.37,12.17-4.62,13.75-10.93A28.82,28.82,0,0,0,781.27,166.49Zm-11.33,9.83c-.63,4.09-2.43,5.77-6.56,6-4.35.23-4.35.23-4.35-4.15v-6c0-3,0-5.95,0-8.92,0-1,.27-1.36,1.28-1.27s1.93,0,2.9.06c4,.29,6.07,2.23,6.7,6.25A25.81,25.81,0,0,1,769.94,176.32Z"/><path class="cls-2" d="M702.44,166.79c-1.64-8.53-6.66-12.91-15.25-13.15-5.67-.17-11.35,0-17-.14-1.44,0-1.67.48-1.65,1.75.06,5.61,0,11.21,0,16.81,0,5.75,0,11.49,0,17.23,0,.88-.08,1.56,1.22,1.53,6.09-.11,12.18.07,18.26-.21,7.12-.33,12.35-4.47,14-10.86A29.09,29.09,0,0,0,702.44,166.79Zm-11.13,5.6c0,.56,0,1.11,0,1.66-.52,8.1-3.7,8.41-10.35,8.3-.83,0-.83-.48-.83-1.07,0-6.08,0-12.16,0-18.24,0-.8.23-1.11,1-1.07,1.17.07,2.36,0,3.52.09,3.82.43,5.76,2.37,6.29,6.21.19,1.37.3,2.74.45,4.11Z"/><path class="cls-1" d="M636.72,213.48A15.44,15.44,0,0,0,625.2,202.2a26,26,0,0,0-13.11-.19,16,16,0,0,0-12.22,11.68,23.2,23.2,0,0,0-.87,6.12c-.1,5.61,1,10.84,5.11,15a17.39,17.39,0,0,0,12.18,4.95c10.65.4,17.45-3.58,20-10.83A25.26,25.26,0,0,0,636.72,213.48Zm-11,11.45c-.71,3.94-3.15,6.11-7,6.31a7.06,7.06,0,0,1-7.57-5.65,18.89,18.89,0,0,1,0-10c1.08-3.86,3.64-5.63,7.65-5.47a7,7,0,0,1,6.89,6c.3,1.48.37,3,.53,4.32C626,222.05,626,223.51,625.7,224.93Z"/><path class="cls-1" d="M743.08,189.36q-6.55-17.3-13-34.6a1.61,1.61,0,0,0-1.81-1.24q-5,.07-10,0a1.59,1.59,0,0,0-1.8,1.26c-.63,1.89-1.39,3.74-2.09,5.61L703,190.79h6.75c4.92,0,5,0,6.39-4.67a1.68,1.68,0,0,1,2-1.44c2.14.07,4.29,0,6.43,0,5,0,5.08,0,6.56,4.76.3.95.62,1.37,1.66,1.35q4.66-.08,9.34,0C743.36,190.83,743.49,190.44,743.08,189.36Zm-24-12.9c1.32-4.32,2.6-8.5,4.06-13.25l4.08,13.25Z"/><path class="cls-19" d="M427.29,301.89c-1.77-.28-1,1.5-1.76,2q-4-4.38-8-.76a9.07,9.07,0,0,0-3.07,7.18c.06,2.24.78,4.22,3,5.28s3.85.28,5.81-1.37c-.37,2-.43,3.69-2.21,4.32-1.6.56-3.28,1-4.77-.55-.47-.48-1.36-.54-2.08-.8-.31,1.93.06,2.78,1.45,3.54A6.38,6.38,0,0,0,425,317c1.21-4.66,2-9.42,3-14.14C428.24,302.2,428,302,427.29,301.89Zm-7.4,11.65c-1.86,0-3-1.43-3-3.69,0-3.13,2.16-5.87,4.6-5.85a3.33,3.33,0,0,1,3.28,3.68C424.75,310.83,422.44,313.59,419.89,313.54Z"/><path class="cls-19" d="M470.08,297c-1-.24-1.8,0-2,1.27-.27,1.74-.72,3.45-1.11,5.22-4.32-3.12-8-2-10.07,3a11.75,11.75,0,0,0-.7,5.08c.16,4.2,4.31,6.54,7.55,3.74.24-.21.86-.76.87-.28,0,1.43.93,1.16,1.62,1,.92-.19.77-1.17.91-1.84q1.68-7.75,3.24-15.55C470.48,298.1,471.22,297.24,470.08,297Zm-6.37,16a3,3,0,0,1-3.4.73,3.39,3.39,0,0,1-1.9-3.58,7.63,7.63,0,0,1,2.18-5.16,3.29,3.29,0,0,1,3.4-.88,2.91,2.91,0,0,1,2.06,2.8A7,7,0,0,1,463.71,313Z"/><path class="cls-4" d="M565,296.94c-1.06-.21-1.64.18-1.85,1.28-.32,1.74-.73,3.46-1.17,5.5-3.28-3.15-6.47-2.79-8.92.7a11.31,11.31,0,0,0-1.82,6.86c0,4.4,4.4,6.81,7.56,4,.23-.2.87-.76.88-.22,0,1.33.87,1,1.53,1,1.06,0,.83-1,.95-1.55q1.73-7.87,3.26-15.78C565.53,298.17,566.42,297.21,565,296.94Zm-5.68,15.56c-1,1.13-2.26,1.92-3.82,1.28a3.23,3.23,0,0,1-2-3.51c.13-2.19.72-4.2,2.56-5.58a3,3,0,0,1,5,2.12A6.83,6.83,0,0,1,559.33,312.5Z"/><path class="cls-20" d="M482.44,302.6c-3.08-2.21-9-1.13-10,2.87a2,2,0,0,0,3-.46c1-1.21,2.6-1.16,4.05-1,.95.14,2,.47,2,1.72s-1,1.49-2,1.52a22.11,22.11,0,0,0-5.14.46,4.6,4.6,0,0,0-3.31,5.77,4.46,4.46,0,0,0,5.69,2.75,28.17,28.17,0,0,0,3.27-1.69c.08,2.05,1.41,1.42,2.54,1.36-.57-3.13.59-5.94,1.11-8.83C483.91,305.44,484.06,303.76,482.44,302.6ZM475.8,314c-1.26,0-2.4-.33-2.59-1.78s.9-1.84,2-2.17a3.7,3.7,0,0,1,.8-.18l4.7-.43C480,312.62,478.46,314,475.8,314Z"/><path class="cls-20" d="M605.88,311.9c.37-2,.86-4,1.19-6.08a3.27,3.27,0,0,0-2.07-3.68c-3.26-1.52-8.09-.43-9.25,3.38,1.11.45,2,.81,2.91-.43s2.71-1.26,4.23-1c1,.15,2,.52,1.91,1.78s-1.11,1.42-2.11,1.45a22,22,0,0,0-5.13.47,4.58,4.58,0,0,0-3.26,5.63,4.41,4.41,0,0,0,5.6,2.92,14.08,14.08,0,0,0,3.4-1.82c-.06,1.35.61,1.7,1.78,1.56,1.55-.19.4-1.12.5-1.69C605.73,313.55,605.73,312.71,605.88,311.9ZM598.76,314c-1.09-.12-2.06-.51-2.23-1.73s.59-1.91,1.74-2.09c1.88-.31,3.77-.54,5.83-.83A5,5,0,0,1,598.76,314Z"/><path class="cls-21" d="M452.5,302.55c-2.65-1.88-7.22-1.25-9.15,1.35-.35.47-1.25,1.11-.52,1.68a1.46,1.46,0,0,0,2.32-.18c1.1-1.52,2.84-1.58,4.52-1.34.94.14,2,.5,1.92,1.77s-1.12,1.43-2.1,1.45a22.17,22.17,0,0,0-5.14.48,4.62,4.62,0,0,0-3.3,5.62,4.46,4.46,0,0,0,5.6,2.93,12.82,12.82,0,0,0,3.4-1.82c0,1.37.68,1.73,1.83,1.56.45-.06.8-.09.69-.69-.49-2.89.71-5.55,1.16-8.32C454,305.37,454.13,303.72,452.5,302.55ZM445.71,314c-1.18-.07-2.24-.44-2.41-1.77s.91-2,2-2.18c1.8-.33,3.64-.43,5.51-.63C450.11,312.64,448.41,314.14,445.71,314Z"/><path class="cls-22" d="M544,301.51c-4-.14-7,2.84-7.65,7.67-.48,3.26.78,5.89,3.28,6.87a6.71,6.71,0,0,0,7.83-2.57c.29-.42,1.14-1.05.41-1.51-.54-.34-1.48-1-2.19,0a5,5,0,0,1-2.7,1.8,3.24,3.24,0,0,1-4.31-2.39c-.28-1.27-.26-2.34,1.62-2.05a23,23,0,0,0,3.32,0H548c.48,0,.87,0,1.08-.64A5.63,5.63,0,0,0,544,301.51Zm2.86,5c-.24.79-1.06.38-1.6.4-2,.05-4,0-6.22,0,1.61-2.73,4.6-3.72,6.71-2.42C546.5,305,547.13,305.57,546.86,306.49Z"/><path class="cls-23" d="M638.74,302.2a6.1,6.1,0,0,0-6.64.43c-3.11,2.19-4.11,5.47-3.67,9.08s3.86,5.55,7.36,4.47,5.69-4.25,5.74-8.84C641.4,305.52,641,303.38,638.74,302.2Zm.43,5.48c-.06,2.92-1.62,5.3-3.83,6.07a3.29,3.29,0,0,1-4.62-3.08c-.09-2.48.59-4.65,2.84-6a3.7,3.7,0,0,1,3.91-.23A3.19,3.19,0,0,1,639.17,307.68Z"/></svg>