<svg id="Capa_1" data-name="Capa 1" xmlns="http://www.w3.org/2000/svg" viewBox="0 0 1000 417.78"><defs><style>.cls-1{fill:#201b19;}.cls-2{fill:#201a19;}.cls-3{fill:#0a0508;}.cls-4{fill:#090508;}.cls-5{fill:#0a0609;}.cls-6{fill:#0b0609;}.cls-7{fill:#080507;}.cls-8{fill:#0f090e;}.cls-9{fill:#130d11;}.cls-10{fill:#0f0a0f;}.cls-11{fill:#100a0f;}.cls-12{fill:#110c10;}.cls-13{fill:#141216;}.cls-14{fill:#211e26;}.cls-15{fill:#191824;}.cls-16{fill:#171114;}.cls-17{fill:#1b1b22;}.cls-18{fill:#c5281e;}.cls-19{fill:#080508;}.cls-20{fill:#060507;}.cls-21{fill:#060508;}.cls-22{fill:#060405;}.cls-23{fill:#090608;}</style></defs><title>paquete</title><path class="cls-1" d="M293.73,167.09V235.6c0,5.85-.39,6.23-6.21,6.23H224.21a9.92,9.92,0,0,1-3.29-.3,3.38,3.38,0,0,1-2.57-2.91,24.58,24.58,0,0,1-.24-3.09q0-42.45,0-84.91a17.17,17.17,0,0,1,.19-2.68c.41-2.52,1.61-3.61,4.19-3.67,3.32-.08,6.64-.05,10-.05,10.72,0,21.45,0,32.17.07a6,6,0,0,0,5.83-3.32c8.07-13.71,14-28.41,20.23-43,.49-1.14.95-2.29,1.46-3.42.19-.44.44-.91,1.07-.71a1,1,0,0,1,.61,1c0,.55,0,1.11,0,1.66v70.58Z"/><path class="cls-1" d="M296.2,166.86V95.45c0-.62-.1-1.38.66-1.57,1-.24,1,.7,1.29,1.28,3.34,7.71,6.6,15.45,10,23.14a222,222,0,0,0,11.8,23.22,5.21,5.21,0,0,0,5.09,2.74c13.7,0,27.4,0,41.1,0a17.83,17.83,0,0,1,2.07.06,3.57,3.57,0,0,1,3.49,3.23,22.82,22.82,0,0,1,.26,3.3q0,42.24,0,84.49a20.45,20.45,0,0,1-.07,2.07c-.32,3.21-1.56,4.38-4.79,4.42-4.09,0-8.17,0-12.25,0l-53.35,0a9.68,9.68,0,0,1-2.88-.27,2.69,2.69,0,0,1-2.18-2.66c0-1.17-.12-2.35-.12-3.52V166.86Z"/><path class="cls-1" d="M295.26,243.55h53.35c4.25,0,4.82.4,5.86,4.48,1.49,5.88,3,11.74,4.18,17.71.58,3.06-.78,4.39-3.76,3.69-17.38-4.12-34.47-9.29-51.78-13.62l-7.22-1.8a6.82,6.82,0,0,0-3.47.11Q264,261.57,235.61,269c-4.13,1.08-5.66-.34-5-4.46.81-5,2.11-9.85,3-14.79.78-4.11,2.68-6.16,7.82-6.16h53.77Z"/><path class="cls-1" d="M573.46,220.18c0-6.69.06-12.75-.05-18.81,0-1.6.44-2,2-1.89,2.48.13,5,.07,7.47,0,1,0,1.48.09,1.48,1.3q-.08,17.43,0,34.85c0,1.09-.43,1.23-1.34,1.21-2.7,0-5.4-.07-8.09,0a2.39,2.39,0,0,1-2.33-1.27q-5.77-8.59-11.67-17.11c-.36-.53-.56-1.26-1.47-1.57,0,6.08-.06,12.07.05,18.05,0,1.56-.38,2-1.93,1.91-2.55-.14-5.12-.07-7.67,0-1,0-1.32-.2-1.32-1.25q.06-17.42,0-34.85c0-1,.37-1.28,1.32-1.26,2.77.05,5.54.07,8.3,0,1.11,0,1.56.57,2.09,1.34C564.52,207.11,568.81,213.37,573.46,220.18Z"/><path class="cls-1" d="M452.76,171.1c0-6,.07-12,0-17.95,0-1.69.51-2.11,2.1-2,2.49.13,5,.07,7.47,0,1.07,0,1.45.29,1.44,1.4q0,17.24,0,34.46c0,1.08-.32,1.46-1.41,1.44-2.7-.07-5.4-.09-8.1,0a2.45,2.45,0,0,1-2.33-1.3c-3.83-5.67-7.7-11.3-11.55-17l-1.48-2.15V183.9c0,4.52,0,4.52-4.51,4.52-1.73,0-3.46,0-5.19,0-.9,0-1.19-.29-1.18-1.19q0-17.44,0-34.88c0-.86.21-1.32,1.15-1.21a7.66,7.66,0,0,0,.83,0c2.9,0,6.28-.83,8.57.37s3.5,4.45,5.14,6.83Q448,164.67,452.3,171A2.43,2.43,0,0,0,452.76,171.1Z"/><path class="cls-1" d="M384.49,163.68c0-3.59.08-7.19,0-10.78-.05-1.51.46-1.84,1.86-1.78,2.62.11,5.26.12,7.88,0,1.44-.06,1.87.37,1.86,1.84-.07,7.05-.09,14.1,0,21.15.07,4.47,3.2,6.91,7.61,6.2a5.59,5.59,0,0,0,5-5.91c.08-7.06.1-14.11,0-21.16,0-1.76.51-2.22,2.19-2.13,2.62.14,5.26.09,7.88,0,1.1,0,1.57.15,1.56,1.42-.07,7.33.14,14.66-.09,22-.21,6.75-4.06,13.69-14.33,14.48a37,37,0,0,1-9.91-.53c-6.88-1.34-11.16-6.63-11.39-14-.12-3.59,0-7.19,0-10.79Z"/><path class="cls-1" d="M432.85,218.18c0-5.6,0-11.2,0-16.8,0-1.38.25-1.92,1.79-1.9q13.8.11,27.59,0c1.22,0,1.75.21,1.65,1.57-.16,2.05.65,4.75-.38,6s-3.88.37-5.92.4c-3.87.06-7.75.05-11.62,0-1.14,0-1.53.3-1.56,1.5-.09,4.52-.14,4.52,4.34,4.52,4,0,8,0,12,0,1.18,0,1.81.17,1.7,1.56-.15,1.92.6,4.41-.35,5.62s-3.61.36-5.51.4c-3.6.08-7.19.06-10.79,0-1.07,0-1.38.29-1.42,1.39-.18,6-.22,6,5.75,6,4.15,0,8.3.07,12.45,0,1.5,0,1.88.43,1.78,1.85a42.79,42.79,0,0,0,0,5.19c0,1-.17,1.44-1.33,1.43q-14.43-.08-28.84,0c-1.43,0-1.33-.74-1.33-1.68C432.86,229.52,432.85,223.85,432.85,218.18Z"/><path class="cls-2" d="M747,218.07c0-5.53,0-11.07,0-16.6,0-1.45.2-2,1.87-2,9.06.1,18.13.08,27.19,0,1.43,0,2,.31,1.84,1.8-.17,2,.62,4.6-.38,5.81s-3.75.35-5.73.38c-3.8.06-7.61.05-11.42,0-1.23,0-1.84.14-1.83,1.65,0,4.37-.07,4.37,4.29,4.36,4,0,8,.07,12,0,1.41,0,1.82.42,1.69,1.75-.2,1.91.81,4.46-.42,5.55-1,.94-3.54.3-5.4.31-3.6,0-7.2,0-10.79,0-1.09,0-1.47.29-1.38,1.39.15,1.92-.77,4.37.34,5.63s3.53.34,5.38.36q6.33.09,12.66,0c1.14,0,1.62.26,1.56,1.49-.09,1.86-.09,3.74,0,5.6.06,1.16-.42,1.36-1.45,1.35-9.55,0-19.1,0-28.65,0-1.29,0-1.41-.5-1.4-1.57C747,229.56,747,223.82,747,218.07Z"/><path class="cls-1" d="M532.21,169.66c0-5.6,0-11.2,0-16.8,0-1.34.33-1.74,1.71-1.73q13.79.09,27.58,0c1.21,0,1.74.21,1.64,1.56-.14,2.06.68,4.76-.35,6s-3.87.37-5.92.4c-3.87.07-7.74.06-11.61,0-1.17,0-1.51.33-1.53,1.51-.08,4.39-.12,4.39,4.2,4.39,4.08,0,8.16.05,12.24,0,1.25,0,1.75.28,1.62,1.6-.17,1.91.77,4.39-.35,5.62s-3.65.35-5.55.39c-3.53.07-7.06.06-10.58,0-1.14,0-1.65.26-1.57,1.49a28.71,28.71,0,0,1,0,4.35c-.12,1.38.48,1.57,1.67,1.56,5.53-.06,11.07,0,16.6-.06,1.36,0,1.78.36,1.69,1.71-.11,1.86-.06,3.73,0,5.6,0,.9-.28,1.19-1.18,1.19-9.68,0-19.36,0-29,0-1.3,0-1.23-.69-1.23-1.56C532.22,181.14,532.21,175.4,532.21,169.66Z"/><path class="cls-1" d="M635.52,162c-.83,0-1.67,0-2.49.12-1.75.23-2.93.1-3.65-2.07-.86-2.55-5.26-3.45-7.56-1.93a2.5,2.5,0,0,0-1.27,2.44,2.41,2.41,0,0,0,1.9,2c2.59.7,5.2,1.32,7.79,2a47.84,47.84,0,0,1,4.69,1.58c4.43,1.76,7.26,4.88,7.35,9.78a11.33,11.33,0,0,1-6.68,11c-6,2.9-12.17,2.54-18.39.94a10.87,10.87,0,0,1-6.9-5.55,16.07,16.07,0,0,1-1.72-5.05c-.17-.92,0-1.26.93-1.32,3-.18,5.93-.36,8.9-.61,1-.08,1,.44,1.22,1.19,1,3.89,3.53,5.53,7.57,5,1.94-.26,3.48-1.21,3.81-3.23s-.93-3.29-2.71-3.88c-3.06-1-6.19-1.85-9.28-2.81a24.34,24.34,0,0,1-3-1.26c-4-1.89-6.32-4.86-6.08-9.44s2.84-7.64,7-9.13a25.61,25.61,0,0,1,16.89-.13c4.23,1.36,6.36,4.59,7.17,8.84.16.85,0,1.1-.87,1.12-1.52,0-3,.14-4.55.22Z"/><path class="cls-1" d="M488.18,151.16c3.67,0,7.19,0,10.71,0,1.14,0,1.31.65,1.58,1.5q3.64,11.73,7.37,23.44c.14.45.33.88.63,1.67,2.35-7.61,4.6-14.87,6.84-22.13,1.37-4.45,1.35-4.45,6-4.45,1.86,0,3.73,0,5.6,0,1.05,0,1.5.07,1,1.37q-6.49,17.28-12.86,34.63a1.61,1.61,0,0,1-1.77,1.3c-3.31-.06-6.63-.05-9.95,0a1.51,1.51,0,0,1-1.71-1.08Q495,169.56,488.23,151.8A2.56,2.56,0,0,1,488.18,151.16Z"/><path class="cls-1" d="M716,199.51c5.25,0,10.51,0,15.76,0,1.25,0,1.7.27,1.63,1.59-.11,2.14-.08,4.29,0,6.43,0,1-.33,1.28-1.3,1.26-2.83,0-5.67.1-8.5-.06-1.72-.09-2,.54-2,2.1.07,8,0,16,.07,24.06,0,1.65-.44,2.11-2.05,2-2.62-.13-5.26-.12-7.88,0-1.42.07-1.68-.43-1.67-1.73.06-8.16,0-16.32.07-24.47,0-1.53-.34-2.05-1.94-2-2.82.13-5.66,0-8.5.06-1.06,0-1.48-.28-1.44-1.4.07-2.14.09-4.29,0-6.43-.06-1.26.5-1.46,1.59-1.45C705.17,199.54,710.56,199.51,716,199.51Z"/><path class="cls-1" d="M478.4,218.13c0-5.67,0-11.34,0-17,0-1.24.25-1.7,1.58-1.65,2.83.11,5.67.12,8.5,0,1.37-.06,1.57.46,1.56,1.66,0,8.22,0,16.45-.07,24.67,0,1.57.39,1.95,1.93,1.91,4.84-.1,9.68,0,14.52-.07,1.32,0,1.64.38,1.58,1.63-.11,2.06-.09,4.14,0,6.21,0,1.11-.32,1.38-1.39,1.38q-13.38-.06-26.75,0c-1.23,0-1.46-.41-1.45-1.53C478.43,229.6,478.4,223.87,478.4,218.13Z"/><path class="cls-1" d="M483.35,169.88c0,5.6,0,11.21,0,16.81,0,1.25-.18,1.83-1.65,1.76-2.83-.12-5.67-.06-8.5,0-1,0-1.5-.09-1.5-1.31q.07-17.33,0-34.65c0-1.19.49-1.34,1.48-1.33,2.9.05,5.81.08,8.71,0,1.24,0,1.47.41,1.46,1.53C483.33,158.4,483.35,164.14,483.35,169.88Z"/><path class="cls-1" d="M660.16,169.78c0,5.67,0,11.34,0,17,0,1.23-.28,1.71-1.59,1.67-2.83-.1-5.67-.08-8.5,0-1.12,0-1.55-.2-1.54-1.44q.08-17.2,0-34.41c0-1.23.4-1.49,1.53-1.46,2.83.08,5.67.09,8.5,0,1.3,0,1.61.41,1.6,1.65C660.13,158.45,660.16,164.12,660.16,169.78Z"/><path class="cls-3" d="M503.05,311.11c2.34-5.27,5.45-10.12,8.09-15.23.83-1.61,2-1.31,3.28-1.31.87,0,.55.66.47,1-1.18,5.73-2.41,11.45-3.6,17.17-.38,1.81-1.7.36-2.73,1.35,1.23-5.63,2-10.7,3.49-15.68l-4.59,8.27c-1.1,2-2.3,3.92-3.26,6-.53,1.12-1.32.95-2.2,1-1.25.05-1-1-1.1-1.61-.68-4.42-1.25-8.86-1.95-13.9-1.09,5.1-2.12,9.63-3,14.19-.23,1.22-.76,1.39-1.78,1.33-.71,0-1-.2-.82-.95,1.24-5.79,2.42-11.59,3.68-17.37.31-1.45,1.58-.61,2.41-.79,1.14-.23,1.18.71,1.27,1.42.61,4.65,1.18,9.29,1.77,13.94C502.55,310.31,502.41,310.78,503.05,311.11Z"/><path class="cls-4" d="M392.91,294.75c1.94-.76,2.54.23,2.83,1.91.8,4.53,1.69,9,2.61,13.94l6.79-12.33c.36-.67.69-1.35,1.05-2,1-1.76,1-1.76,3.45-1.56l-5.23,9.61c-1.52,2.78-3.1,5.53-4.53,8.35-.64,1.25-1.64,1-2.64,1s-.9-1-1-1.5C395.07,306.36,394,300.55,392.91,294.75Z"/><path class="cls-5" d="M580,299.73c-1,4.11-2,8.1-2.79,12.14-.31,1.6-.92,2.16-2.45,1.65-.25-.62.21-1.18.2-1.91-1.22.72-2.13,1.74-3.44,2.2a3.86,3.86,0,0,1-4-.67,3.38,3.38,0,0,1-1-3.59c.65-2.67,1.38-5.33,1.88-8,.31-1.7,1-2.47,2.84-1.79-.73,3-1.46,6.1-2.18,9.16-.53,2.23.34,3.17,2.58,2.63a5.54,5.54,0,0,0,4.26-4.31c.49-1.93,1-3.86,1.34-5.82C577.54,299.74,578.29,299.15,580,299.73Z"/><path class="cls-5" d="M520.83,313.44c.92-4.15,1.85-8.25,2.71-12.36.19-.86.19-1.59,1.41-1.56,1.61,0,.35,1.31,1,1.87a9.58,9.58,0,0,1,3.39-2.08c3-.85,5.36,1.15,4.83,4.19s-1.31,6.06-1.89,9.11c-.23,1.2-1,1.13-1.85,1-1.27-.13-.55-1.06-.45-1.54.53-2.55,1.18-5.09,1.77-7.63.53-2.24-.55-3.32-2.8-2.77a5.42,5.42,0,0,0-4,4.07,57.94,57.94,0,0,0-1.3,5.84C523.35,313.17,522.87,314.26,520.83,313.44Z"/><path class="cls-6" d="M642.91,313.46c.92-4.15,1.87-8.3,2.72-12.47.19-.95.35-1.53,1.49-1.47,1.56.09.17,1.28,1,1.72.93-.4,1.75-1.44,3-1.83,3.21-1,5.67.91,5.09,4.19-.54,3-1.3,6-1.9,9.09-.25,1.23-1.12,1-1.9.95-1.15-.13-.46-1-.38-1.42.56-2.62,1.23-5.22,1.83-7.84.48-2.08-.44-3.08-2.53-2.72a5.1,5.1,0,0,0-4,3.26,28.5,28.5,0,0,0-1.65,6.8C645.42,313.44,644.71,314.16,642.91,313.46Z"/><path class="cls-7" d="M609.49,308c.08-4.51,2.14-7.72,5.58-8.69,3-.84,5.82.61,6.36,3.26.13.59.23,1.14-.61,1.15-.55,0-1.08.87-1.69-.21-1.48-2.63-4.61-2.55-6.18.11a9.42,9.42,0,0,0-1.26,4.32c-.07,1.5.36,2.82,1.78,3.43a3.31,3.31,0,0,0,3.75-1,4.59,4.59,0,0,0,.88-1.13c.65-1.22,1.5-.34,2.12-.12s.1.88-.08,1.26a6.3,6.3,0,0,1-7,3.55C610.7,313.31,609.44,311.27,609.49,308Z"/><path class="cls-7" d="M581.26,308c.08-4.53,2.14-7.73,5.59-8.69,2.92-.82,5.58.5,6.28,3.09.16.6.47,1.26-.57,1.33-.6,0-1.17.93-1.74-.41-.93-2.2-3.75-2.38-5.46-.47a7.58,7.58,0,0,0-1.8,6.35c.29,2,2.17,2.86,4.08,2.09a4.34,4.34,0,0,0,2.24-2c.66-1.22,1.51-.33,2.12-.1s.08.87-.1,1.26a6.36,6.36,0,0,1-6.79,3.6C582.57,313.45,581.2,311.32,581.26,308Z"/><path class="cls-8" d="M440.92,294.74c-1.22,5.89-2.47,11.79-3.62,17.71-.25,1.29-1,1.35-1.92,1.19-1.21-.21-.46-1-.34-1.56,1-5.19,2.14-10.37,3.12-15.57C438.48,294.83,439.11,294.05,440.92,294.74Z"/><path class="cls-9" d="M520.14,299.74c-.9,4.28-1.88,8.55-2.66,12.86-.24,1.3-1,1.08-1.78,1-1.42,0-.53-1-.44-1.45.68-3.57,1.51-7.12,2.1-10.7C517.65,299.72,518.35,299.08,520.14,299.74Z"/><path class="cls-10" d="M409.52,313.64c-.95.1-1.37,0-1.12-1.07.89-3.95,1.73-7.9,2.45-11.88.24-1.36,1.07-1.25,1.92-1.12,1.2.17.44,1.12.35,1.55-.71,3.76-1.58,7.5-2.33,11.26C410.62,313.23,410.47,313.89,409.52,313.64Z"/><path class="cls-11" d="M428.85,314.13c1-4.67,1.87-8.62,2.57-12.6.3-1.72.9-2.5,2.75-1.78-.89,4.29-1.81,8.63-2.68,13C431.16,314.4,430,313.26,428.85,314.13Z"/><path class="cls-12" d="M622.05,313.63c.85-4.2,1.75-8.22,2.47-12.27.3-1.69,1-2.21,2.74-1.64-.9,4.32-1.82,8.66-2.7,13C624.19,314.51,623,313.34,622.05,313.63Z"/><path class="cls-13" d="M639.52,294.83c-1.93,1.15-2.43,3.84-5.35,3.41C635.53,296.45,635.91,293.66,639.52,294.83Z"/><path class="cls-14" d="M518.42,296.91c.33-1-.22-2.65,1.86-2.39.71.09.89.22.81,1C520.88,297.29,519.81,297.3,518.42,296.91Z"/><path class="cls-15" d="M625.6,296.9c0-1.85.56-3,2.67-2.15C628.2,296.54,627.6,297.65,625.6,296.9Z"/><path class="cls-16" d="M414.4,294.75c0,1.86-.69,2.85-2.64,2.15C411.72,295.05,412.29,293.91,414.4,294.75Z"/><path class="cls-17" d="M432.48,296.94c.26-1.21-.1-2.67,1.83-2.42.7.1.88.22.82,1C435,297.36,433.84,297.21,432.48,296.94Z"/><path class="cls-18" d="M245.44,183.11q0,10.69,0,21.38A28.55,28.55,0,0,0,247,215.06a9.71,9.71,0,0,0,9.61,6.41,9.82,9.82,0,0,0,9.58-6.55,25.33,25.33,0,0,0,1.6-8.7c0-15.64.06-31.27,0-46.91,0-2,.43-2.77,2.61-2.69,4.63.18,9.27.13,13.9,0,1.68,0,2.18.64,2.18,2.17,0,15.5,0,31,0,46.5,0,6.1-.91,12-4.23,17.41-4.59,7.43-11.46,11-19.87,12a40.85,40.85,0,0,1-16-.84c-9.81-2.66-16-8.84-18.46-18.81a42.25,42.25,0,0,1-1-9.86c-.12-15.36,0-30.72-.1-46.08,0-2,.53-2.6,2.54-2.54q6.94.21,13.9,0c1.93-.06,2.29.66,2.28,2.39C245.4,167.06,245.44,175.09,245.44,183.11Z"/><path class="cls-18" d="M348.65,212.14a12.24,12.24,0,0,0,.51-4.21q0-24.18,0-48.36c0-2.88,0-2.88,3-2.88,3.67,0,7.34,0,11,0,1.43,0,1.92.42,1.91,1.89q0,36.73,0,73.47c0,1.39-.33,1.95-1.84,1.94-7.33-.07-14.66-.05-22,0a1.89,1.89,0,0,1-2.16-1.58c-2.17-6.74-4.45-13.43-6.48-20.21-1.5-5-3.27-9.91-4.87-14.87-2-6.26-4-12.52-6.1-19a3.28,3.28,0,0,0-.55,2.66q0,25,0,50c0,3,0,3-3,3-3.46,0-6.93-.1-10.38,0-1.91.09-2.44-.51-2.44-2.42.07-20.75,0-41.51,0-62.26,0-3.53.06-7.06,0-10.59,0-1.48.33-2.06,1.95-2,7.12.08,14.25.07,21.37,0,1.53,0,2.23.35,2.72,2,1.93,6.38,4.14,12.68,6.19,19,2.57,8,5,15.94,7.65,23.88C346.19,205,346.93,208.68,348.65,212.14Z"/><path class="cls-1" d="M684,226.81c-1.48-2.78-3.25-5.31-6.63-6.36.56-.22.94-.39,1.33-.52,5.49-1.85,8-5.89,7.31-11.86-.53-4.67-4-7.7-9.43-8.22-7.6-.72-15.21-.15-22.82-.36-1.15,0-1.36.44-1.35,1.46q0,17.24,0,34.45c0,1.23.4,1.5,1.53,1.47,2.84-.07,5.68-.09,8.51,0,1.24,0,1.65-.24,1.62-1.57-.1-4,0-8-.07-12,0-1.41.5-1.61,1.7-1.48a4.49,4.49,0,0,1,3.59,2.48c2.07,3.74,4.1,7.5,6.16,11.24.31.56.38,1.35,1.34,1.34,4,0,8.07,0,12.41,0C687.32,233.27,685.68,230,684,226.81Zm-12.06-12.68a26.39,26.39,0,0,1-7,.56c-.72,0-1-.33-1-1,0-1,0-1.93,0-2.9,0-3.74,0-3.77,3.78-3.72a32.71,32.71,0,0,1,3.7.27,3.05,3.05,0,0,1,3,3.1A3.26,3.26,0,0,1,671.92,214.13Z"/><path class="cls-1" d="M604.58,184.25c-2.6-4.51-3.92-10-9.62-12.36l.9-.24c5.2-1.51,8.11-5.49,7.86-10.75s-3.18-8.63-8.76-9.32c-8-1-16-.26-24-.43-1,0-.87.65-.87,1.26,0,11.55,0,23.1,0,34.65,0,1.11.35,1.4,1.41,1.38,2.84-.07,5.68-.1,8.51,0,1.4.05,1.76-.41,1.73-1.76-.09-3.94.05-7.89-.08-11.83-.05-1.59.66-1.72,1.84-1.51a4.64,4.64,0,0,1,3.37,2.49c2,3.76,4.11,7.49,6.15,11.25.41.75.74,1.37,1.81,1.35,3.86-.07,7.73,0,11.94,0C605.89,186.81,605.3,185.49,604.58,184.25Zm-14.64-18.7c-2.45.93-5,.68-7.57.7-.7,0-.73-.44-.73-.95,0-.9,0-1.8,0-2.7,0-3.9,0-3.9,4.05-3.89a16.48,16.48,0,0,1,4.08.35,3.14,3.14,0,0,1,2.32,3.07A3.21,3.21,0,0,1,589.94,165.55Z"/><path class="cls-1" d="M418.41,212.49c-1.67-7.89-5.81-11.88-13.85-12.75-6.33-.67-12.71-.13-19.07-.23-1.32,0-.91,1-.92,1.62,0,5.67,0,11.34,0,17s0,11.48,0,17.21c0,1.14.27,1.54,1.47,1.52,5.6-.06,11.2.07,16.8-.06,8.37-.18,14-4.68,15.6-12.38A28.94,28.94,0,0,0,418.41,212.49ZM407,222.58c-.71,3.84-2.11,5.23-5.93,5.67-5,.56-5,.56-5-4.27v-5.8c0-2.9.06-5.81,0-8.71,0-1.21.37-1.62,1.52-1.44a7.63,7.63,0,0,0,.83,0c6.45.12,8.61,2.25,8.85,8.76A26.07,26.07,0,0,1,407,222.58Z"/><path class="cls-1" d="M781.27,164.12c-1.81-8.51-6.62-12.61-15.27-12.87-5.67-.17-11.35,0-17-.13-1.34,0-1.58.41-1.57,1.64.07,5.68,0,11.35,0,17s0,11.34,0,17c0,.77-.3,1.65,1.11,1.63,6.23-.11,12.47.09,18.68-.24,7-.37,12.17-4.62,13.75-10.92A28.82,28.82,0,0,0,781.27,164.12Zm-11.33,9.82c-.63,4.09-2.43,5.77-6.56,6-4.35.23-4.35.23-4.35-4.15v-6c0-3,0-5.95,0-8.92,0-1,.27-1.36,1.28-1.27s1.93,0,2.9.06c4,.29,6.07,2.24,6.7,6.25A25.81,25.81,0,0,1,769.94,173.94Z"/><path class="cls-2" d="M702.44,164.41c-1.64-8.53-6.66-12.9-15.25-13.15-5.67-.17-11.35,0-17-.14-1.44,0-1.67.48-1.65,1.76.06,5.6,0,11.2,0,16.81s0,11.48,0,17.22c0,.89-.08,1.56,1.22,1.54,6.09-.12,12.18.06,18.26-.22,7.12-.33,12.35-4.46,14-10.86A29.08,29.08,0,0,0,702.44,164.41ZM691.31,170c0,.55,0,1.1,0,1.65-.52,8.1-3.7,8.41-10.35,8.3-.83,0-.83-.48-.83-1.07,0-6.08,0-12.16,0-18.24,0-.8.23-1.11,1-1.06,1.17.06,2.36,0,3.52.08,3.82.43,5.76,2.37,6.29,6.21.19,1.37.3,2.75.45,4.12Z"/><path class="cls-1" d="M636.72,211.11a15.43,15.43,0,0,0-11.52-11.29,26,26,0,0,0-13.11-.19,16,16,0,0,0-12.22,11.68,23.2,23.2,0,0,0-.87,6.12c-.1,5.61,1,10.84,5.11,15a17.35,17.35,0,0,0,12.18,4.95c10.65.4,17.45-3.57,20-10.83A25.23,25.23,0,0,0,636.72,211.11Zm-11,11.44c-.71,3.95-3.15,6.11-7,6.31a7.06,7.06,0,0,1-7.57-5.65,18.89,18.89,0,0,1,0-10c1.08-3.86,3.64-5.62,7.65-5.46a7,7,0,0,1,6.89,6c.3,1.48.37,3,.53,4.32C626,219.68,626,221.13,625.7,222.55Z"/><path class="cls-1" d="M743.08,187q-6.55-17.29-13-34.6a1.61,1.61,0,0,0-1.81-1.24q-5,.08-10,0a1.59,1.59,0,0,0-1.8,1.26c-.63,1.89-1.39,3.74-2.09,5.61L703,188.42h6.75c4.92,0,5,0,6.39-4.68a1.68,1.68,0,0,1,2-1.44c2.14.07,4.29,0,6.43,0,5,0,5.08,0,6.56,4.76.3,1,.62,1.37,1.66,1.36q4.66-.09,9.34,0C743.36,188.46,743.49,188.06,743.08,187Zm-24-12.89c1.32-4.32,2.6-8.51,4.06-13.26l4.08,13.26Z"/><path class="cls-19" d="M427.29,299.51c-1.77-.28-1,1.5-1.76,2-2.65-2.91-5.32-3.18-8-.76a9.07,9.07,0,0,0-3.07,7.18c.06,2.24.78,4.22,3,5.28s3.85.28,5.81-1.36c-.37,2-.43,3.68-2.21,4.31-1.6.57-3.28,1-4.77-.55-.47-.47-1.36-.54-2.08-.8-.31,1.94.06,2.78,1.45,3.55a6.38,6.38,0,0,0,9.36-3.7c1.21-4.66,2-9.42,3-14.14C428.24,299.82,428,299.63,427.29,299.51Zm-7.4,11.65c-1.86,0-3-1.42-3-3.68,0-3.14,2.16-5.88,4.6-5.86a3.33,3.33,0,0,1,3.28,3.69C424.75,308.45,422.44,311.21,419.89,311.16Z"/><path class="cls-19" d="M470.08,294.59c-1-.24-1.8,0-2,1.28-.27,1.73-.72,3.44-1.11,5.21-4.32-3.12-8-2-10.07,3a11.75,11.75,0,0,0-.7,5.08c.16,4.2,4.31,6.54,7.55,3.74.24-.2.86-.76.87-.28,0,1.43.93,1.16,1.62,1,.92-.19.77-1.17.91-1.83q1.68-7.77,3.24-15.56C470.48,295.72,471.22,294.86,470.08,294.59Zm-6.37,16a3,3,0,0,1-3.4.73,3.39,3.39,0,0,1-1.9-3.58,7.63,7.63,0,0,1,2.18-5.16,3.28,3.28,0,0,1,3.4-.87,2.89,2.89,0,0,1,2.06,2.79A7,7,0,0,1,463.71,310.63Z"/><path class="cls-4" d="M565,294.56a1.38,1.38,0,0,0-1.85,1.28c-.32,1.74-.73,3.47-1.17,5.5-3.28-3.15-6.47-2.79-8.92.7a11.31,11.31,0,0,0-1.82,6.86c0,4.4,4.4,6.81,7.56,4,.23-.2.87-.76.88-.22,0,1.33.87,1,1.53,1,1.06,0,.83-1,.95-1.55q1.73-7.87,3.26-15.78C565.53,295.8,566.42,294.83,565,294.56Zm-5.68,15.56c-1,1.13-2.26,1.92-3.82,1.28a3.23,3.23,0,0,1-2-3.51c.13-2.19.72-4.2,2.56-5.58a3,3,0,0,1,5,2.12A6.83,6.83,0,0,1,559.33,310.12Z"/><path class="cls-20" d="M482.44,300.22c-3.08-2.21-9-1.13-10,2.88a2,2,0,0,0,3-.46c1-1.22,2.6-1.16,4.05-1,.95.13,2,.47,2,1.71s-1,1.49-2,1.52a22.67,22.67,0,0,0-5.14.46,4.6,4.6,0,0,0-3.31,5.77,4.46,4.46,0,0,0,5.69,2.75A26.69,26.69,0,0,0,480,312.2c.08,2.06,1.41,1.42,2.54,1.36-.57-3.13.59-5.93,1.11-8.83C483.91,303.06,484.06,301.38,482.44,300.22Zm-6.64,11.36c-1.26,0-2.4-.33-2.59-1.78s.9-1.83,2-2.17a4.41,4.41,0,0,1,.8-.18l4.7-.43C480,310.24,478.46,311.64,475.8,311.58Z"/><path class="cls-20" d="M605.88,309.52c.37-2,.86-4,1.19-6.08a3.27,3.27,0,0,0-2.07-3.68c-3.26-1.52-8.09-.43-9.25,3.38,1.11.45,2,.81,2.91-.43s2.71-1.26,4.23-1c1,.15,2,.52,1.91,1.78s-1.11,1.43-2.11,1.45a22,22,0,0,0-5.13.47A4.59,4.59,0,0,0,594.3,311a4.41,4.41,0,0,0,5.6,2.92,13.74,13.74,0,0,0,3.4-1.82c-.06,1.36.61,1.7,1.78,1.56,1.55-.19.4-1.12.5-1.69C605.73,311.17,605.73,310.33,605.88,309.52Zm-7.12,2.06c-1.09-.12-2.06-.5-2.23-1.72s.59-1.92,1.74-2.1c1.88-.3,3.77-.54,5.83-.83A5,5,0,0,1,598.76,311.58Z"/><path class="cls-21" d="M452.5,300.18c-2.65-1.89-7.22-1.26-9.15,1.34-.35.47-1.25,1.12-.52,1.68a1.46,1.46,0,0,0,2.32-.18c1.1-1.52,2.84-1.58,4.52-1.33.94.13,2,.49,1.92,1.76s-1.12,1.43-2.1,1.45a22.73,22.73,0,0,0-5.14.48,4.62,4.62,0,0,0-3.3,5.62,4.46,4.46,0,0,0,5.6,2.94,13.16,13.16,0,0,0,3.4-1.83c0,1.37.68,1.73,1.83,1.57.45-.07.8-.1.69-.7-.49-2.89.71-5.55,1.16-8.31C454,303,454.13,301.35,452.5,300.18Zm-6.79,11.4c-1.18-.07-2.24-.44-2.41-1.77s.91-2,2-2.18c1.8-.33,3.64-.43,5.51-.63C450.11,310.26,448.41,311.76,445.71,311.58Z"/><path class="cls-22" d="M544,299.13c-4-.14-7,2.84-7.65,7.67-.48,3.26.78,5.89,3.28,6.87a6.71,6.71,0,0,0,7.83-2.57c.29-.41,1.14-1,.41-1.51-.54-.34-1.48-1-2.19,0a5,5,0,0,1-2.7,1.8,3.24,3.24,0,0,1-4.31-2.39c-.28-1.27-.26-2.34,1.62-2.05a23,23,0,0,0,3.32,0H548c.48,0,.87,0,1.08-.64A5.63,5.63,0,0,0,544,299.13Zm2.86,5c-.24.79-1.06.38-1.6.4-2,.05-4,0-6.22,0,1.61-2.73,4.6-3.72,6.71-2.42C546.5,302.57,547.13,303.19,546.86,304.11Z"/><path class="cls-23" d="M638.74,299.82a6.14,6.14,0,0,0-6.64.43c-3.11,2.19-4.11,5.47-3.67,9.08s3.86,5.55,7.36,4.48,5.69-4.26,5.74-8.85C641.4,303.14,641,301,638.74,299.82Zm.43,5.49c-.06,2.91-1.62,5.29-3.83,6.06a3.29,3.29,0,0,1-4.62-3.08c-.09-2.48.59-4.65,2.84-6a3.7,3.7,0,0,1,3.91-.23A3.21,3.21,0,0,1,639.17,305.31Z"/></svg>