<?xml version="1.0" encoding="utf-8"?>
<!-- Generator: Adobe Illustrator 23.0.4, SVG Export Plug-In . SVG Version: 6.00 Build 0)  -->
<svg version="1.1" id="Layer_1" xmlns="http://www.w3.org/2000/svg" xmlns:xlink="http://www.w3.org/1999/xlink" x="0px" y="0px"
	 viewBox="0 0 800 800" style="enable-background:new 0 0 800 800;" xml:space="preserve">
<style type="text/css">
	.st0{opacity:0.13;fill:#110809;enable-background:new    ;}
	.st1{opacity:0.72;fill:url(#SVGID_1_);enable-background:new    ;}
	.st2{fill:#524584;}
	.st3{fill:#F0E1CD;}
	.st4{fill:#9ABCDA;}
	.st5{fill:#CCCCCC;}
	.st6{fill:#766B95;}
	.st7{fill:#606060;}
	.st8{opacity:0.13;fill:url(#SVGID_2_);enable-background:new    ;}
</style>
<title>hackers</title>
<g>
	<g id="Objects">
		<path class="st0" d="M277.6,569.4c-31.4,0.3-62.7,1.6-94.3,5.4c-18.2,2.2-39.8,7.8-45.1,26c-4.8,16.7,17.2,27.1,31.6,31.8
			c36,11.9,74.4,16.7,112.6,20c75.8,6.5,152,7.4,227.9,2.7c41.1-2.5,82.6-6.8,121.4-19c7.8-2.4,15.6-5.3,21.7-10.1s10.3-12.2,9-19.5
			c-3.6-20.3-44.8-22-61.2-23.9c-70-8.3-140.7-11.2-211.2-12C352.2,570.3,314.9,569.1,277.6,569.4z"/>
		
			<linearGradient id="SVGID_1_" gradientUnits="userSpaceOnUse" x1="404.9617" y1="396.3276" x2="636.8885" y2="396.3276" gradientTransform="matrix(1 0 0 -1 0 800)">
			<stop  offset="2.000000e-02" style="stop-color:#AF8ABC"/>
			<stop  offset="0.3" style="stop-color:#AC88BC"/>
			<stop  offset="0.55" style="stop-color:#A182BC"/>
			<stop  offset="0.79" style="stop-color:#8F79BC"/>
			<stop  offset="1" style="stop-color:#786CBC"/>
		</linearGradient>
		<path class="st1" d="M454.5,499.7c-19.6-23.6-39.9-50.9-47.9-80.3c-6.7-24.6,6.9-50.3,34.6-35.1c7.8,4.2,13.9,10.6,20.5,16.4
			c-10.1-28.8-20.8-57.3-24.1-87.9c-1.9-17.1-6.1-71,20.1-74.2c6-0.7,11.6,3.2,15.8,7.6c12.7,13.4,17.9,32,22.6,49.9
			c2.9,11,9.3,24.9,8.5,36.3c0.6-8.4-3.4-19.5-3.6-28.7c-0.4-11.8,0.9-23.5,3.9-34.9c3.5-12.6,22.2-50.5,35.5-23.4
			c2.1,4.4,2.8,9.3,3.4,14.1c2.5,23.1,1.9,46.5,1.1,69.6c-0.8,21.8,0.9,50.5-6.2,71.3c7.9-23.5,17.1-48.5,36.9-64.7
			c7.6-6.2,23.8-14.6,28.1-0.4c1.2,4.1,0.7,8.5,0,12.6c-6.3,36.4-23.6,73.1-41,105.5c8.3-15.4,18.7-31.6,32.8-42.2
			c10.3-7.7,35.5-19.3,40.7,0.4c2.1,8.1-1.2,16.5-4.7,24.1c-13.8,29.7-32.3,56.9-51.5,83.3c-10.8,14.8-33,59.8-56.7,51.6
			c-12.1-4.2-21.5-19.3-30.2-28.2C482,530.8,471,519,460.6,506.8C458.6,504.5,456.6,502.1,454.5,499.7z"/>
		<path class="st2" d="M593.2,518.2c6.4-7.3,10.8-16.4,7.2-25c-4.2-9.8-16.7-12.6-27.4-13.5c-31.9-2.5-63.8,0.9-95.3,5.6
			c-44.3,6.7-87.5,17.6-132.5,9.1c-42.4-8-83.5-27.4-127.5-24.5c-30.9,2-57.4,56.8-21.1,71.3c32.1,12.8,64.9,24.7,97.7,35.5
			c12.6,4.2,25.3,8.1,38.4,10c19,2.8,38.3,1.3,57.4-0.9c24.4-2.8,48.6-6.8,72.7-12c12-2.6,23.9-5.7,35.9-8.5
			c15.6-3.5,31.8-10.3,46.7-16.2c15.2-6,29.2-14.5,41.7-25.1l0.6-0.6C590,522.4,591.9,520.5,593.2,518.2z"/>
		<path class="st3" d="M244.3,410.9c7.5,36.7,33.4,69.1,67.6,84.4c9,4.1,18.7,7,28.6,7.5c8.5,0.4,18.5-2.1,21.5-10
			c2.4-6.2-0.7-13.1-4.6-18.5c-2.3-3.2-5.1-6-8.3-8.3c-8.8-6.1-20.2-6.6-30-10.8c-10.7-4.6-19.1-13.6-24.4-24s-7.7-22-8.5-33.5
			c-0.6-7.4-0.4-14.8,0.6-22.1c2.7-18.5,11.5-35.5,18.8-52.8c2.5-5.8,4.8-12.5,2.1-18.2c-3-6.3-11.2-8.8-18-7.2
			c-15.8,3.5-26.3,20.4-33.3,33.6c-8.3,15.6-13.1,32.7-14.1,50.3C241.6,391.2,242.3,401.2,244.3,410.9z"/>
		<path class="st3" d="M538,416c0.3,23.9-7.6,48.6-25.9,63.7c-15.9,13.1-53.9,24.3-72.2,9.3c-8.4-6.9-1.5-17.1,7.2-18.9
			c4.2-0.9,8.5-0.7,12.7-1.5c13.1-2.5,23.1-14.1,26.9-26.9s2.2-26.5-0.8-39.5c-3.2-13.6-6.3-28.4-10.9-41.4
			c-4.8-13.5-12.7-25.1-12-40.1c0.3-5.9,2.2-12.2,7-15.7c7.4-5.3,17.8-1.9,25.2,3.4c15.6,11.1,21.1,25.5,27.5,42.5
			c7.3,19.3,13.9,39.3,15.1,60.1C537.9,412.6,538,414.3,538,416z"/>
		<path class="st4" d="M504,299.8c-6.8-11.2-15.1-21.4-24.6-30.3c-17.6-16.4-39.9-12.1-61.4-7c-8.2,2-16.5,3.9-25,4.1
			c-9,0.3-17.7-1.6-26.6-3.4c-6.8-1.3-13.5-2.8-20.2-4.5c-2.5-0.7-5-1.2-7.6-1.6c-4.2-0.4-8.4-0.1-12.5,0.8
			c-14.4,3-28,10.7-38.5,20.8c-2.6,2.5-5.1,5-7.5,7.7c-10.6,11.9-19.5,25.2-26.4,39.6c8.8,6.2,21,10,29.7,15.1
			c2.9,1.7,9.6,4.6,14.6,8c-0.4,21.3,0.4,42.6,1.6,63.9c0.8,14,1.9,28,3.2,42c1.1,12.1,1.8,24.8,5.4,36.4c0.6,2,1.4,4,2.2,5.9
			c25.2-0.6,50.4-0.3,75.5-0.5c18-0.2,36.1-0.2,54-2.7c9.4-1.3,18.6-2.6,27.9-2.5c4.9-17,3.2-37.5,3.7-54.4
			c0.6-20.4,0.6-40.7,0-61.1c0-1.3,0-2.6,0-3.9c-0.2-11,4.5-10.3,13.2-15.7s17-10.8,25.4-16.4c3.9-2.6,9.5-5.2,12.1-8.8
			C516.9,320.5,510.3,310,504,299.8z"/>
		<path class="st5" d="M270.4,376.9h216.2c1.3,0,2.4,1.1,2.4,2.4v133.8c0,1.3-1.1,2.4-2.4,2.4H270.4c-1.3,0-2.4-1.1-2.4-2.4V379.3
			C268,377.9,269,376.9,270.4,376.9z"/>
		<path class="st3" d="M428.7,260.2c-4-0.4-9.7-0.8-12.5-3.9c-6-6.9-6.4-18.7-5.1-27.3c0.2-1.9,0.7-3.8,1.5-5.6
			c1.1-2.4,2.8-4.5,4.2-6.8c5.9-9.2,5.9-19.9,5.1-30.4c-0.5-7,0.5-17.2-5.3-22.4c-3.1-2.9-6.5-5.5-10.1-7.7
			c-4.4-2.8-9.2-4.6-14.3-5.6c-8.7-1.4-16.5,0.6-23.7,5.4c-7.5,4.9-9.5,13.5-10.8,21.7c-1.5,9.3-2,19.2,1.8,28.1
			c1.6,3.7,3.8,7.1,5.5,10.9s3.7,6.3,4.3,10.4c0.4,3.7,0.4,7.3,0,11c-0.5,6.8-0.8,22.7-10.1,23c-2,0-3.9-0.4-5.8-1
			c1.3,1.3,1.5,4.6,2.2,6.4c1,2.6,1.7,5,3.4,7.3c4,5.4,11,10.6,17.7,11.5c10.9,1.4,22.2,1.9,32.5-1.8c5.7-2,10.8-5.3,14.8-9.8
			C425.6,271.7,433.2,260.6,428.7,260.2z"/>
		<path class="st6" d="M600.2,485.9c-12.1-5.2-25.8-4.9-38.9-4.2c-7.8,0.4-15.6,0.9-23.4,2c-17.2,2.6-33.7,8.4-49.6,15.1
			c-8.5,3.6-17.2,6.5-25.8,9.5c-6.9,2.4-13.8,4.8-20.7,7.5c-34.5,13.6-68.8,27.7-102.9,42.2c2.1,19.9,7.8,39.3,16.7,57.2
			c0.8,0.1,1.7,0.2,2.5,0.2c24.7-0.8,49.1-4.8,73.5-8.8c39.3-6.5,78.8-12.9,117.4-22.7c28.4-7.2,71.3-13.5,77.7-48.4
			C630.4,515.5,618.8,493.8,600.2,485.9z"/>
		<path class="st3" d="M370.1,601.8c-3.3,3.3-70.3,20.1-70.3,20.1l-3.3-35.8l53.5-14.4L370.1,601.8z"/>
		<path class="st7" d="M299.1,625.8c-11.5,2.3-23-0.2-35.5-1.5c-9.7-1-19.6,0.7-29.2-0.8c-12.2-1.9-26-13.9-26.6-26.8
			c0-4,0.8-8.1,2.4-11.8c0.8-2,1.8-3.9,3.1-5.6c3.1-3.7,7.6-6,12.4-6.4c8.7-0.8,19.2,3.2,27.6,5.5c9.7,2.6,19.5,5.3,28.7,9.5
			c4.2,1.9,8,3.4,12.7,3.4c1.1,0,12.5-1.5,12.1-2.9c3,10.5,1.3,22.2,5.6,32.2C308.3,623.2,303.8,624.9,299.1,625.8z"/>
		<polygon class="st3" points="400.2,621 470.5,631 480.5,594.2 413.6,577.4 		"/>
		<path class="st6" d="M430.3,632c2.5-7,4.9-14.1,7-21.3c3.1-10.8,5.5-21.7,9.2-32.2c-15.1-7.2-30.7-13.4-46.3-19.5
			c-12.3-4.8-24.4-10.3-36.1-16.4c-5.5-2.8-10.9-6.2-16.2-9.4c-3.5-2-11.7-9.2-15.6-9.2l-25.3-15c-16.3-9.7-32.7-19.3-50-27.1
			c-11.1-5-22.8-9.2-35-10.3s-24.9,1.2-34.9,8.3c-12.2,8.9-18.7,23.8-16.9,38.8c2.2,16,13.8,29.5,27.5,38
			c15.2,9.3,32.8,12.1,48.8,18.8c18,7.6,37.1,13.2,55.6,19.3c40.9,13.5,82.1,25.6,123.9,36.2C427.5,631.7,428.9,631.9,430.3,632z"/>
		<path class="st7" d="M555.4,652.4c-0.7-1.9-1.5-3.8-2.4-5.7c-6.6-13.2-16-24.6-25.2-36c-8.1-10.2-14.6-23.6-24.2-32.3
			c-3.3-3-8.2-4-12.6-3.3s-8.6,2.6-12.5,4.8c-4.4,2.5-9,4.8-12.9,8c-0.6,0.5-1.1,1-1.6,1.5c0.9,3,1.6,6.1,2.1,9.2
			c0.6,5.8,0.8,11.7,0.5,17.6c-0.3,6.1-1.2,12.2-2.8,18.1c6.2,0.5,13.6,1,14.6,1c15.7,1.7,27.1,9.8,38.1,19.3
			c2.7,2.4,5.5,4.8,8.2,7.3c8,7.2,29.1,19.5,31.9,0.5C557,658.9,556.6,655.5,555.4,652.4z"/>
		<path class="st7" d="M391.5,441.9c0,7.2-5.8,13-13,13s-13-5.8-13-13s5.8-13,13-13S391.5,434.7,391.5,441.9L391.5,441.9z"/>
		<path class="st7" d="M432.8,167.4c-0.5-5.2-1.8-10.2-3.9-15c-2.5-6.2-6.3-11.7-11.3-16.2c-9.4-8.1-23.1-10.5-35.1-7.3
			c-11,2.9-21.4,9.5-27.6,19.2c-8.6,13.2-8.8,29.2-1.6,43c1.7,3.3,3.5,6.3,5,9.4c0,0,0.1,0,0.1,0c-0.1-9.1-4.5-35.1,13.5-31.5
			c2.8,0.6,5.3,2.4,8.1,2.2s5.1-2.6,6.6-5s2.7-5.1,4.8-7.1c3.2-3,8.1-2,11.8-0.5c8.3,3.5,13.2,11.2,15.6,19.7
			c0.7,2.5,1.6,16.7,3,22.6c-0.4-1.6,5.1-8.8,6-10.6c1.9-3.7,3.3-7.7,4.3-11.7C432.9,174.9,433.1,171.1,432.8,167.4z"/>
		<path class="st3" d="M424.7,187.4c-3.2-0.8-6.6,0.7-8.2,3.5c-0.5,0.9-0.7,1.8-0.6,2.8c-1.1,4.5,2.4,9.9,7.9,8.4
			C430.1,200.3,431.9,189.4,424.7,187.4z"/>
		<path class="st3" d="M363.5,193c-0.3-0.5-0.6-0.9-0.9-1.4c0-0.2-0.1-0.5-0.3-0.7c-2.4-3.2-7-2.1-9.5,0.5s-3.3,6.8-1.6,9.8
			c1.9,3.5,7.6,3.9,10.7,1.9C365.4,200.9,365.2,196.3,363.5,193z"/>
		<g>
			
				<linearGradient id="SVGID_2_" gradientUnits="userSpaceOnUse" x1="137.469" y1="186.1815" x2="662.531" y2="186.1815" gradientTransform="matrix(1 0 0 -1 0 800)">
				<stop  offset="2.000000e-02" style="stop-color:#FFFFFF"/>
				<stop  offset="0.2" style="stop-color:#FCFCFD"/>
				<stop  offset="0.36" style="stop-color:#F2F1F9"/>
				<stop  offset="0.52" style="stop-color:#E2DFF0"/>
				<stop  offset="0.66" style="stop-color:#CAC6E5"/>
				<stop  offset="0.81" style="stop-color:#ADA5D6"/>
				<stop  offset="0.94" style="stop-color:#887EC4"/>
				<stop  offset="1" style="stop-color:#786CBC"/>
			</linearGradient>
			<path class="st8" d="M277.6,569.4c-31.4,0.3-62.7,1.6-94.3,5.4c-18.2,2.2-39.8,7.8-45.1,26c-4.8,16.7,17.2,27.1,31.6,31.8
				c36,11.9,74.4,16.7,112.6,20c75.8,6.5,152,7.4,227.9,2.7c41.1-2.5,82.6-6.8,121.4-19c7.8-2.4,15.6-5.3,21.7-10.1
				s10.3-12.2,9-19.5c-3.6-20.3-44.8-22-61.2-23.9c-70-8.3-140.7-11.2-211.2-12C352.2,570.3,314.9,569.1,277.6,569.4z"/>
		</g>
	</g>
</g>
</svg>
