<?xml version="1.0" encoding="utf-8"?>
<!-- Generator: Adobe Illustrator 23.0.4, SVG Export Plug-In . SVG Version: 6.00 Build 0)  -->
<svg version="1.1" id="Capa_1" xmlns="http://www.w3.org/2000/svg" xmlns:xlink="http://www.w3.org/1999/xlink" x="0px" y="0px"
	 viewBox="0 0 1000 1000" style="enable-background:new 0 0 1000 1000;" xml:space="preserve">
<style type="text/css">
	.st0{opacity:0.8;}
	.st1{fill:#0F75B0;}
	.st2{fill:#5DA8DD;}
	.st3{fill:#FBBC58;}
	.st4{fill:#D67086;}
	.st5{fill:#88B473;}
	.st6{fill:#EAEAEA;}
	.st7{fill:#EDEDED;}
	.st8{fill:#FFFFFF;}
	.st9{fill:#F9FBF6;}
	.st10{fill:#4A60A0;}
	.st11{fill:#EEBAC2;}
	.st12{fill:#ADD9F4;}
	.st13{fill:#E99B8F;}
	.st14{fill:#43558D;}
	.st15{fill:#DBEBF8;}
	.st16{fill:#DDECF8;}
	.st17{fill:#3C4C7F;}
	.st18{fill:#EC9A94;}
	.st19{fill:#E76F67;}
	.st20{fill:#E6665E;}
	.st21{opacity:0.5;fill:#CADCF3;enable-background:new    ;}
	.st22{opacity:0.5;fill:#8FB9E3;enable-background:new    ;}
	.st23{opacity:0.5;fill:#FFFFFF;enable-background:new    ;}
	.st24{fill:#576DB1;}
	.st25{fill:#5066A8;}
	.st26{fill:#8196CD;}
</style>
<title>Imagina tu ciudá</title>
<g class="st0">
	<path class="st1" d="M425.3,728.1c-3.6-0.1-7.2-0.1-10.8-0.2c-4.8-0.2-10.3,2.2-11.8-6c-1.3-7.3-1.2-12.1,6.9-15.3
		c7.5-2.9,17.8-6,20.5-11.8c2.4-5.5-6.8-12.9-10.9-19.4c-2.2-3.5-2.9-6.1-0.4-9.6c2.3-3.1,3.9-6.8,6.4-11.3
		c-6.9,1.4-9.2-1.3-8.2-7.2c0.4-2.5-0.2-5.2,0.1-7.8c0.9-7-2.5-7.8-8.8-9c-19.2-3.3-32.4,6.5-45,18.3c-5.6,5.3-11.4,7.9-19.4,5.3
		c-5.8-1.9-11.3-1.8-13.9,6c-1.6,4.8-16.4,1.8-19.1-4.5c-5.9-13.8-11-27.9-16.4-41.9c-1.4-3.5,1-5.5,2.8-7.8
		c20.6-26.6,41.3-53.1,61.7-79.8c3.8-5,9.7-6.5,15.1-11c-2.6-0.8-4.4-1.5-6.4-1.9c-3.9-0.8-6-2-3.4-6.4c2.3-3.9,4.1-8.1,6-12.1
		c2.6-2.1,5.9-3.1,9.1-2.8c33.2,2,66.4-1.9,99.6-2.5c44.6-0.8,88.6,3.9,132.6,9.1c19.8,2.3,39.6,4,59.3,6.5c8.2,1,12,4.7,12.8,13
		c0.9,9.1,1.7,18.2,2.6,27.2c-3.8,15.6-7.1,31.4-16.2,45.1c-8.2,4.5-17.5,4.9-26.5,6.6c-6.7,1.3-11,4.5-14,10.7
		c-8.2,16.7-16.6,33.3-24.8,50c-3.3,7.2-9.5,12.6-17.1,14.9c-22.7,7.4-45.4,14.8-67.9,22.6c-10.9,3.8-21.5,1.4-31.9-0.7
		s-18.4,0.8-25.9,7.6c-9.4,8.6-19.6,16.3-29.8,24C430.4,727.6,428.3,729.7,425.3,728.1z"/>
	<path class="st2" d="M684.5,548.3c-1.2-11-2.8-21.9-3.6-32.9c-0.4-4.7-1.7-6.7-6.8-7.2c-43.3-4.4-86.5-9.2-129.8-13.7
		c-36.4-3.7-72.8-1.9-109.2-0.3c-21.5,0.9-43,0.3-64.5,0.4c0.9-6.1,3.7-8.5,10-6.3c3.4,1,7,1.6,10.6,1.7c3.2,0.2,7.3,3.2,9.2-2.1
		c1.7-4.7,5.5-9.5,0-14.1c-6.2-5.1-8.7-15.1-20.2-13.2c-2.9,0.5-9.6-0.9-11.3-7.1c-1.3-4.8-5.5-1.7-8.3-2.3
		c-7.7-1.6-17.6,5.3-22.8-6.5c-0.6-1.4-6.1-1.2-9.3-0.9c-16.6,1.8-31.4-3.3-46.3-11.5c14.6-18.4,29-36.5,43.3-54.7
		c2.2-2.8,5.1-2.6,8-2.8c20.5-1.2,41.1-2.2,61.6-3.7c5.5-0.5,11,1.1,15.5,4.3c8.9,6,16.7,13.5,26.9,17.4c28.6-1.4,57-4.3,84.2,9.9
		c16.1,8.5,33.6,14.4,50.3,21.6c7,3,11.7,2,13.1-5.7c3.4-18.2,16.4-25.8,32.5-29.5c9.9-2.3,14.5-7.8,16.7-17.7s2.2-20.9,9.6-29.2
		c0.3,0.2,0.7,0.3,0.8,0.6c10.4,29.5,36.3,44.1,59.8,60.6c11.8,8.3,21.7,17.3,25.2,31.8c0.7,2.9,2.1,5.6,4.8,7.1
		c32,18,44.6,50.3,59.8,80.7c-12.4,4-24.5-0.9-36.8-1.4c-9.1-0.5-18.2-1.5-27.2-3c-7.8-1.1-13.9,1.1-19.1,7.1s-10.9,11.2-16.6,16.7
		C691.5,545.3,689.1,548.7,684.5,548.3z"/>
	<path class="st3" d="M425.3,728.1c13.8-10.9,27.8-21.6,41.3-32.9c5-4.2,10.1-5.9,16.1-4.1c20.5,6.2,39.6,2.1,58.8-5.7
		c15.7-6.4,32-11.2,48.1-16.3c5.3-1.5,9.7-5.3,11.9-10.3c9.1-18.8,18.7-37.2,28-56c2.2-4.5,5.1-7,10.2-7.7c10-1.5,19.9-3.5,29.8-5.3
		c2.6,4.6,0.3,8.9-1,13.2c-6.8,22.2-16.9,43.2-26.3,64.3c-4.3,9.8-5.9,18.3,1.6,27.1c4.4,5.2,5.3,11.4,4.1,18.4
		c-5.8,34.4-14.2,68.4-18,103.2c-0.4,1.9-1.2,3.7-2.4,5.3c-4.3,1.6-8.8,2.7-12.8,4.8c-15.9,8.1-31.6,8.3-47.1-1c-5-3-8.8-1.4-13,2.1
		c-16.5,13.8-33.5,27.1-50,41c-4.9,4.1-8.2,4.1-13.3,0.4c-13.2-9.5-26.7-18.8-40.5-27.4c-6.3-3.9-8.3-7.4-5.7-14.8
		c4.8-13.5,4.4-14.1-8.5-19.1c-7.9-2.9-14.5-8.5-18.7-15.9c-6.7-11.5-14.4-22.5-21.8-33.6c-3.9-5.9,2.1-7.6,4.6-9.2
		C409.9,742.8,417.5,735.4,425.3,728.1z"/>
	<path class="st4" d="M627.6,821.2c-1.3-20.5,5.7-39.9,8.5-59.9c2.3-16.1,5.3-32.2,9.2-48c2.5-10.2-2.6-16.9-7.6-23.9
		c-3.7-5.1-3.8-9.3-1.3-15.2c10.3-24.7,22.4-48.6,30.4-74.2c1.1-3.4,1.8-6.9,2.8-10.4l14.9-41.4c9.8-9.5,19.7-19,29.4-28.6
		c2.9-2.8,5.4-4.7,10.1-4.1c23.3,2.8,46.6,5.1,70,7.5c12.8,17.9,14.9,38.4,15.6,59.5c1.6,42.8,3.7,85.5,5.9,128.2
		c0.3,6.8-2,8.8-8.3,8c-8.4-1.1-17-1.4-25.2-3.1c-25.4-5.2-56.6,17.1-60.2,44.2c-0.9,6.3-2.1,12.6-3.6,21.5c-4-7.5-7-12.4-9.4-17.7
		c-1.9-4.2-3.9-4.3-7.3-1.7c-9.2,6.9-19,12.7-30.9,13.6c-3.6,0.3-5.8,3.2-6.5,6.6c-1.3,6.9-5.1,11-11.9,12.6
		c-6.5,1.5-8.4,7-9.5,12.5C641,816,636.5,820.9,627.6,821.2z"/>
	<path class="st5" d="M643.6,342.5c-2.8,11.7-6,23.4-8.3,35.2c-1.5,7.8-6,12-13.4,13.3c-18.6,3.3-32.7,11.5-35.9,32.1
		c-1.2,7.6-4.8,8.7-12,5.3c-14.4-6.8-29.9-11.5-44-18.8c-23.8-12.4-48.8-17.2-75.4-15.5c-5.8,0.4-11.7,0.7-17.4-1
		c13.3-28,26.8-55.9,39.6-84.1c4.8-10.4,10.7-19,20.8-24.9c5.3-3,9.9-7.4,16.6-12.5c-8.2-1.9-11.7-5.8-20.7,0
		c-9.6,6.1-17.5,14.4-27.4,19.8c-5.2,2.9-11.6,2.6-17.5,4.4c-12.3,3.9-22.8,11.9-35.7,14.3c-7.9,1.5-15.4-0.3-22-3
		c-22.2-9.1-39.5-4.3-54.2,14.7c-6.5,8.4-15.6,14.8-23.3,22.4c-3.5,3.4-5.6,4.4-8.7-0.8c-11.9-19.9-24.1-39.6-36.4-59.3
		c-1.9-2.7-2.3-6.2-0.9-9.1c7.8-19.4,15.5-38.8,23-58.3c1.5-4,4.3-6.2,8-8c22-10.8,44-21.6,65.9-32.4c1.8-0.9,3.5-2.1,5.4-2.2
		c22.6-2,37.1-15.5,48.5-33.5c4-6.3,7-6.1,10.4,0.6c21.3,41.7,54.9,73.6,86.4,107.1c2.3,2.4,4.5,5.1,8.2,4.4
		c7.9-1.4,13.6,2.8,19.6,7c20.4,14.2,41.9,26.6,61.5,42C619.5,313.4,633.7,325.9,643.6,342.5z"/>
	<path class="st6" d="M290.3,204.5c-8,7.6-9.3,18.4-13.4,27.8c-5.6,12.8-9.8,26.2-15.4,39c-2.4,5.5-2.1,9.4,1,14.4
		c11.2,17.5,22.1,35.3,33,53.1c1.8,2.9,3,6.1,5.3,10.8c-8.6-2-9.5-8.2-12.2-12.5c-10.3-16.2-21.1-32-30.2-49
		c-4.4-7.8-5.1-17.1-1.9-25.5c5.6-15.6,12.4-30.8,18-46.4c5-13.9,15.1-22.5,27.9-28.4c25.7-11.9,50.2-26.4,77.7-34.2
		c13.2-3.7,19.2-15.2,27-24.5c10.2-12,21-12.9,28.8,0.4c21,36,48.2,67,77.2,96.6c3.6,3.8,7.9,6.8,12.7,8.9
		c35.4,15.1,65.2,38.7,95.3,62c15.2,11.8,27.8,26.7,37,43.6c12.2,21.9,32.6,34.1,51.6,48.1c12.9,9.5,24.7,19.2,30.2,34.7
		c1.8,5.1,5.6,8.9,9.9,11.9c14.1,9.8,25.9,21.3,33.6,37.2c10.2,21.1,21.5,41.7,32.8,62.3c7.6,13.9,6.1,29.4,6.8,44
		c1,19.5,2.5,39,2.8,58.5c0.4,22.7,2.5,45.4,3.7,68.1c0.2,4.4,0.9,9.1-4.1,12.5c-2.8-3.7-3.6-7.6-3.7-11.9
		c-0.3-12.7-0.9-25.4-1.4-38c-0.8-19.5-2.2-39-3-58.5c-0.7-16.6,0-33.3-2-49.7c-2.3-18.8-14.2-34.1-22.1-50.8
		c-3.3-7.1-8.2-13.5-10.9-20.8c-7.5-20.7-22.8-34.2-39.8-46.6c-4.5-3.3-8.6-7-9.9-12.9c-3.7-17.1-18.2-24.5-30.6-33.8
		c-10.4-7.8-21-15.3-31.5-23c-5.2-3.8-8-9.3-11.1-14.7c-18.6-31.9-44.2-56.9-75.3-76.4c-15.4-9.7-30.3-20.2-45.5-30.4
		c-4.1-2.7-8.1-5.5-13.5-4.6c-4.1,0.7-6.6-2-9.2-4.7c-18.1-18.8-37.5-36.5-53.9-56.7c-13.7-16.8-24.1-36.3-35.4-54.9
		c-3.1-5.1-5.3-4.3-8.8-1.4c-6.5,6.4-12,13.6-17.6,20.8c-6.8,8.8-17.2,11.1-27,14.7c-27.3,10-52.8,23.9-78.6,37.1
		C292.9,201.4,291.7,203,290.3,204.5z"/>
	<path class="st6" d="M449.1,299.8c16.1-2.8,28.1-11.1,38.9-21.4c-23.7,29.3-32.8,65.5-50.3,97.3c-2.6,4.6-4.4,9.9-10.4,4.2
		c-16.5-16-35.8-16.6-57-13c-12.7,2.2-25.9,0-38.9,2c-6.2,1-10,3.2-13.5,8c-12.4,16.3-24.9,32.4-37.7,48.4c-1.7,2.1-3.5,7-7.2,4.5
		s-1-6.6,0.8-9.6c8.4-14.4,20.9-25.8,29.8-39.7c11.9-18.7,29-23.6,50.2-23.5c13.8,0.1,27.9-1.1,41.9-1.6c7.8-0.4,15.6,1.8,22,6.4
		c9.4,6.5,14.3,5,19.4-5.2c6.3-12.9,11.9-26.1,18.6-38.8C459.9,309.5,460.7,303.7,449.1,299.8z"/>
	<path class="st7" d="M307,662.7c-2.4,0.2-4.7-1.1-5.8-3.2c-8.9-15.6-16.8-31.8-18.4-49.7c-1.2-12.7,9.3-21,16.2-30.2
		c14-18.7,28.8-36.8,43-55.3c6.5-8.5,7.6-19.3,11.6-28.9c2.8-6.9,6.2-13.6,10.3-19.9c5-7.6,3.4-11.5-5.7-13.8
		c-5.7-1.5-11.5-2.4-17-4.9c9.5,0.7,20.3-6.3,28,5.2c0.8,1.2,3.7,1.6,5.4,1.3c10.7-2,16,4.6,21.2,12.2c3.7,5.4,1.2,6.9-3.7,7.6
		c-4.3,0.5-8.3-0.9-12.5-1.7c-6.3-1.2-11.3-0.3-13.1,7.6c-1.4,5.9-6.2,11.2-6.9,17.1c-3.1,25.4-23.7,39.7-36.6,58.8
		c-8.9,13.2-19.4,25.2-29.3,37.6c-4.2,5.2-5.5,10.1-2.9,16.9C296.2,633.5,302.9,647.2,307,662.7z"/>
	<path class="st8" d="M411.5,288.1c5.1-8.7,10.6-17.2,9.6-28.9c-4.2,4.6-8.3,12.8-13,1.2c-0.9,0.9-1.6,1.3-1.6,1.7
		c-0.6,19.5-3.7,23.8-22.8,31.3c-1.2,0.4-2.4,0.7-3.6,1c0.6-9.2-14.2-3.7-13.1-13.7c0.3-2.6-2.4-2.9-4.3-2.3
		c-16.5,5-27-5.2-37.8-14.6c-0.5-0.5-1-0.9-1.6-1.2c-13.6-7.2-18.6-17.7-13.4-32.7c1.5-4.4,3-10.1-5.6-9.2c-3.1,0.3-3.4-2.3-3.3-4.8
		c0.1-2.3,1-4.2,3.4-3.6c18.9,4.7,29.3-11.1,43.9-18.2c2.3,2-2.1,8.6,4.8,7.9c6.1-0.6,3.6-5,4.2-8.1c1.7-8.1,8.7-13.1,15-13.5
		c21.8-1.4,38.5-10.2,49.5-30.9c12.3,17.7,23.4,33.7,34.6,49.6c1.7,2.4,1.4,4.9,1.1,7.5c-0.2,1.9-0.6,5.4-0.1,5.6
		c14.3,5.1,5,15.9,6,25.3c5.6-1.7,11.5-1.6,14.7-7.4c0.6-1.1,1.6-2.9,2.7-2c5,4,11.6,8.1,12.6,14.2c0.9,5.2-0.6,12.6-8.6,14.3
		c-3.2,0.7-6.2,2.1-9.3,2.9c-6.7,1.6-11.1,3.9-4.4,10.8c1.1,1.1,2.4,2.9,0.7,4.2c-2.7,2.2-5.5,4.8-9.6,3.7c-3.7-1.1-7.5-2.7-10.8,1
		c-10.2,3.7-20.7,6.8-30.7,11.2C417.9,291.8,413.1,295,411.5,288.1z"/>
	<path class="st8" d="M411.5,288.1c5.4,4.6,9.3-0.8,13.8-2.2c8.7-2.6,16.4-8.8,26.3-6.7c-3.4,8.8-9.7,13.5-19.2,13.4
		c-4.4-0.1-7,2.7-10,5.2c-5.3,4.4-11.7,2.4-18.4,3C405.4,296,408,291.6,411.5,288.1z"/>
	<path class="st9" d="M343.2,286.6c4.8-0.2,8.6-0.5,12.4-0.6c3.4-0.1,7.1,0.4,7.1,4.6c0,4-3.8,3.5-6.7,3.8
		C350.6,295,346.6,293.1,343.2,286.6z"/>
	<path class="st10" d="M223.3,346.1c-1.6,4.5-2.1,9.2-1.6,13.9c0.9,7.4,4,14.2-1.9,20.3c-6.2,6.5-10.4,8.5-10.9,18.2
		c-0.4,7.5,2.3,15.5,10.8,16.2c7.4,0.6,14.9-3.8,22.1-0.9c6.3,2.5,6.9,9.7,12.1,13.4c6.6,4.7,18.5,3.5,25.9,2.2
		c6.2-1.1,15.2,0.5,20.5-3c8.4-5.5,6.2-16.4,3.3-24c-3.7-9.7,1.8-18.3,4.2-27.6c2.8-10.9,0.2-21-4.4-30.7
		c-2.6-5.5-1.7-11.2-4.8-16.6c-3.4-5.9-6.3-11.2-12.3-14.9c-12.7-7.9-32.9-4.3-43.2,5.8C235.4,326.1,227,335.5,223.3,346.1z"/>
	<path class="st11" d="M363.3,449.4c-2.7-2.1-9.8-9.7-8-14.5c1.5-4,3.6-4.5,3.6-4.5c11.2-4.2,22.6-8,34.2-11.3c3.6-1,12-5,15.7-4.1
		c4.6,1.2,7.4,8.3,9.5,12c-3.2-0.2-7.7,3.6-10.6,5.1c-4,2.1-8.1,4.2-12.3,6C385.1,442.7,374.3,446.5,363.3,449.4z"/>
	<path class="st12" d="M355.9,427.8c-11.5-2.4-26.5-3.4-30.9-4.6c-25.7-7.6-50.3-13.7-54-2c-4.2,13.3,22.5,25.6,44.9,31.1
		c19.5,4.8,33.5,3.9,54.5,4.9C370.1,448.8,363.3,434.1,355.9,427.8z"/>
	<path class="st11" d="M253,360.3c0.9,4.3,7.1,10,8.6,6.4c1.3-3.7,1.6-7.6,1-11.5c-0.9-4.3-0.1-4.8-4-4.1
		C254.6,351.9,252.2,356,253,360.3z"/>
	<path class="st11" d="M261,374.6c0.7-8.7,26.1,7.4,26.1,7.4l-2.7,33c0,0-0.3-1.3-12.8-1c-7.6,0.2-14.1-0.2-13.7-7.3
		C258.2,402.4,260.8,377.6,261,374.6z"/>
	<path class="st13" d="M260.6,383c3.6,11.6,13.9,20,24.7,19.1l1.7-20c0,0-25.4-16.1-26.1-7.5c-0.1,0.9-0.4,3.9-0.7,7.7
		C260.4,382.5,260.6,382.7,260.6,383z"/>
	<path class="st11" d="M288.8,389.1c-8.4,4-21.9-0.9-26.5-8.6c-2.7-4.4-3.9-9.5-3.5-14.6c0.4-5.9,2.1-11.1,2.6-17
		c0.1-2.6,0.5-5.1,1.2-7.5c1.2-4,3.5-7.5,6.7-10.2c3.1-2.6,7.3-3.4,11.1-4.6c3.2-1.1,6.9-2.5,10.4-2.2c2.4,0.1,3.6,1.9,5.2,3.5
		c8.8,8.9,10.5,24.7,8,36.5C302.2,373.2,297.4,385,288.8,389.1z"/>
	<path class="st11" d="M296.5,596.2c-0.8,16.5-5.7,27.4-9.3,36.8c-18.7,48.9-32.2,95.3-40.1,108.7c-8.7,14.6-34.2-11.7-34.2-11.7
		s35.2-145.8,43.3-155.2C264.3,565.4,297.1,583,296.5,596.2z"/>
	<path class="st14" d="M296.5,596.2c-0.8,16.5-5.7,27.4-9.3,36.8c-18.7,48.9-32.2,95.3-40.1,108.7c-8.7,14.6-36.3-5.7-36.3-5.7
		s31.2-150.9,39.4-160.3C258.2,566.3,297.1,583,296.5,596.2z"/>
	<path class="st11" d="M242.4,761.4c0,0-6.4,21-57,83.3c-6.8,8.3-9.5-3.7-9.5-3.7s39.4-93,46.1-102S242.4,761.4,242.4,761.4z"/>
	<path class="st14" d="M224.7,813c17.8-32.3,24.1-74,24.1-74s-30.5-13.3-37.2-4.4c-3.4,4.5-15.6,31.4-27.1,57.3
		C193.4,796.4,224.6,812.9,224.7,813z"/>
	<path class="st11" d="M295.2,588.6c9.2,13.7,11.8,25.3,14.5,35c14.3,50.4,21.5,89.1,23.2,104.5c1.8,16.8-24.6,17.8-24.6,17.8
		S249.2,608,250.1,595.6S287.8,577.6,295.2,588.6z"/>
	<path class="st11" d="M332.4,761c0,0,3.6,22.4-15.9,100.3c-2.6,10.4-10.8-0.1-10.8-0.1s-3.3-86.9-1-97.9S332.4,761,332.4,761z"/>
	<path class="st10" d="M339.3,831.3c6.4-47.8-3.3-97.1-3.3-97.1s-29.2,0.9-31.5,11.8c-1.3,6.2-11.5,60.7-11.8,85.3H339.3z"/>
	<path class="st10" d="M332,703.7c-3.9-21.5-8.9-42.8-15.1-63.7c-7-23.8-13-44.6-22.7-67.3c-2.5-5.8,0.8-30.6-3-33.2
		c-8.9-5.9-31.6,1.3-43.7,3.7c-2.9,0.6-4.7,2-7.2,3.6c-4.1,2.6-9.4,16.4-10.8,21c-3.8,12.5-0.9,28.2,5.8,38.8
		c5.4,8.5,10.4,17.2,15.3,26c4.2,7.5,9.4,14.3,13.8,21.9c9.7,16.9,16,35.3,23,53.5c2.4,6.2,17.5,35.3,17.6,39.6
		c0.4,22.6,20.6-9.5,27.5-11.5c4-1.2,3.8-1.9,3.5-6.2c-0.2-3.3-0.7-6.5-1.1-9.8C333.9,714.7,333,709.2,332,703.7z"/>
	<path class="st11" d="M293,551.2c2-39.1,9.6-96.6,4.6-102.2c-8.7-9.8-9.1-31.2-15.4-39c-9.4-11.7-17.5-17.2-29.2-0.3
		c-4,5.8-8.9,40.3-9.8,44.6c-2.1,9.6-2.9,57.2-5.2,95.5L293,551.2z"/>
	<path class="st15" d="M293,551.2c2-28.6,4-52.3,6.4-69.3c0.8-5.1,2.3-10.1,3.2-15.1c0.8-4.7-1.4-11.1-3.3-15.3s-3.9-8.6-5.8-13
		s-3.2-8.7-4.6-13.1c-0.4-1.4-2.8-11.4-4.1-11.5c-0.1,0-5.4-0.5-7.5-0.9c-3.7-0.8-7.2-2.2-10.4-4.2c-0.9-0.5-8-6.3-8.2-6.1
		c-11.4,12-18,29.4-19.8,44.8c-0.7,5.6,0.3,90.6-1.7,102.6L293,551.2z"/>
	<path class="st12" d="M288,498.9c0.5-17.4,0-35-5.1-51.7c-4.4-14.4-11-27.8-18.9-40.6c-2.3-1.8-5.1-4-5.3-3.9
		c-11.4,12-18,29.4-19.8,44.8c-0.7,5.6-12.7,108-14.7,120L279,578C281.9,559.9,287.5,517.2,288,498.9z"/>
	<path class="st11" d="M284.9,528.3c-3-1.8-11-8.3-9.8-13.4c0.9-4.2,3-4.9,3-4.9c18.4-10,37.5-18.5,57.2-25.4
		c16.3-5.6,7.9,8.6,7.9,8.6C327.5,504.5,313.7,516.4,284.9,528.3z"/>
	<path class="st11" d="M286.7,527.6c-1,1.1-14,6.8-16.4,1.5c-7.6-16.8-14.2-34-19.8-51.5c-7.3-21.9-7.8-48.5,6-50.7
		c12.1-1.9,16.6,31.2,21.2,57.6c1,5.6,4.4,12.1,8.4,30.2C286.1,514.6,288.8,524.1,286.7,527.6z"/>
	<path class="st16" d="M287.5,505.2c-3-11.3-8.8-25.2-9.6-29.8c-4.7-26.4-10.2-51.1-22.3-49.2c-13.8,2.1-12.9,31.5-7.9,54
		c4.4,19.5,11.4,31.7,19.9,51C275,527.2,285.2,514.6,287.5,505.2z"/>
	<path class="st10" d="M278.9,311c1.5,1.2,2.8,2.4,4.1,3.8c3.3,3.1,6.4,6.6,7.7,11c0.8,3,1.3,6.1,1.5,9.2c0.6,5.3-1.6,10.5-5.9,13.8
		c-3.3,2.4-7.1,3.9-11.2,4.4c-2.1,0.3-4.8,0.9-6.5,2.2c-1.2,1-1.4,2.8-2.6,3.6c-4.1,3.1-4-3.5-4.4-5.6c0.2,1.1,0,0.3-0.7-2.5
		c-1.5-6-1.4-10.9-4.9-16.2c-3.1-4.6-4.3-13-1.1-17.8c3.6-5.5,13.8-7.1,19.8-7.2C276.2,309.7,277.7,310.2,278.9,311z"/>
	<path class="st17" d="M343.2,868c-3.1-0.5-4,0-7.1-0.5c-3.1-0.5-6-1.5-8.8-2.9c-3.2-1.7-6.2-3.7-9-6c-0.3-0.2-0.6-0.4-0.9-0.6
		c-4.2,1.9-6.6,1.8-11-0.1c-0.4-0.1-0.7-0.4-0.9-0.7c-0.1,0.1-0.2,0.2-0.4,0.3c-0.6,1-0.9,2.1-1,3.3c-0.3,2.1-1.3,10.7-0.9,12.7
		c0.6,2.9,16.2,6.3,21.4,6.6c6.9,0.4,12.2,0.7,19-0.4C350.3,878.5,348.4,868.7,343.2,868z"/>
	<path class="st17" d="M209.6,857.5c-2.7-1.5-3.8-1.4-6.5-3c-2.7-1.6-5.1-3.5-7.2-5.8c-2.4-2.7-4.5-5.7-6.4-8.8
		c-0.2-0.3-0.4-0.6-0.6-0.9c-4.6,0.3-6.8-0.6-10.3-3.9c-0.3-0.3-0.5-0.6-0.5-1c-0.2,0.1-0.3,0.1-0.5,0.2c-0.9,0.7-1.6,1.7-2.1,2.7
		c-1,1.8-4.9,9.5-5.2,11.6c-0.4,2.9,13,11.6,17.8,13.6c6.3,2.8,11.2,4.9,18,6.2C212.5,869.9,214.2,860,209.6,857.5z"/>
	<path class="st10" d="M306,344.2c-1.2-7.1-3.1-14.8-7.2-20.8c-2.9-4.3-7.5-9.2-12.2-11.3c-2.6-1.1-6.6-2.8-9.4-2.4
		c-3.5,7,3.1,16.8,6.2,23.1c2.1,4.3,5.8,5.4,8.9,8.4c2.4,2.3,4,5.2,6,7.8c2.1,2.8,4.7,4.8,6.2,8C307.4,355.7,306.4,346.6,306,344.2z
		"/>
	
		<rect x="383.6" y="382.2" transform="matrix(0.4233 -0.906 0.906 0.4233 -125.1641 595.5274)" class="st18" width="43.1" height="27.8"/>
	<path class="st19" d="M485.1,225c-43.8-20.5-96-1.5-116.5,42.3c-20.5,43.8-1.5,96,42.3,116.5c43.8,20.5,96,1.5,116.5-42.3
		C547.9,297.6,529,245.5,485.1,225z M417.9,368.9c-35.6-16.6-51-59-34.4-94.6s59-51,94.6-34.4c35.6,16.6,51,59,34.4,94.6
		C495.9,370.1,453.5,385.5,417.9,368.9z"/>
	<path class="st20" d="M485.1,225c-43.8-20.5-96-1.5-116.5,42.3c-20.5,43.8-1.5,96,42.3,116.5c43.8,20.5,96,1.5,116.5-42.3
		C547.9,297.6,529,245.5,485.1,225z M415.5,374.1c-38.5-18-55.2-63.8-37.2-102.3c18-38.5,63.8-55.2,102.3-37.2s55.2,63.8,37.2,102.3
		c0,0,0,0.1,0,0.1C499.7,375.4,454,392.1,415.5,374.1z"/>
	<path class="st21" d="M512.5,334.5c-16.6,35.6-59,51-94.6,34.4c-35.6-16.6-51-59-34.4-94.6c16.6-35.6,59-51,94.6-34.4c0,0,0,0,0,0
		C513.8,256.5,529.2,298.9,512.5,334.5z"/>
	<path class="st22" d="M424.7,363.5c-35.6-16.6-51-59-34.4-94.7c4.1-8.7,9.8-16.4,16.9-22.8c-32.3,22.5-40.2,66.9-17.7,99.1
		s66.9,40.2,99.1,17.7c2.4-1.7,4.7-3.5,6.9-5.5C474.8,371.9,447.8,374.2,424.7,363.5z"/>
	<path class="st23" d="M385.2,338c3.2,6.1,7.3,11.7,12.2,16.5L519,310.3c0.6-6.9,0.1-13.8-1.3-20.5L385.2,338z"/>
	<path class="st23" d="M513.4,276.1c-4-9.3-9.9-17.6-17.4-24.4c-20.6,7.4-41.3,14.8-61.9,22.3c-18.8,6.8-37.7,13.6-56.5,20.4
		c-1.4,10.1-0.7,20.5,2.3,30.3L513.4,276.1z"/>
	<path class="st24" d="M383.1,395.6l-55.9,119.6c-3.7,7.9-0.3,17.2,7.6,20.9l8.3,3.9c7.9,3.7,17.2,0.3,20.9-7.6l55.9-119.6
		L383.1,395.6z"/>
	<path class="st25" d="M419.7,412.7c-15.1,37-46.6,66-83.2,82.7l-9.2,19.8c-3.7,7.9-0.3,17.2,7.6,20.9l8.3,3.9
		c7.9,3.7,17.2,0.3,20.9-7.6l55.9-119.6L419.7,412.7z"/>
	<path class="st26" d="M358.3,466.3c-0.6,1.2-2,1.7-3.2,1.1l0,0c-1.2-0.6-1.7-2-1.1-3.1l29.4-62.9c0.6-1.2,2-1.7,3.1-1.1l0,0
		c1.2,0.6,1.7,2,1.1,3.2L358.3,466.3z"/>
	<path class="st11" d="M349.2,466.6c0.6-0.5,1.2-0.9,1.8-1.3c0.9-0.6,2.1-0.7,3.1-0.2c1,0.7,1,2.3,0.5,3.5c-0.3,0.7-0.7,1.4-1.3,1.9
		c-1.1,1-2.3,1.8-3.5,2.6c-0.5,0.4-1,0.9-1.4,1.4c5.5-2.3,11.1-4.2,16.1-7.8c0.9-0.6,1.8-1.3,2.9-1.1c0.9,0.3,1.6,1,2,1.8
		c1,1.5,1.9,3,2.8,4.6s1.9,3.5,1.3,5.3c-0.6,1.3-1.6,2.4-2.8,3.1c-5,3.7-10.2,8-16.2,9.5c-4.8,1.2-9.3,3.4-14.1,4.3
		c0,0-6.1-6.5-6.4-7.4c-0.1-0.4,0.4-1.5,1.4-3c0.6-2.3,1.2-4.5,2.1-6.7C340.1,473,345.3,469.8,349.2,466.6z"/>
	<path class="st11" d="M420.7,419.1c-1.1-5.2-4.5-9.9-10.2-9.8c-4.8,0.1-6.1,5.2-6.9,9c-1.3,6.4-0.4,9.5,6,12.6
		C418.6,435.4,422.2,426.8,420.7,419.1z"/>
</g>
</svg>
