<?xml version="1.0" encoding="utf-8"?>
<!-- Generator: Adobe Illustrator 23.0.4, SVG Export Plug-In . SVG Version: 6.00 Build 0)  -->
<svg version="1.1" id="Capa_1" xmlns="http://www.w3.org/2000/svg" xmlns:xlink="http://www.w3.org/1999/xlink" x="0px" y="0px"
	 viewBox="0 0 1000 1000" style="enable-background:new 0 0 1000 1000;" xml:space="preserve">
<style type="text/css">
	.st0{fill:#8D4D38;enable-background:new    ;}
	.st1{fill:#EEBAC2;}
	.st2{fill:#F7B091;}
	.st3{fill:#FFFFFF;}
	.st4{fill:#F7B091;enable-background:new    ;}
	.st5{fill:#C5A79B;enable-background:new    ;}
	.st6{fill:#E99B8F;enable-background:new    ;}
	.st7{fill:#FFFFFF;enable-background:new    ;}
	.st8{fill:#D67086;enable-background:new    ;}
	.st9{fill:#ADD9F4;}
	.st10{fill:#5DA8DD;enable-background:new    ;}
	.st11{fill:#8EA9D8;enable-background:new    ;}
	.st12{fill:#CBC3BB;enable-background:new    ;}
	.st13{fill:#576DB1;enable-background:new    ;}
	.st14{fill:#667FA3;enable-background:new    ;}
	.st15{fill:#EEBAC2;enable-background:new    ;}
	.st16{fill:#ADD9F4;enable-background:new    ;}
	.st17{fill:#DDECF8;}
</style>
<title>Imagina tu ciudá</title>
<path class="st0" d="M830.4,357.8c2.7,9,3.7,18.9,4.9,28c4,1.8,7.9,7.3,11.6,10.3c5.6,4.5,13,7.7,17.8,13c6.5,7.2,4.2,14.2,0.7,22.5
	c-3.9,9.2-11.6,18.3-7.5,28.8c2.8,7.2,9.3,12.1,6.6,20.9c-3.9,12.3-22.7,11.7-33,12.2c-6.5,0.3-12-0.6-17.5-4.7
	c-4.4-3.3-6.4-8.9-11.9-10.8c-9-3.1-22.9,6.1-29.5-0.5c-9.5-9.6-10.8-33.1-11.2-45.6c-0.2-7,1.7-13.1,3.7-19.8
	c3.1-10.8-0.5-17.1-3.6-27.4c-2.2-7.6-0.2-13.6,0.3-21.1c0.4-5.9-0.1-10.5,2.3-16.3c4.4-10.3,14-19.9,25.9-19.8
	c7.3,0.1,16.3,1.4,22.7,5.3C822.4,338.8,827.5,347.8,830.4,357.8z"/>
<g>
	<path class="st1" d="M695.4,370.3c-1.2,0.5-10.2,9.1-6.6,12.8c11.1,11.7,22.9,22.8,35.3,33.2c15.3,13.2,36.8,22.4,43.1,11.9
		c5.6-9.2-19.9-23.8-39.7-36.4c-4.2-2.7-8.4-7.5-21.7-16.8C705.7,375.1,698.9,369.7,695.4,370.3z"/>
</g>
<g>
	<path class="st2" d="M688.4,383.6c3,0.6,12,1.1,14.3-2.8c1.9-3.3,1-4.9,1-4.9c-5.9-17.3-13.3-34.2-21.9-50.3
		c-7.2-13.3-10.2,0.9-10.2,0.9C675,343,676.9,358.9,688.4,383.6z"/>
</g>
<g>
	<path class="st3" d="M713.8,377.1c8.2,6.2,28,19.8,31.4,22c19.9,12.5,27.7,20.9,22.1,30.1c-6.3,10.5-29.9,0-46.5-11.5
		c-14.4-10-22-19.8-34.8-33.1C691.8,380,705.4,375.9,713.8,377.1z"/>
</g>
<path class="st4" d="M768.6,693.8c0,0,8.3,21.2-8.8,89.5c-1.4,5.5-5.6,5.1-7.9,3.4c-1-0.9-1.5-2.1-1.5-3.4c0,0-8.1-77.8-6-87.4
	S768.6,693.8,768.6,693.8z"/>
<path class="st4" d="M743.1,673.4c0.6,5.2-0.8,24.3,2.3,28.4c4.6,6,14.8,6.9,20.3,2.1c3.5-3,3.1-12,4.9-16s13.6-78.1,14.6-94.4
	c1.1-19.2,0.7-14.2,0.9-33.4c0.1-7.6,0.2-15.2,0.2-22.8c0-4.5,1.3-11.2-4.5-12.3c-6.8-1.4-8.3-13.2-14.3-9.7
	c-7.5,4.3-11.4,19.2-14.2,26.5c-8.5,22-10.4,45.5-10.5,68.9c-0.1,16.6-1.2,33.2-0.4,49.7C742.6,664.5,742.6,669,743.1,673.4z"/>
<path class="st5" d="M727.2,790.4c2.7-0.4,3.5,0,6.2-0.5s5.3-1.3,7.7-2.6c2.8-1.5,5.4-3.3,7.9-5.2c0.2-0.2,0.5-0.4,0.8-0.5
	c3.7,1.7,5.8,1.6,9.7-0.1c0.3-0.1,0.6-0.4,0.8-0.7c0.1,0.1,0.2,0.2,0.3,0.3c0.5,0.9,0.8,1.9,0.9,2.9c0.3,1.8,1.1,9.3,0.8,11.1
	c-0.5,2.5-14.2,5.5-18.8,5.8c-6.1,0.4-10.7,0.6-16.7-0.3S722.7,791,727.2,790.4z"/>
<path class="st4" d="M791.4,382c-0.6-7.6-22.8,6.5-22.8,6.5l2.4,29c0,0,0.2-1.2,11.2-0.9c6.7,0.2,10.8,2.3,10.5-4
	C792.4,408.8,791.6,384.7,791.4,382z"/>
<path class="st6" d="M791.8,389.4c-3.2,10.2-12.2,17.5-21.7,16.8l-1.5-17.6c0,0,22.3-14.1,22.8-6.5c0.1,0.8-0.1-1.6,0.2,1.8
	C791.5,384,791.8,389.1,791.8,389.4z"/>
<path class="st4" d="M767.4,391.7c6,5.5,18.6,4.9,24.4-0.4c3.4-3,5.7-6.9,6.7-11.3c1.2-5,1.1-9.9,2.2-14.9c0.6-2.2,0.9-4.4,1-6.6
	c0-3.6-1-7.2-3-10.3c-2-3-5.2-4.7-8.1-6.7c-2.4-1.7-5.2-3.8-8.1-4.6c-2-0.5-3.5,0.7-5.3,1.6c-9.7,5.2-15.2,18-16.1,28.6
	C760.3,374.8,761.2,386,767.4,391.7z"/>
<path class="st4" d="M838.6,674c0.6,5.2,4.9,22.8,2.8,27.5c-3.1,6.9-12.5,8.1-19,4.7c-4-2.2-1.8,1-4.4-2.5s-33.9-82.2-38.5-97.9
	c-5.5-18.4-3.9-13.7-8.5-32.3c-1.8-7.4-3.6-14.7-5.4-22.1c-1-4.4-3.8-10.6,1.6-13c6.3-2.9,5.1-14.7,11.7-12.7
	c8.2,2.5,15.5,16.1,19.9,22.6c13.3,19.5,20.5,41.9,25.9,64.7c3.8,16.1,8.7,32,11.7,48.3C837,665.2,838,669.6,838.6,674z"/>
<path class="st4" d="M760.2,528.2c-1.7-34.3-8.4-84.7-4.1-89.6c7.6-8.6-3-13.6,2.5-20.5c8.2-10.3,34.7-12.5,45,2.4
	c3.5,5-0.6,19,0.2,22.7c1.8,8.4,2.5,50.1,4.6,83.8L760.2,528.2z"/>
<path class="st7" d="M760.3,412.5c0.8-0.3,9.1-1.5,9.9-1.3c0.4,0.1,0.1,9.6,0.9,13.7c1,5,1.8,8.3,3.1,13.1
	c5.6-8.4,7.8-15.6,13.8-23.6c4.2-5.6,10.7-5.2,14.2-0.5c3.1,4.1,3.2,9.1,5.1,13.6c2.3,5.6,1.6,9.5,1.2,15.7
	c-0.8,13.2-0.6,26.5-0.5,39.8c0.1,14.4-1.2,30,1.2,44.3l-48.9,0.9c-1.5-1.3-1.1-10.1-1.3-11.9c-0.8-8.2-1.7-16.3-2.7-24.5
	c-1.9-16.8-5.1-33.5-5.4-50.4c-0.1-8,1.1-17.2,5.9-23.8C758.4,415.3,757.2,413.6,760.3,412.5z"/>
<path class="st0" d="M795.8,328.6c-1.5,0.6-3,1.3-4.4,2.2c-3.5,1.8-7,3.9-9.3,7.2c-1.5,2.3-2.7,4.8-3.7,7.3c-1.9,4.3-1.4,9.3,1.4,13
	c2.1,2.9,5,5.1,8.3,6.6c1.7,0.8,3.8,2,4.9,3.5c0.8,1.1,0.5,2.7,1.3,3.7c2.6,3.6,4.3-1.9,5.2-3.5c-0.4,0.9,0,0.2,1.2-1.9
	c2.8-4.7,4-8.8,8.3-12.3c3.8-3.1,6.9-9.8,5.5-14.6c-1.6-5.5-9.7-9.5-14.7-11.1C798.4,328.3,797.1,328.3,795.8,328.6z"/>
<path class="st0" d="M764.6,349.5c2.8-5.6,6.4-11.6,11.4-15.6c3.5-2.9,8.6-5.8,13.2-6.4c2.5-0.3,6.2-0.6,8.5,0.4
	c1.2,6.8-6.9,13.3-11.2,17.8c-2.9,3-6.2,3-9.6,4.8c-2.6,1.3-4.7,3.3-7.1,5c-2.5,1.8-5.2,2.8-7.3,5.2
	C760.4,358.9,763.6,351.4,764.6,349.5z"/>
<path class="st8" d="M740,586.7c0.1-23.4,16.4-70.2,18.8-75.6l49.1-1.5c1.9,4.7,21,36.8,23.7,77.1c1.1,16.5,7.4,79.2,6.9,83.6
	c0,0.5-99.3,1.5-99.3,1.5C738.8,667.6,739.9,603.2,740,586.7z"/>
<path class="st4" d="M680.2,319.9c1,3.3,1.5,6.1,0.4,9.5l-0.3,0.1c-0.2-0.3-0.3-0.6-0.5-1c0,0,0.2,1.1-0.2-0.4
	c0-0.1-0.1-0.2-0.2-0.3c0,1.3-0.8,2.5-2,2.9c-4.3,1.5-7.5-3.2-9.2-6.4c-2.1-3.9-5.5-10.1-2.5-14.3c1.2-1.7,4.1-4.5,6.4-3.7
	c1.6,0.5,4.3,4.8,5.3,6.2C679,314.7,679.9,317.2,680.2,319.9z"/>
<g>
	<path class="st1" d="M267,442.3c-11.5-29.7-18.3-30.5-27.7-43.5c-13.8-19.1-42.2-34.5-45.2-19.6c-1.5,7.3,52.8,62.8,61.4,73.9
		C259.6,451.3,262.4,445.3,267,442.3z"/>
</g>
<g>
	<path class="st2" d="M304,415.3c-15,4.2-33.8,9.1-52.5,17.4c-2.6,5.2,0,2-1.1,5.8c-1.3,4.5,3,17.3,5.6,19.1
		c24.5-8.2,40-22.4,53.5-31L304,415.3z"/>
</g>
<g>
	<path class="st9" d="M252,457.6c-7.2-9.1-36.6-45.6-39.6-48.8c-17.8-18.9-26.1-26.8-19.2-38.1c7.8-12.8,29.7,6.9,44.5,23.9
		c9.8,11.3,14.5,17.5,28,40.9C267.9,443.4,260.1,460.3,252,457.6z"/>
</g>
<path class="st4" d="M313.5,409.5c-3.2,3.5-6.2,7.2-5.5,8.5l0.1,0.3l1.1-0.4c0,0-0.9,0.7,0.4-0.2l0.3-0.1c-0.9,1-1,2.5-0.3,3.7
	c2.5,4.2,8.7,0.7,11.9-0.7c2.6-1.2,5-2.7,7.2-4.4c2.7-1.9,4.9-8.2,2-10.8s-5.2,2.8-7.6,0.6c-1.3-1.2,0.9-6.4-3-3.3
	C319.5,403.5,316.4,406.4,313.5,409.5z"/>
<g>
	<path class="st3" d="M304.1,430.3c1.8-1.3,3.6-2.5,5.4-3.6l-5.5-11.4c-2.1,0.6-4.2,1.2-6.4,1.9L304.1,430.3z"/>
</g>
<path class="st5" d="M234.7,762.1c-2.8-0.4-3.7,0-6.5-0.5s-5.5-1.4-8.1-2.7c-2.9-1.6-5.7-3.4-8.3-5.5c-0.3-0.2-0.5-0.4-0.8-0.6
	c-3.8,1.8-6,1.6-10.1-0.1c-0.3-0.1-0.6-0.4-0.8-0.7c-0.1,0.1-0.2,0.2-0.3,0.3c-0.6,0.9-0.9,1.9-0.9,3c-0.3,1.9-1.2,9.8-0.8,11.6
	c0.5,2.6,14.9,5.8,19.6,6.1c6.3,0.4,11.2,0.7,17.4-0.3C241.3,771.8,239.5,762.8,234.7,762.1z"/>
<path class="st10" d="M379.8,579.4c-12.2-4.1-18.7-17.3-14.5-29.5c4.1-12.2,17.3-18.7,29.5-14.5c0.2,0.1,0.5,0.2,0.7,0.3
	c5.9,2.1,7.3,3.3,2.8,0.9l29.4-82.1l-59.6-21.3c0.4-0.8,0.8-1.7,1.1-2.5c4.1-12.2-2.5-25.3-14.7-29.4c-11.8-3.9-24.6,2.1-29.1,13.8
	c-0.3,0.9-0.6,1.8-0.8,2.7l-44.6-16c-8.2,45.4,4.2,92.1,33.8,127.5l-23.5,65.5l77.1,27.6l15-41.9
	C381.7,580.1,380.7,579.8,379.8,579.4z"/>
<path class="st11" d="M517.6,379.1v87.5c-1-0.1-2-0.2-3-0.2c-12.8,0-23.2,10.4-23.2,23.2s10.4,23.2,23.2,23.2c1,0,2-0.1,3-0.2v44.5
	h72v-67.8c41.4-23,70.1-63.6,77.9-110.3H517.6V379.1z"/>
<path class="st12" d="M444,552.6h140.4c10,0,18.1,8.1,18.1,18.1v58.9c0,10-8.1,18.1-18.1,18.1H444c-10,0-18.1-8.1-18.1-18.1v-58.9
	C425.9,560.7,434,552.6,444,552.6z"/>
<path class="st5" d="M444,647.6h29c19.8-10.1,40.1-19.1,60.9-27h-108v8.9C425.9,639.6,434,647.6,444,647.6z"/>
<path class="st5" d="M478.7,582.8c20.7-3.8,41.6-7,62-12.5c12.1-3.2,23.9-7,35.7-11.1H430c-2.7,3.2-4.1,7.3-4.1,11.5v18.2h20.6
	C457.2,586.8,467.9,584.8,478.7,582.8z"/>
<path class="st5" d="M427.7,589.9c-0.9,2.7-1.4,5.4-1.4,8.2V620h20.6c10.7-2.5,21.5-5,32.3-7.3c20.7-4.6,41.6-8.5,62-15
	c7.4-2.4,14.7-5,22-7.8L427.7,589.9z"/>
<path class="st13" d="M622.3,558.6c0,3.6-2,6.6-4.5,6.6H410.5c-2.5,0-4.5-3-4.5-6.6l0,0c0-3.7,2-6.6,4.5-6.6h207.3
	C620.3,552,622.3,555,622.3,558.6z"/>
<path class="st5" d="M622.3,558.6c0,3.6-2,6.6-4.5,6.6H410.5c-2.5,0-4.5-3-4.5-6.6l0,0c0-3.7,2-6.6,4.5-6.6h207.3
	C620.3,552,622.3,555,622.3,558.6z"/>
<path class="st5" d="M622.3,589.6c0,3.7-2,6.6-4.5,6.6H410.5c-2.5,0-4.5-3-4.5-6.6l0,0c0-3.6,2-6.6,4.5-6.6h207.3
	C620.3,583,622.3,586,622.3,589.6z"/>
<path class="st5" d="M622.3,620.5c0,3.7-2,6.6-4.5,6.6H410.5c-2.5,0-4.5-3-4.5-6.6l0,0c0-3.6,2-6.6,4.5-6.6h207.3
	C620.3,613.9,622.3,616.9,622.3,620.5z"/>
<path class="st12" d="M622.3,557.7c-0.3-3.2-2.2-5.7-4.5-5.7h-86L622.3,557.7z"/>
<path class="st12" d="M622.2,588.4c-0.4-3.1-2.2-5.4-4.4-5.4h-86L622.2,588.4z"/>
<path class="st12" d="M622.3,619.6c-0.3-3.2-2.2-5.7-4.5-5.7h-86L622.3,619.6z"/>
<path class="st8" d="M669.6,353.5c0-85.2-68.5-154.5-153.7-155.4v73.7c7.9-10.1,22.5-11.9,32.6-3.9c10.1,7.9,11.9,22.5,3.9,32.6
	s-22.5,11.9-32.6,3.9c-1.5-1.1-2.8-2.5-3.9-3.9v78.6h67.4c-8.6,9.6-7.8,24.3,1.8,32.8c9.6,8.6,24.3,7.8,32.8-1.8
	c7.9-8.8,7.9-22.2,0-31.1h49.6C668.9,370.6,669.6,362,669.6,353.5z"/>
<path class="st14" d="M534.2,262.8c-7.1,0-13.9,3.3-18.3,8.9V198l-1.8-0.1c-85.9,0.1-155.5,69.8-155.4,155.7c0,8.5,0.7,17,2.1,25.4
	h47.3c-0.1-0.9-0.2-1.8-0.2-2.8c0-12.8,10.4-23.2,23.2-23.2s23.2,10.4,23.2,23.2c0,0.9-0.1,1.8-0.2,2.8h61.6v-78.6
	c7.9,10.1,22.5,11.8,32.6,3.9s11.8-22.5,3.9-32.6C548,266.1,541.3,262.8,534.2,262.8L534.2,262.8z"/>
<path class="st4" d="M270.2,443c-4.5,3.8-8.8,8-8.2,9.9l0.1,0.4l1.4-0.3c0,0-1.2,0.8,0.5-0.1l0.4-0.1c-1.3,1.2-1.7,3.1-1,4.7
	c2.5,5.9,10.7,2.7,14.9,1.6c3.4-1,6.6-2.4,9.7-4.2c3.6-2,7.4-9.6,4.2-13.6s-6.9,2.5-9.5-0.7c-1.4-1.8,2.1-8.1-3.2-4.8
	C278.5,436.4,274.2,439.5,270.2,443z"/>
<g>
	<path class="st2" d="M266.7,446.5c-16.3,2.3-36.8,4.9-57.6,10.9c-3.6,4.9-0.3,2-2.1,5.7c-2.1,4.3,0.2,17.6,2.7,19.8
		c26.9-5.2,45.5-17.4,60.9-24.3L266.7,446.5z"/>
</g>
<g>
	<path class="st2" d="M804.9,376.7c-1.8,3.4-8.5,6.6-8.9,3.1c-0.2-3.4,0.6-6.8,2.2-9.9c1.8-3.4,1.4-4,4.5-2.4
		S806.7,373.3,804.9,376.7z"/>
</g>
<path class="st4" d="M839.9,691.3c0,0,13.3,18.5,13.9,88.9c0,5.6-4.2,6.4-6.8,5.2c-1.1-0.6-2-1.7-2.3-2.9c0,0-27.3-73.3-27.7-83.1
	S839.9,691.3,839.9,691.3z"/>
<g>
	<path class="st1" d="M849.7,490.4c1.3-0.1,12.3-5.9,10-10.4c-7.4-14.4-15.5-28.3-24.5-41.8c-11-17-29-31.9-38-23.6
		c-8,7.3,12.3,28.4,27.8,46.1c3.3,3.8,5.9,9.6,16.1,22.3C841.1,482.9,846.2,490,849.7,490.4z"/>
</g>
<g>
	<path class="st2" d="M860,482.2c-2.1-2.2-9.2-7.9-13.3-6c-3.4,1.6-3.6,3.4-3.6,3.4c-5.2,17.6-9,35.5-11.3,53.7
		c-1.8,15,8.8,5.2,8.8,5.2C847.3,523.1,855,509.1,860,482.2z"/>
</g>
<path class="st4" d="M829.5,542.7c0.4-3.4,1.1-6.2,3.4-8.9h0.3l0.1,1.1c0,0,0.2-1.1,0,0.4v0.3c0.5-1.2,1.7-1.9,3-1.9
	c4.2,0.3,4.8,6.6,4.6,9.8c-0.2,4-1.6,8-2,12.1c-0.4,3.9-0.3,9.4-2.1,12.9c-5,0.8-5.5-11.2-4.8-21.3c0.3-3.5-1.5,4.2-2.8,4.3
	C827.6,552.2,829,545,829.5,542.7z"/>
<g>
	<path class="st3" d="M833.9,478.6c-6.1-8.2-21.3-26.9-23.9-29.9c-15.5-17.6-20.7-27.9-12.7-35.2c9-8.3,28.7,8.4,41.3,24.2
		c11,13.7,15.5,25.2,24,41.5C855.8,482.1,841.7,482.2,833.9,478.6z"/>
</g>
<path class="st5" d="M820.7,791.1c2.7-0.4,3.5,0,6.2-0.5s5.3-1.3,7.7-2.6c2.8-1.5,5.5-3.3,7.9-5.3c0.2-0.2,0.5-0.4,0.8-0.5
	c3.7,1.7,5.8,1.6,9.7-0.1c0.3-0.1,0.6-0.4,0.8-0.7c0.1,0.1,0.2,0.2,0.3,0.3c0.5,0.9,0.8,1.9,0.9,2.9c0.3,1.8,1.1,9.3,0.8,11.1
	c-0.5,2.5-14.2,5.5-18.8,5.8c-6.1,0.4-10.7,0.6-16.7-0.3S816.2,791.8,820.7,791.1z"/>
<path class="st0" d="M176.9,288.3c-4.8-0.8-9.5,0.4-13.8,2.6c-1.8,1-3.6,1.7-5.6,2.2c-7.3,2-8.9,12.8-8.4,19.1
	c0.3,3.5,1.7,6.9,2.7,10.1c2.5,8.6,9.6,17.4,19.4,17c6.5-0.4,12.5-3.6,16.6-8.6C197.7,318.4,195.1,291.3,176.9,288.3z"/>
<path class="st15" d="M191.5,661.1c0,0-8.7,22.2,9.2,93.6c1.4,5.7,5.9,5.4,8.3,3.5c1-0.9,1.6-2.2,1.6-3.6c0,0,8.4-81.4,6.3-91.4
	S191.5,661.1,191.5,661.1z"/>
<path class="st10" d="M214.5,496.8H173c0,0.2,0,0.4,0,0.5c0,7.9,0.1,15.9,0.2,23.8c0.3,20.1-0.2,14.9,1,35
	c1,17.1,13.5,94.6,15.2,98.7s1,11.8,4.6,15c5.8,5,17,7.7,21.8,1.4c3.3-4.2,1.8-26.1,2.4-31.5c0.5-4.6,0.5-9.3,0.7-13.6
	c0.9-17.3-0.3-34.7-0.4-52C218.4,549.9,218.3,526.4,214.5,496.8z"/>
<g>
	<path class="st2" d="M158.7,328.1c1.7,3.6,8.4,7.5,9.1,3.8c0.4-3.6-0.2-7.2-1.6-10.4c-1.7-3.6-1.1-4.3-4.5-2.8
		S157,324.4,158.7,328.1z"/>
</g>
<path class="st4" d="M167.6,335.1c0.6-7.9,23.9,6.8,23.9,6.8l-2.5,30.3c0,0-0.2-1.2-11.7-1c-7,0.2-11.3,2.4-11-4.2
	C166.6,363,167.4,337.8,167.6,335.1z"/>
<path class="st6" d="M167.3,342.7c3.3,10.6,12.8,18.3,22.7,17.5l1.6-18.4c0,0-23.3-14.8-23.9-6.8c-0.1,0.8,0.1-1.6-0.3,1.8
	C167.5,337.1,167.2,342.5,167.3,342.7z"/>
<path class="st4" d="M196.7,346.2c-6.6,5.3-19.7,3.9-25.4-2c-3.3-3.3-5.5-7.6-6.2-12.2c-0.9-5.3-0.5-10.4-1.3-15.7
	c-0.4-2.3-0.6-4.7-0.6-7c0.2-3.8,1.6-7.5,3.8-10.5s5.8-4.5,8.9-6.5c2.7-1.6,5.6-3.7,8.8-4.2c2.2-0.4,3.6,0.9,5.4,2
	c9.7,6.1,14.6,19.8,14.9,30.9C205.2,329.1,203.6,340.7,196.7,346.2z"/>
<path class="st0" d="M168,318.7c3.4,2.6,6.3,6.1,9.9,8.3c4.8,2.9,8.9,3.2,13.6,0c3.9-2.8,8.8-3.8,13.4-2.9
	c-0.3,7.8-2.3,17.3-8.3,22.1c-6.6,5.3-19.7,3.9-25.4-2c-3.3-3.3-5.5-7.6-6.2-12.2c-0.9-5.3-0.5-10.3-1.3-15.7
	C165.3,316.9,166.7,317.7,168,318.7z"/>
<path class="st15" d="M161.5,658.7c0,0,8.7,22.2-9.2,93.6c-1.4,5.7-5.9,5.3-8.3,3.5c-1-0.9-1.6-2.2-1.6-3.6c0,0-4.3-82.9-2.2-92.9
	S161.5,658.7,161.5,658.7z"/>
<path class="st10" d="M139.8,496.8c-0.8,1.7-1.4,3.5-1.7,5.4c-3.6,27.1-3.5,45.1-3.6,69.5c-0.1,17.3,1.8,70.9,2.9,91
	c0.4,7.9,18,13.5,23.8,8.5c3.6-3.2,6.1-5.9,8-10.1s8.3-96.3,9.3-113.4c1.2-20,1.1-8.9,1.4-29c0.1-7.3,0.2-14.7,0.2-22L139.8,496.8z"
	/>
<path class="st15" d="M200.2,488c1.8-35.9,8.8-88.6,4.2-93.7c-8-9,3.3-2.2-2.4-9.4c-8.6-10.8-35.4-22-46.1-6.4
	c-3.6,5.3-0.5,16.7-1.3,20.7c-1.9,8.8-2.6,52.4-4.8,87.6L200.2,488z"/>
<path class="st16" d="M206.4,368.1c-2-0.7-14.9-3.4-17.2-3.9c-2.7,2.5-6.1-1.1-10.1-1.3c-4.2-0.2-9.2,3-12,0.8
	c-0.2-0.1-0.3-0.3-0.4-0.4c-2.1,0.1,3.4,0.3,1.3,0.5c-5.6,0.6-22.8,8.8-26.4,11c-14.8,9.1-9.4,21.9-9.2,27.1
	c0.8,13.9,2.1,123.4-0.4,138.3h89.8c1.5-1.3-2.1-122.5-3.2-140.1C217.2,376.7,217.9,372.1,206.4,368.1z"/>
<path class="st5" d="M176,763c-2.8-0.4-3.7,0-6.5-0.5s-5.5-1.4-8.1-2.7c-2.9-1.6-5.7-3.4-8.3-5.5c-0.3-0.2-0.5-0.4-0.8-0.6
	c-3.8,1.8-6,1.7-10.1-0.1c-0.3-0.1-0.6-0.4-0.8-0.7c-0.1,0.1-0.2,0.2-0.3,0.3c-0.6,0.9-0.9,1.9-0.9,3c-0.3,1.9-1.2,9.8-0.8,11.6
	c0.5,2.6,14.9,5.8,19.6,6.1c6.3,0.4,11.2,0.7,17.4-0.4C182.5,772.7,180.8,763.7,176,763z"/>
<path class="st10" d="M212.6,754.8c2.3-23.8,5.8-84.1,4.2-91.5c-2.1-10-25.4-2.1-25.4-2.1s-10.3,22.2,8.1,93.1L212.6,754.8z"/>
<path class="st10" d="M154.3,754.9c14.8-64,15.5-100.8,15.5-100.8s-32.9-12.2-32.1,6.4c0.4,7.8,1.1,69.9,2.6,94.8L154.3,754.9z"/>
<path class="st7" d="M167.5,355l15,7.1l-6.4,15.6l-22.1-9.6C154,368.1,161.5,355.5,167.5,355z"/>
<path class="st7" d="M182.5,362l8.9,13.9l6.9-9.1c0,0-2.5-8-8-8.9L182.5,362z"/>
<path class="st0" d="M205.7,282.7c-0.3-3.9-2.6-3.9-5.9-3.4s-6.4,1.5-9.8,1.6c-3.7,0.2-6.9-0.6-10.5-1.1c-6.2-1-12.6,0.6-18.2,3.5
	c-8.4,4.4-13.6,19-12,28.6c0.5,3.2,1.7,2.4,4.2,4.5c1.2,1.1,2.5,2,4,2.7c1.2,0.4,2.9-0.1,4.2-0.3c0.5-0.7,2,0.6,2.4,1.2
	c0.7,1,1.2,3,2.8,2.5c1.5-0.5,2-2.4,2.2-3.7c0.3-2.8-0.1-5.7,0-8.5c0.2-5.8,5.6-5.8,10.2-6.7c7.9-1.5,15.1-2.6,21.7-7.8
	C204.6,293,206,287.2,205.7,282.7z"/>
<g>
	<path class="st17" d="M201.8,484.4c-6.1-10.1-33.4-47.1-35.8-51c-16.8-26.7-21.5-33.4-12.7-43.6c10-11.5,29.8,11.1,42.7,30.1
		c8.5,12.6,12.5,19.4,23.1,44.5C220.4,472.6,209.9,488.3,201.8,484.4z"/>
</g>
</svg>
