<svg id="Capa_1" data-name="Capa 1" xmlns="http://www.w3.org/2000/svg" viewBox="0 0 1000 1000"><defs><style>.cls-1{opacity:0.8;}.cls-2{opacity:0.21;}.cls-3{fill:#299438;}.cls-4{fill:#e7d2be;}.cls-5{fill:#d67086;}.cls-6{fill:#e9cdb0;}.cls-7{fill:#2a294a;}.cls-8{fill:#1b3251;}.cls-51,.cls-9{fill:#fff;}.cls-10{fill:#47519f;}.cls-11{fill:#5b2e23;}.cls-12{fill:#353b86;}.cls-13{fill:#5862aa;}.cls-14{fill:#8ea9d8;}.cls-15{fill:#dddae8;}.cls-15,.cls-16,.cls-50{opacity:0.2;}.cls-17,.cls-50{fill:#3b3487;}.cls-18{fill:#808181;opacity:0.49;}.cls-19{fill:#f8f7f7;}.cls-20{fill:#0f0f1b;}.cls-21{fill:#5da8dd;}.cls-22{fill:#fbbc58;}.cls-23{fill:#babcbe;}.cls-24{fill:#e9e8e8;}.cls-25{fill:#eed6d5;}.cls-26{fill:#3c465a;opacity:0.25;}.cls-27{fill:#f2f2f2;}.cls-28,.cls-51{opacity:0.5;}.cls-29{fill:#3ea635;}.cls-30{fill:#d5a105;}.cls-31{fill:#c11728;}.cls-32{fill:#4b7735;}.cls-33{fill:#fbb809;}.cls-34{fill:#e63520;}.cls-35{fill:#f59d10;}.cls-36{fill:#0077b9;}.cls-37{fill:#941732;}.cls-38{fill:#07a7d7;}.cls-39{fill:#eb6512;}.cls-40{fill:#e20b20;}.cls-41{fill:#de0a79;}.cls-42{fill:#203261;}.cls-43{fill:#d28d10;}.cls-44{fill:#004c85;}.cls-45{fill:#abb5b6;}.cls-46{fill:#8d4d38;}.cls-47{fill:#b2b2b2;}.cls-48{fill:#fff48f;}.cls-49{fill:#ddd;}.cls-52{fill:#f7f8f7;}.cls-53{fill:#eeeced;}.cls-54{fill:#c5c5c4;}.cls-55{fill:#c3c3c5;}.cls-56{fill:#9e9e9e;}</style></defs><title>Land2</title><g class="cls-1"><g class="cls-2"><path class="cls-3" d="M461.84,754.58c-27.11.08-54.22.76-81.28,3.89-10.2,1.18-20.19,3.77-30.42,4.82-20.43,2.09-40.49,6-61,7.79-16.51,1.45-33.08,2.31-49.54,4.15a168.19,168.19,0,0,1-47.83-1.52c-11.34-2.11-22.73-3.3-33.87-6.69-12.47-3.79-26-6.5-39-6.4-18.53.14-36.57.16-54.3,6.85-6.22,2.35-13.84,6.21-18.56,11.13C35.22,789.89,33.75,818,44.55,829.74c18.2,19.69,57,27.42,82.53,27.78,28,.4,55.1-1.76,83.08-3,26-1.18,52-2.86,78-2.8,53.2.12,106.41,0,159.52-3.7,49.89-3.47,99.91-2.28,149.91-2.28,51.28,0,102.21.42,153.12,7.51,22.18,3.09,44.77,4.17,67.06,6.33,20,1.94,39.15,0,59-1.83a136.54,136.54,0,0,0,48.45-13.5c12-6,33.42-24.51,37.1-38.75,10.32-39.94-145.49-39-169.41-38.89-26.76.1-53.73,1-80.48,0-11.24-.45-22.33-2.73-33.3-5.24s-22-1.86-33-2.91c-46.24-4.37-92.59-3.73-139-3.73C492.05,754.67,476.94,754.53,461.84,754.58Z"/></g><path class="cls-4" d="M288.88,499.32a3.16,3.16,0,0,0-.73-.5c-2.46-1.05-4.36-.12-7-.46-1.18-.15-2.5-2.89-4.09-1-.59.7-1.8,2.62-3,4.12-1.81,2.19-5.43,3.87-8.55,4.67a90,90,0,0,1-12.92,2.57,153,153,0,0,1-28.07.16,41.22,41.22,0,0,0-20.82-37.09,9.47,9.47,0,0,0-4.4-1.46,8.29,8.29,0,0,0-3.77,1.06c-12.42,6.36-5.86,17.86-1,27.35A136.81,136.81,0,0,0,205,515.88c5.46,7.58,13.35,9.09,22.45,8.81,9.64-.28,19.4-.75,28.79-3.09,4.57-1.14,8.59-3.05,12.93-4.76s4.8.32,8.93-.19c2.3-.29,4.71-.15,6.93-.86,4-1.28,5.35-5.37,6.89-8.83a4.52,4.52,0,0,0,.6-2.32,6.57,6.57,0,0,0-1.89-3.57A13.47,13.47,0,0,0,288.88,499.32Z"/><path class="cls-5" d="M191.1,506.78c2.82,4.31,5.77,8.42,8.76,12.26,4.47,5.73,9.5,11.84,16.59,13.43a31.25,31.25,0,0,0,8.37.35q19.89-1,39.72-3a69.34,69.34,0,0,0-.21-20.84c-.32-1.93-.8-4-2.28-5.27-2.2-1.9-5.54-1.26-8.34-.51L240,506.89c-1.48.4-3.14.78-4.49,0a5.9,5.9,0,0,1-2-2.2c-10.08-16.07-15.34-31.39-20.94-49.37-2.47-7.92-5.09-16.11-10.65-22.27-11.86-13.17-33.83-5.32-33.06,13C169.72,467,179.25,488.66,191.1,506.78Z"/><path class="cls-6" d="M597.93,697.32l.69,41.87c-.28,11.61.77,23.2,1.47,34.77.66,10.76-1.51,21.84,3.59,31.81,1.6,3.13,5,5.31,7.6,1.69,2-2.78,1.08-7.59,1.57-10.82,3.71-24.27,10.61-47.95,14-72.26C630.5,698.9,620.65,699.57,597.93,697.32Z"/><polygon class="cls-7" points="600.31 798.62 597.62 805.6 610.87 817.26 623 817.76 626.92 811.36 610.6 797.17 600.31 798.62"/><path class="cls-6" d="M568.27,697.72l-7.64,41.18c-2.64,18.42-8.66,36.36-11.31,54.78-.61,4.23-.3,8.87-2.07,12.86s-5.12,4.06-8.11,1.41c-4-3.55-2.16-9.9-2.09-14.75.49-32.33-2-64.19-2.66-96.57a1.42,1.42,0,0,1,.34-1.18,1.34,1.34,0,0,1,1-.19C538.86,695.47,568.11,698.61,568.27,697.72Z"/><polygon class="cls-7" points="536.96 800.33 532.76 806.53 543.03 820.88 554.74 824.11 560.01 818.75 547.31 801.25 536.96 800.33"/><polygon class="cls-8" points="641.09 723.96 635.37 664.1 632.62 625.2 623.36 593.43 573.34 585.67 511.51 596.27 508.54 608.28 520.44 719.49 580.08 723.96 579.27 654.75 588.47 697.64 588.08 723.96 641.09 723.96"/><path class="cls-9" d="M524.63,476.48q-.12,3-.17,6c-.72,41.07,1.54,82.65,1.8,124.05a458.71,458.71,0,0,1,64.1-5.47c5-.08,27.55,3.41,30.69.44,4.27-4-.42-3.26-.11-8.5.4-6.79-2.86-12.35-1.62-20.38,1.44-9.45,4.32-18.8,6-28.24a413.34,413.34,0,0,0,6-57.34c.57-17,0-34.73-7.38-50.13-18.08-38-76.36-37.3-92.36,2.36C526.81,451.06,525.16,463.78,524.63,476.48Z"/><path class="cls-10" d="M590.41,423.2l-15.84,28.85,2.49,87.43,1.14,40.29c.13,4.66.25,9.33.4,14,.06,2.09-.51,5.62.68,7.33,2.59,3.7,12.07,2.55,16.2,2.87,6.44.51,13,1,19,3.26,4,1.48,7.87,3.72,12.14,4.31a3.56,3.56,0,0,0,2.78-.45,4,4,0,0,0,1.06-3c1.48-20,1.52-40.64,2.62-60.86.88-15.9,3-31.94,2.27-47.86-.78-16.38-3.34-32.68-6.47-48.76-1.86-9.52-4-19.23-9.28-27.39-5.94-9.25-14.35-13-24.71-15-3.66-.74-17.27-5.89-15,2.43C581.06,414.75,587.63,419.89,590.41,423.2Z"/><path class="cls-10" d="M556,425.91l15.84,28.85c-.34,0-2,70.72-2.15,75.49q-.76,27.22-1.54,54.46c-.15,5,.53,11-.46,15.92-1.37,6.92-8.66,5.56-14.87,6.12-13.59,1.22-27.9,3.54-41.52,2.85-3.93-.19,1.24-82.21,1.23-89.86,0-27.53-5.7-58.07,8.28-83,4.07-7.27,11.24-18.91,19.16-22.5,7.38-3.34,17.94-3.91,26-5.78l.41,5.19Z"/><path class="cls-11" d="M590.32,356a31.84,31.84,0,0,1,3.92,14.42c.06,1.34.15,2.88,1.23,3.67s.14,2.7,1,1.57,3.86-5.05,4-6.48a52.73,52.73,0,0,0,0-10c-.28-2.9-.87-5.93-2.77-8.14a16.16,16.16,0,0,0-4.11-3.13,21,21,0,0,0-6.82-3.07c-4.25-.79-6.86.73-3.11,3.7A25.73,25.73,0,0,1,590.32,356Z"/><path class="cls-6" d="M563.77,413c0,2.05-.39,4.19,1.42,5.78a6.21,6.21,0,0,0,3.2,1.26,19.85,19.85,0,0,0,8.9-.63,8,8,0,0,0,3.25-1.72,4.06,4.06,0,0,0,1.16-3.29c.06-1.55.37-3.12.57-4.69a100,100,0,0,0,.74-10.37c5.1-.87,11.08-2.52,12.83-7.85a18,18,0,0,0,.58-5.3q.08-11.08.16-22.17a21.5,21.5,0,0,0-.85-7.56c-1.54-4.16-5.44-6.64-9.27-8.2-9.76-4-21.14-3.82-30.16,1.84a16.54,16.54,0,0,0-6,6.08c-2.13,4.06-1.86,9.07-1.53,13.76l.91,13c.36,5,1.1,10.69,5,13.32,2,1.39,4.7,1.65,6.47,3.45,3.09,3.15,1.62,7.86,2.53,11.68A8.07,8.07,0,0,1,563.77,413Z"/><path class="cls-11" d="M598.21,383.27c-.08-1.37-.68-5.39-2.74-2.87a4.13,4.13,0,0,0-.71,2.48,9.13,9.13,0,0,1-.27,2.61c-.63,1.89-2.74,2.76-4.61,2.72a4.41,4.41,0,0,1-2.16-.51,6.52,6.52,0,0,1-1.64-1.51l-3.6-4.13c-2.07-2.37-6.17-1.35-9-1a17.86,17.86,0,0,0-9,3.49l-.78.66a9.35,9.35,0,0,1-2,1.45c-2.47,1.2-5.54-.06-7.28-2.31-.79-1-1.54-2.37-2.77-2.54a2.52,2.52,0,0,0-2.4,1.46,7.28,7.28,0,0,0-.7,3,22.25,22.25,0,0,0,1.93,11.14c3.59,7.34,10.53,8.24,17.5,8.08l8.27-.2c5-.11,10.36-.32,14.6-3.25,3.74-2.58,6-7,6.88-11.58A28.79,28.79,0,0,0,598.21,383.27Zm-18.43,10.4a9.67,9.67,0,0,1-8.54,1c-1.25-.38-.72-2.49.54-2.11a7.76,7.76,0,0,0,7-.76C579.86,391,580.88,392.93,579.78,393.67Z"/><path class="cls-11" d="M599.26,343.23a39.34,39.34,0,0,0,1.08-5.46,10.82,10.82,0,0,1-5.35.46V335c0-.89-12-1.5-12.94-1.58-9.09-.75-17.41-1.46-25.63,3.42-7,4.17-11.53,10.4-12.61,18.5-1,7.74,1.51,17.85,6,24.28,0-2.06-1.22-6.92-.73-8.88a17.67,17.67,0,0,1,1.91-5.61,23.1,23.1,0,0,1,8.11-8.52,45.06,45.06,0,0,1,17.71-6c5.68-.79,12.59-1.51,18.19,0,2.69.72,3.14,1.4,4.77-1.32.29-.48,2.57-6.08,2.34-6.08Z"/><path class="cls-6" d="M635.64,450.81a14.13,14.13,0,0,1-7.3-2.69c-8.75-5.79-12.55-16.38-17.36-25.27-2.87-5.3-5.67-13.17-10.12-17.28-.83-.77-10.4-5.31-10.32-5.61,0,0,.48-2.62.48-2.62l2.6.5,1.55-1-7-3.6,4.57-7.7,10.38-.26c3,5.77,4.61,12.45,9,17.4,1.84,2.1,4,3.88,6,5.81,3.46,3.32,6.44,7.08,9.57,10.7,4,4.64,10.11,8.42,12.46,14.24,1.3,3.24,3.46,10.55,2,13.81A6.94,6.94,0,0,1,635.64,450.81Z"/><path class="cls-10" d="M643.26,438.94a2.33,2.33,0,0,1,2.44,2.65c.67,8.24-.61,16.5-2,24.65-1.89,11.34-4.3,23.36-12.25,31.66-4.59,4.78-12,8-17.85,4.84-5.11-2.74-7-9.07-7.77-14.81A86.25,86.25,0,0,1,614,438a7.27,7.27,0,0,1,2-2.75c2.28-1.64,9.38.94,12.07,1.36Z"/><path class="cls-6" d="M512.65,403.73a10.34,10.34,0,0,0,3.13-11.6l-8.4-22.77c-1.58-4.26-4.58-9.34-4.64-13.79-.09-7.85,2.71-16.76,4.32-24.43.82-3.88,1.12-9.39,3.16-12.82.38-.64,5.58-5.31,5.47-5.48l-.8-1.57-1.55.81-1.17-.38,3.73-3.58-4.34-4-6.6,1.78c-.83,4.21-.58,8.73-2.41,12.69-.77,1.67-1.81,3.2-2.72,4.8-1.56,2.74-2.74,5.68-4,8.56s-3.06,5.32-4.26,8.08c-2.68,6.15-5.31,12.31-8,18.47l12.29,40.15A10.59,10.59,0,0,0,512.65,403.73Z"/><path class="cls-10" d="M541.89,407.51a48.89,48.89,0,0,1-13.54-8.67c-1.77-1.65-9.8-16.86-8.34-17.26l-.37.11-1.08.41-.14,0c-2.4-.24-6.72,2.14-9,2.88-7.58,2.41-15.09,5.17-22.88,6.5a72,72,0,0,0,3.23,20.12c1.74,6,4.72,10.85,7,16.47a145.83,145.83,0,0,0,8.48,16.73c.76,1.33,8.31,16.89,7.87,17,4.38-.75,7.75-4.21,10.44-7.75,6.31-8.3,9.31-19.56,17.23-26.33,6.15-5.27,14.2-5.78,13.41-16.42A55.25,55.25,0,0,1,541.89,407.51Z"/><path class="cls-6" d="M411.33,380.08a9.92,9.92,0,0,1-1,3.74,24.49,24.49,0,0,0-1.43,12.31,37,37,0,0,1,11.89,1.93c.84-3,1.67-6,2.51-9.06a3.57,3.57,0,0,1,.58-1.34,3.77,3.77,0,0,1,1.61-1,31.18,31.18,0,0,0,8.9-5.41,5,5,0,0,0,1.43-1.74,5.33,5.33,0,0,0,.26-2q0-8.19,0-16.38a3.13,3.13,0,0,0-.37-1.77,3,3,0,0,0-1.58-1l-2.8-1a3,3,0,0,0-.84-.3,4.9,4.9,0,0,0-4.23,0c-.36.12-4.43,1-4.46.69a24.12,24.12,0,0,1-4.55,16.45,1.09,1.09,0,0,1-2,.1,17.63,17.63,0,0,1-3.11-4.67l-4.53,1.13a8.23,8.23,0,0,0,2.12,6.86,5.23,5.23,0,0,0,.51.47A2.21,2.21,0,0,1,411.33,380.08Z"/><polygon class="cls-12" points="426.51 388.31 407.69 385.23 388.49 437.77 343.13 430.04 353.01 490.49 410.71 455.94 426.51 388.31"/><path class="cls-4" d="M277.31,791.58c-2.87.19-5.49-.81-8.26-1.12a141.69,141.69,0,0,1,3.31-28.87c4.31,4.78,7.94,2,7.8,11C280.11,775.5,276.74,787.15,277.31,791.58Z"/><path class="cls-7" d="M268.42,785.58c-3.25-1.16-4,6.61-4,8.44a14.33,14.33,0,0,1-.16,3.28,8.77,8.77,0,0,1-1.84,3.1l-4.72,5.94a10.21,10.21,0,0,0-1.81,2.88A6.06,6.06,0,0,0,259,816.3c8.74,4.41,16.72-6.27,18.61-13.33.29-1.08.5-2.18.71-3.28.44-2.27,2.16-7.23,1.26-9.45-1.06-2.6-4.25-.72-6.34-1.69S269.74,786.06,268.42,785.58Z"/><path class="cls-13" d="M330.49,630.12c-8.15,22.17-17.54,43.86-22.9,67.07-6.62,28.68-17.3,56.64-22.78,85.37a69.48,69.48,0,0,1-10.6-.45c-4-.47-10.44-1.56-11.89-6-.75-2.25,0-5.91.16-8.25.36-7.49.89-15,1.44-22.45,1.56-21.15,2.63-42.56,6.52-63.42,4.09-21.93,8-43.95,11.62-65.88,1.86-11.34,4.15-22.6,7-33.74.73-2.87,8.29-32.45,9.78-32.22a138.88,138.88,0,0,1,49.47,17.75c1.49.89,2.93,1.94,3.45,3.52a6.53,6.53,0,0,1-.43,4.36c-4.59,13.63-10.71,26.42-15.6,40C334,620.55,332.27,625.27,330.49,630.12Z"/><path class="cls-4" d="M332,790c2.68,1,5.48.85,8.22,1.38a142.15,142.15,0,0,0,5.43-28.55c-5.54,3.29-8.18-.45-10.72,8.19C334.13,773.8,333.88,785.93,332,790Z"/><path class="cls-7" d="M343,788.54c0,5.32,4.19,11,6.51,15.81a3.27,3.27,0,0,1-.54,4.28,6.81,6.81,0,0,1-2.77,2.61,6.53,6.53,0,0,1-3.74,0c-2.07-.46-4.12-1-6.13-1.64a4.27,4.27,0,0,1-1.43-.67,4.34,4.34,0,0,1-1.06-1.53c-1.42-2.87-2.64-4.91-2.56-8.11s.5-6.73-.11-10c-.3-1.59-.69-3.62.67-4.49,1.05-.68,3,.25,4.12.44,2,.33,3.89.21,5.76,1.27a2.73,2.73,0,0,1,1,.84A2.24,2.24,0,0,1,343,788.54Z"/><path class="cls-13" d="M329.27,620c1.18,23.59,3.7,47.09,1.92,70.85-2.21,29.34-.33,59.21-3.65,88.28a71.46,71.46,0,0,0,10.26,2.72c4,.75,10.43,1.61,13.13-2.16,1.38-1.93,1.71-5.66,2.3-7.92,1.88-7.26,3.59-14.56,5.29-21.86,4.8-20.66,10.15-41.42,12.64-62.49,2.62-22.16,5.42-44.34,8.51-66.36,1.59-11.37,2.75-22.81,3.37-34.29.16-2.95,1.74-33.44.25-33.66a138.94,138.94,0,0,0-52.51,2.23c-1.69.4-3.38,1-4.34,2.33s-.92,2.79-.89,4.3c.33,14.38,2.37,28.4,3,42.83C328.77,609.83,329,614.86,329.27,620Z"/><path class="cls-12" d="M319.35,430.7c-.29.09-.58.2-.86.3-4.74,1.8-8.78,5-12.72,8.23-5.93,4.79-8.85,6.89-11.14,14a173.24,173.24,0,0,0-4.78,20.41c-6.71,35-8,69.82-12.82,105.06-1.31,9.6-2.32,20.88,4.77,27.47,12.59-9.8,28.42-10.37,43.68-10.38,10.73,0,21.21-3.48,32-2.29,10.27,1.15,19.24-1.42,29.67-.74,2.51.16,5.71.13,6.71-2.18-3.61-10.82-3.55-22.45-4.37-33.82-2.11-29.41-11.85-57.63-15.78-86.84-1.34-9.93-2.05-26.42-9.74-33.93-8.36-8.17-27.42-8.34-38.16-6.74A36.89,36.89,0,0,0,319.35,430.7Z"/><path class="cls-6" d="M327.32,430.2a4,4,0,0,0,.73,1,8.36,8.36,0,0,0,4.69,2.17,20.58,20.58,0,0,0,6.81-.48c3-.58,2.93-2.35,3.37-5.1.24-1.51.39-3,.5-4.54.06-.83-.26-3.81.27-4.4.36-.39,1.83-.26,2.47-.6a7,7,0,0,0,2.48-2.46,20,20,0,0,0,2.06-5c.92-3,1.85-6.07,2.77-9.11a47.49,47.49,0,0,0,2.2-9.45c.46-4.87-.33-11.73-4-15.29-3.35-3.24-8.24-4.38-12.72-4.95a26.46,26.46,0,0,0-17.2,3.48,14.2,14.2,0,0,0-5.26,5.18c-1.88,3.5-1.74,7.87-1.54,11.95l.57,11.29c.21,4.34.75,9.33,4,11.68,1.72,1.24,4,1.51,5.45,3.11,1.84,2,1.72,5,1.8,7.55A9.4,9.4,0,0,0,327.32,430.2Z"/><path class="cls-7" d="M346.1,381.52a5.77,5.77,0,0,1,.51,1.1c.69,2,.23,4.25.9,6.25,1.07,3.17,4.78,5.08,5.33,8.39.46,2.7-1.38,5.27-1.54,8-.17,3,1.74,5.82,1.45,8.77a19.62,19.62,0,0,1-3.42,8.22c.48-.64,4.77-.41,5.88-1.09,1.7-1.05,1.9-1.7,2.41-3.48s.11-3.5.89-5.31c1-2.21,2.95-3.84,3.64-6.21.94-3.22-.77-6.63-.64-10,.2-5.08,4.6-9.87,3-14.7-.93-2.84-3.68-4.65-5.23-7.2-1.18-1.94-1.61-4.22-2.43-6.34s-2.21-4.23-4.39-4.87a36,36,0,0,0-3.74-.44c-2.14-.4-3.92-1.88-6-2.58-2.95-1-8.16,2-9.88,4.49s-.85,4.59.9,6.78C336.67,375,343.7,377.36,346.1,381.52Z"/><path class="cls-7" d="M306.38,366.5c-1.77,1.29-3.95,2.23-5.57,3.75-3.14,2.95-3.74,7.68-3.86,12-.1,3.84-1.78,7.26-1.36,11.26a9.8,9.8,0,0,0,3.61,7c2.72,2,7,2.3,8.22,5.44,1.32,3.42-2.21,7.71-.07,10.67,1.19,1.64,3.5,1.88,5.2,3,1.89,1.22,2.86,3.41,4,5.35s2.89,3.87,5.14,3.91c.09-3.42.19-6.13-1.27-9.26-.85-1.83-3.36-5.19-1.44-7.17,1.22-1.64,4.09-2.17,4.16-4.22a4.67,4.67,0,0,0-1.16-2.57,11.78,11.78,0,0,1-.87-10.68,15.31,15.31,0,0,1,7.58-7.81c3.92-1.9,3.29-2.85,4.43-6.6,1.05-3.45,3-4.26,6.11-5.52,2.79-1.13,3.68-1.83,4.71-4.44.76-1.91,1.68-4.2.59-6.33a12.93,12.93,0,0,0-3.94-4.06c-3.17-2.41-6.72-4.95-10.68-4.66-2.21.16-4.28,1.19-6.48,1.32-1.47.08-2.94-.24-4.41-.29a11.7,11.7,0,0,0-7.19,2.17c-2,1.51-2,3.09-3.13,5.22A7.69,7.69,0,0,1,306.38,366.5Z"/><path class="cls-7" d="M315.26,352.42c.38-2.39.14-5.49-2.14-6.3-1.25-.44-2.65,0-3.95-.22-2.76-.56-3.7-3.91-5.15-6.33a2.08,2.08,0,0,0-.86-.9,3.41,3.41,0,0,0-1.79,0c-2.75.34-4.84-2.38-7.43-3.36a6.5,6.5,0,0,0-8.21,4.08c-.4,1.35-.33,2.8-.7,4.16-1.51,5.51-9.58,7.85-9.78,13.56-.14,3.86,3.64,7.55,2.17,11.12-.94,2.29-3.88,3.84-3.54,6.29a3.4,3.4,0,0,0,3.48,2.62,6.82,6.82,0,0,0,4.24-1.94c1.9-1.66,3.33-3.78,5.14-5.54s4.22-3.18,6.72-2.87,4.61,2.19,7,1.79c1.92-.32,3.35-2,5.25-2.53s3.61.25,5.43.36,4.06-.84,4.11-2.67a4.48,4.48,0,0,1,0-1.32c.39-1.18,2.4-1.11,2.78-2.29-.95-1.47-2.29-.94-3-2.86C314.57,355.83,315,353.92,315.26,352.42Z"/><rect class="cls-14" x="305.07" y="462.03" width="375.39" height="260.63"/><path class="cls-15" d="M403.43,470.32h-89.6v79.61C313.83,506,353.94,470.32,403.43,470.32Z"/><g class="cls-16"><path class="cls-17" d="M469.16,722.66h211.3V589.24S660.94,722.66,469.16,722.66Z"/></g><path class="cls-18" d="M641.94,280.46c0-.09,0-.19-.05-.29l.16.15C642,280.37,642,280.41,641.94,280.46Z"/><polygon class="cls-7" points="117.86 806.36 117.26 814.8 133.55 824.45 142.59 816.61 134.75 807.56 118.46 797.91 117.86 806.36"/><polygon class="cls-7" points="109.47 549.54 107.64 575.19 133.93 688.77 117.17 803.58 133.68 808.12 182.48 670.74 184.12 629.14 174.36 543.37 109.47 549.54"/><polygon class="cls-7" points="215.51 564.68 225.94 672.25 217.5 812.81 201.9 814.14 181.11 686.88 148.83 560.6 215.51 564.68"/><polygon class="cls-7" points="201.83 812.28 202.55 820.71 220.14 827.71 227.86 818.55 218.7 810.84 201.83 812.28"/><path class="cls-5" d="M94.47,563c-1.24,9.79-2.3,23,1.42,23.91a3.34,3.34,0,0,0,2.06-.39c6.88-2.88,12-7.4,18.79-10.17,7.11-2.91,15-4,22.7-4.58a213.85,213.85,0,0,1,34.7,0c9.06.78,18.07,2.5,27,4.18,7.42,1.4,14.17,4.35,21.85,4.61a49.39,49.39,0,0,0,22.95-4.74,1,1,0,0,0,.66-1.46c-1.14-4.54-1.84-9-4.37-12.92-2.82-4.39-4.59-9.77-6.45-14.63A223.23,223.23,0,0,1,226,515.54c-3.71-14.44-8.19-28.61-11.73-43.08-2.45-10-4.57-20.21-8.31-29.87C203,435,197.57,423.86,190,419.88c-2.55-1.35-5.48-1.75-8.35-2.13l-26.06-3.46c-3.17-.42-6.47-.83-9.5.17-4.54,1.52-7.47,5.82-10.05,9.85-11.6,18.07-19.86,38-25.5,58.83-2.94,10.88-5.75,21.8-8.2,32.8-2.73,12.27-5,24.64-6.52,37.12C95.68,554.45,95.05,558.31,94.47,563Z"/><path class="cls-19" d="M163.53,463.83c-.19,5-1.41,9.84-2.62,14.67q-11.06,44.1-22.13,88.2L209,573.38q.47-16.9.94-33.81a159.87,159.87,0,0,0-.38-21.67c-1.27-11.6-5-22.79-8.82-33.87l-20.86-61.44a8.13,8.13,0,0,0-1.58-3.08,8,8,0,0,0-3.74-1.84c-6.57-1.86-14-3.63-20.84-3.34-2.32,5.95,2.78,17.23,4.48,23.16C160.73,446.12,163.86,454.75,163.53,463.83Z"/><path class="cls-6" d="M172.26,421.72l-14.48-2.15A72.73,72.73,0,0,1,159.13,408c-.1.46-7.43-4.43-8-5.43-1.7-2.88-1.47-7.39-2-10.66-1.05-6.95-1.9-14.75,2.3-20.38,4.35-5.84,12.59-7.14,19.85-6.58,9.12.71,19,4.41,22.86,12.7,3.49,7.48-2.92,17.32-5.21,24.61-1.13,3.6-2.71,7.67-6.29,8.87-1.89.64-4.08.32-5.82,1.31C173.77,414.18,174,418.62,172.26,421.72Z"/><path class="cls-20" d="M209.88,365.65q1.59-7.45,3.19-14.9a13.2,13.2,0,0,0,.37-5.61c-.7-3.06-3.51-5.21-6.44-6.34s-6.09-1.49-9.07-2.48c-3.18-1.05-6.2-2.83-9.54-3-6.36-.38-11.81,5-18.18,5.34-8.8.49-16.35-4.31-22.64,5.34-1.15,1.78-1.64,3.91-2.69,5.75-1.35,2.37-3.55,4.13-5.34,6.2-7.87,9.09-7.19,24.19.25,33.36,3.6,4.45,4.87,8.26,10.28,10.13-2-5.43,3.49-25.64,10.68-27.23,1.91-.42,7.21,2.41,9.21,2.92a54.58,54.58,0,0,1,12.84,4.51,66.09,66.09,0,0,0,19.47,7.05,2.54,2.54,0,0,0,3.63-2.39Q207.9,375,209.88,365.65Z"/><path class="cls-21" d="M463.58,258.17a42.26,42.26,0,0,1,35.08-48c-.14-.72-.28-1.43-.38-2.16a51.24,51.24,0,0,1,83.89-46.62,47.39,47.39,0,0,1,86.28,16c1-.24,2.1-.45,3.18-.62a42.26,42.26,0,0,1,25.13,79.61A40.92,40.92,0,0,1,668,318.33a40.2,40.2,0,0,1-5.1.44L669.35,362c.25,1.88-2,3-2.87,2.14L633.31,329.8A40.88,40.88,0,0,1,574,324.88a45.66,45.66,0,0,1-74.83-28c-.16-1.08-.27-2.16-.36-3.24A42.28,42.28,0,0,1,463.58,258.17Z"/><path class="cls-9" d="M543.92,250.69c6.17-.92,7.62,8.67,1.43,9.59S537.74,251.62,543.92,250.69Z"/><path class="cls-9" d="M587.09,244.24c6.17-.93,7.61,8.66,1.43,9.59S580.9,245.16,587.09,244.24Z"/><path class="cls-9" d="M641.05,236.17c6.17-.93,7.61,8.66,1.43,9.59S634.86,237.09,641.05,236.17Z"/><path class="cls-9" d="M649.1,514.41,633.28,527q4,6.16,7.86,12.45c1.27,2.11-2.16,3.77-3.42,1.68q-3.6-5.94-7.41-11.76l-15.4,12.29c-1.91,1.53-4.4-1.36-2.48-2.89l15.79-12.61q-4.63-7-9.56-13.76c-1.43-2,1.44-4.48,2.88-2.49q5,6.84,9.65,13.88l15.42-12.31C648.53,510,651,512.88,649.1,514.41Z"/><path class="cls-9" d="M630.19,569.83a106.93,106.93,0,0,0-5.53-20.6c-.56-1.49-2.44-1.22-3.28-.25a80,80,0,0,0-12.29,19.4c-.83,1.84,1.65,3.2,3,2.09a46.52,46.52,0,0,0,5-4.63c-8.76,28.07-17.23,62.59-48.92,69.08-28.34,5.8-44.32-25.84-56.61-46-10.55-17.27-21.74-36-39.37-46.8-18.83-11.58-42-10.78-61.15-.32-19.3,10.54-34.74,29.89-34.31,52.56-12-.7-22.42,8.06-24.61,20.1-1.85,10.15,3.3,26.58,15.1,26.09a1.57,1.57,0,0,0,1.23,1.88c13.35,3.47,26.06-5.05,28.74-18.56,2.45-12.32-4.05-26-16.67-28.95-1.3-30.83,30.43-56.83,59.57-57.55,48.16-1.19,63.28,53.51,88.74,84.1,7.61,9.13,17.3,16.76,29.51,17.8,11.39,1,22.35-3.72,31.06-10.86,21.16-17.36,25.58-45.71,34.22-70.38a103,103,0,0,1,2.86,12.5C626.86,573,630.59,572.26,630.19,569.83ZM377.71,598.34a1.71,1.71,0,0,0,.81.13c.39.06.78.12,1.17.21,23.42,5.33,15.38,44.31-7.9,40.62,1-1.29.17-3.66-1.73-3.08-13.88,4.21-16.4-16.69-13-25.36A19.66,19.66,0,0,1,377.71,598.34Z"/><path class="cls-5" d="M358.19,625.55a22.49,22.49,0,0,1-.34-3.58c-.27-13.87,6.88-23.1,21.15-19.76,7.34,1.73,11.61,11,11.57,17.9,0,4.64-1.42,9.76-5.35,12.21-6.38,4-21.47,4.47-25.74-3.09A11.69,11.69,0,0,1,358.19,625.55Z"/><rect class="cls-22" x="324.9" y="375.4" width="173.75" height="12.29" transform="translate(486.15 -174.87) rotate(54.8)"/><rect class="cls-22" x="344.98" y="361.23" width="173.75" height="12.29" transform="translate(483.08 -197.28) rotate(54.8)"/><rect class="cls-9" x="334.94" y="368.31" width="173.75" height="12.29" transform="translate(484.62 -186.08) rotate(54.8)"/><rect class="cls-23" x="369.12" y="283.68" width="3.31" height="36.87" transform="translate(403.89 -175.01) rotate(54.8)"/><rect class="cls-19" x="367.21" y="280.98" width="3.31" height="36.87" transform="translate(400.87 -174.6) rotate(54.8)"/><rect class="cls-23" x="365.3" y="278.27" width="3.31" height="36.87" transform="matrix(0.58, 0.82, -0.82, 0.58, 397.84, -174.19)"/><path class="cls-24" d="M350.61,259.34H371.8a0,0,0,0,1,0,0V296.2a0,0,0,0,1,0,0H350.61A15.21,15.21,0,0,1,335.4,281v-6.45A15.21,15.21,0,0,1,350.61,259.34Z" transform="translate(376.72 -171.29) rotate(54.8)"/><rect class="cls-19" x="363.39" y="275.56" width="3.31" height="36.87" transform="translate(394.83 -173.77) rotate(54.8)"/><polygon class="cls-25" points="486.96 434.82 456.83 456.07 498.09 482.57 486.96 434.82"/><polygon class="cls-7" points="495.49 471.41 488.45 476.37 498.09 482.57 495.49 471.41"/><path class="cls-26" d="M174.87,672.29s167.62,7.1,169.71,5.77.85-169.45-5.66-175.88C338.92,502.18,185.05,661.83,174.87,672.29Z"/><path class="cls-27" d="M338.72,672.29h-172a571.58,571.58,0,0,0,6.49-91.37c-.26-27.33-.14-50.94-4.12-77.11,57.34,0,112.33-3.56,169.67-3.56,2.44,24,4.07,50.24,4.32,78.36A850,850,0,0,1,338.72,672.29Z"/><g class="cls-28"><path class="cls-29" d="M222.5,567.5a39.16,39.16,0,0,1,6.1-7.85l-20-21.94a68.41,68.41,0,0,0-12.71,16.54Z"/><path class="cls-30" d="M271.55,552a38.09,38.09,0,0,1,8.39,5.26L300,535.35a68.4,68.4,0,0,0-17.78-11.09Z"/><path class="cls-31" d="M317.5,558.6l-26.59,13.26a38.06,38.06,0,0,1,2.66,9.39l29.58-2.79a67.45,67.45,0,0,0-5.65-19.86"/><path class="cls-3" d="M289,568l26.59-13.25a68.65,68.65,0,0,0-12.43-16.5l-20.06,21.9A39.07,39.07,0,0,1,289,568"/><path class="cls-32" d="M217.22,586.91c0-.6,0-1.2.05-1.79l-29.59-2.65q-.15,2.21-.15,4.44a68.2,68.2,0,0,0,2,16.46l28.58-8.2a38.08,38.08,0,0,1-.9-8.26"/><path class="cls-33" d="M285.27,611.23a39,39,0,0,1-7.21,6.79l15.62,25.29A68.66,68.66,0,0,0,309,629.1Z"/><path class="cls-34" d="M294,586.91a37.85,37.85,0,0,1-.88,8.16l28.58,8.21a68,68,0,0,0,2-16.37c0-1.4,0-2.79-.13-4.18L294,585.53c0,.46,0,.92,0,1.38"/><path class="cls-35" d="M226.41,611.79l-23.65,18a68.8,68.8,0,0,0,15.44,14l15.62-25.27a38.68,38.68,0,0,1-7.41-6.7"/><path class="cls-36" d="M217.7,580.85a38.18,38.18,0,0,1,2.83-9.53L194,558.08a67.59,67.59,0,0,0-5.87,20.11Z"/><path class="cls-37" d="M290.05,645.6l-15.6-25.26a38.62,38.62,0,0,1-9.11,3.7l5.51,29.22a67.86,67.86,0,0,0,19.2-7.66"/><path class="cls-38" d="M292,599.21a38,38,0,0,1-4.15,8.55l23.73,17.9a67.86,67.86,0,0,0,9-18.25Z"/><path class="cls-39" d="M261.14,624.89a38.56,38.56,0,0,1-10,.14l-5.5,29.22a68.3,68.3,0,0,0,21-.17Z"/><path class="cls-40" d="M258.05,548.6a38.17,38.17,0,0,1,9.5,1.84l10.67-27.74a67.42,67.42,0,0,0-20.17-3.81Z"/><path class="cls-41" d="M246.9,624.3a38.33,38.33,0,0,1-9.42-3.57L221.85,646a68,68,0,0,0,19.56,7.48Z"/><path class="cls-42" d="M244.07,550.3a37.86,37.86,0,0,1,9.69-1.72V518.86a67.56,67.56,0,0,0-20.44,3.73Z"/><path class="cls-43" d="M223.8,608.38a38.32,38.32,0,0,1-4.52-9.08l-28.56,8.2a67.85,67.85,0,0,0,9.43,18.85Z"/><path class="cls-44" d="M231.82,556.8a38.82,38.82,0,0,1,8.23-5l-10.74-27.7a68,68,0,0,0-17.51,10.73Z"/></g><path class="cls-4" d="M207.89,553.3a3.17,3.17,0,0,0-.41-.87c-1.7-2.34-4-2.54-6.27-4.32-1-.8-.72-4.1-3.26-3.22-.94.32-3.13,1.44-5.13,2.15-2.9,1-7.22.59-10.58-.4a96.9,96.9,0,0,1-13.49-4.8,165.21,165.21,0,0,1-26.28-15.49,44.78,44.78,0,0,0,1.24-46.2,10.49,10.49,0,0,0-3.3-3.81,9,9,0,0,0-4.11-1.11c-15.13-1-15.42,13.4-16.13,25a148.39,148.39,0,0,0,.18,21.81c.88,10.11,7.41,15.91,16.05,20.73,9.15,5.1,18.52,10.1,28.59,13.15,4.89,1.48,9.72,1.93,14.71,2.76s4.3,3,8.44,4.79c2.31,1,4.47,2.48,6.94,3.06,4.43,1,8-2,11.36-4.4a4.85,4.85,0,0,0,1.84-1.84c.72-1.39.44-2.89.23-4.38A14.17,14.17,0,0,0,207.89,553.3Z"/><path class="cls-5" d="M112.5,505.81c.22,5.59.69,11.06,1.34,16.32,1,7.83,2.28,16.33,8,21.77a34.08,34.08,0,0,0,7.62,5q19.11,10.15,38.71,19.35a74.8,74.8,0,0,0,11.41-19.56c.78-2,1.49-4.18.82-6.2-1-3-4.47-4.25-7.51-5.12L158,533.14c-1.6-.46-3.36-1-4.21-2.47a6.45,6.45,0,0,1-.64-3.17c-.46-20.61,3.17-37.83,7.95-57.72,2.11-8.77,4.23-17.87,2.48-26.72-3.74-18.89-28.61-23.81-38.09-6.29C114.72,456.75,111.53,482.3,112.5,505.81Z"/><path class="cls-4" d="M651.52,517a5.86,5.86,0,0,1,2.57-2c1.41-.64,3.1-.86,4.78-2,1.23-.8.92-3.74,3.75-2.63,1,.42,2.87,1.73,4.87,2.49,2.91,1.11,7.06,1,10.57.24,13.79-3,27.65-5.8,41.77-7.22a4.63,4.63,0,0,0,2.28-.61c1.21-.86,1.37-2.25,1.68-3.61a101.39,101.39,0,0,1,5.67-18.5c2.34-5.33,5.11-10.41,9.61-14.18s10.43-5.66,16-3.89c4.15,1.32,7.58,4.21,8.44,8.53,2.14,10.71-7.7,18.72-13.59,26.22-5.58,7.11-10.35,13.13-16.2,19.64a7.34,7.34,0,0,1-2.41,2A7.78,7.78,0,0,1,728,522c-14.15-.18-27.93-.73-41.77,2.14-3.81.79-7.28,0-10.86,1.2-2.29.78-3.48,3-5.58,4.13a18.86,18.86,0,0,1-6.94,2.35c-4.64.31-7.5-3.1-10.66-5.91-2.53-2.24-4.44-2.89-7.73-2a2.67,2.67,0,0,1-1.25.25,1.93,1.93,0,0,1-1.15-2.9c.66-1.13,1.83-1.47,3.05-1.88a14.58,14.58,0,0,1,3.9-.83,2.43,2.43,0,0,0,1.6-.41C651,517.74,651.15,517.43,651.52,517Z"/><path class="cls-45" d="M749.71,496c-8-3-16.31-4.85-24.08-8.5,2.82-6.76,11-34.27,12.37-37.56,5.35-12.57,6.38-18,13.75-24.62,15.75-14.17,34.45-4.77,33.68,15.34-.83,21.84-12.53,40.58-25.21,57.47a2.48,2.48,0,0,1-1.13.83,2.82,2.82,0,0,1-1.79-.23C754.82,497.74,752.23,496.94,749.71,496Z"/><path class="cls-4" d="M754.71,796.4c-2.78.09-5.46-.54-8.2-.79-1.41-27.13,1.15-55.57,2.26-82.84l20.92,1.12a243.36,243.36,0,0,0-10.35,44.83C759,761.13,755.11,796.38,754.71,796.4Z"/><path class="cls-7" d="M745.67,790.35c-1.72-.31-2.74.46-3.89,1.51-.66.6-1.11,1.47-1.92,1.9a6.29,6.29,0,0,1-2.54.62c-5,.5-16.62.29-10.45,8.7,5.61,7.64,20.49,4.6,29.09,2.53a3,3,0,0,0,1.58-.66,4.14,4.14,0,0,0,.87-1.71c1-3.59,2.32-8.08-2.1-9.59-1.88-.64-3.62.61-5.61-.08C749.06,793,747.39,790.65,745.67,790.35Z"/><path class="cls-7" d="M733.15,729.14l42.64-.83q17.25-82.11,30.37-165c.68-4.28,1.34-8.74.1-12.9-2.33-7.86-10.75-12.35-18.82-13.85-12.53-2.35-35.55.92-42,13.94-6.79,13.77-5.65,38.36-7.29,53.58A923.16,923.16,0,0,0,733.15,729.14Z"/><path class="cls-4" d="M836,796.4c2.78.09,5.46-.54,8.2-.79,1.41-27.13-1.15-55.57-2.26-82.84L821,713.89a243.36,243.36,0,0,1,10.35,44.83C831.7,761.13,835.61,796.38,836,796.4Z"/><path class="cls-7" d="M845.05,790.35c1.72-.31,2.74.46,3.89,1.51.66.6,1.12,1.47,1.92,1.9a6.3,6.3,0,0,0,2.55.62c5,.5,16.61.29,10.44,8.7-5.61,7.64-20.49,4.6-29.09,2.53a3,3,0,0,1-1.58-.66,4.14,4.14,0,0,1-.87-1.71c-1-3.59-2.32-8.08,2.1-9.59,1.88-.64,3.62.61,5.61-.08C841.66,793,843.33,790.65,845.05,790.35Z"/><path class="cls-7" d="M857.58,729.14l-42.65-.83q-17.25-82.11-30.37-165c-.68-4.28-1.34-8.74-.1-12.9,2.33-7.86,10.75-12.35,18.82-13.85,12.53-2.35,35.55.92,42,13.94,6.79,13.77,5.65,38.36,7.29,53.58A924.8,924.8,0,0,1,857.58,729.14Z"/><path class="cls-21" d="M821.12,429a101.61,101.61,0,0,1,25.08,39.21c9.11,25.56,9.28,52.85,9.36,79.59l.09,26.7c0,8.76-.75,10.64-10.27,9.49-17.63-2.14-36-5.78-51.94-13.61-7.61-3.73-14.71-8.44-22.68-11.38-11.6-4.27-23.49-2.34-35-5.11,5-15.06,8.54-27.88,11.1-43.4,2.63-16,5-33.39,8.88-49.15,2.32-9.46,6.62-18.29,11-27,2.94-5.85,6.06-11.83,11.06-16.06C792.89,405.54,809.77,418.15,821.12,429Z"/><path class="cls-4" d="M780,391.46c2.15,4.71,5.67,8.63,8.54,12.93s3.8,8,4.54,12.83c.54,3.51,1.79,6.25,6,6.85,8,1.13,5.68-5.45,7.49-10.24,2.07-5.47,6.48-9.79,9.56-14.68,8.91-14.11,6.37-42-12.14-48C783.77,344.67,773.47,377.19,780,391.46Z"/><path class="cls-46" d="M812.27,377.81c2.29.09,4.82.27,6.53,1.81s1.51,4.91-.73,5.28c-2,.33-4.69-1.8-5.93-.25-.73.91-.09,2.24.46,3.3a19.38,19.38,0,0,1,1.77,13.14c.84.78,2.15,0,2.88-.84a42.31,42.31,0,0,0,8.39-13.78,8.52,8.52,0,0,0,3.09,3c-.76-1.91-.28-4,.19-5.94,1.73-7.14,2.91-15.5-2.08-21.34-2.67-3.12-6.73-4.91-10.81-5.67a54.18,54.18,0,0,0-12.34-.38c-1.76.08-3.93.45-4.35,2.08,3.85,1.55,7.85,4.56,9.78,8.22C809.71,367.55,812,377.8,812.27,377.81Z"/><path class="cls-46" d="M804.11,360.65l.42.31c1.75,1.33,3.39,3,5.5,3.54,3.05.85,6.33-.62,9.33.42,3.36,1.16,5.57,5.17,8,7.55a35.5,35.5,0,0,0,14.35,8.39,35.87,35.87,0,0,0,8.41,1.5,14.61,14.61,0,0,0,4.28,0c1.69-.45,1.63-1.22-.17-1.8-5.65-1.81-7.42-9.75-7-15,.33-4.15,1.77-8.49.18-12.35-1.21-2.94-3.8-4.46-6.32-6.14-2.77-1.86-5.77-1.36-8.91-2.25-3.29-.94-6-3.52-9.31-4.18-3.53-.7-7.06.87-10.6,1.56a21.9,21.9,0,0,1-8.87-.11c-2.6-.57-5.14-1.63-7.81-1.6-3.93,0-7.55,2.49-9.84,5.68-3.25,4.52-5.35,12.25-4.21,18.2-.17-.92,2.93-4.27,3.57-5,1.35-1.51,3-2.94,5-3.18C794.84,355.61,800.37,357.93,804.11,360.65Z"/><path class="cls-47" d="M708.79,635.62l-1.08,11.83c-.35,3.84,2.15,7.2,5.58,7.52L741,657.49c3.43.31,6.49-2.55,6.84-6.39L749,639.27Z"/><path class="cls-48" d="M810.61,484.78c3.78-41.61-23.27-78.08-60.43-81.46S679.82,430.93,676,472.53a82,82,0,0,0,6.72,41.15h0c15.52,36.83,17.17,66.65,17.17,66.65l33.86,3.08,33.86,3.08s7-29,28.92-62.45h0A82.09,82.09,0,0,0,810.61,484.78Z"/><path class="cls-49" d="M699.15,580.26l-4.57,50.23a3.61,3.61,0,0,0,3,4.11l62.65,5.7a3.6,3.6,0,0,0,3.66-3.5l4.57-50.24Z"/><path class="cls-50" d="M810.69,470.56c-20.49,35.86-58.94,90.63-110.77,109.56,0,.12,0,.21,0,.21l33.86,3.08,33.86,3.08s7-29,28.92-62.45h0a82.09,82.09,0,0,0,14-39.26A85.58,85.58,0,0,0,810.69,470.56Z"/><path class="cls-51" d="M686.47,479.73c3.3-36.33,32.28-63.38,64.72-60.43,19,1.73,34.91,13.33,44.23,29.92-8.35-20.64-26.15-35.64-47.93-37.63-32.44-2.95-61.42,24.1-64.73,60.43a71,71,0,0,0,8.53,41.2A71.93,71.93,0,0,1,686.47,479.73Z"/><polygon class="cls-52" points="720.71 582.22 721.33 485.04 731.73 496.65 743.23 479.98 751.73 497.91 763.82 488.82 746.87 584.6 750.35 584.91 768.83 480.4 753.03 492.29 743.82 472.83 731.43 490.78 717.91 475.68 717.23 581.9 720.71 582.22"/><path class="cls-53" d="M717.29,572.21l-.06,9.69,3.48.32.07-12C719.63,570.92,718.47,571.57,717.29,572.21Z"/><path class="cls-53" d="M753.85,545.16l-7,39.44,3.48.31L758.11,541Q756,543.13,753.85,545.16Z"/><rect class="cls-54" x="727.58" y="565.74" width="9.32" height="69.56" transform="translate(67.83 1275.32) rotate(-84.8)"/><rect class="cls-54" x="725.77" y="585.55" width="9.32" height="69.56" transform="translate(46.46 1291.55) rotate(-84.8)"/><path class="cls-55" d="M734.19,616l31.3,2.85,1-10.54-19.31-1.76A129.53,129.53,0,0,1,734.19,616Z"/><path class="cls-55" d="M767.29,599l1.14-12.47-1.09-.1c-1.59,2.32-5.43,6.49-10.77,11.6Z"/><path class="cls-55" d="M697.55,634.6l62.65,5.7a3.6,3.6,0,0,0,3.66-3.5l.79-8.68L719.41,624a95.67,95.67,0,0,1-24.8,7.44A3.45,3.45,0,0,0,697.55,634.6Z"/><path class="cls-47" d="M747.14,606.55l19.31,1.76.84-9.28-10.72-1Q751.82,602.71,747.14,606.55Z"/><path class="cls-47" d="M719.41,624l45.24,4.11.84-9.27L734.19,616A115,115,0,0,1,719.41,624Z"/><path class="cls-56" d="M748.31,646.46c-8.58,7.71-23.78,8.9-28.79,9.07l21.52,2c3.43.31,6.49-2.55,6.84-6.39Z"/><path class="cls-4" d="M764.89,538.88a3.13,3.13,0,0,1,.36-.76c1.48-2,3.48-2.19,5.46-3.73.88-.69.63-3.56,2.84-2.79.81.29,2.71,1.26,4.44,1.89,2.53.9,6.27.53,9.19-.32A84.49,84.49,0,0,0,798.91,529c3.86-1.77,7.61-3.75,11.28-5.88,3.06-1.78,7.91-3.81,10.22-6.51,3.91-4.57-.62-15.71-1.13-21.41-.54-6,0-23.46,8-24,13.14-.81,13.35,11.68,13.94,21.74A128.78,128.78,0,0,1,841,512c-.78,8.77-6.47,13.8-14,17.95-8,4.41-16.11,8.72-24.87,11.34-4.25,1.28-8.44,1.66-12.78,2.36s-3.75,2.56-7.35,4.14c-2,.87-3.89,2.14-6,2.63-3.85.88-6.93-1.78-9.85-3.85a4.24,4.24,0,0,1-1.6-1.6,6.09,6.09,0,0,1-.19-3.8A12.12,12.12,0,0,1,764.89,538.88Z"/><path class="cls-21" d="M841,496.41l-22.3,4.33c.48-.1-8.6-33.33-9.07-35.33-1.8-7.62-3.62-15.53-2.07-23.21,3.3-16.39,11.2-20.43,21.16-3.2,9.4,16.26,24.13,35.73,21.21,54.23a2.36,2.36,0,0,1-.39,1.14,2.43,2.43,0,0,1-1.5.68Z"/></g></svg>