<?xml version="1.0" encoding="utf-8"?>
<!-- Generator: Adobe Illustrator 23.0.4, SVG Export Plug-In . SVG Version: 6.00 Build 0)  -->
<svg version="1.1" id="Capa_1" xmlns="http://www.w3.org/2000/svg" xmlns:xlink="http://www.w3.org/1999/xlink" x="0px" y="0px"
	 viewBox="0 0 1000 1000" style="enable-background:new 0 0 1000 1000;" xml:space="preserve">
<style type="text/css">
	.st0{opacity:0.8;}
	.st1{opacity:0.21;}
	.st2{fill:#299438;}
	.st3{fill:#E7D2BE;}
	.st4{fill:#D67086;}
	.st5{fill:#E9CDB0;}
	.st6{fill:#2A294A;}
	.st7{fill:#1B3251;}
	.st8{fill:#FFFFFF;}
	.st9{fill:#47519F;}
	.st10{fill:#5B2E23;}
	.st11{fill:#353B86;}
	.st12{fill:#5862AA;}
	.st13{fill:#8EA9D8;}
	.st14{opacity:0.2;fill:#DDDAE8;enable-background:new    ;}
	.st15{opacity:0.2;}
	.st16{fill:#3B3487;}
	.st17{opacity:0.49;fill:#808181;enable-background:new    ;}
	.st18{fill:#F8F7F7;}
	.st19{fill:#0F0F1B;}
	.st20{fill:#5DA8DD;}
	.st21{fill:#FBBC58;}
	.st22{fill:#BABCBE;}
	.st23{fill:#E9E8E8;}
	.st24{fill:#EED6D5;}
	.st25{opacity:0.25;fill:#3C465A;enable-background:new    ;}
	.st26{fill:#F2F2F2;}
	.st27{opacity:0.5;}
	.st28{fill:#3EA635;}
	.st29{fill:#D5A105;}
	.st30{fill:#C11728;}
	.st31{fill:#4B7735;}
	.st32{fill:#FBB809;}
	.st33{fill:#E63520;}
	.st34{fill:#F59D10;}
	.st35{fill:#0077B9;}
	.st36{fill:#941732;}
	.st37{fill:#07A7D7;}
	.st38{fill:#EB6512;}
	.st39{fill:#E20B20;}
	.st40{fill:#DE0A79;}
	.st41{fill:#203261;}
	.st42{fill:#D28D10;}
	.st43{fill:#004C85;}
	.st44{fill:#ABB5B6;}
	.st45{fill:#8D4D38;}
	.st46{fill:#B2B2B2;}
	.st47{fill:#FFF48F;}
	.st48{fill:#DDDDDD;}
	.st49{opacity:0.2;fill:#3B3487;enable-background:new    ;}
	.st50{opacity:0.5;fill:#FFFFFF;enable-background:new    ;}
	.st51{fill:#F7F8F7;}
	.st52{fill:#EEECED;}
	.st53{fill:#C5C5C4;}
	.st54{fill:#C3C3C5;}
	.st55{fill:#9E9E9E;}
</style>
<title>Imagina tu ciudá</title>
<g class="st0">
	<g class="st1">
		<path class="st2" d="M461.9,754.6c-27.1,0.1-54.2,0.8-81.3,3.9c-10.2,1.2-20.2,3.8-30.4,4.8c-20.4,2.1-40.5,6-61,7.8
			c-16.5,1.5-33.1,2.3-49.5,4.2c-15.9,1.8-32,1.3-47.8-1.5c-11.3-2.1-22.7-3.3-33.9-6.7c-12.5-3.8-26-6.5-39-6.4
			c-18.5,0.1-36.6,0.2-54.3,6.8c-6.2,2.3-13.8,6.2-18.6,11.1c-10.8,11.3-12.3,39.4-1.5,51.1c18.2,19.7,57,27.4,82.5,27.8
			c28,0.4,55.1-1.8,83.1-3c26-1.2,52-2.9,78-2.8c53.2,0.1,106.4,0,159.5-3.7c49.9-3.5,99.9-2.3,149.9-2.3
			c51.3,0,102.2,0.4,153.1,7.5c22.2,3.1,44.8,4.2,67.1,6.3c20,1.9,39.2,0,59-1.8c16.8-1.5,33.3-6,48.5-13.5
			c12-6,33.4-24.5,37.1-38.8c10.3-39.9-145.5-39-169.4-38.9c-26.8,0.1-53.7,1-80.5,0c-11.2-0.5-22.3-2.7-33.3-5.2s-22-1.9-33-2.9
			c-46.2-4.4-92.6-3.7-139-3.7C492.1,754.7,477,754.5,461.9,754.6z"/>
	</g>
	<path class="st3" d="M288.9,499.3c-0.2-0.2-0.5-0.4-0.7-0.5c-2.5-1-4.4-0.1-7-0.5c-1.2-0.1-2.5-2.9-4.1-1c-0.6,0.7-1.8,2.6-3,4.1
		c-1.8,2.2-5.4,3.9-8.5,4.7c-4.2,1.2-8.6,2-12.9,2.6c-9.3,0.9-18.7,1-28.1,0.2c0.5-15.3-7.5-29.5-20.8-37.1
		c-1.3-0.8-2.8-1.3-4.4-1.5c-1.3,0-2.6,0.4-3.8,1.1c-12.4,6.4-5.9,17.9-1,27.4c3.1,6,6.6,11.7,10.5,17.1c5.5,7.6,13.4,9.1,22.4,8.8
		c9.6-0.3,19.4-0.8,28.8-3.1c4.6-1.1,8.6-3,12.9-4.8s4.8,0.3,8.9-0.2c2.3-0.3,4.7-0.2,6.9-0.9c4-1.3,5.4-5.4,6.9-8.8
		c0.4-0.7,0.6-1.5,0.6-2.3c-0.2-1.4-0.9-2.6-1.9-3.6C290.1,500.4,289.5,499.9,288.9,499.3z"/>
	<path class="st4" d="M191.1,506.8c2.8,4.3,5.8,8.4,8.8,12.3c4.5,5.7,9.5,11.8,16.6,13.4c2.8,0.5,5.6,0.6,8.4,0.3
		c13.3-0.7,26.5-1.7,39.7-3c1-6.9,0.9-13.9-0.2-20.8c-0.3-1.9-0.8-4-2.3-5.3c-2.2-1.9-5.5-1.3-8.3-0.5l-13.7,3.7
		c-1.5,0.4-3.1,0.8-4.5,0c-0.8-0.6-1.5-1.3-2-2.2c-10.1-16.1-15.3-31.4-20.9-49.4c-2.5-7.9-5.1-16.1-10.6-22.3
		c-11.9-13.2-33.8-5.3-33.1,13C169.7,467,179.3,488.7,191.1,506.8z"/>
	<path class="st5" d="M598,697.3l0.7,41.9c-0.3,11.6,0.8,23.2,1.5,34.8c0.7,10.8-1.5,21.8,3.6,31.8c1.6,3.1,5,5.3,7.6,1.7
		c2-2.8,1.1-7.6,1.6-10.8c3.7-24.3,10.6-48,14-72.3C630.5,698.9,620.7,699.6,598,697.3z"/>
	<polygon class="st6" points="600.3,798.6 597.6,805.6 610.9,817.3 623,817.8 626.9,811.4 610.6,797.2 	"/>
	<path class="st5" d="M568.3,697.7l-7.6,41.2c-2.6,18.4-8.7,36.4-11.3,54.8c-0.6,4.2-0.3,8.9-2.1,12.9s-5.1,4.1-8.1,1.4
		c-4-3.5-2.2-9.9-2.1-14.8c0.5-32.3-2-64.2-2.7-96.6c-0.1-0.4,0.1-0.9,0.3-1.2c0.3-0.2,0.7-0.3,1-0.2
		C538.9,695.5,568.1,698.6,568.3,697.7z"/>
	<polygon class="st6" points="537,800.3 532.8,806.5 543.1,820.9 554.8,824.1 560,818.8 547.3,801.3 	"/>
	<polygon class="st7" points="641.1,724 635.4,664.1 632.6,625.2 623.4,593.4 573.4,585.7 511.5,596.3 508.6,608.3 520.5,719.5 
		580.1,724 579.3,654.8 588.5,697.6 588.1,724 	"/>
	<path class="st8" d="M524.7,476.5c-0.1,2-0.1,4-0.2,6c-0.7,41.1,1.5,82.6,1.8,124.1c21.2-3.3,42.6-5.1,64.1-5.5
		c5-0.1,27.5,3.4,30.7,0.4c4.3-4-0.4-3.3-0.1-8.5c0.4-6.8-2.9-12.3-1.6-20.4c1.4-9.5,4.3-18.8,6-28.2c3.3-19,5.3-38.1,6-57.3
		c0.6-17,0-34.7-7.4-50.1c-18.1-38-76.4-37.3-92.4,2.4C526.8,451.1,525.2,463.8,524.7,476.5z"/>
	<path class="st9" d="M590.4,423.2l-15.8,28.9l2.5,87.4l1.1,40.3c0.1,4.7,0.2,9.3,0.4,14c0.1,2.1-0.5,5.6,0.7,7.3
		c2.6,3.7,12.1,2.5,16.2,2.9c6.4,0.5,13,1,19,3.3c4,1.5,7.9,3.7,12.1,4.3c0.9,0.2,2,0.1,2.8-0.5c0.8-0.8,1.1-1.9,1.1-3
		c1.5-20,1.5-40.6,2.6-60.9c0.9-15.9,3-31.9,2.3-47.9c-0.8-16.4-3.3-32.7-6.5-48.8c-1.9-9.5-4-19.2-9.3-27.4
		c-5.9-9.2-14.3-13-24.7-15c-3.7-0.7-17.3-5.9-15,2.4C581.1,414.8,587.7,419.9,590.4,423.2z"/>
	<path class="st9" d="M556,425.9l15.8,28.9c-0.3,0-2,70.7-2.2,75.5c-0.5,18.1-1,36.3-1.5,54.5c-0.2,5,0.5,11-0.5,15.9
		c-1.4,6.9-8.7,5.6-14.9,6.1c-13.6,1.2-27.9,3.5-41.5,2.8c-3.9-0.2,1.2-82.2,1.2-89.9c0-27.5-5.7-58.1,8.3-83
		c4.1-7.3,11.2-18.9,19.2-22.5c7.4-3.3,17.9-3.9,26-5.8l0.4,5.2L556,425.9z"/>
	<path class="st10" d="M590.3,356c2.4,4.4,3.8,9.4,3.9,14.4c0.1,1.3,0.2,2.9,1.2,3.7s0.1,2.7,1,1.6s3.9-5,4-6.5
		c0.3-3.3,0.3-6.7,0-10c-0.3-2.9-0.9-5.9-2.8-8.1c-1.2-1.3-2.6-2.3-4.1-3.1c-2.1-1.4-4.4-2.5-6.8-3.1c-4.2-0.8-6.9,0.7-3.1,3.7
		C586.4,350.6,588.6,353.1,590.3,356z"/>
	<path class="st5" d="M563.8,413c0,2-0.4,4.2,1.4,5.8c0.9,0.7,2,1.1,3.2,1.3c3,0.5,6,0.3,8.9-0.6c1.2-0.3,2.3-0.9,3.2-1.7
		c0.9-0.9,1.3-2.1,1.2-3.3c0.1-1.5,0.4-3.1,0.6-4.7c0.4-3.4,0.7-6.9,0.7-10.4c5.1-0.9,11.1-2.5,12.8-7.9c0.5-1.7,0.7-3.5,0.6-5.3
		c0.1-7.4,0.1-14.8,0.2-22.2c0.2-2.6-0.1-5.1-0.8-7.6c-1.5-4.2-5.4-6.6-9.3-8.2c-9.8-4-21.1-3.8-30.2,1.8c-2.5,1.5-4.6,3.6-6,6.1
		c-2.1,4.1-1.9,9.1-1.5,13.8l0.9,13c0.4,5,1.1,10.7,5,13.3c2,1.4,4.7,1.6,6.5,3.5c3.1,3.1,1.6,7.9,2.5,11.7
		C563.8,411.9,563.8,412.5,563.8,413z"/>
	<path class="st10" d="M598.2,383.3c-0.1-1.4-0.7-5.4-2.7-2.9c-0.5,0.7-0.7,1.6-0.7,2.5c0,0.9-0.1,1.8-0.3,2.6
		c-0.6,1.9-2.7,2.8-4.6,2.7c-0.8,0-1.5-0.2-2.2-0.5c-0.6-0.4-1.2-0.9-1.6-1.5l-3.6-4.1c-2.1-2.4-6.2-1.4-9-1c-3.3,0.3-6.4,1.5-9,3.5
		l-0.8,0.7c-0.6,0.6-1.3,1.1-2,1.5c-2.5,1.2-5.5-0.1-7.3-2.3c-0.8-1-1.5-2.4-2.8-2.5c-1,0-2,0.5-2.4,1.5c-0.4,0.9-0.7,2-0.7,3
		c-0.3,3.8,0.3,7.7,1.9,11.1c3.6,7.3,10.5,8.2,17.5,8.1l8.3-0.2c5-0.1,10.4-0.3,14.6-3.2c3.7-2.6,6-7,6.9-11.6
		C598.2,388.1,598.4,385.7,598.2,383.3z M579.8,393.7c-2.5,1.7-5.7,2-8.5,1c-1.2-0.4-0.7-2.5,0.5-2.1c2.3,0.9,4.9,0.6,7-0.8
		C579.9,391,580.9,392.9,579.8,393.7L579.8,393.7z"/>
	<path class="st10" d="M599.3,343.2c0.5-1.8,0.8-3.6,1.1-5.5c-1.7,0.6-3.6,0.8-5.3,0.5V335c0-0.9-12-1.5-12.9-1.6
		c-9.1-0.8-17.4-1.5-25.6,3.4c-7,4.2-11.5,10.4-12.6,18.5c-1,7.7,1.5,17.9,6,24.3c0-2.1-1.2-6.9-0.7-8.9c0.3-2,1-3.9,1.9-5.6
		c1.9-3.5,4.7-6.4,8.1-8.5c5.4-3.2,11.5-5.3,17.7-6c5.7-0.8,12.6-1.5,18.2,0c2.7,0.7,3.1,1.4,4.8-1.3c0.3-0.5,2.6-6.1,2.3-6.1
		L599.3,343.2z"/>
	<path class="st5" d="M635.7,450.8c-2.6-0.2-5.2-1.1-7.3-2.7c-8.8-5.8-12.5-16.4-17.4-25.3c-2.9-5.3-5.7-13.2-10.1-17.3
		c-0.8-0.8-10.4-5.3-10.3-5.6l0.5-2.6l2.6,0.5l1.5-1l-7-3.6l4.6-7.7l10.4-0.3c3,5.8,4.6,12.5,9,17.4c1.8,2.1,4,3.9,6,5.8
		c3.5,3.3,6.4,7.1,9.6,10.7c4,4.6,10.1,8.4,12.5,14.2c1.3,3.2,3.5,10.5,2,13.8C640.9,449.6,638.3,451,635.7,450.8z"/>
	<path class="st9" d="M643.3,438.9c1.3-0.1,2.4,0.9,2.5,2.2c0,0.2,0,0.3,0,0.5c0.7,8.2-0.6,16.5-2,24.6
		c-1.9,11.3-4.3,23.4-12.2,31.7c-4.6,4.8-12,8-17.8,4.8c-5.1-2.7-7-9.1-7.8-14.8c-2.3-17.1,0.5-34.5,8.2-49.9c0.4-1.1,1.1-2,2-2.8
		c2.3-1.6,9.4,0.9,12.1,1.4L643.3,438.9z"/>
	<path class="st5" d="M512.7,403.7c3.4-2.8,4.7-7.5,3.1-11.6l-8.4-22.8c-1.6-4.3-4.6-9.3-4.6-13.8c-0.1-7.9,2.7-16.8,4.3-24.4
		c0.8-3.9,1.1-9.4,3.2-12.8c0.4-0.6,5.6-5.3,5.5-5.5l-0.8-1.6l-1.5,0.8l-1.2-0.4l3.7-3.6l-4.3-4l-6.6,1.8c-0.8,4.2-0.6,8.7-2.4,12.7
		c-0.8,1.7-1.8,3.2-2.7,4.8c-1.6,2.7-2.7,5.7-4,8.6s-3.1,5.3-4.3,8.1c-2.7,6.1-5.3,12.3-8,18.5l12.3,40.1c1.7,5.6,7.7,8.7,13.3,7
		C510.4,405.2,511.6,404.6,512.7,403.7z"/>
	<path class="st9" d="M541.9,407.5c-5-2.1-9.5-5.1-13.5-8.7c-1.8-1.6-9.8-16.9-8.3-17.3l-0.4,0.1l-1.1,0.4h-0.1
		c-2.4-0.2-6.7,2.1-9,2.9c-7.6,2.4-15.1,5.2-22.9,6.5c0.1,6.8,1.2,13.6,3.2,20.1c1.7,6,4.7,10.9,7,16.5c2.5,5.8,5.3,11.3,8.5,16.7
		c0.8,1.3,8.3,16.9,7.9,17c4.4-0.8,7.8-4.2,10.4-7.8c6.3-8.3,9.3-19.6,17.2-26.3c6.2-5.3,14.2-5.8,13.4-16.4
		C550,410.5,545.9,409.3,541.9,407.5z"/>
	<path class="st5" d="M411.4,380.1c-0.1,1.3-0.4,2.6-1,3.7c-1.5,3.9-2,8.2-1.4,12.3c4,0,8.1,0.6,11.9,1.9c0.8-3,1.7-6,2.5-9.1
		c0.1-0.5,0.3-0.9,0.6-1.3c0.4-0.5,1-0.8,1.6-1c3.2-1.3,6.3-3.1,8.9-5.4c0.6-0.5,1.1-1.1,1.4-1.7c0.2-0.6,0.3-1.3,0.3-2
		c0-5.5,0-10.9,0-16.4c0.1-0.6-0.1-1.2-0.4-1.8c-0.4-0.5-1-0.8-1.6-1l-2.8-1c-0.3-0.1-0.5-0.2-0.8-0.3c-1.3-0.6-2.9-0.6-4.2,0
		c-0.4,0.1-4.4,1-4.5,0.7c0.5,5.9-1.1,11.7-4.5,16.5c-0.2,0.6-0.8,0.9-1.4,0.6c-0.3-0.1-0.5-0.3-0.6-0.5c-1.3-1.4-2.3-3-3.1-4.7
		l-4.5,1.1c-0.4,2.5,0.4,5,2.1,6.9c0.2,0.2,0.3,0.3,0.5,0.5C411,378.5,411.4,379.3,411.4,380.1z"/>
	<polygon class="st11" points="426.5,388.3 407.7,385.2 388.5,437.8 343.2,430 353,490.5 410.7,455.9 	"/>
	<path class="st3" d="M277.3,791.6c-2.9,0.2-5.5-0.8-8.3-1.1c0.1-9.7,1.2-19.4,3.3-28.9c4.3,4.8,7.9,2,7.8,11
		C280.1,775.5,276.8,787.2,277.3,791.6z"/>
	<path class="st6" d="M268.4,785.6c-3.2-1.2-4,6.6-4,8.4c0.1,1.1,0,2.2-0.2,3.3c-0.4,1.1-1,2.2-1.8,3.1l-4.7,5.9
		c-0.8,0.9-1.4,1.8-1.8,2.9c-0.8,2.8,0.5,5.8,3.1,7.1c8.7,4.4,16.7-6.3,18.6-13.3c0.3-1.1,0.5-2.2,0.7-3.3c0.4-2.3,2.2-7.2,1.3-9.5
		c-1.1-2.6-4.2-0.7-6.3-1.7S269.8,786.1,268.4,785.6z"/>
	<path class="st12" d="M330.5,630.1c-8.1,22.2-17.5,43.9-22.9,67.1c-6.6,28.7-17.3,56.6-22.8,85.4c-3.5,0.1-7.1,0-10.6-0.5
		c-4-0.5-10.4-1.6-11.9-6c-0.8-2.2,0-5.9,0.2-8.2c0.4-7.5,0.9-15,1.4-22.5c1.6-21.2,2.6-42.6,6.5-63.4c4.1-21.9,8-44,11.6-65.9
		c1.9-11.3,4.1-22.6,7-33.7c0.7-2.9,8.3-32.5,9.8-32.2c17.5,2.7,34.3,8.7,49.5,17.8c1.5,0.9,2.9,1.9,3.5,3.5c0.4,1.5,0.2,3-0.4,4.4
		c-4.6,13.6-10.7,26.4-15.6,40C334,620.6,332.3,625.3,330.5,630.1z"/>
	<path class="st3" d="M332,790c2.7,1,5.5,0.8,8.2,1.4c2.8-9.3,4.6-18.9,5.4-28.5c-5.5,3.3-8.2-0.5-10.7,8.2
		C334.2,773.8,333.9,785.9,332,790z"/>
	<path class="st6" d="M343,788.5c0,5.3,4.2,11,6.5,15.8c0.9,1.4,0.7,3.2-0.5,4.3c-0.7,1.1-1.6,2-2.8,2.6c-1.2,0.4-2.5,0.4-3.7,0
		c-2.1-0.5-4.1-1-6.1-1.6c-0.5-0.1-1-0.4-1.4-0.7c-0.5-0.4-0.8-0.9-1.1-1.5c-1.4-2.9-2.6-4.9-2.6-8.1s0.5-6.7-0.1-10
		c-0.3-1.6-0.7-3.6,0.7-4.5c1-0.7,3,0.2,4.1,0.4c2,0.3,3.9,0.2,5.8,1.3c0.4,0.2,0.7,0.5,1,0.8C342.9,787.7,343,788.1,343,788.5z"/>
	<path class="st12" d="M329.3,620c1.2,23.6,3.7,47.1,1.9,70.8c-2.2,29.3-0.3,59.2-3.6,88.3c3.3,1.2,6.8,2.1,10.3,2.7
		c4,0.8,10.4,1.6,13.1-2.2c1.4-1.9,1.7-5.7,2.3-7.9c1.9-7.3,3.6-14.6,5.3-21.9c4.8-20.7,10.1-41.4,12.6-62.5
		c2.6-22.2,5.4-44.3,8.5-66.4c1.6-11.4,2.8-22.8,3.4-34.3c0.2-3,1.7-33.4,0.2-33.7c-17.5-2.6-35.3-1.8-52.5,2.2
		c-1.7,0.4-3.4,1-4.3,2.3s-0.9,2.8-0.9,4.3c0.3,14.4,2.4,28.4,3,42.8C328.8,609.8,329,614.9,329.3,620z"/>
	<path class="st11" d="M319.4,430.7c-0.3,0.1-0.6,0.2-0.9,0.3c-4.7,1.8-8.8,5-12.7,8.2c-5.9,4.8-8.9,6.9-11.1,14
		c-2,6.7-3.6,13.5-4.8,20.4c-6.7,35-8,69.8-12.8,105.1c-1.3,9.6-2.3,20.9,4.8,27.5c12.6-9.8,28.4-10.4,43.7-10.4
		c10.7,0,21.2-3.5,32-2.3c10.3,1.2,19.2-1.4,29.7-0.7c2.5,0.2,5.7,0.1,6.7-2.2c-3.6-10.8-3.5-22.5-4.4-33.8
		c-2.1-29.4-11.9-57.6-15.8-86.8c-1.3-9.9-2-26.4-9.7-33.9c-8.4-8.2-27.4-8.3-38.2-6.7C323.6,429.5,321.5,430,319.4,430.7z"/>
	<path class="st5" d="M327.3,430.2c0.2,0.4,0.4,0.7,0.7,1c1.3,1.2,2.9,2,4.7,2.2c2.3,0.2,4.6,0.1,6.8-0.5c3-0.6,2.9-2.4,3.4-5.1
		c0.2-1.5,0.4-3,0.5-4.5c0.1-0.8-0.3-3.8,0.3-4.4c0.4-0.4,1.8-0.3,2.5-0.6c1-0.6,1.9-1.4,2.5-2.5c0.9-1.6,1.6-3.2,2.1-5
		c0.9-3,1.9-6.1,2.8-9.1c1.1-3.1,1.8-6.2,2.2-9.5c0.5-4.9-0.3-11.7-4-15.3c-3.4-3.2-8.2-4.4-12.7-5c-6-0.8-12,0.4-17.2,3.5
		c-2.2,1.2-4,3-5.3,5.2c-1.9,3.5-1.7,7.9-1.5,12l0.6,11.3c0.2,4.3,0.8,9.3,4,11.7c1.7,1.2,4,1.5,5.5,3.1c1.8,2,1.7,5,1.8,7.5
		C326.7,427.6,326.9,428.9,327.3,430.2z"/>
	<path class="st6" d="M346.1,381.5c0.2,0.3,0.4,0.7,0.5,1.1c0.7,2,0.2,4.2,0.9,6.2c1.1,3.2,4.8,5.1,5.3,8.4c0.5,2.7-1.4,5.3-1.5,8
		c-0.2,3,1.7,5.8,1.5,8.8c-0.5,3-1.7,5.8-3.4,8.2c0.5-0.6,4.8-0.4,5.9-1.1c1.7-1,1.9-1.7,2.4-3.5s0.1-3.5,0.9-5.3
		c1-2.2,3-3.8,3.6-6.2c0.9-3.2-0.8-6.6-0.6-10c0.2-5.1,4.6-9.9,3-14.7c-0.9-2.8-3.7-4.6-5.2-7.2c-1.2-1.9-1.6-4.2-2.4-6.3
		s-2.2-4.2-4.4-4.9c-1.2-0.2-2.5-0.4-3.7-0.4c-2.1-0.4-3.9-1.9-6-2.6c-3-1-8.2,2-9.9,4.5s-0.9,4.6,0.9,6.8
		C336.7,375,343.7,377.4,346.1,381.5z"/>
	<path class="st6" d="M306.4,366.5c-1.8,1.3-4,2.2-5.6,3.8c-3.1,3-3.7,7.7-3.9,12c-0.1,3.8-1.8,7.3-1.4,11.3c0.2,2.7,1.5,5.3,3.6,7
		c2.7,2,7,2.3,8.2,5.4c1.3,3.4-2.2,7.7-0.1,10.7c1.2,1.6,3.5,1.9,5.2,3c1.9,1.2,2.9,3.4,4,5.4s2.9,3.9,5.1,3.9
		c0.1-3.4,0.2-6.1-1.3-9.3c-0.9-1.8-3.4-5.2-1.4-7.2c1.2-1.6,4.1-2.2,4.2-4.2c-0.1-1-0.5-1.9-1.2-2.6c-2-3.2-2.3-7.2-0.9-10.7
		c1.5-3.4,4.2-6.2,7.6-7.8c3.9-1.9,3.3-2.9,4.4-6.6c1-3.5,3-4.3,6.1-5.5c2.8-1.1,3.7-1.8,4.7-4.4c0.8-1.9,1.7-4.2,0.6-6.3
		c-1-1.6-2.3-3-3.9-4.1c-3.2-2.4-6.7-5-10.7-4.7c-2.2,0.2-4.3,1.2-6.5,1.3c-1.5,0.1-2.9-0.2-4.4-0.3c-2.6-0.1-5.1,0.7-7.2,2.2
		c-2,1.5-2,3.1-3.1,5.2C308.1,365,307.4,365.9,306.4,366.5z"/>
	<path class="st6" d="M315.3,352.4c0.4-2.4,0.1-5.5-2.1-6.3c-1.2-0.4-2.6,0-4-0.2c-2.8-0.6-3.7-3.9-5.1-6.3
		c-0.2-0.4-0.5-0.7-0.9-0.9c-0.6-0.2-1.2-0.2-1.8,0c-2.8,0.3-4.8-2.4-7.4-3.4c-3.4-1.1-7.1,0.7-8.2,4.1c-0.4,1.4-0.3,2.8-0.7,4.2
		c-1.5,5.5-9.6,7.9-9.8,13.6c-0.1,3.9,3.6,7.5,2.2,11.1c-0.9,2.3-3.9,3.8-3.5,6.3c0.4,1.6,1.8,2.7,3.5,2.6c1.6-0.1,3.1-0.8,4.2-1.9
		c1.9-1.7,3.3-3.8,5.1-5.5s4.2-3.2,6.7-2.9s4.6,2.2,7,1.8c1.9-0.3,3.4-2,5.2-2.5s3.6,0.2,5.4,0.4s4.1-0.8,4.1-2.7
		c-0.1-0.4-0.1-0.9,0-1.3c0.4-1.2,2.4-1.1,2.8-2.3c-1-1.5-2.3-0.9-3-2.9C314.6,355.8,315,353.9,315.3,352.4z"/>
	<rect x="305.1" y="462" class="st13" width="375.4" height="260.6"/>
	<path class="st14" d="M403.5,470.3h-89.6v79.6C313.9,506,354,470.3,403.5,470.3z"/>
	<g class="st15">
		<path class="st16" d="M469.2,722.7h211.3V589.2C680.5,589.2,661,722.7,469.2,722.7z"/>
	</g>
	<path class="st17" d="M642,280.5c0-0.1,0-0.2,0-0.3l0.2,0.1C642,280.4,642,280.4,642,280.5z"/>
	<polygon class="st6" points="117.9,806.4 117.3,814.8 133.6,824.5 142.6,816.6 134.8,807.6 118.5,797.9 	"/>
	<polygon class="st6" points="109.5,549.5 107.7,575.2 134,688.8 117.2,803.6 133.7,808.1 182.5,670.7 184.1,629.1 174.4,543.4 	"/>
	<polygon class="st6" points="215.5,564.7 226,672.3 217.5,812.8 201.9,814.1 181.1,686.9 148.9,560.6 	"/>
	<polygon class="st6" points="201.9,812.3 202.6,820.7 220.2,827.7 227.9,818.6 218.7,810.8 	"/>
	<path class="st4" d="M94.5,563c-1.2,9.8-2.3,23,1.4,23.9c0.7,0.1,1.4,0,2.1-0.4c6.9-2.9,12-7.4,18.8-10.2c7.1-2.9,15-4,22.7-4.6
		c11.5-0.9,23.2-0.9,34.7,0c9.1,0.8,18.1,2.5,27,4.2c7.4,1.4,14.2,4.3,21.9,4.6c7.9,0.3,15.8-1.3,22.9-4.7c0.5-0.1,0.9-0.7,0.8-1.2
		c0-0.1-0.1-0.2-0.1-0.3c-1.1-4.5-1.8-9-4.4-12.9c-2.8-4.4-4.6-9.8-6.4-14.6c-4-10.2-7.3-20.6-9.8-31.3
		c-3.7-14.4-8.2-28.6-11.7-43.1c-2.4-10-4.6-20.2-8.3-29.9c-3-7.6-8.4-18.7-16-22.7c-2.6-1.4-5.5-1.8-8.4-2.1l-26.1-3.5
		c-3.2-0.4-6.5-0.8-9.5,0.2c-4.5,1.5-7.5,5.8-10.1,9.9c-11.6,18.1-19.9,38-25.5,58.8c-2.9,10.9-5.8,21.8-8.2,32.8
		c-2.7,12.3-5,24.6-6.5,37.1C95.7,554.5,95.1,558.3,94.5,563z"/>
	<path class="st18" d="M163.6,463.8c-0.2,5-1.4,9.8-2.6,14.7c-7.4,29.4-14.8,58.8-22.1,88.2l70.2,6.7c0.3-11.3,0.6-22.5,0.9-33.8
		c0.4-7.2,0.2-14.5-0.4-21.7c-1.3-11.6-5-22.8-8.8-33.9l-20.9-61.4c-0.3-1.1-0.8-2.2-1.6-3.1c-1.1-0.9-2.4-1.6-3.7-1.8
		c-6.6-1.9-14-3.6-20.8-3.3c-2.3,6,2.8,17.2,4.5,23.2C160.8,446.1,163.9,454.8,163.6,463.8z"/>
	<path class="st5" d="M172.3,421.7l-14.5-2.1c0.1-3.9,0.6-7.8,1.4-11.6c-0.1,0.5-7.4-4.4-8-5.4c-1.7-2.9-1.5-7.4-2-10.7
		c-1.1-7-1.9-14.8,2.3-20.4c4.4-5.8,12.6-7.1,19.9-6.6c9.1,0.7,19,4.4,22.9,12.7c3.5,7.5-2.9,17.3-5.2,24.6
		c-1.1,3.6-2.7,7.7-6.3,8.9c-1.9,0.6-4.1,0.3-5.8,1.3C173.8,414.2,174,418.6,172.3,421.7z"/>
	<path class="st19" d="M209.9,365.7c1.1-5,2.1-9.9,3.2-14.9c0.5-1.8,0.7-3.7,0.4-5.6c-0.7-3.1-3.5-5.2-6.4-6.3s-6.1-1.5-9.1-2.5
		c-3.2-1-6.2-2.8-9.5-3c-6.4-0.4-11.8,5-18.2,5.3c-8.8,0.5-16.4-4.3-22.6,5.3c-1.1,1.8-1.6,3.9-2.7,5.8c-1.4,2.4-3.6,4.1-5.3,6.2
		c-7.9,9.1-7.2,24.2,0.2,33.4c3.6,4.5,4.9,8.3,10.3,10.1c-2-5.4,3.5-25.6,10.7-27.2c1.9-0.4,7.2,2.4,9.2,2.9c4.5,1,8.8,2.5,12.8,4.5
		c6.1,3.4,12.6,5.7,19.5,7c1.3,0.6,2.8,0.1,3.4-1.2c0.2-0.4,0.3-0.8,0.2-1.2C207.3,378.1,208.6,371.9,209.9,365.7z"/>
	<path class="st20" d="M463.6,258.2c-3.4-22.9,12.2-44.3,35.1-48c-0.1-0.7-0.3-1.4-0.4-2.2c-4.2-28,15.1-54.1,43.1-58.3
		c14.7-2.2,29.5,2.1,40.8,11.7c14.1-22,43.5-28.4,65.5-14.3c10.7,6.9,18.2,17.8,20.8,30.3c1-0.2,2.1-0.4,3.2-0.6
		c23.1-3.5,44.6,12.4,48.1,35.5c2.7,18.1-6.5,35.9-22.9,44.1c11.9,19.2,5.9,44.4-13.3,56.3c-4.7,2.9-9.9,4.8-15.4,5.6
		c-1.7,0.3-3.4,0.4-5.1,0.4l6.4,43.2c0.2,1.9-2,3-2.9,2.1l-33.2-34.3c-16.8,15.1-42.6,13.7-57.7-3.1c-0.5-0.6-1.1-1.2-1.6-1.9
		c-19.2,16.4-48,14.1-64.4-5c-5.6-6.5-9.2-14.5-10.5-23c-0.2-1.1-0.3-2.2-0.4-3.2C480.6,290.8,466.3,276.4,463.6,258.2z"/>
	<path class="st8" d="M543.9,250.7c6.2-0.9,7.6,8.7,1.4,9.6S537.8,251.6,543.9,250.7z"/>
	<path class="st8" d="M587.1,244.2c6.2-0.9,7.6,8.7,1.4,9.6S580.9,245.2,587.1,244.2z"/>
	<path class="st8" d="M641.1,236.2c6.2-0.9,7.6,8.7,1.4,9.6S634.9,237.1,641.1,236.2z"/>
	<path class="st8" d="M649.1,514.4L633.3,527c2.7,4.1,5.3,8.3,7.9,12.5c1.3,2.1-2.2,3.8-3.4,1.7c-2.4-4-4.9-7.9-7.4-11.8l-15.4,12.3
		c-1.9,1.5-4.4-1.4-2.5-2.9l15.8-12.6c-3.1-4.7-6.3-9.3-9.6-13.8c-1.4-2,1.4-4.5,2.9-2.5c3.3,4.6,6.5,9.2,9.7,13.9l15.4-12.3
		C648.6,510,651,512.9,649.1,514.4z"/>
	<path class="st8" d="M630.2,569.8c-1.2-7-3-13.9-5.5-20.6c-0.6-1.5-2.4-1.2-3.3-0.2c-5,5.8-9.1,12.4-12.3,19.4
		c-0.8,1.8,1.7,3.2,3,2.1c1.8-1.4,3.4-3,5-4.6c-8.8,28.1-17.2,62.6-48.9,69.1c-28.3,5.8-44.3-25.8-56.6-46
		c-10.5-17.3-21.7-36-39.4-46.8c-18.8-11.6-42-10.8-61.1-0.3c-19.3,10.5-34.7,29.9-34.3,52.6c-12-0.7-22.4,8.1-24.6,20.1
		c-1.9,10.2,3.3,26.6,15.1,26.1c-0.2,0.8,0.3,1.7,1.2,1.9c0,0,0,0,0,0c13.4,3.5,26.1-5,28.7-18.6c2.5-12.3-4-26-16.7-29
		c-1.3-30.8,30.4-56.8,59.6-57.5c48.2-1.2,63.3,53.5,88.7,84.1c7.6,9.1,17.3,16.8,29.5,17.8c11.4,1,22.3-3.7,31.1-10.9
		c21.2-17.4,25.6-45.7,34.2-70.4c1.2,4.1,2.2,8.3,2.9,12.5C626.9,573,630.6,572.3,630.2,569.8z M377.7,598.3
		c0.3,0.1,0.5,0.2,0.8,0.1c0.4,0.1,0.8,0.1,1.2,0.2c23.4,5.3,15.4,44.3-7.9,40.6c1-1.3,0.2-3.7-1.7-3.1c-13.9,4.2-16.4-16.7-13-25.4
		C360.3,602.5,368.8,597.3,377.7,598.3z"/>
	<path class="st4" d="M358.2,625.6c-0.2-1.2-0.3-2.4-0.3-3.6c-0.3-13.9,6.9-23.1,21.1-19.8c7.3,1.7,11.6,11,11.6,17.9
		c0,4.6-1.4,9.8-5.4,12.2c-6.4,4-21.5,4.5-25.7-3.1C358.9,628.1,358.4,626.8,358.2,625.6z"/>
	
		<rect x="405.6" y="294.7" transform="matrix(0.8171 -0.5764 0.5764 0.8171 -144.6465 307.1161)" class="st21" width="12.3" height="173.8"/>
	
		<rect x="425.7" y="280.5" transform="matrix(0.8171 -0.5764 0.5764 0.8171 -132.8061 316.102)" class="st21" width="12.3" height="173.7"/>
	
		<rect x="415.7" y="287.6" transform="matrix(0.8171 -0.5764 0.5764 0.8171 -138.7201 311.6128)" class="st8" width="12.3" height="173.8"/>
	
		<rect x="352.3" y="300.5" transform="matrix(0.8171 -0.5764 0.5764 0.8171 -106.3559 268.9654)" class="st22" width="36.9" height="3.3"/>
	
		<rect x="350.4" y="297.8" transform="matrix(0.8171 -0.5764 0.5764 0.8171 -105.1455 267.3666)" class="st18" width="36.9" height="3.3"/>
	
		<rect x="348.5" y="295" transform="matrix(0.8171 -0.5764 0.5764 0.8171 -103.9322 265.7658)" class="st22" width="36.9" height="3.3"/>
	<path class="st23" d="M366.9,264.7l12.2,17.3l0,0L349,303.3l0,0L336.8,286c-4.8-6.9-3.2-16.3,3.7-21.2l5.3-3.7
		C352.6,256.2,362.1,257.8,366.9,264.7z"/>
	
		<rect x="346.6" y="292.3" transform="matrix(0.8171 -0.5764 0.5764 0.8171 -102.7209 264.1784)" class="st18" width="36.9" height="3.3"/>
	<polygon class="st24" points="487,434.8 456.9,456.1 498.1,482.6 	"/>
	<polygon class="st6" points="495.5,471.4 488.5,476.4 498.1,482.6 	"/>
	<path class="st25" d="M174.9,672.3c0,0,167.6,7.1,169.7,5.8s0.9-169.5-5.7-175.9C338.9,502.2,185.1,661.8,174.9,672.3z"/>
	<path class="st26" d="M338.7,672.3h-172c4.6-30.2,6.8-60.8,6.5-91.4c-0.3-27.3-0.1-50.9-4.1-77.1c57.3,0,112.3-3.6,169.7-3.6
		c2.4,24,4.1,50.2,4.3,78.4C343.4,609.9,341.9,641.2,338.7,672.3z"/>
	<g class="st27">
		<path class="st28" d="M222.5,567.5c1.7-2.9,3.7-5.5,6.1-7.8l-20-21.9c-5.1,4.8-9.3,10.4-12.7,16.5L222.5,567.5z"/>
		<path class="st29" d="M271.6,552c3,1.4,5.8,3.1,8.4,5.3l20.1-21.9c-5.3-4.6-11.3-8.3-17.8-11.1L271.6,552z"/>
		<path class="st30" d="M317.5,558.6l-26.6,13.3c1.3,3,2.2,6.2,2.7,9.4l29.6-2.8C322.3,571.6,320.4,564.9,317.5,558.6"/>
		<path class="st2" d="M289,568l26.6-13.2c-3.3-6.1-7.5-11.7-12.4-16.5l-20.1,21.9C285.4,562.5,287.4,565.2,289,568"/>
		<path class="st31" d="M217.2,586.9c0-0.6,0-1.2,0.1-1.8l-29.6-2.7c-0.1,1.5-0.1,3-0.1,4.4c0,5.5,0.7,11.1,2,16.5l28.6-8.2
			C217.5,592.5,217.2,589.7,217.2,586.9"/>
		<path class="st32" d="M285.3,611.2c-2.1,2.6-4.5,4.8-7.2,6.8l15.6,25.3c5.8-3.9,11-8.7,15.3-14.2L285.3,611.2z"/>
		<path class="st33" d="M294,586.9c0,2.7-0.3,5.5-0.9,8.2l28.6,8.2c1.3-5.4,2-10.9,2-16.4c0-1.4,0-2.8-0.1-4.2l-29.6,2.8
			C294,586,294,586.5,294,586.9"/>
		<path class="st34" d="M226.4,611.8l-23.6,18c4.4,5.4,9.6,10.1,15.4,14l15.6-25.3C231.1,616.6,228.6,614.4,226.4,611.8"/>
		<path class="st35" d="M217.7,580.9c0.5-3.3,1.5-6.5,2.8-9.5L194,558.1c-3,6.4-5,13.1-5.9,20.1L217.7,580.9z"/>
		<path class="st36" d="M290.1,645.6l-15.6-25.3c-2.9,1.6-5.9,2.9-9.1,3.7l5.5,29.2C277.6,651.7,284.1,649.1,290.1,645.6"/>
		<path class="st37" d="M292,599.2c-1,3-2.4,5.9-4.1,8.5l23.7,17.9c3.9-5.6,6.9-11.7,9-18.2L292,599.2z"/>
		<path class="st38" d="M261.2,624.9c-3.3,0.5-6.7,0.5-10,0.1l-5.5,29.2c7,1,14.1,1,21-0.2L261.2,624.9z"/>
		<path class="st39" d="M258.1,548.6c3.2,0.2,6.4,0.8,9.5,1.8l10.7-27.7c-6.5-2.3-13.3-3.6-20.2-3.8V548.6z"/>
		<path class="st40" d="M246.9,624.3c-3.3-0.8-6.5-2-9.4-3.6L221.9,646c6.1,3.5,12.7,6,19.6,7.5L246.9,624.3z"/>
		<path class="st41" d="M244.1,550.3c3.1-1,6.4-1.6,9.7-1.7v-29.7c-7,0.2-13.9,1.4-20.4,3.7L244.1,550.3z"/>
		<path class="st42" d="M223.8,608.4c-1.9-2.8-3.4-5.9-4.5-9.1l-28.6,8.2c2.1,6.7,5.3,13.1,9.4,18.8L223.8,608.4z"/>
		<path class="st43" d="M231.8,556.8c2.5-2,5.3-3.7,8.2-5l-10.7-27.7c-6.3,2.7-12.3,6.3-17.5,10.7L231.8,556.8z"/>
	</g>
	<path class="st3" d="M207.9,553.3c-0.1-0.3-0.2-0.6-0.4-0.9c-1.7-2.3-4-2.5-6.3-4.3c-1-0.8-0.7-4.1-3.3-3.2
		c-0.9,0.3-3.1,1.4-5.1,2.2c-2.9,1-7.2,0.6-10.6-0.4c-4.6-1.3-9.1-2.9-13.5-4.8c-9.2-4.3-18-9.5-26.3-15.5c8.9-14,9.4-31.8,1.2-46.2
		c-0.8-1.5-1.9-2.8-3.3-3.8c-1.3-0.7-2.7-1.1-4.1-1.1c-15.1-1-15.4,13.4-16.1,25c-0.5,7.3-0.4,14.6,0.2,21.8
		c0.9,10.1,7.4,15.9,16,20.7c9.1,5.1,18.5,10.1,28.6,13.2c4.9,1.5,9.7,1.9,14.7,2.8s4.3,3,8.4,4.8c2.3,1,4.5,2.5,6.9,3.1
		c4.4,1,8-2,11.4-4.4c0.8-0.4,1.4-1.1,1.8-1.8c0.7-1.4,0.4-2.9,0.2-4.4C208.4,555,208.2,554.2,207.9,553.3z"/>
	<path class="st4" d="M112.5,505.8c0.2,5.6,0.7,11.1,1.3,16.3c1,7.8,2.3,16.3,8,21.8c2.3,2,4.9,3.7,7.6,5
		c12.7,6.8,25.6,13.2,38.7,19.3c4.8-5.9,8.6-12.5,11.4-19.6c0.8-2,1.5-4.2,0.8-6.2c-1-3-4.5-4.2-7.5-5.1l-14.9-4.2
		c-1.6-0.5-3.4-1-4.2-2.5c-0.5-1-0.7-2.1-0.6-3.2c-0.5-20.6,3.2-37.8,7.9-57.7c2.1-8.8,4.2-17.9,2.5-26.7
		c-3.7-18.9-28.6-23.8-38.1-6.3C114.7,456.8,111.6,482.3,112.5,505.8z"/>
	<path class="st3" d="M651.5,517c0.7-0.9,1.5-1.6,2.6-2c1.4-0.6,3.1-0.9,4.8-2c1.2-0.8,0.9-3.7,3.8-2.6c1,0.4,2.9,1.7,4.9,2.5
		c2.9,1.1,7.1,1,10.6,0.2c13.8-3,27.7-5.8,41.8-7.2c0.8,0,1.6-0.2,2.3-0.6c1.2-0.9,1.4-2.2,1.7-3.6c1.3-6.3,3.2-12.5,5.7-18.5
		c2.3-5.3,5.1-10.4,9.6-14.2s10.4-5.7,16-3.9c4.2,1.3,7.6,4.2,8.4,8.5c2.1,10.7-7.7,18.7-13.6,26.2c-5.6,7.1-10.3,13.1-16.2,19.6
		c-0.7,0.8-1.5,1.5-2.4,2c-1.1,0.4-2.2,0.6-3.3,0.5c-14.2-0.2-27.9-0.7-41.8,2.1c-3.8,0.8-7.3,0-10.9,1.2c-2.3,0.8-3.5,3-5.6,4.1
		c-2.1,1.2-4.5,2-6.9,2.3c-4.6,0.3-7.5-3.1-10.7-5.9c-2.5-2.2-4.4-2.9-7.7-2c-0.4,0.2-0.8,0.3-1.2,0.2c-1-0.3-1.7-1.3-1.4-2.4
		c0.1-0.2,0.1-0.4,0.2-0.5c0.7-1.1,1.8-1.5,3-1.9c1.3-0.5,2.6-0.7,3.9-0.8c0.6,0.1,1.1-0.1,1.6-0.4C651,517.7,651.2,517.4,651.5,517
		z"/>
	<path class="st44" d="M749.7,496c-8-3-16.3-4.9-24.1-8.5c2.8-6.8,11-34.3,12.4-37.6c5.3-12.6,6.4-18,13.8-24.6
		c15.8-14.2,34.5-4.8,33.7,15.3c-0.8,21.8-12.5,40.6-25.2,57.5c-0.3,0.4-0.7,0.7-1.1,0.8c-0.6,0.1-1.2,0-1.8-0.2
		C754.8,497.7,752.3,496.9,749.7,496z"/>
	<path class="st3" d="M754.7,796.4c-2.8,0.1-5.5-0.5-8.2-0.8c-1.4-27.1,1.2-55.6,2.3-82.8l20.9,1.1c-4.9,14.6-8.3,29.6-10.3,44.8
		C759,761.1,755.1,796.4,754.7,796.4z"/>
	<path class="st6" d="M745.7,790.4c-1.7-0.3-2.7,0.5-3.9,1.5c-0.7,0.6-1.1,1.5-1.9,1.9c-0.8,0.4-1.7,0.6-2.5,0.6
		c-5,0.5-16.6,0.3-10.5,8.7c5.6,7.6,20.5,4.6,29.1,2.5c0.6-0.1,1.1-0.3,1.6-0.7c0.4-0.5,0.7-1.1,0.9-1.7c1-3.6,2.3-8.1-2.1-9.6
		c-1.9-0.6-3.6,0.6-5.6-0.1C749.1,793,747.4,790.7,745.7,790.4z"/>
	<path class="st6" d="M733.2,729.1l42.6-0.8c11.5-54.7,21.6-109.7,30.4-165c0.7-4.3,1.3-8.7,0.1-12.9c-2.3-7.9-10.8-12.3-18.8-13.8
		c-12.5-2.3-35.5,0.9-42,13.9c-6.8,13.8-5.7,38.4-7.3,53.6C733.7,645.6,732,687.4,733.2,729.1z"/>
	<path class="st3" d="M836,796.4c2.8,0.1,5.5-0.5,8.2-0.8c1.4-27.1-1.2-55.6-2.3-82.8l-20.9,1.1c4.9,14.6,8.3,29.6,10.3,44.8
		C831.7,761.1,835.6,796.4,836,796.4z"/>
	<path class="st6" d="M845.1,790.4c1.7-0.3,2.7,0.5,3.9,1.5c0.7,0.6,1.1,1.5,1.9,1.9c0.8,0.4,1.7,0.6,2.5,0.6
		c5,0.5,16.6,0.3,10.4,8.7c-5.6,7.6-20.5,4.6-29.1,2.5c-0.6-0.1-1.1-0.3-1.6-0.7c-0.4-0.5-0.7-1.1-0.9-1.7c-1-3.6-2.3-8.1,2.1-9.6
		c1.9-0.6,3.6,0.6,5.6-0.1C841.7,793,843.4,790.7,845.1,790.4z"/>
	<path class="st6" d="M857.6,729.1l-42.7-0.8c-11.5-54.7-21.6-109.7-30.4-165c-0.7-4.3-1.3-8.7-0.1-12.9
		c2.3-7.9,10.8-12.3,18.8-13.8c12.5-2.3,35.5,0.9,42,13.9c6.8,13.8,5.7,38.4,7.3,53.6C857.1,645.6,858.8,687.4,857.6,729.1z"/>
	<path class="st20" d="M821.1,429c11.3,11,19.9,24.4,25.1,39.2c9.1,25.6,9.3,52.9,9.4,79.6l0.1,26.7c0,8.8-0.8,10.6-10.3,9.5
		c-17.6-2.1-36-5.8-51.9-13.6c-7.6-3.7-14.7-8.4-22.7-11.4c-11.6-4.3-23.5-2.3-35-5.1c5-15.1,8.5-27.9,11.1-43.4
		c2.6-16,5-33.4,8.9-49.1c2.3-9.5,6.6-18.3,11-27c2.9-5.9,6.1-11.8,11.1-16.1C792.9,405.5,809.8,418.2,821.1,429z"/>
	<path class="st3" d="M780,391.5c2.2,4.7,5.7,8.6,8.5,12.9s3.8,8,4.5,12.8c0.5,3.5,1.8,6.2,6,6.9c8,1.1,5.7-5.5,7.5-10.2
		c2.1-5.5,6.5-9.8,9.6-14.7c8.9-14.1,6.4-42-12.1-48C783.8,344.7,773.5,377.2,780,391.5z"/>
	<path class="st45" d="M812.3,377.8c2.3,0.1,4.8,0.3,6.5,1.8s1.5,4.9-0.7,5.3c-2,0.3-4.7-1.8-5.9-0.2c-0.7,0.9-0.1,2.2,0.5,3.3
		c2.1,4,2.7,8.7,1.8,13.1c0.8,0.8,2.2,0,2.9-0.8c3.7-4,6.5-8.7,8.4-13.8c0.8,1.2,1.8,2.3,3.1,3c-0.8-1.9-0.3-4,0.2-5.9
		c1.7-7.1,2.9-15.5-2.1-21.3c-2.7-3.1-6.7-4.9-10.8-5.7c-4.1-0.6-8.2-0.7-12.3-0.4c-1.8,0.1-3.9,0.5-4.3,2.1
		c3.8,1.5,7.8,4.6,9.8,8.2C809.7,367.6,812,377.8,812.3,377.8z"/>
	<path class="st45" d="M804.1,360.7l0.4,0.3c1.8,1.3,3.4,3,5.5,3.5c3,0.9,6.3-0.6,9.3,0.4c3.4,1.2,5.6,5.2,8,7.5
		c4.1,3.9,9,6.8,14.3,8.4c2.7,0.8,5.6,1.3,8.4,1.5c1.4,0.2,2.9,0.2,4.3,0c1.7-0.5,1.6-1.2-0.2-1.8c-5.7-1.8-7.4-9.8-7-15
		c0.3-4.1,1.8-8.5,0.2-12.4c-1.2-2.9-3.8-4.5-6.3-6.1c-2.8-1.9-5.8-1.4-8.9-2.2c-3.3-0.9-6-3.5-9.3-4.2c-3.5-0.7-7.1,0.9-10.6,1.6
		c-2.9,0.6-6,0.5-8.9-0.1c-2.6-0.6-5.1-1.6-7.8-1.6c-3.9,0-7.5,2.5-9.8,5.7c-3.2,4.5-5.3,12.2-4.2,18.2c-0.2-0.9,2.9-4.3,3.6-5
		c1.3-1.5,3-2.9,5-3.2C794.9,355.6,800.4,357.9,804.1,360.7z"/>
	<path class="st46" d="M708.8,635.6l-1.1,11.8c-0.3,3.8,2.2,7.2,5.6,7.5l27.7,2.5c3.4,0.3,6.5-2.5,6.8-6.4l1.2-11.8L708.8,635.6z"/>
	<path class="st47" d="M810.6,484.8c3.8-41.6-23.3-78.1-60.4-81.5s-70.4,27.6-74.2,69.2c-1.3,14.1,1,28.2,6.7,41.1l0,0
		c15.5,36.8,17.2,66.7,17.2,66.7l33.9,3.1l33.9,3.1c0,0,7-29,28.9-62.5l0,0C804.5,512.4,809.4,498.9,810.6,484.8z"/>
	<path class="st48" d="M699.2,580.3l-4.6,50.2c-0.3,2,1,3.8,3,4.1l62.7,5.7c2,0,3.6-1.5,3.7-3.5l4.6-50.2L699.2,580.3z"/>
	<path class="st49" d="M810.7,470.6c-20.5,35.9-58.9,90.6-110.8,109.6c0,0.1,0,0.2,0,0.2l33.9,3.1l33.9,3.1c0,0,7-29,28.9-62.5l0,0
		c8-11.7,12.8-25.2,14-39.3C811,480.1,811.1,475.3,810.7,470.6z"/>
	<path class="st50" d="M686.5,479.7c3.3-36.3,32.3-63.4,64.7-60.4c19,1.7,34.9,13.3,44.2,29.9c-8.3-20.6-26.2-35.6-47.9-37.6
		c-32.4-3-61.4,24.1-64.7,60.4c-1.4,14.3,1.6,28.6,8.5,41.2C687.1,502.6,685.4,491.1,686.5,479.7z"/>
	<polygon class="st51" points="720.7,582.2 721.4,485 731.8,496.7 743.3,480 751.8,497.9 763.8,488.8 746.9,584.6 750.4,584.9 
		768.9,480.4 753.1,492.3 743.8,472.8 731.5,490.8 717.9,475.7 717.3,581.9 	"/>
	<path class="st52" d="M717.3,572.2l-0.1,9.7l3.5,0.3l0.1-12C719.7,570.9,718.5,571.6,717.3,572.2z"/>
	<path class="st52" d="M753.9,545.2l-7,39.4l3.5,0.3l7.8-43.9C756.7,542.4,755.3,543.8,753.9,545.2z"/>
	
		<rect x="727.6" y="565.7" transform="matrix(9.063253e-02 -0.9959 0.9959 9.063253e-02 67.8429 1275.3478)" class="st53" width="9.3" height="69.6"/>
	
		<rect x="725.8" y="585.6" transform="matrix(9.063253e-02 -0.9959 0.9959 9.063253e-02 46.4545 1291.5807)" class="st53" width="9.3" height="69.6"/>
	<path class="st54" d="M734.2,616l31.3,2.8l1-10.5l-19.3-1.8C743.1,610,738.7,613.1,734.2,616z"/>
	<path class="st54" d="M767.3,599l1.1-12.5l-1.1-0.1c-1.6,2.3-5.4,6.5-10.8,11.6L767.3,599z"/>
	<path class="st54" d="M697.6,634.6l62.7,5.7c2,0,3.6-1.5,3.7-3.5l0.8-8.7l-45.2-4.1c-7.9,3.6-16.2,6.1-24.8,7.4
		C694.7,633.1,696,634.4,697.6,634.6z"/>
	<path class="st46" d="M747.2,606.6l19.3,1.8l0.8-9.3l-10.7-1C753.4,601.2,750.3,604,747.2,606.6z"/>
	<path class="st46" d="M719.4,624l45.2,4.1l0.8-9.3l-31.3-2.8C729.5,619,724.5,621.7,719.4,624z"/>
	<path class="st55" d="M748.3,646.5c-8.6,7.7-23.8,8.9-28.8,9.1l21.5,2c3.4,0.3,6.5-2.5,6.8-6.4L748.3,646.5z"/>
	<path class="st3" d="M764.9,538.9c0.1-0.3,0.2-0.5,0.4-0.8c1.5-2,3.5-2.2,5.5-3.7c0.9-0.7,0.6-3.6,2.8-2.8c0.8,0.3,2.7,1.3,4.4,1.9
		c2.5,0.9,6.3,0.5,9.2-0.3c4-1.1,7.9-2.5,11.7-4.2c3.9-1.8,7.6-3.8,11.3-5.9c3.1-1.8,7.9-3.8,10.2-6.5c3.9-4.6-0.6-15.7-1.1-21.4
		c-0.5-6,0-23.5,8-24c13.1-0.8,13.3,11.7,13.9,21.7c0.4,6.4,0.3,12.7-0.2,19.1c-0.8,8.8-6.5,13.8-14,18c-8,4.4-16.1,8.7-24.9,11.3
		c-4.2,1.3-8.4,1.7-12.8,2.4s-3.8,2.6-7.3,4.1c-2,0.9-3.9,2.1-6,2.6c-3.8,0.9-6.9-1.8-9.8-3.8c-0.7-0.4-1.2-0.9-1.6-1.6
		c-0.5-1.2-0.5-2.5-0.2-3.8C764.5,540.4,764.7,539.6,764.9,538.9z"/>
	<path class="st20" d="M841,496.4l-22.3,4.3c0.5-0.1-8.6-33.3-9.1-35.3c-1.8-7.6-3.6-15.5-2.1-23.2c3.3-16.4,11.2-20.4,21.2-3.2
		c9.4,16.3,24.1,35.7,21.2,54.2c0,0.4-0.2,0.8-0.4,1.1c-0.4,0.4-0.9,0.6-1.5,0.7L841,496.4z"/>
</g>
</svg>
