<svg id="Capa_1" data-name="Capa 1" xmlns="http://www.w3.org/2000/svg" viewBox="0 0 1000 1000"><defs><style>.cls-1{fill:#8d4d38;}.cls-1,.cls-10,.cls-12,.cls-13,.cls-14,.cls-15,.cls-16,.cls-17,.cls-18,.cls-2,.cls-6,.cls-7,.cls-8,.cls-9{opacity:0.8;}.cls-17,.cls-3{fill:#eebac2;}.cls-4,.cls-6{fill:#f7b091;}.cls-5,.cls-9{fill:#fff;}.cls-7{fill:#c5a79b;}.cls-8{fill:#e99b8f;}.cls-10{fill:#d67086;}.cls-11,.cls-18{fill:#add9f4;}.cls-12{fill:#5da8dd;}.cls-13{fill:#8ea9d8;}.cls-14{fill:#cbc3bb;}.cls-15{fill:#576db1;}.cls-16{fill:#667fa3;}.cls-19{fill:#ddecf8;}</style></defs><title>Land1</title><path class="cls-1" d="M830.45,357.83c2.7,9,3.69,18.87,4.88,27.95,4,1.81,7.9,7.32,11.56,10.27,5.57,4.48,13,7.68,17.78,13,6.5,7.25,4.18,14.24.67,22.47-3.94,9.23-11.64,18.28-7.5,28.8,2.84,7.22,9.35,12.11,6.57,20.92-3.9,12.33-22.73,11.73-33,12.18-6.52.28-12-.62-17.48-4.65-4.41-3.26-6.37-8.95-11.88-10.81-9-3.06-22.89,6.13-29.55-.54-9.54-9.58-10.78-33.06-11.19-45.64-.23-7,1.74-13.14,3.65-19.77,3.13-10.82-.54-17.14-3.56-27.42-2.25-7.6-.17-13.62.34-21.11.4-5.89-.14-10.54,2.31-16.29,4.37-10.31,14-19.94,25.89-19.77,7.31.1,16.3,1.36,22.7,5.33C822.39,338.76,827.46,347.82,830.45,357.83Z"/><g class="cls-2"><path class="cls-3" d="M695.38,370.3c-1.21.5-10.15,9.12-6.64,12.81A435.56,435.56,0,0,0,724,416.3c15.32,13.18,36.81,22.4,43.12,11.93,5.57-9.24-19.86-23.81-39.7-36.35-4.22-2.66-8.4-7.54-21.69-16.82C705.73,375.06,698.87,369.73,695.38,370.3Z"/></g><g class="cls-2"><path class="cls-4" d="M688.4,383.59c3,.63,12,1.1,14.28-2.8,1.89-3.27,1-4.91,1-4.91a346.75,346.75,0,0,0-21.87-50.33c-7.25-13.3-10.2.85-10.2.85C675,343,676.87,358.84,688.4,383.59Z"/></g><g class="cls-2"><path class="cls-5" d="M713.84,377.1c8.17,6.19,28,19.8,31.39,21.95,19.85,12.54,27.69,20.93,22.12,30.17-6.31,10.46-29.9,0-46.47-11.53-14.42-10.05-22-19.8-34.78-33.07C691.84,379.9,705.44,375.87,713.84,377.1Z"/></g><path class="cls-6" d="M768.63,693.81s8.3,21.22-8.81,89.53c-1.38,5.47-5.64,5.13-7.92,3.36a4.72,4.72,0,0,1-1.53-3.41s-8.07-77.83-6-87.43S768.63,693.81,768.63,693.81Z"/><path class="cls-6" d="M743.07,673.37c.56,5.19-.82,24.31,2.3,28.38,4.61,6,14.84,6.94,20.33,2.11,3.46-3,3.12-12,4.86-16.05s13.63-78.07,14.58-94.38c1.11-19.17.68-14.23.94-33.44.11-7.59.16-15.18.19-22.78,0-4.52,1.25-11.19-4.5-12.32-6.85-1.36-8.33-13.15-14.28-9.72-7.46,4.3-11.4,19.18-14.23,26.54-8.48,22-10.38,45.51-10.48,68.91-.07,16.56-1.19,33.16-.38,49.71C742.61,664.45,742.59,669,743.07,673.37Z"/><path class="cls-7" d="M727.24,790.35c2.7-.39,3.53,0,6.24-.46a27.75,27.75,0,0,0,7.72-2.58,52.79,52.79,0,0,0,7.92-5.25,7.4,7.4,0,0,1,.79-.54c3.66,1.69,5.75,1.58,9.66-.08a1.41,1.41,0,0,0,.75-.65,1.52,1.52,0,0,1,.31.31,6,6,0,0,1,.89,2.88c.27,1.82,1.12,9.34.75,11.12-.52,2.53-14.25,5.53-18.75,5.81-6.06.38-10.69.63-16.68-.34S722.66,791,727.24,790.35Z"/><path class="cls-6" d="M791.43,382c-.58-7.59-22.85,6.53-22.85,6.53l2.39,29s.23-1.17,11.18-.91c6.67.16,10.83,2.26,10.49-4C792.44,408.78,791.63,384.64,791.43,382Z"/><path class="cls-8" d="M791.77,389.34c-3.16,10.18-12.2,17.52-21.67,16.76l-1.52-17.56s22.27-14.12,22.85-6.53c.06.81-.08-1.57.25,1.76C791.55,383.93,791.84,389.1,791.77,389.34Z"/><path class="cls-6" d="M767.43,391.64c6,5.49,18.58,4.87,24.42-.4a21,21,0,0,0,6.68-11.32c1.17-5,1.08-9.85,2.21-14.92a32.34,32.34,0,0,0,1-6.63,18.61,18.61,0,0,0-3-10.27c-2-3-5.24-4.69-8.12-6.73-2.44-1.73-5.17-3.84-8.14-4.56-2-.49-3.51.66-5.29,1.61-9.66,5.19-15.17,18-16.1,28.56C760.34,374.82,761.25,386,767.43,391.64Z"/><path class="cls-6" d="M838.58,674c.63,5.17,4.86,22.84,2.76,27.51-3.12,6.92-12.55,8.1-19,4.65-4.05-2.16-1.82,1-4.43-2.51S784,621.38,779.38,605.71c-5.46-18.41-3.92-13.7-8.56-32.34q-2.75-11.05-5.37-22.13c-1.05-4.4-3.78-10.61,1.57-13,6.35-2.88,5.1-14.71,11.68-12.72,8.25,2.49,15.48,16.07,19.91,22.59,13.28,19.5,20.49,41.94,25.93,64.7,3.84,16.11,8.72,32,11.71,48.32C837,665.15,838,669.54,838.58,674Z"/><path class="cls-6" d="M760.23,528.23c-1.72-34.29-8.39-84.73-4.06-89.61,7.6-8.59-3-13.61,2.48-20.49,8.24-10.29,34.75-12.49,45,2.4,3.49,5.05-.62,19,.2,22.74,1.83,8.38,2.52,50.13,4.58,83.76Z"/><path class="cls-9" d="M760.29,412.49c.8-.29,9.11-1.52,9.87-1.26.44.14.06,9.63.87,13.67,1,5,1.84,8.35,3.1,13.14,5.59-8.37,7.81-15.58,13.83-23.65,4.19-5.63,10.65-5.21,14.19-.53,3.06,4.06,3.22,9.07,5.07,13.63,2.28,5.6,1.62,9.54,1.25,15.73-.8,13.24-.6,26.51-.54,39.77.06,14.43-1.23,30,1.16,44.3l-48.86.94c-1.45-1.27-1.07-10.07-1.26-11.89q-1.28-12.25-2.65-24.52c-1.89-16.76-5.06-33.53-5.38-50.4-.15-8,1.1-17.19,5.87-23.84C758.43,415.32,757.21,413.57,760.29,412.49Z"/><path class="cls-1" d="M795.81,328.59a30.35,30.35,0,0,0-4.42,2.19c-3.54,1.78-7,3.87-9.27,7.24a41.66,41.66,0,0,0-3.65,7.32,13.22,13.22,0,0,0,1.38,13.06A20.77,20.77,0,0,0,788.1,365c1.69.81,3.79,1.95,4.9,3.53.8,1.14.5,2.68,1.26,3.73,2.63,3.62,4.29-1.87,5.15-3.53-.45.87,0,.24,1.22-1.9,2.76-4.67,4-8.79,8.28-12.29,3.75-3.06,6.9-9.77,5.45-14.65-1.64-5.52-9.72-9.52-14.73-11.09A6.26,6.26,0,0,0,795.81,328.59Z"/><path class="cls-1" d="M764.55,349.5c2.85-5.63,6.38-11.6,11.37-15.62,3.54-2.85,8.62-5.84,13.17-6.35,2.49-.28,6.22-.63,8.47.41,1.17,6.75-6.9,13.3-11.15,17.81-2.87,3.05-6.24,3-9.62,4.76-2.59,1.33-4.71,3.34-7.06,5-2.52,1.78-5.16,2.8-7.27,5.16C760.41,358.85,763.58,351.43,764.55,349.5Z"/><path class="cls-10" d="M740,586.67c.09-23.4,16.41-70.23,18.84-75.6l49.1-1.53c1.94,4.69,21.06,36.84,23.75,77.13,1.1,16.52,7.39,79.23,6.9,83.63,0,.47-99.32,1.53-99.32,1.53C738.81,667.61,739.89,603.23,740,586.67Z"/><path class="cls-6" d="M680.22,319.87c.94,3.32,1.47,6.09.38,9.51l-.26.12c-.17-.33-.35-.65-.53-1,0,0,.21,1.09-.2-.38-.05-.1-.1-.2-.16-.3a3.09,3.09,0,0,1-2,2.91c-4.33,1.5-7.49-3.18-9.23-6.41-2.1-3.89-5.49-10.07-2.51-14.32,1.2-1.72,4.08-4.5,6.42-3.73,1.57.51,4.32,4.81,5.34,6.24A16.5,16.5,0,0,1,680.22,319.87Z"/><g class="cls-2"><path class="cls-3" d="M267,442.32c-11.55-29.68-18.32-30.48-27.73-43.53-13.76-19.12-42.16-34.5-45.2-19.59-1.5,7.31,52.83,62.85,61.44,73.89C259.64,451.27,262.41,445.31,267,442.32Z"/></g><g class="cls-2"><path class="cls-4" d="M304,415.3c-15,4.18-33.84,9.06-52.46,17.45-2.59,5.23,0,2.05-1.13,5.83-1.34,4.52,3,17.29,5.64,19.09,24.49-8.22,40-22.42,53.46-31Z"/></g><g class="cls-2"><path class="cls-11" d="M252,457.63c-7.17-9.13-36.59-45.59-39.64-48.84-17.77-18.93-26.1-26.81-19.21-38.08,7.81-12.77,29.66,6.85,44.5,23.93,9.79,11.28,14.46,17.47,28,40.87C267.91,443.37,260.12,460.33,252,457.63Z"/></g><path class="cls-6" d="M313.54,409.48c-3.2,3.46-6.18,7.18-5.5,8.53l.13.27,1.07-.43s-.9.73.42-.17l.33-.13a3.24,3.24,0,0,0-.35,3.69c2.5,4.18,8.71.73,11.88-.66a38.46,38.46,0,0,0,7.23-4.42c2.66-1.94,4.89-8.22,2-10.85s-5.2,2.8-7.57.63c-1.31-1.2.92-6.4-3-3.26C319.49,403.45,316.42,406.36,313.54,409.48Z"/><g class="cls-2"><path class="cls-5" d="M304.16,430.3c1.83-1.28,3.62-2.49,5.37-3.61L304,415.3c-2.07.58-4.23,1.2-6.44,1.87Z"/></g><path class="cls-7" d="M234.75,762.07c-2.83-.41-3.71,0-6.54-.49a28.35,28.35,0,0,1-8.06-2.69,56,56,0,0,1-8.3-5.49,7.12,7.12,0,0,0-.82-.57c-3.82,1.77-6,1.65-10.1-.08a1.46,1.46,0,0,1-.79-.68,2.51,2.51,0,0,0-.32.33,6.33,6.33,0,0,0-.93,3c-.28,1.9-1.17,9.77-.78,11.63.54,2.64,14.9,5.78,19.61,6.07,6.34.4,11.18.66,17.44-.35C241.26,771.77,239.53,762.77,234.75,762.07Z"/><path class="cls-12" d="M379.84,579.43a23.25,23.25,0,1,1,15.68-43.77c5.85,2.09,7.34,3.28,2.81.89l29.41-82.07-59.57-21.35a26.28,26.28,0,0,0,1.1-2.54,23.25,23.25,0,0,0-43.78-15.69,24.3,24.3,0,0,0-.76,2.67l-44.56-16A155.54,155.54,0,0,0,314,529.07l-23.46,65.47,77.1,27.63,15-41.94A22.72,22.72,0,0,1,379.84,579.43Z"/><path class="cls-13" d="M517.59,379.05v87.5a22.14,22.14,0,0,0-3-.21,23.25,23.25,0,1,0,0,46.5,22.14,22.14,0,0,0,3-.21v44.55h72V489.36A155.6,155.6,0,0,0,667.5,379.05Z"/><rect class="cls-14" x="425.88" y="552.54" width="176.57" height="95.07" rx="18.11"/><path class="cls-7" d="M444,647.61h28.95a620,620,0,0,1,60.92-27h-108v8.93A18.11,18.11,0,0,0,444,647.61Z"/><path class="cls-7" d="M478.7,582.77c20.71-3.84,41.59-7,62-12.48,12.06-3.22,23.94-6.95,35.69-11.1H430a18,18,0,0,0-4.09,11.46v18.22h20.56Q462.55,585.75,478.7,582.77Z"/><path class="cls-7" d="M427.74,589.88a25.53,25.53,0,0,0-1.36,8.25v21.93h20.56q16.11-3.75,32.26-7.35c20.71-4.61,41.6-8.48,62-15,7.4-2.37,14.72-5,22-7.82Z"/><path class="cls-15" d="M622.32,558.63c0,3.64-2,6.6-4.52,6.6H410.53c-2.5,0-4.53-3-4.53-6.6h0c0-3.65,2-6.61,4.53-6.61H617.8c2.5,0,4.52,3,4.52,6.61Z"/><path class="cls-7" d="M622.32,558.63c0,3.64-2,6.6-4.52,6.6H410.53c-2.5,0-4.53-3-4.53-6.6h0c0-3.65,2-6.61,4.53-6.61H617.8c2.5,0,4.52,3,4.52,6.61Z"/><path class="cls-7" d="M622.32,589.56c0,3.65-2,6.61-4.52,6.61H410.53c-2.5,0-4.53-3-4.53-6.61h0c0-3.64,2-6.6,4.53-6.6H617.8c2.5,0,4.52,3,4.52,6.6Z"/><path class="cls-7" d="M622.32,620.5c0,3.65-2,6.61-4.52,6.61H410.53c-2.5,0-4.53-3-4.53-6.61h0c0-3.64,2-6.6,4.53-6.6H617.8c2.5,0,4.52,3,4.52,6.6Z"/><path class="cls-14" d="M622.26,557.68c-.32-3.19-2.18-5.66-4.46-5.66h-86Z"/><path class="cls-14" d="M622.24,588.37c-.38-3.08-2.23-5.41-4.44-5.41h-86Z"/><path class="cls-14" d="M622.26,619.56c-.32-3.2-2.18-5.66-4.46-5.66h-86Z"/><path class="cls-10" d="M669.61,353.44A155.44,155.44,0,0,0,515.93,198V271.7a23.25,23.25,0,1,1,0,28.71v78.64h67.4a23.25,23.25,0,1,0,34.59,0H667.5A156.65,156.65,0,0,0,669.61,353.44Z"/><path class="cls-16" d="M534.2,262.81a23.18,23.18,0,0,0-18.27,8.89V198l-1.77,0A155.53,155.53,0,0,0,360.83,379.05h47.33a24.92,24.92,0,0,1-.18-2.76,23.25,23.25,0,1,1,46.5,0,22.71,22.71,0,0,1-.18,2.76h61.63V300.41a23.24,23.24,0,1,0,18.27-37.6Z"/><path class="cls-6" d="M270.17,442.93c-4.52,3.81-8.8,8-8.18,9.88l.13.37,1.39-.33s-1.23.76.55-.13l.42-.1a4.27,4.27,0,0,0-1,4.69c2.46,5.9,10.7,2.71,14.87,1.57a45.45,45.45,0,0,0,9.68-4.22c3.6-2,7.36-9.61,4.23-13.58s-6.9,2.55-9.5-.74c-1.44-1.82,2.14-8.06-3.2-4.81C278.51,436.37,274.24,439.49,270.17,442.93Z"/><g class="cls-2"><path class="cls-4" d="M266.66,446.45c-16.31,2.32-36.78,4.87-57.58,10.93-3.57,4.91-.34,2.05-2.15,5.69-2.14,4.35.25,17.64,2.68,19.76,26.89-5.17,45.47-17.43,60.89-24.32Z"/></g><g class="cls-2"><path class="cls-4" d="M804.86,376.64c-1.83,3.38-8.51,6.6-8.88,3.11a19.67,19.67,0,0,1,2.15-9.88c1.82-3.38,1.36-4,4.45-2.36S806.68,373.26,804.86,376.64Z"/></g><path class="cls-6" d="M840,691.28s13.35,18.48,13.87,88.9c0,5.64-4.17,6.37-6.81,5.23a4.76,4.76,0,0,1-2.35-2.92s-27.28-73.33-27.72-83.14S840,691.28,840,691.28Z"/><g class="cls-2"><path class="cls-3" d="M849.74,490.34c1.3-.14,12.31-5.89,10-10.42a431.77,431.77,0,0,0-24.48-41.78c-11-17-29-31.87-38-23.61-8,7.29,12.33,28.44,27.83,46.06,3.3,3.75,5.94,9.62,16.08,22.26C841.15,482.85,846.23,489.91,849.74,490.34Z"/></g><g class="cls-2"><path class="cls-4" d="M860,482.2c-2.06-2.24-9.17-7.86-13.26-6-3.43,1.57-3.65,3.43-3.64,3.42a346,346,0,0,0-11.33,53.71c-1.8,15,8.8,5.22,8.8,5.22C847.35,523.09,855,509.06,860,482.2Z"/></g><path class="cls-6" d="M829.51,542.66c.44-3.42,1.06-6.17,3.42-8.88h.29l.09,1.09s.24-1.08,0,.43l0,.34a3.05,3.05,0,0,1,3-1.87c4.25.32,4.75,6.63,4.6,9.79-.18,4-1.56,8-2,12.08-.43,3.89-.29,9.4-2.06,12.91-5,.75-5.47-11.15-4.85-21.32.29-3.53-1.55,4.16-2.83,4.34C827.6,552.19,829,544.93,829.51,542.66Z"/><g class="cls-2"><path class="cls-5" d="M834,478.61c-6.1-8.24-21.27-26.89-23.94-29.91-15.5-17.63-20.66-27.89-12.71-35.18,9-8.26,28.69,8.4,41.34,24.16,11,13.71,15.48,25.19,24,41.53C855.85,482.13,841.66,482.15,834,478.61Z"/></g><path class="cls-7" d="M820.75,791.12c2.7-.4,3.54,0,6.25-.47a27.35,27.35,0,0,0,7.71-2.57,52.94,52.94,0,0,0,7.93-5.26,6.41,6.41,0,0,1,.79-.53c3.65,1.69,5.75,1.57,9.66-.08a1.48,1.48,0,0,0,.75-.65,2.27,2.27,0,0,1,.31.31,5.93,5.93,0,0,1,.88,2.88c.28,1.81,1.13,9.34.76,11.12-.52,2.52-14.25,5.53-18.75,5.81-6.07.37-10.69.63-16.68-.34S816.18,791.79,820.75,791.12Z"/><path class="cls-1" d="M176.92,288.3c-4.81-.8-9.46.43-13.75,2.59a26.69,26.69,0,0,1-5.55,2.25c-7.28,1.95-8.92,12.83-8.35,19.1.31,3.45,1.71,6.86,2.68,10.15,2.54,8.65,9.6,17.43,19.45,17A23.38,23.38,0,0,0,188,330.73C197.71,318.42,195.13,291.33,176.92,288.3Z"/><path class="cls-17" d="M191.46,661.11s-8.69,22.19,9.22,93.63c1.43,5.72,5.89,5.36,8.27,3.52a5,5,0,0,0,1.61-3.57s8.43-81.39,6.31-91.44S191.46,661.11,191.46,661.11Z"/><path class="cls-12" d="M214.49,496.8H173c0,.18,0,.37,0,.54q0,11.91.19,23.83c.28,20.08-.17,14.92,1,35,1,17.06,13.45,94.57,15.24,98.7s.95,11.82,4.56,15c5.75,5,17,7.71,21.81,1.41,3.26-4.25,1.79-26.08,2.38-31.5.5-4.61.48-9.33.69-13.64.85-17.31-.32-34.67-.39-52C218.39,549.84,218.32,526.41,214.49,496.8Z"/><g class="cls-2"><path class="cls-4" d="M158.67,328.07c1.68,3.65,8.45,7.44,9.06,3.83a20.54,20.54,0,0,0-1.6-10.45c-1.67-3.65-1.15-4.29-4.47-2.76S157,324.42,158.67,328.07Z"/></g><path class="cls-6" d="M167.61,335c.61-7.94,23.89,6.82,23.89,6.82L189,372.17s-.24-1.22-11.69-.95c-7,.17-11.32,2.36-11-4.16C166.56,363,167.4,337.79,167.61,335Z"/><path class="cls-8" d="M167.26,342.7c3.3,10.65,12.76,18.32,22.66,17.53l1.58-18.37S168.22,327.1,167.61,335c-.06.84.09-1.64-.26,1.83C167.49,337,167.19,342.45,167.26,342.7Z"/><path class="cls-6" d="M196.73,346.2c-6.63,5.33-19.7,3.86-25.45-2a22.08,22.08,0,0,1-6.23-12.26c-.89-5.33-.47-10.36-1.32-15.71a33.49,33.49,0,0,1-.56-7A19.42,19.42,0,0,1,167,298.69c2.24-3,5.77-4.55,8.91-6.49,2.67-1.64,5.65-3.67,8.79-4.21,2.17-.38,3.63.91,5.43,2,9.73,6.06,14.64,19.83,14.91,30.88C205.25,329.11,203.56,340.71,196.73,346.2Z"/><path class="cls-1" d="M168.05,318.69c3.36,2.57,6.26,6.08,9.9,8.26,4.81,2.89,8.9,3.19,13.64,0A17.46,17.46,0,0,1,205,324.09c-.28,7.81-2.32,17.3-8.3,22.11-6.63,5.33-19.7,3.86-25.45-2a22.08,22.08,0,0,1-6.23-12.26c-.88-5.32-.47-10.34-1.32-15.69A16.29,16.29,0,0,1,168.05,318.69Z"/><path class="cls-17" d="M161.52,658.7s8.68,22.2-9.22,93.64c-1.43,5.71-5.89,5.35-8.27,3.51a5,5,0,0,1-1.61-3.57s-4.3-82.86-2.18-92.9S161.52,658.7,161.52,658.7Z"/><path class="cls-12" d="M139.84,496.8a19.83,19.83,0,0,0-1.74,5.35c-3.56,27.09-3.51,45.08-3.61,69.55-.07,17.32,1.83,70.92,2.89,91,.41,7.92,18,13.54,23.78,8.49,3.61-3.17,6.15-5.89,8-10.08s8.28-96.32,9.27-113.38c1.17-20,1.11-8.94,1.38-29q.15-11,.19-22Z"/><path class="cls-17" d="M200.24,488c1.8-35.86,8.77-88.61,4.25-93.71-8-9,3.32-2.23-2.44-9.42-8.61-10.76-35.38-22-46.14-6.42-3.65,5.28-.47,16.74-1.33,20.7-1.91,8.76-2.63,52.42-4.79,87.59Z"/><path class="cls-18" d="M206.44,368.06c-2-.7-14.88-3.44-17.22-3.87-2.73,2.47-6.06-1.1-10.12-1.27-4.23-.17-9.19,3-12,.79a3.28,3.28,0,0,1-.42-.41c-2.08.12,3.42.29,1.27.48-5.62.64-22.78,8.83-26.39,11.05-14.77,9.11-9.46,21.92-9.15,27.13.83,13.85,2.15,123.38-.36,138.33h89.85c1.52-1.32-2.14-122.5-3.21-140.11C217.25,376.65,218,372.1,206.44,368.06Z"/><path class="cls-7" d="M176,763c-2.83-.41-3.71,0-6.54-.48a29,29,0,0,1-8.06-2.69,55.45,55.45,0,0,1-8.29-5.5,6.72,6.72,0,0,0-.83-.56c-3.82,1.76-6,1.65-10.1-.09a1.49,1.49,0,0,1-.79-.67,2.42,2.42,0,0,0-.32.32,6.36,6.36,0,0,0-.92,3c-.29,1.89-1.18,9.76-.79,11.63.54,2.63,14.9,5.78,19.61,6.07,6.34.39,11.18.66,17.44-.36C182.54,772.65,180.81,763.65,176,763Z"/><path class="cls-12" d="M212.62,754.75c2.3-23.78,5.81-84.1,4.25-91.5-2.12-10-25.41-2.14-25.41-2.14s-10.4,22.24,8.06,93.1Z"/><path class="cls-12" d="M154.33,754.88c14.82-64,15.5-100.85,15.5-100.85s-32.94-12.17-32.08,6.41c.36,7.82,1.11,69.92,2.64,94.76Z"/><path class="cls-9" d="M167.52,354.9l15,7.1-6.41,15.68L154,368.06S161.46,355.44,167.52,354.9Z"/><path class="cls-9" d="M182.55,362l8.92,13.9,6.89-9.06s-2.5-8-8-8.91Z"/><path class="cls-1" d="M205.66,282.73c-.28-3.86-2.61-3.91-5.94-3.41s-6.43,1.45-9.76,1.6c-3.71.16-6.93-.57-10.5-1.13-6.18-1-12.56.6-18.18,3.54-8.43,4.41-13.56,19-12,28.61.5,3.17,1.74,2.42,4.16,4.54a13.71,13.71,0,0,0,4,2.66c1.23.44,2.93-.14,4.22-.27.52-.72,2,.59,2.43,1.2.72,1,1.16,2.95,2.82,2.45,1.5-.45,2-2.35,2.17-3.68.32-2.83-.08-5.67,0-8.51.21-5.83,5.56-5.83,10.16-6.68,7.9-1.46,15.15-2.57,21.74-7.8C204.57,293,206,287.2,205.66,282.73Z"/><g class="cls-2"><path class="cls-19" d="M201.81,484.43c-6.12-10.07-33.42-47.11-35.84-51-16.75-26.74-21.47-33.41-12.68-43.57C163.25,378.4,183.1,401,196,420c8.54,12.58,12.5,19.38,23.13,44.49C220.41,472.61,209.87,488.28,201.81,484.43Z"/></g></svg>