<svg id="Capa_1" data-name="Capa 1" xmlns="http://www.w3.org/2000/svg" viewBox="0 0 1000 1000"><defs><style>.cls-1{opacity:0.8;}.cls-2{fill:#0f75b0;}.cls-3{fill:#5da8dd;}.cls-4{fill:#fbbc58;}.cls-5{fill:#d67086;}.cls-6{fill:#88b473;}.cls-7{fill:#eaeaea;}.cls-8{fill:#ededed;}.cls-24,.cls-9{fill:#fff;}.cls-10{fill:#f9fbf6;}.cls-11{fill:#4a60a0;}.cls-12{fill:#eebac2;}.cls-13{fill:#add9f4;}.cls-14{fill:#e99b8f;}.cls-15{fill:#43558d;}.cls-16{fill:#dbebf8;}.cls-17{fill:#ddecf8;}.cls-18{fill:#3c4c7f;}.cls-19{fill:#ec9a94;}.cls-20{fill:#e76f67;}.cls-21{fill:#e6665e;}.cls-22{fill:#cadcf3;}.cls-22,.cls-23,.cls-24{opacity:0.5;}.cls-23{fill:#8fb9e3;}.cls-25{fill:#576db1;}.cls-26{fill:#5066a8;}.cls-27{fill:#8196cd;}</style></defs><title>Land3</title><g class="cls-1"><path class="cls-2" d="M425.34,728.16c-3.58-.06-7.17-.09-10.75-.2-4.81-.16-10.27,2.18-11.76-6-1.32-7.3-1.18-12.14,6.89-15.28,7.5-2.91,17.84-5.95,20.45-11.82,2.44-5.48-6.83-12.86-10.93-19.4-2.16-3.46-2.91-6.1-.35-9.63,2.28-3.14,3.9-6.76,6.43-11.27-6.86,1.39-9.16-1.3-8.21-7.24.41-2.55-.21-5.25.13-7.82.93-7-2.52-7.85-8.84-9-19.22-3.35-32.39,6.47-45,18.3-5.63,5.3-11.38,7.9-19.35,5.31-5.76-1.89-11.26-1.81-13.93,6.05-1.63,4.81-16.37,1.84-19.1-4.48-5.94-13.76-11-27.92-16.39-41.9-1.35-3.46,1-5.55,2.76-7.81,20.57-26.61,41.26-53.11,61.68-79.83,3.78-4.95,9.67-6.45,15.13-11-2.58-.8-4.44-1.55-6.37-1.94-3.89-.77-6-2-3.39-6.42,2.3-3.87,4.06-8.06,6-12.11a12.77,12.77,0,0,1,9.15-2.81c33.25,2.05,66.37-1.9,99.57-2.46,44.55-.77,88.56,3.94,132.61,9.09,19.76,2.31,39.58,4,59.32,6.48,8.2,1,12,4.66,12.78,13,.91,9.08,1.74,18.17,2.6,27.25-3.78,15.61-7.13,31.41-16.23,45.13-8.22,4.5-17.54,4.88-26.45,6.64-6.74,1.34-11,4.55-14,10.7-8.16,16.74-16.64,33.32-24.85,50a27.47,27.47,0,0,1-17.14,14.91c-22.69,7.36-45.36,14.8-67.89,22.64-10.89,3.79-21.52,1.39-31.92-.71s-18.36.8-25.89,7.64c-9.43,8.57-19.58,16.32-29.78,23.95C430.38,727.64,428.3,729.68,425.34,728.16Z"/><path class="cls-3" d="M684.49,548.37c-1.25-11-2.77-21.89-3.62-32.88-.37-4.74-1.65-6.67-6.76-7.19-43.29-4.38-86.53-9.23-129.81-13.67-36.38-3.74-72.79-1.88-109.23-.31-21.48.92-43,.31-64.54.39.85-6.07,3.71-8.47,10-6.29a40.91,40.91,0,0,0,10.61,1.7c3.19.22,7.28,3.17,9.18-2.1,1.69-4.67,5.54-9.49-.05-14.1-6.17-5.09-8.7-15.07-20.24-13.24-2.86.46-9.64-.93-11.28-7.06-1.28-4.76-5.49-1.7-8.32-2.28-7.68-1.57-17.59,5.32-22.81-6.47-.62-1.42-6.14-1.22-9.28-.88-16.6,1.84-31.4-3.26-46.32-11.46,14.57-18.39,29-36.5,43.27-54.69,2.17-2.76,5.08-2.6,8-2.77,20.54-1.22,41.1-2.24,61.62-3.71a23,23,0,0,1,15.45,4.32c8.85,6,16.74,13.53,26.94,17.42,28.58-1.35,57-4.29,84.15,9.93,16.1,8.45,33.57,14.36,50.34,21.58,7,3,11.66,2,13.08-5.67,3.36-18.23,16.39-25.75,32.47-29.5,9.9-2.31,14.53-7.82,16.69-17.73s2.17-20.89,9.6-29.21c.27.18.7.31.78.56,10.42,29.54,36.27,44.12,59.75,60.62C716,412,725.82,421,729.39,435.46c.72,2.93,2.07,5.61,4.76,7.12,32,18,44.57,50.3,59.83,80.65-12.4,4-24.51-.93-36.76-1.37a255.54,255.54,0,0,1-27.25-3c-7.82-1.12-13.86,1.1-19.11,7.1s-10.93,11.24-16.59,16.67C691.5,545.32,689.05,548.71,684.49,548.37Z"/><path class="cls-4" d="M425.34,728.16c13.81-10.92,27.82-21.6,41.31-32.89,5-4.22,10.11-5.94,16.09-4.11,20.46,6.24,39.59,2.12,58.83-5.74,15.66-6.39,32-11.25,48.14-16.32a18.09,18.09,0,0,0,11.86-10.34c9.06-18.78,18.74-37.25,27.95-56,2.22-4.52,5.12-7,10.22-7.72,10-1.47,19.9-3.53,29.84-5.34,2.64,4.61.33,8.9-1,13.18-6.83,22.23-16.93,43.16-26.33,64.32-4.35,9.79-5.92,18.26,1.59,27.11,4.4,5.18,5.27,11.37,4.09,18.39-5.79,34.44-14.17,68.42-18,103.2a11.81,11.81,0,0,1-2.41,5.28c-4.28,1.57-8.75,2.74-12.78,4.8-15.94,8.13-31.58,8.31-47.07-1-5-3-8.77-1.39-13,2.14-16.53,13.8-33.53,27.06-50,41-4.9,4.14-8.2,4.12-13.31.44-13.22-9.53-26.69-18.78-40.53-27.4-6.26-3.89-8.27-7.36-5.66-14.75,4.77-13.48,4.41-14.07-8.52-19.12A35.37,35.37,0,0,1,418,791.43c-6.73-11.5-14.36-22.48-21.78-33.56-3.93-5.87,2.12-7.62,4.56-9.18C409.88,742.85,417.54,735.46,425.34,728.16Z"/><path class="cls-5" d="M627.58,821.22c-1.27-20.53,5.68-39.92,8.52-59.87a476,476,0,0,1,9.24-48c2.53-10.17-2.62-16.88-7.64-23.87-3.67-5.1-3.79-9.28-1.32-15.17,10.34-24.66,22.38-48.64,30.42-74.24,1.07-3.41,1.85-6.92,2.78-10.38l14.91-41.37c9.82-9.51,19.7-19,29.44-28.58,2.88-2.83,5.41-4.68,10.1-4.11,23.28,2.82,46.63,5.08,70,7.55,12.78,17.86,14.87,38.37,15.64,59.51,1.56,42.76,3.69,85.5,5.91,128.22.35,6.76-2,8.84-8.29,8-8.41-1.09-17-1.38-25.25-3.08-25.38-5.24-56.61,17.14-60.24,44.15-.86,6.33-2.1,12.61-3.6,21.55-4-7.49-7-12.44-9.42-17.67-1.92-4.19-3.91-4.26-7.33-1.71-9.23,6.9-19,12.67-30.92,13.63-3.59.28-5.83,3.16-6.48,6.56-1.31,6.86-5.08,11-11.92,12.59-6.49,1.5-8.38,7-9.46,12.49C641,816,636.47,820.9,627.58,821.22Z"/><path class="cls-6" d="M643.63,342.5c-2.81,11.72-6,23.36-8.31,35.17-1.54,7.82-6,12-13.39,13.33-18.6,3.34-32.69,11.49-35.89,32.08-1.18,7.64-4.82,8.69-12,5.33-14.43-6.77-29.87-11.49-44-18.81-23.84-12.36-48.78-17.22-75.37-15.45-5.76.38-11.7.72-17.42-1,13.27-28,26.8-55.92,39.64-84.14,4.75-10.43,10.71-19,20.84-24.85,5.31-3,9.88-7.36,16.59-12.48-8.16-1.88-11.69-5.76-20.69,0-9.59,6.15-17.54,14.4-27.42,19.81-5.24,2.87-11.63,2.6-17.46,4.43-12.32,3.88-22.8,11.89-35.67,14.27-7.89,1.45-15.39-.26-22-3-22.22-9.09-39.49-4.32-54.17,14.72-6.49,8.43-15.6,14.83-23.33,22.35-3.45,3.35-5.59,4.38-8.66-.78-11.87-19.91-24.14-39.58-36.36-59.28a9.15,9.15,0,0,1-.92-9.15q11.72-29.06,23-58.29c1.55-4,4.32-6.17,8-8,22-10.75,44-21.62,65.93-32.43,1.76-.87,3.55-2.06,5.41-2.22,22.56-2,37.07-15.51,48.51-33.48,4-6.32,7-6.07,10.38.65,21.27,41.74,54.88,73.55,86.38,107.06,2.27,2.4,4.53,5.05,8.25,4.4,7.92-1.38,13.63,2.84,19.59,7,20.36,14.19,41.93,26.62,61.48,42C619.47,313.47,633.71,325.94,643.63,342.5Z"/><path class="cls-7" d="M290.31,204.49c-8,7.56-9.26,18.41-13.41,27.8-5.65,12.78-9.8,26.23-15.4,39-2.4,5.49-2.14,9.43,1.05,14.39,11.25,17.53,22.1,35.31,33,53.07,1.78,2.89,3,6.11,5.3,10.77-8.63-2-9.5-8.25-12.22-12.51C278.3,320.86,267.52,305,258.44,288a30.48,30.48,0,0,1-1.93-25.5c5.62-15.62,12.41-30.81,18.05-46.42,5-13.94,15.12-22.5,27.94-28.44,25.68-11.9,50.21-26.45,77.67-34.23,13.19-3.73,19.22-15.23,27-24.49,10.16-12,21-12.88,28.77.36,21,36,48.23,67,77.24,96.58a41,41,0,0,0,12.69,8.94c35.43,15.13,65.2,38.74,95.32,62a140.2,140.2,0,0,1,37,43.57c12.16,21.94,32.61,34.13,51.56,48.13C722.63,398,734.4,407.75,740,423.24c1.84,5.09,5.62,8.86,9.93,11.87,14.08,9.82,25.89,21.27,33.56,37.21,10.17,21.14,21.55,41.72,32.84,62.3,7.63,13.91,6.12,29.39,6.85,44,1,19.48,2.45,39,2.79,58.54.4,22.73,2.46,45.42,3.65,68.14.23,4.36.9,9.14-4.09,12.45-2.8-3.72-3.61-7.63-3.72-11.89-.31-12.68-.87-25.36-1.41-38-.83-19.5-2.18-39-3-58.53-.67-16.57,0-33.29-2-49.72-2.34-18.84-14.25-34.06-22.12-50.79-3.32-7.07-8.24-13.48-10.88-20.75-7.49-20.67-22.84-34.25-39.82-46.63-4.51-3.29-8.61-6.95-9.88-12.86-3.67-17.13-18.24-24.51-30.59-33.78-10.41-7.8-21-15.31-31.54-23-5.17-3.77-8-9.33-11.11-14.69-18.59-31.9-44.15-56.86-75.35-76.42-15.44-9.69-30.33-20.25-45.49-30.4-4.06-2.72-8.06-5.53-13.45-4.63-4.09.68-6.64-2-9.17-4.66-18.11-18.8-37.51-36.54-53.94-56.71C448.41,167.48,438,148,426.65,129.37c-3.07-5.07-5.34-4.33-8.82-1.4-6.51,6.4-12,13.62-17.63,20.8-6.83,8.78-17.2,11.14-27,14.71-27.3,10-52.78,23.87-78.57,37.06C292.89,201.43,291.65,203.07,290.31,204.49Z"/><path class="cls-7" d="M449.06,299.83c16.12-2.75,28.06-11.1,38.87-21.39-23.72,29.28-32.82,65.52-50.32,97.29-2.56,4.65-4.44,9.93-10.35,4.17-16.46-16-35.83-16.65-57-13-12.69,2.16-25.91,0-38.92,2-6.18,1-9.95,3.25-13.51,8q-18.54,24.43-37.7,48.39c-1.69,2.11-3.54,7-7.18,4.5s-1-6.57.8-9.62c8.41-14.37,20.86-25.77,29.76-39.72,11.92-18.71,29-23.62,50.17-23.46,13.84.11,27.89-1.07,41.86-1.56a35.11,35.11,0,0,1,22,6.37c9.43,6.45,14.3,5,19.35-5.23,6.34-12.86,11.86-26.15,18.63-38.77C459.88,309.55,460.7,303.76,449.06,299.83Z"/><path class="cls-8" d="M307,662.7a6,6,0,0,1-5.84-3.24c-8.86-15.57-16.76-31.78-18.43-49.74-1.19-12.73,9.31-21,16.19-30.2,14-18.7,28.77-36.84,43.05-55.34,6.53-8.46,7.61-19.27,11.56-28.86a122.21,122.21,0,0,1,10.26-19.89c4.95-7.65,3.39-11.47-5.72-13.82-5.68-1.46-11.5-2.39-17-4.85,9.51.66,20.33-6.26,28,5.2.78,1.16,3.71,1.63,5.42,1.3,10.68-2,16,4.63,21.17,12.17,3.7,5.35,1.23,6.93-3.7,7.56-4.3.54-8.34-.87-12.49-1.69-6.3-1.24-11.28-.31-13.14,7.6-1.4,5.92-6.16,11.21-6.89,17.1-3.13,25.41-23.67,39.72-36.56,58.82C314,578,303.52,590,293.58,602.44c-4.17,5.2-5.52,10.14-2.92,16.87C296.15,633.48,302.94,647.21,307,662.7Z"/><path class="cls-9" d="M411.5,288.14c5.14-8.66,10.64-17.19,9.62-28.88-4.24,4.61-8.29,12.84-13,1.24-.87.88-1.59,1.27-1.61,1.68-.57,19.47-3.73,23.83-22.83,31.31a33,33,0,0,1-3.58.95c.59-9.22-14.24-3.66-13.09-13.71.31-2.62-2.4-2.89-4.31-2.3-16.46,5-26.95-5.25-37.8-14.62a8.83,8.83,0,0,0-1.56-1.19c-13.64-7.17-18.61-17.68-13.37-32.74,1.55-4.43,3-10.14-5.65-9.22-3.14.33-3.38-2.32-3.31-4.77.07-2.28,1-4.18,3.44-3.58,18.94,4.68,29.33-11.12,43.94-18.23,2.32,2-2.06,8.55,4.83,7.87,6.09-.61,3.57-5,4.23-8.06,1.74-8.15,8.73-13.14,15-13.53C394.29,179,410.92,170.13,422,149.5c12.32,17.69,23.43,33.69,34.61,49.65,1.67,2.39,1.4,4.87,1.08,7.49-.23,1.93-.65,5.42-.07,5.63,14.28,5.11,5,15.88,5.95,25.26,5.58-1.74,11.45-1.59,14.71-7.42.64-1.15,1.56-2.9,2.66-2,5,4,11.64,8.09,12.64,14.18.86,5.21-.57,12.62-8.63,14.35-3.18.68-6.18,2.13-9.34,2.89-6.69,1.6-11.09,3.89-4.36,10.84,1.1,1.14,2.38,2.85.71,4.2-2.73,2.21-5.48,4.83-9.58,3.66-3.73-1.06-7.53-2.67-10.82,1-10.25,3.69-20.72,6.77-30.72,11.21C417.85,291.79,413.09,295,411.5,288.14Z"/><path class="cls-9" d="M411.5,288.14c5.4,4.59,9.34-.82,13.77-2.17,8.68-2.65,16.43-8.84,26.33-6.73-3.41,8.76-9.69,13.49-19.2,13.35-4.41-.06-7,2.72-10,5.24-5.26,4.41-11.7,2.36-18.37,2.95A28.73,28.73,0,0,1,411.5,288.14Z"/><path class="cls-10" d="M343.15,286.66c4.78-.24,8.6-.49,12.42-.61,3.44-.12,7.15.39,7.14,4.62,0,4-3.81,3.46-6.68,3.78C350.57,295.07,346.59,293.08,343.15,286.66Z"/><path class="cls-11" d="M223.32,346.13a30.66,30.66,0,0,0-1.6,13.93c.94,7.39,4,14.19-1.91,20.34-6.16,6.46-10.41,8.55-10.87,18.24-.36,7.48,2.3,15.47,10.82,16.21,7.43.65,14.89-3.75,22.11-.87,6.29,2.52,6.94,9.74,12.08,13.43,6.56,4.72,18.47,3.52,25.87,2.2,6.16-1.1,15.18.52,20.45-2.95,8.39-5.52,6.2-16.37,3.27-24-3.73-9.67,1.81-18.3,4.18-27.64,2.76-10.88.24-21-4.38-30.69-2.65-5.52-1.66-11.18-4.82-16.6-3.43-5.87-6.33-11.16-12.3-14.89-12.66-7.88-32.93-4.26-43.22,5.82C235.42,326.13,227,335.56,223.32,346.13Z"/><path class="cls-12" d="M363.34,449.4c-2.74-2.15-9.76-9.72-8-14.54,1.48-4,3.58-4.45,3.58-4.45,11.23-4.22,22.63-8,34.19-11.34,3.65-1,12-5,15.72-4.09,4.62,1.18,7.36,8.29,9.49,12-3.17-.24-7.68,3.56-10.56,5.07-4,2.13-8.15,4.17-12.32,6.05A207.34,207.34,0,0,1,363.34,449.4Z"/><path class="cls-13" d="M355.93,427.84c-11.45-2.35-26.51-3.35-30.92-4.65-25.68-7.56-50.28-13.7-54-2-4.21,13.27,22.48,25.63,44.86,31.13,19.46,4.79,33.48,3.91,54.49,4.91C370.09,448.79,363.3,434.11,355.93,427.84Z"/><path class="cls-12" d="M253,360.32c.85,4.29,7.08,10,8.64,6.36a22.43,22.43,0,0,0,.95-11.5c-.86-4.29-.14-4.84-4.05-4.06S252.16,356,253,360.32Z"/><path class="cls-12" d="M261,374.63c.67-8.66,26.06,7.44,26.06,7.44l-2.72,33.05s-.27-1.33-12.75-1c-7.61.18-14.07-.18-13.69-7.29C258.16,402.39,260.8,377.63,261,374.63Z"/><path class="cls-14" d="M260.64,383c3.6,11.6,13.91,20,24.71,19.11l1.73-20S261.69,366,261,374.63c-.07.92-.36,3.88-.74,7.67A1.88,1.88,0,0,1,260.64,383Z"/><path class="cls-12" d="M288.81,389.17c-8.38,4-21.87-.89-26.49-8.59a24,24,0,0,1-3.5-14.58c.4-5.87,2.12-11.1,2.57-17a36.3,36.3,0,0,1,1.17-7.55,21.19,21.19,0,0,1,6.73-10.19c3.14-2.63,7.27-3.37,11.09-4.63,3.24-1.07,6.92-2.46,10.39-2.25,2.4.15,3.62,1.89,5.24,3.52,8.8,8.88,10.52,24.73,8,36.52C302.17,373.19,297.44,385.07,288.81,389.17Z"/><path class="cls-12" d="M296.47,596.24c-.8,16.51-5.74,27.36-9.33,36.75-18.68,48.94-32.22,95.34-40.13,108.66C238.35,756.21,212.84,730,212.84,730S248,584.17,256.16,574.8,297.1,583,296.47,596.24Z"/><path class="cls-15" d="M296.47,596.24c-.8,16.51-5.74,27.36-9.33,36.75-18.68,48.94-32.22,95.34-40.13,108.66C238.35,756.21,210.7,736,210.7,736s31.24-150.9,39.36-160.28S297.1,583,296.47,596.24Z"/><path class="cls-12" d="M242.43,761.42s-6.45,21-57,83.33c-6.76,8.34-9.46-3.73-9.46-3.73S215.35,748,222.07,739,242.43,761.42,242.43,761.42Z"/><path class="cls-15" d="M224.7,813C242.48,780.7,248.76,739,248.76,739s-30.47-13.32-37.19-4.37c-3.39,4.52-15.65,31.37-27.12,57.31C193.37,796.39,224.61,812.92,224.7,813Z"/><path class="cls-12" d="M295.2,588.64c9.24,13.7,11.77,25.35,14.52,35,14.32,50.39,21.54,89.06,23.17,104.46,1.78,16.85-24.62,17.76-24.62,17.76S249.18,608,250.07,595.58,287.79,577.66,295.2,588.64Z"/><path class="cls-12" d="M332.37,761s3.61,22.39-15.91,100.29c-2.61,10.42-10.78-.06-10.78-.06s-3.34-86.94-1-97.89S332.37,761,332.37,761Z"/><path class="cls-11" d="M339.32,831.33c6.4-47.8-3.28-97.12-3.28-97.12s-29.18.86-31.5,11.81c-1.3,6.17-11.46,60.67-11.81,85.31Z"/><path class="cls-11" d="M332,703.76a596.91,596.91,0,0,0-15.08-63.69c-7-23.77-13-44.62-22.73-67.35-2.5-5.84.81-30.64-3-33.16-8.89-5.9-31.61,1.29-43.72,3.69-2.89.57-4.73,2-7.22,3.6-4.07,2.57-9.45,16.4-10.83,21-3.75,12.54-.93,28.17,5.75,38.83,5.35,8.53,10.39,17.24,15.3,26,4.22,7.55,9.44,14.29,13.77,21.88,9.66,16.91,15.95,35.32,23,53.51,2.38,6.16,17.53,35.35,17.6,39.61.37,22.59,20.57-9.5,27.5-11.53,4-1.16,3.76-1.9,3.52-6.2-.18-3.29-.66-6.55-1.15-9.8Q333.46,712,332,703.76Z"/><path class="cls-12" d="M293,551.21c1.95-39.1,9.56-96.62,4.63-102.19-8.68-9.79-9.08-31.18-15.36-39-9.39-11.74-17.5-17.25-29.23-.27-4,5.76-8.9,40.28-9.83,44.59-2.09,9.56-2.88,57.17-5.23,95.51Z"/><path class="cls-16" d="M293,551.21c2-28.64,3.95-52.32,6.44-69.25.75-5.12,2.31-10.09,3.16-15.14.79-4.67-1.43-11.11-3.31-15.33s-3.93-8.6-5.75-12.95-3.2-8.7-4.6-13.12c-.43-1.38-2.76-11.39-4.14-11.5-.15,0-5.38-.46-7.45-.91a34.52,34.52,0,0,1-10.44-4.18c-.89-.53-8-6.3-8.18-6.07-11.42,12-18,29.38-19.79,44.79-.66,5.56.34,90.62-1.66,102.59Z"/><path class="cls-13" d="M288,498.94c.52-17.38,0-35-5.14-51.73-4.43-14.42-11-27.76-18.88-40.59-2.31-1.8-5.13-4-5.27-3.86-11.42,12-18,29.38-19.79,44.79-.66,5.56-12.68,108-14.68,120L279,578C281.87,559.9,287.48,517.18,288,498.94Z"/><path class="cls-12" d="M284.89,528.35c-3-1.76-11-8.34-9.84-13.36.94-4.2,3-4.88,2.95-4.88a395.78,395.78,0,0,1,57.2-25.43c16.34-5.58,7.91,8.58,7.91,8.58C327.47,504.53,313.66,516.45,284.89,528.35Z"/><path class="cls-12" d="M286.7,527.6c-1.05,1.06-14,6.78-16.39,1.48a491,491,0,0,1-19.82-51.54c-7.31-21.86-7.77-48.52,6-50.66,12.15-1.9,16.57,31.22,21.24,57.58,1,5.6,4.35,12.13,8.4,30.16C286.13,514.62,288.81,524.16,286.7,527.6Z"/><path class="cls-17" d="M287.48,505.18c-3-11.29-8.83-25.22-9.63-29.75-4.68-26.35-10.16-51.11-22.31-49.21-13.77,2.14-12.93,31.54-7.87,54,4.39,19.55,11.43,31.71,19.9,51C275,527.2,285.15,514.58,287.48,505.18Z"/><path class="cls-11" d="M278.93,311A34.7,34.7,0,0,1,283,314.8c3.26,3.13,6.37,6.57,7.7,11a48.56,48.56,0,0,1,1.53,9.2,15.1,15.1,0,0,1-5.87,13.78,23.74,23.74,0,0,1-11.18,4.38c-2.12.33-4.78.87-6.52,2.22-1.25,1-1.44,2.75-2.63,3.65-4.06,3.06-4-3.48-4.42-5.58q.3,1.65-.71-2.47c-1.45-6-1.41-10.93-4.91-16.16-3.07-4.6-4.28-13-1.06-17.8,3.63-5.47,13.78-7.14,19.77-7.18A7.17,7.17,0,0,1,278.93,311Z"/><path class="cls-18" d="M343.2,868c-3.09-.45-4,0-7.13-.53a31.81,31.81,0,0,1-8.79-2.93,61.38,61.38,0,0,1-9-6,7.94,7.94,0,0,0-.9-.61c-4.17,1.92-6.56,1.8-11-.09a1.65,1.65,0,0,1-.86-.74,2.32,2.32,0,0,0-.35.35,7,7,0,0,0-1,3.29c-.31,2.07-1.28,10.65-.86,12.68.6,2.88,16.25,6.3,21.39,6.62,6.91.43,12.19.72,19-.38C350.3,878.56,348.41,868.74,343.2,868Z"/><path class="cls-18" d="M209.55,857.54c-2.73-1.49-3.77-1.43-6.49-3a31.36,31.36,0,0,1-7.23-5.8,60.45,60.45,0,0,1-6.39-8.77,8.61,8.61,0,0,0-.63-.88c-4.58.35-6.77-.6-10.3-3.92a1.67,1.67,0,0,1-.54-1,2.11,2.11,0,0,0-.46.21,7,7,0,0,0-2.09,2.73c-1,1.82-4.9,9.53-5.21,11.59-.44,2.9,13,11.56,17.75,13.64,6.33,2.81,11.17,4.92,18,6.25C212.54,869.93,214.18,860.07,209.55,857.54Z"/><path class="cls-11" d="M306,344.18c-1.22-7.09-3.08-14.78-7.17-20.82-2.91-4.3-7.46-9.25-12.25-11.33-2.61-1.13-6.57-2.77-9.37-2.37-3.53,7,3.09,16.79,6.21,23.13,2.12,4.29,5.79,5.38,8.91,8.41,2.38,2.31,4,5.21,6,7.81,2.15,2.79,4.68,4.78,6.2,8.05C307.43,355.76,306.44,346.61,306,344.18Z"/><rect class="cls-19" x="383.63" y="382.23" width="43.08" height="27.75" transform="translate(-125.2 595.54) rotate(-64.96)"/><path class="cls-20" d="M485.11,225a87.62,87.62,0,1,0,42.3,116.48A87.63,87.63,0,0,0,485.11,225ZM417.89,368.91a71.19,71.19,0,1,1,94.63-34.37A71.2,71.2,0,0,1,417.89,368.91Z"/><path class="cls-21" d="M485.11,225a87.62,87.62,0,1,0,42.3,116.48A87.63,87.63,0,0,0,485.11,225ZM415.45,374.13A77,77,0,1,1,517.74,337,77,77,0,0,1,415.45,374.13Z"/><path class="cls-22" d="M512.52,334.54a71.19,71.19,0,1,1-34.36-94.63A71.19,71.19,0,0,1,512.52,334.54Z"/><path class="cls-23" d="M424.71,363.5A71.22,71.22,0,0,1,407.25,246a71.21,71.21,0,1,0,88.37,111.34A71.17,71.17,0,0,1,424.71,363.5Z"/><path class="cls-24" d="M385.24,338a71,71,0,0,0,12.17,16.55L519,310.36a71.07,71.07,0,0,0-1.28-20.51Z"/><path class="cls-24" d="M513.35,276.15a71,71,0,0,0-17.44-24.45Q464.95,262.8,434,274q-28.27,10.2-56.51,20.44a71,71,0,0,0,2.26,30.26Z"/><path class="cls-25" d="M383.14,395.62l-55.9,119.62a15.73,15.73,0,0,0,7.59,20.89l8.3,3.88A15.72,15.72,0,0,0,364,532.42L419.91,412.8Z"/><path class="cls-26" d="M419.74,412.72c-15.09,37-46.61,66-83.25,82.73l-9.25,19.79a15.73,15.73,0,0,0,7.59,20.89l8.3,3.88A15.72,15.72,0,0,0,364,532.42L419.91,412.8Z"/><path class="cls-27" d="M358.31,466.3a2.38,2.38,0,0,1-3.16,1.14h0a2.37,2.37,0,0,1-1.14-3.15l29.36-62.85a2.38,2.38,0,0,1,3.15-1.15h0a2.38,2.38,0,0,1,1.15,3.16Z"/><path class="cls-12" d="M349.18,466.61A15,15,0,0,1,351,465.3a2.91,2.91,0,0,1,3.07-.21c1,.74,1,2.32.47,3.48a6.54,6.54,0,0,1-1.26,1.91,26.26,26.26,0,0,1-3.51,2.59,6.51,6.51,0,0,0-1.37,1.43c5.52-2.26,11.13-4.18,16.06-7.81.85-.62,1.83-1.32,2.86-1.1a3.63,3.63,0,0,1,2,1.8c1,1.49,1.91,3,2.82,4.56s1.9,3.53,1.32,5.33a6.94,6.94,0,0,1-2.78,3.13c-5,3.66-10.21,8-16.24,9.54-4.78,1.2-9.26,3.37-14.14,4.33,0,0-6.12-6.48-6.39-7.39-.11-.37.44-1.55,1.38-3a53.65,53.65,0,0,1,2.09-6.67C340.08,473,345.31,469.83,349.18,466.61Z"/><path class="cls-12" d="M420.67,419.15c-1.06-5.17-4.47-9.88-10.16-9.79-4.78.07-6.15,5.25-6.92,9.05-1.28,6.38-.38,9.52,6,12.63C418.63,435.45,422.23,426.8,420.67,419.15Z"/></g></svg>