<?xml version="1.0" encoding="utf-8"?>
<!-- Generator: Adobe Illustrator 23.0.4, SVG Export Plug-In . SVG Version: 6.00 Build 0)  -->
<svg version="1.1" id="Capa_1" xmlns="http://www.w3.org/2000/svg" xmlns:xlink="http://www.w3.org/1999/xlink" x="0px" y="0px"
	 viewBox="0 0 1000 1000" style="enable-background:new 0 0 1000 1000;" xml:space="preserve">
<style type="text/css">
	.st0{fill:none;}
	.st1{fill:#0B76AF;}
	.st2{fill:#88B473;}
	.st3{fill:#EB7129;}
	.st4{fill:#D66F85;}
	.st5{fill:#5EA7DC;}
	.st6{fill:#FABB58;}
</style>
<title>paquete</title>
<g>
	<path class="st0" d="M566.9,456.4c-11.3-9.8-22.5-19.7-33.7-29.6l-14.1,6.2c-16.4,7.2-35.5,1.4-46.6-11.1c0,0-11.1,5.3-27.8,13.1
		l0.8,12.4c1.1,17.9-10.9,33.9-26.5,40c0,0,2.4,25,5,56.9l14.1,2.1c17.8,2.6,30.8,17.8,33.5,34.3c0,0,17.5,2,41.8,5.1l3.9-7.8
		c8-16.1,26.4-23.9,42.9-21.4c0,0,9.3-20.2,21.8-46.7l-6.7-6.2C562.1,491.4,559.8,471.6,566.9,456.4z"/>
	<path class="st1" d="M485.6,315.9c6.2-3.4,11.2-4.7,15.1-4.8c-4.8-4.9-9.3-10.1-13.4-15.6c-4.4-6-8.3-12.4-12.1-18.8
		c-8.1-13.6-15.7-27.5-23.1-41.5c-7.6-14.2-15-28.5-22.2-42.9c32.2-7.2,65.3-9.3,98.2-6.4c31.9,2.5,63.2,9.6,93.1,20.9l0.2-0.4
		l1.1,0.4l11.8-30.5c-61-22.8-126.9-29.7-191.3-19.9c-30.1,4.9-59.5,13.8-87.3,26.5c-26.4,12.2-51.3,27.6-74.2,45.7
		c-13.4,10.4-26.7,21.5-38.5,33.7l22.8,22.1l0.7,0.6c9.6-9.6,19.8-18.7,30.6-27c11.1-8.9,22.6-17.3,34.6-24.9
		c8.6-5.4,17.5-10.5,26.6-15.1c16.3,26.5,32.8,53,50,78.9c7.5,11.3,15,22.9,23.6,33.4l0,0c6.2,7.4,12.9,14.5,19.9,21.1
		C458,331.9,476.4,321,485.6,315.9z"/>
	<path class="st1" d="M580.2,406.1l-22.9,10.1l-14.2,6.2l-9.9,4.4c11.2,9.9,22.4,19.8,33.7,29.7c-7.1,15.2-4.8,35,8.4,47.2l6.7,6.2
		l12.5,11.6l11.3,10.4l18.4,17c4.8,4.4,13.1,5,18.8,2.3c2.5-1,4.4-3.1,5.2-5.7c0.3-2.6,0.5-5.1,0.4-7.7c0.1-1.9,0.4-3.3,2.4-3.9
		c2.4-0.8,4.8-1.2,7.1-2.1c2.6-1.1,5.7-3,6.6-5.9c0.9-2.9,0.3-5.6,0.5-8.4c0.6-6.5,7.8-5,12.2-7.1c2.5-1,4.2-3.3,4.7-5.9
		c0.4-2.6,0.5-5.1,0.4-7.7c0-1.7,0-3.9,1.6-5c1.6-1.1,3.9-0.9,5.7-1.7c6-2.6,8.1-8.7,6.6-14.7c-0.8-3.5-2.6-6.8-5.1-9.3l-11.9-11
		c5.8-0.5,4.9-7.5,3.3-11.4c-2.2-5.2-6.1-9.9-10-14c-8.4-9-19.1-15.6-30.9-18.9c-3.3-0.9-6.6-1.5-9.9-1.7l0.2-0.5
		c-7.4-0.2-14.9,1.1-21.8,3.9l-3.9-3.4l0,0c-3.7-3.2-9.7-8.4-17.2-15C588.2,399.2,584.7,404.1,580.2,406.1z"/>
	<path class="st2" d="M324,438.6c-1-8.5-0.6-14.2,0.7-18.1c-11.4,4.5-22.9,8.9-35,11.3c-11.8,2.3-23.9,3.7-35.9,4.9
		c-21.2,2.2-42.4,3.8-63.7,5.2c5.7-30.3,15.7-59.7,29.9-87.1c8.5-16.4,18.4-31.9,29.6-46.6l-25.9-19.8
		c-78.9,103.4-93.7,242.2-38.3,359.8c4.2,8.9,8.8,17.7,13.8,26.3l28.2-16.4c-15.7-27-27.3-56.2-34.3-86.6c-4.2-18-6.8-36.4-7.8-54.8
		c30-4.4,60-9,89.8-14.6c9.9-1.9,19.8-3.8,29.5-6.5c12.4-3.6,24.3-8.8,36.2-13.8l1-0.4C329.5,473,326.9,462.1,324,438.6L324,438.6z"
		/>
	<path class="st2" d="M442.8,405.8l1,15.4l0.9,13.8c16.7-7.8,27.8-13.1,27.8-13.1c11.1,12.5,30.2,18.3,46.6,11.1l14.1-6.2l9.9-4.3
		l14.2-6.2l22.9-10.1c6.1-2.7,9.9-10.2,9.6-16.6c0.1-2.8-1.3-5.5-3.6-7.1c-2.1-1.2-4.3-2.2-6.5-3.1c-1.8-0.9-2.8-1.8-2.6-3.9
		c0.3-3.2,1.1-6.2,0.8-9.4c-0.4-3.2-1.5-5.7-4.2-7.3c-2.1-1.2-4.5-1.8-6.5-3c-5.2-3.2-0.7-9.9-1.2-14.6c-0.7-5.6-6.2-7.2-10.7-9.3
		c-1.4-0.7-3.4-1.5-3.7-3.3s0.6-3.7,0.7-5.6c0.2-5.6-3.5-10.6-9-11.9c-4.1-1.2-8.5-1-12.5,0.6l-19.8,8.7c1.5-4.6-3.3-8.1-7.2-8.9
		c-6.3-1.2-13,1.6-18.4,4.6c-8.7,4.8-17.1,10.5-23.6,18.1c-7.5,8.4-11.9,19.1-12.3,30.4c0,0-4.9,2.4-13.1,6.3
		c2.8,2.7,4.5,6.2,4.9,10L442.8,405.8z"/>
	<path class="st3" d="M368.3,643.6l-1.4-0.2c0,0.6,0,1.2,0,1.7C367.3,644.6,367.8,644.1,368.3,643.6z"/>
	<path class="st4" d="M372,536.6l24.8,3.7l15.3,2.3l11.9,1.8c-2.6-31.9-5-56.9-5-56.9c15.6-6.1,27.6-22,26.5-40l-0.8-12.4l-0.8-13.8
		l-1-15.4l-1.6-25c-0.4-6.9-6.5-13.3-13.1-14.9c-2.6-0.8-5.5-0.2-7.5,1.6c-1.9,1.6-3.5,3.6-5.4,5.2c-1.6,1.3-2.8,1-4.5,0.1
		c-2.3-1.4-4.7-2.5-7.1-3.4c-2.6-0.8-5.7-1.1-8.1,0.5c-2,1.3-3.4,3.4-5.2,5.1c-1.4,1.6-3.6,2.3-5.7,1.7c-2.2-0.7-4.1-2.5-6.1-3.6
		c-2-1.1-5.1-2.1-7.6-1.2s-4.3,3-6.1,4.8c-1.4,1.4-3,3.6-5,4.2c-1.5,0.5-3-0.7-4.1-1.4c-4.3-3-10.1-2.7-14.1,0.7
		c-4,3.7-6.2,8.9-6,14.4l1.2,18.9c-2.3-0.8-4.8-0.6-7,0.4c-4.6,2.3-5.8,8.2-6.1,12.8c-0.5,7.1,0.7,14.2,1.7,21.2
		c0.7,5.6,1.9,11.1,3.7,16.5c1.7,5,4.5,9.6,8.3,13.3c5.6,5.3,12.9,8.6,19.9,11.5c0,0,2.2,21.5,4.6,49.6
		C364.7,536.9,368.4,536.1,372,536.6z"/>
	<path class="st4" d="M404,663.3c-25-1.6-34.6-6.3-37.4-10.9c-0.6,9.8-2.8,19.6-5,29.2c-3.2,14.2-6.9,28.2-10.8,42.2
		c-4.2,15.4-8.7,30.8-13.3,46.2c-38.3-23-71.2-54-96.7-90.7l-0.9,0.6l-26,18c79.3,114.6,219.3,170.8,355.8,142.8l-6.5-32l-1.3,0.2
		v-0.2c-51.5,10.5-104.8,7.9-155-7.7c6.1-29,12.1-58.1,17.2-87.3c3-17.2,6.4-34.6,6.5-52.1C421.9,663.5,412.9,664.1,404,663.3
		L404,663.3z"/>
	<path class="st5" d="M498.8,615.3l6.9-13.9l7.8-15.7c-24.3-3.1-41.8-5.1-41.8-5.1c-2.7-16.5-15.8-31.6-33.5-34.3l-14.1-2l-11.9-1.8
		l-15.3-2.3l-24.8-3.7c-6.8-1-14.3,3.5-17.3,9.5c-1.4,2.4-1.4,5.3-0.2,7.7c1.1,2.3,2.9,4.3,4.1,6.5c0.9,1.7,0.5,2.8-0.7,4.3
		c-1.7,1.8-3.2,3.7-4.6,5.8c-1.4,2.3-2.6,5.4-1.8,8.1c0.8,2.5,2.6,4.5,4,6.7c1.2,2,1.7,4.1,0.4,6.1c-1.3,2.1-3.1,3.3-4.6,5
		c-1.8,1.8-2.9,4.4-2.8,7c0.3,2.6,1.9,4.9,3.2,7c1.1,1.7,2.9,3.7,3.2,5.8c0.3,1.6-1.1,2.8-2.1,3.8c-3.9,3.7-4.9,9.5-2.4,14.3
		c2.8,4.6,7.4,7.8,12.7,8.8l3.5,0.5l1.4,0.2c-2.8,2.1-3.5,6-1.7,8.9c0.6,0.9,1.3,1.7,2.2,2.3c2.7,2,5.7,3.5,9,4.4
		c5.5,1.6,11.1,2.7,16.9,3.3c6.9,0.8,13.8,1.2,20.7,1c8.9-0.2,17.7-2.1,25.8-5.6c7.8-3.6,14.6-9.3,19.4-16.4c0,0,10.2,1.1,25.8,3
		c-0.1-2.4,0.4-4.7,1.4-6.8L498.8,615.3z"/>
	<path class="st6" d="M669.4,426.3c9.3,9,13.4,15.8,14.4,20.6c2.7-4.6,5.7-9,9-13.2c3.1-3.9,6.4-7.7,9.7-11.4
		c9.1-10.1,18.6-19.8,28.2-29.4c14.8-14.8,30-29.3,45.2-43.7c23.9,44.1,37,93.2,38.2,143.3l32.6-0.8c-1.6-64.6-21-127.4-56.1-181.6
		c-16.8-25.9-37-49.4-60.1-69.9c-21.6-19.2-45.4-35.6-71-48.9l-15.1,28.9c32.7,17,62.1,39.6,87.1,66.8
		c-19.6,21.7-38.9,43.5-57.8,65.8c-13.7,16.1-27.8,32.2-38.3,50.5c-1.1,2-2.2,4-3.4,6C649,410.5,662.9,420.1,669.4,426.3
		C678.7,435.2,662.9,420.1,669.4,426.3z"/>
	<path class="st6" d="M618.1,646.3c2.3-9.2,5.4-18.1,6-27.7c0.8-11.8-2-23.4-9.4-32.7c0,0,6.3-14,15.5-33.7c-2.2-0.6-4.3-1.7-6-3.2
		l-18.4-17l-11.3-10.4L582,510c-12.5,26.5-21.8,46.7-21.8,46.7c-16.5-2.5-34.9,5.2-42.9,21.4l-3.9,7.8l-7.8,15.7l-6.9,13.9
		l-11.1,22.4c-2.9,5.9-1.1,14,3.1,18.7c1.6,2.2,4.2,3.4,6.9,3.3c2.6-0.4,5.1-1,7.6-1.8c1.9-0.4,3.1-0.4,4.3,1.3
		c1.3,1.9,2.3,3.9,3.7,5.8c1.6,2.2,4.1,4.5,6.9,5c2.8,0.5,5.6-0.8,8.3-1.6c2.4-0.6,4.7-0.6,6.4,1.4s2.2,4.2,3.5,6.2
		c1.3,2,3.5,4.3,6.1,4.6c2.6,0.1,5.2-0.3,7.7-1.2c1.8-0.5,4.3-1.6,6.3-1c1.6,0.5,2.3,2.5,3,3.8c2.9,5.3,9.4,7.5,14.9,5.1
		c4.2-1.7,7.7-4.8,9.8-8.9l8.8-17.8c1,2.5,4.1,3.6,6.6,3.7c3,0,6-1.1,8.3-3.1C614.4,657.7,616.7,651.9,618.1,646.3
		C620.4,636.9,615.8,655.8,618.1,646.3z"/>
	<path class="st5" d="M815.2,514.8L815.2,514.8h-1.3c-2.3,48.5-17.5,97.3-43.6,141c-27.5-12.2-55.1-24.3-83-35.5
		c-9.9-3.9-19.9-7.8-30-11.2c-11.3-3.7-23-5.7-34.6-7.7c3.4,12.4,1,25.1-2.4,37.2c-2.4,8.5-4.1,19.6-12.6,24.3
		c6.3,1.3,12.5,2.9,18.6,4.8c4.5,1.5,8.8,3.3,13.2,5.2c12.3,5.3,24.3,11.3,36.3,17.3c16.3,8.3,32.5,16.9,48.6,25.6
		c-39.1,40.5-88.1,71.2-140.7,87.5l9.7,31.2l1.2-0.4l0.1,0.4c27.6-8.6,54.1-20.5,78.9-35.4c51.1-30.8,94-73.6,125-124.6
		c16.1-26.5,28.6-55,37.2-84.7c6.9-24,10.9-48.7,12.1-73.6L815.2,514.8z"/>
</g>
</svg>
