<svg id="Layer_1" data-name="Layer 1" xmlns="http://www.w3.org/2000/svg" viewBox="0 0 829.81 332.56"><defs><style>.cls-1{fill:#b3b3b3;}</style></defs><title>aduana</title><path class="cls-1" d="M111.61,120.74H71V191.3h40.6Zm-2.17,68.39H73.19V122.92h36.25Z"/><path class="cls-1" d="M89.92,125.51H75.76v53H89.92Zm-2.18,50.82h-9.8V127.68h9.8Z"/><path class="cls-1" d="M106.86,125.51H92.7v53h14.16Zm-2.18,50.82h-9.8V127.68h9.8Z"/><path class="cls-1" d="M106.86,179.63H75.76V189h31.1Zm-2.18,7.24H77.94v-5.06h26.74Z"/><path class="cls-1" d="M192.85,120.74H152.24V191.3h40.61Zm-2.18,68.39H154.42V122.92h36.25Z"/><path class="cls-1" d="M171.15,125.51H157v53h14.16ZM169,176.33h-9.81V127.68H169Z"/><path class="cls-1" d="M188.1,125.51H173.94v53H188.1Zm-2.18,50.82h-9.81V127.68h9.81Z"/><path class="cls-1" d="M188.1,179.63H157V189H188.1Zm-2.18,7.24H159.17v-5.06h26.75Z"/><path class="cls-1" d="M274.08,120.74h-40.6V191.3h40.6Zm-2.18,68.39H235.65V122.92H271.9Z"/><path class="cls-1" d="M252.39,125.51H238.23v53h14.16Zm-2.18,50.82H240.4V127.68h9.81Z"/><path class="cls-1" d="M269.33,125.51H255.17v53h14.16Zm-2.18,50.82h-9.8V127.68h9.8Z"/><path class="cls-1" d="M269.33,179.63h-31.1V189h31.1Zm-2.18,7.24H240.4v-5.06h26.75Z"/><path class="cls-1" d="M355.31,120.74h-40.6V191.3h40.6Zm-2.17,68.39H316.89V122.92h36.25Z"/><path class="cls-1" d="M333.62,125.51H319.46v53h14.16Zm-2.18,50.82h-9.8V127.68h9.8Z"/><path class="cls-1" d="M350.56,125.51H336.4v53h14.16Zm-2.18,50.82h-9.8V127.68h9.8Z"/><path class="cls-1" d="M350.56,179.63h-31.1V189h31.1Zm-2.18,7.24H321.64v-5.06h26.74Z"/><path class="cls-1" d="M385.59,120.74V191.3h58.62V120.74H385.59ZM442,122.92v66.21H387.77V122.92H442Z"/><path class="cls-1" d="M389.45,179.63V189h50.91v-9.41H389.45Zm48.73,2.18v5.06H391.63v-5.06h46.55Z"/><path class="cls-1" d="M403.61,125.51H389.45v53h14.16Zm-2.18,50.82h-9.8V127.68h9.8Z"/><path class="cls-1" d="M406.39,125.51v53h17v-53h-17Zm2.18,50.82V127.68h5.24v48.65Zm12.67-48.65v48.65H416V127.68Z"/><path class="cls-1" d="M758.8,120.74H718.19V191.3H758.8Zm-2.18,68.39H720.37V122.92h36.25Z"/><path class="cls-1" d="M754,125.51H739.88v53H754Zm-2.17,50.82h-9.81V127.68h9.81Z"/><path class="cls-1" d="M737.1,125.51H722.94v53H737.1Zm-2.17,50.82h-9.81V127.68h9.81Z"/><path class="cls-1" d="M754,179.63h-31.1V189H754Zm-2.17,7.24H725.12v-5.06h26.75Z"/><path class="cls-1" d="M677.56,120.74H637V191.3h40.6Zm-2.17,68.39H639.13V122.92h36.26Z"/><path class="cls-1" d="M672.81,125.51H658.65v53h14.16Zm-2.18,50.82h-9.8V127.68h9.8Z"/><path class="cls-1" d="M655.87,125.51H641.71v53h14.16Zm-2.18,50.82h-9.8V127.68h9.8Z"/><path class="cls-1" d="M672.81,179.63h-31.1V189h31.1Zm-2.18,7.24H643.89v-5.06h26.74Z"/><path class="cls-1" d="M596.33,120.74h-40.6V191.3h40.6Zm-2.18,68.39H557.9V122.92h36.25Z"/><path class="cls-1" d="M591.58,125.51H577.42v53h14.16Zm-2.18,50.82h-9.81V127.68h9.81Z"/><path class="cls-1" d="M574.64,125.51H560.48v53h14.16Zm-2.18,50.82h-9.81V127.68h9.81Z"/><path class="cls-1" d="M591.58,179.63h-31.1V189h31.1Zm-2.18,7.24H562.65v-5.06H589.4Z"/><path class="cls-1" d="M515.1,120.74H474.49V191.3H515.1Zm-2.18,68.39H476.67V122.92h36.25Z"/><path class="cls-1" d="M510.34,125.51H496.18v53h14.16Zm-2.17,50.82h-9.81V127.68h9.81Z"/><path class="cls-1" d="M493.4,125.51H479.24v53H493.4Zm-2.17,50.82h-9.81V127.68h9.81Z"/><path class="cls-1" d="M510.34,179.63h-31.1V189h31.1Zm-2.17,7.24H481.42v-5.06h26.75Z"/><path class="cls-1" d="M440.36,125.51H426.2v53h14.16Zm-2.18,50.82h-9.81V127.68h9.81Z"/><path class="cls-1" d="M805.55,73.78H792V42.2H715.45v6.3H543.91V47.14h2.33V42.2H519.68v1.12L414.9,9.59,310.12,43.32V42.2H283.57v4.94h2.32V48.5H114.35V42.2H37.78V73.78H24.26v5.77H27v3.59h3.2v3.59H42.84v7.2H33.65V99.7h4.13v5.16h3.46v83.43H38.69V200.8h-5v5.77h9.19v27.1H34.13v6.38h3.73v76.54H34.13V323H795.67v-6.38h-3.73V240.05h3.73v-6.38H787v-27.1h9.19V200.8h-5V188.29h-2.56V104.86H792V99.7h4.12V93.93H787v-7.2h12.67V83.14h3.2V79.55h2.72Zm-87.92-29.4h72.22v29.4H777.7V52.62H729.78V73.78H717.63V44.38ZM732,54.79h43.58v19H732Zm-617.6,0H285.89v9.56H307.8V50.67H522V64.35h21.9V54.79H715.45v19H114.35Zm601.1-2.17H543.91V50.67H715.45ZM541.74,48.5V62.17H524.18v-15h17.56ZM544.06,45h-22.2v-.58h22.2Zm-24.38.64v1.54H522V48.5H307.8V47.14h2.32V45.6L414.9,11.88ZM285.74,45v-.58h22.2V45h-22.2Zm2.33,2.18h17.55v15H288.07v-15Zm-2.18,5.48H114.35V50.67H285.89ZM40,53.7V44.38h72.23v29.4H100V52.62H52.1V73.78H40Zm14.33,1.09H97.85v19H54.28ZM784.79,93.93H45v-7.2H784.79ZM40,102.68v-3H52.1v3H40Zm739,2.18v83.43h-2.56v3.14H761.16v-73H715.83v73h-6v-3.14h-2.55V104.86h3.46V99.7h64.74v5.16Zm-2.56,90.5H709.88v-1.75h66.55Zm0,5.44H709.88v-3.26h66.55ZM53.37,197.54h66.55v3.26H53.37Zm0-3.93h66.55v1.75H53.37Zm58.43-2.18h-41V120.62h41Zm10.3,0v-1h10.33v10.33H122.1v-9.36Zm2.55-86.57h5.22v83.43h-5.22ZM193,191.43h-41V120.62h41Zm0,2.18h8.12v1.75H134.6v-1.75H193Zm10.3-2.18v-1h10.33v10.33H203.33v-9.36Zm2.55-86.57h5.23v83.43h-5.23Zm68.39,86.57h-41V120.62h41Zm0,2.18h8.12v1.75H215.84v-1.75h58.43Zm10.29-2.18v-1h10.33v10.33H284.56v-9.36Zm2.56-86.57h5.22v83.43h-5.22Zm68.38,86.57h-41V120.62h41Zm0,2.18h5.94v1.75H297.07v-1.75H355.5Zm8.12-2.18v-1H374v10.33H363.62v-9.36Zm2.55-86.57h5.23v83.43h-5.23Zm78.23,86.57h-59V120.62h59Zm-29.5,2.18h38.78v1.75H376.13v-1.75H414.9Zm41-2.18v-1h10.33v10.33H455.85v-9.36Zm2.56-86.57h5.22v83.43h-5.22Zm56.87,86.57h-41V120.62h41Zm0,2.18h17.45v1.75H468.36v-1.75h46.92Zm19.63-2.18v-1h10.33v10.33H534.91v-9.36Zm2.56-86.57h5.22v83.43h-5.22Zm59,86.57h-41V120.62h41Zm0,2.18H614v1.75H547.42v-1.75h49.09Zm19.64-2.18v-1h10.32v10.33H616.15v-9.36Zm2.55-86.57h5.22v83.43H618.7Zm59,86.57h-41V120.62h41Zm0,2.18H695.2v1.75H628.65v-1.75h49.1Zm19.63-2.18v-1h10.33v10.33H697.38v-9.36Zm2.55-86.57h5.22v83.43h-5.22ZM134.6,197.54h66.55v3.26H134.6Zm81.24,0h66.55v3.26H215.84Zm81.23,0h64.37v3.26H297.07Zm79.06,0h77.55v3.26H376.13Zm92.23,0h64.37v3.26H468.36Zm79.06,0H614v3.26H547.42Zm81.23,0H695.2v3.26H628.65ZM759,191.43H718V120.62h41Zm-50.36-88.75H696.47v-3h12.15Zm-10.86,2.18v83.43H695.2v3.14H679.92v-73H634.6v73h-6v-3.14H626.1V104.86h3.46V99.7h64.73v5.16Zm-70.38-2.18H615.24v-3h12.14Zm-10.86,2.18v83.43H614v3.14H598.69v-73H553.36v73h-5.94v-3.14h-2.56V104.86h3.47V99.7h64.73v5.16Zm-70.37-2.18H534v-3h12.15Zm-10.86,2.18v83.43h-2.56v3.14H517.46v-73H472.13v73h-3.77v-3.14h-2.55V104.86h3.46V99.7h62.56v5.16Zm-68.2-2.18H455v-3h12.14Zm-10.86,2.18v83.43h-2.55v3.14h-7.11v-73H383.23v73h-7.1v-3.14h-2.56V104.86H377V99.7h75.73v5.16Zm-81.37-2.18H362.71v-3h12.15ZM364,104.86v83.43h-2.56v3.14h-3.76v-73H312.35v73H297.07v-3.14h-2.55V104.86H298V99.7h62.55v5.16Zm-68.2-2.18H283.65v-3H295.8Zm-10.86,2.18v83.43h-2.55v3.14h-5.95v-73H231.11v73H215.84v-3.14h-2.56V104.86h3.47V99.7h64.73v5.16Zm-70.37-2.18H202.42v-3h12.15Zm-10.86,2.18v83.43h-2.56v3.14h-5.94v-73H149.88v73H134.6v-3.14h-2.55V104.86h3.46V99.7h64.73v5.16Zm-70.37-2.18H121.19v-3h12.15Zm-10.87,2.18v83.43h-2.55v3.14H114v-73H68.65v73H53.37v-3.14H50.82V104.86h3.46V99.7H119v5.16Zm-79,0h5.22v83.43H43.42Zm-2.56,85.6H51.19v10.33H40.86Zm743.93,43,0-.11a2.21,2.21,0,0,0,0-.25s0-.11,0-.16a2.58,2.58,0,0,0-.08-.26,1.21,1.21,0,0,0-.05-.18c0-.09-.06-.18-.1-.28l-.07-.18-.13-.3-.09-.19c0-.11-.11-.21-.16-.31l-.11-.21c-.06-.11-.13-.22-.2-.33l-.13-.2c-.08-.13-.17-.25-.26-.38l-.13-.17q-.21-.28-.45-.57c-3.66-4.25-13.43-9.32-39.2-9.32-35.19,0-38.22,12.23-38.33,12.75l0,.89h-2.93s0,0,0-.08,0-.16,0-.24l0-.15c0-.09,0-.19-.08-.29l0-.14c0-.15-.09-.3-.15-.46v0c0-.15-.12-.31-.19-.48l-.08-.17-.17-.35a2.12,2.12,0,0,0-.11-.21l-.2-.34-.14-.22c-.08-.13-.17-.25-.26-.38l-.14-.2c-.15-.19-.3-.39-.47-.59-3.66-4.25-13.43-9.32-39.21-9.32-35.18,0-38.21,12.23-38.33,12.75l0,.89h-2.93a.15.15,0,0,1,0-.07c0-.08,0-.17-.05-.26l0-.14c0-.09,0-.19-.07-.29a.74.74,0,0,0,0-.14c0-.15-.09-.3-.14-.46v0l-.19-.48c0-.05-.05-.11-.08-.16s-.11-.24-.17-.36a2,2,0,0,1-.11-.2l-.21-.36-.13-.21-.27-.39c0-.06-.09-.12-.13-.19l-.48-.59c-3.66-4.25-13.43-9.32-39.2-9.32-35.19,0-38.22,12.23-38.33,12.75l0,.89H537s0,0,0-.08,0-.16,0-.24l0-.15c0-.09,0-.19-.07-.29a.74.74,0,0,1,0-.14c0-.15-.09-.3-.15-.46v0c-.06-.15-.12-.31-.2-.48l-.08-.17-.17-.35a2.12,2.12,0,0,0-.11-.21l-.2-.34-.14-.22c-.08-.13-.17-.25-.26-.38l-.14-.2c-.15-.19-.3-.39-.47-.59-3.66-4.25-13.43-9.32-39.2-9.32-35.19,0-38.22,12.23-38.33,12.75l0,.89h-2.93s0-.06,0-.08a1.57,1.57,0,0,1,0-.23,1.24,1.24,0,0,0,0-.16l-.06-.28a.57.57,0,0,1,0-.14c0-.15-.09-.3-.15-.46v0a4.52,4.52,0,0,0-.18-.47l-.08-.16c-.05-.12-.11-.24-.17-.36l-.1-.19-.21-.36-.13-.2c-.08-.13-.17-.26-.27-.4l-.12-.18c-.15-.19-.3-.39-.47-.59-3.53-4.14-12.88-9.12-37.42-9.35v0c-24.53.23-33.89,5.21-37.41,9.35-.17.2-.33.4-.47.59a2.14,2.14,0,0,0-.13.19c-.1.13-.18.26-.27.38a2.39,2.39,0,0,1-.13.21c-.07.12-.13.24-.2.35a1.28,1.28,0,0,1-.11.2l-.17.36-.07.16c-.07.16-.13.31-.18.46l0,0c-.05.16-.1.31-.14.46a.74.74,0,0,0,0,.14c0,.1-.05.19-.07.28l0,.16a2.23,2.23,0,0,0,0,.23s0,.06,0,.08h-2.94V233l0-.23c-.11-.52-3.14-12.75-38.33-12.75-25.77,0-35.54,5.07-39.2,9.32l-.48.59-.14.2c-.09.13-.18.25-.26.38a2.53,2.53,0,0,0-.13.22c-.08.11-.14.23-.21.34a2.12,2.12,0,0,1-.11.21l-.17.35c0,.06-.05.12-.08.17s-.14.33-.19.48v0c-.05.16-.1.31-.14.46a.74.74,0,0,0,0,.14c0,.1-.05.2-.07.29l0,.15c0,.08,0,.16-.05.24s0,.06,0,.08h-2.93V233l0-.23c-.12-.52-3.15-12.75-38.34-12.75-25.77,0-35.54,5.07-39.2,9.32-.17.2-.32.4-.47.59l-.14.2c-.09.13-.18.25-.26.38l-.14.22-.2.34a2.12,2.12,0,0,0-.11.21l-.17.35-.08.17-.2.48v0c-.06.16-.11.31-.15.46a.74.74,0,0,1,0,.14c0,.1-.05.2-.07.29l0,.15c0,.08,0,.16,0,.24s0,.06,0,.08h-2.93V233l0-.23c-.11-.52-3.14-12.75-38.33-12.75-25.77,0-35.54,5.07-39.2,9.32-.17.2-.33.4-.47.59l-.14.19-.27.39-.13.21-.21.36a2,2,0,0,1-.11.2c-.06.12-.12.24-.17.36s0,.11-.08.16l-.19.48v0c0,.16-.1.31-.14.46a.74.74,0,0,0,0,.14c0,.1,0,.2-.07.29l0,.14c0,.09,0,.18,0,.26a.15.15,0,0,1,0,.07h-2.93V233l0-.23c-.11-.52-3.15-12.75-38.33-12.75-25.78,0-35.55,5.07-39.21,9.32q-.24.28-.45.57l-.12.17a4.44,4.44,0,0,0-.27.38l-.12.2c-.07.11-.14.22-.2.33a2.12,2.12,0,0,0-.11.21,3,3,0,0,0-.16.31.82.82,0,0,0-.09.19c0,.1-.09.2-.13.3a1.34,1.34,0,0,0-.07.18c0,.1-.07.19-.1.28l-.06.18a2.5,2.5,0,0,0-.07.26.94.94,0,0,0,0,.16,2.27,2.27,0,0,0-.06.25.43.43,0,0,0,0,.11V206.57H784.79Zm-77.63,83.16h-7.78V240.05h7.78Zm-.93-78.72H695.65v-2h15.24v2h-4.66Zm-81.67,78.72h-7.78V240.05h7.78Zm-.93-78.72H613.05v-2h15.24v2h-4.66ZM542,316.59h-7.77V240.05H542ZM541,237.87H530.44v-2h15.24v2H541Zm-81.67,78.72h-7.78V240.05h7.78Zm-.93-78.72H447.84v-2h15.24v2h-4.66Zm-80.19,78.72h-7.77V240.05h7.77Zm-1.78-78.72h-9.72v-2H382v2h-5.51Zm-80.82,78.72h-7.78V240.05h7.78Zm-1.79-78.72h-9.72v-2h15.24v2h-5.52ZM213,316.59h-7.77V240.05H213Zm-1.78-78.72h-9.72v-2h15.24v2h-5.52Zm-80.82,78.72h-7.77V240.05h7.77Zm-1.79-78.72h-9.72v-2h15.24v2h-5.52Zm-92.32,0v-2H51.55v2H36.31ZM40,240.05h7.78v76.54H40Zm11.51,80.74H36.31v-2H51.55Zm65.19-4.2v4.2h-63v-4.2H50V240.05h3.74v-6.38H47.2a1.91,1.91,0,0,1,0-.21s0,0,0-.06a5,5,0,0,1,.17-.5.42.42,0,0,1,0-.1,4.8,4.8,0,0,1,.27-.57l.06-.11c.11-.21.25-.42.4-.65l.07-.09a8.8,8.8,0,0,1,.58-.73c2.81-3.16,11.4-8.45,37.45-8.45,31.61,0,35.84,10,36.17,11v.51h-5.74v6.38h3.73v76.54Zm17.41,4.2H118.91v-2h15.24Zm65.19-4.2v4.2h-63v-4.2H132.6V240.05h3.73v-6.38H129.8s0,0,0-.07.07-.22.1-.34L130,233l.17-.41c0-.09.08-.17.12-.27a5.51,5.51,0,0,1,.3-.5c0-.09.09-.16.15-.25a8,8,0,0,1,.62-.82c2.75-3.2,11.29-8.57,37.55-8.57q3.21,0,6,.14c26.12,1.18,29.83,9.92,30.14,10.82v.51h-5.74v6.38h3.73v76.54Zm17.42,4.2H201.52v-2h15.24Zm65.18-4.2v4.2h-63v-4.2H215.2V240.05h3.73v-6.38H212.4c0-.07,0-.13,0-.21s0,0,0-.06a5,5,0,0,1,.17-.5.42.42,0,0,1,0-.1,4.8,4.8,0,0,1,.27-.57l.06-.11a6,6,0,0,1,.4-.65l.07-.09a8.8,8.8,0,0,1,.58-.73c2.81-3.16,11.4-8.45,37.44-8.45,31.62,0,35.85,10,36.18,11v.51h-5.74v6.38h3.74v76.54Zm17.42,4.2H284.12v-2h15.24Zm65.19-4.2v4.2h-63v-4.2h-3.73V240.05h3.73v-6.38H295a.91.91,0,0,1,.05-.21.13.13,0,0,1,0-.06,5,5,0,0,1,.17-.5l0-.1a4.8,4.8,0,0,1,.27-.57l.06-.11c.12-.21.25-.42.4-.65l.07-.09a8.8,8.8,0,0,1,.58-.73c2.81-3.16,11.41-8.45,37.45-8.45,31.61,0,35.84,10,36.18,11v.51h-5.74v6.38h3.73v76.54Zm17.41,4.2H366.73v-2H382Zm63.7-4.2v4.2H384.14v-4.2h-3.73V240.05h3.73v-6.38h-6.53l0-.11c0-.09.05-.19.08-.29l.09-.28.16-.37c0-.1.09-.2.14-.3s.16-.28.25-.43a2.8,2.8,0,0,1,.2-.32c.1-.16.23-.32.36-.49l.3-.37.09-.1a1.29,1.29,0,0,1,.16-.17l.21-.23,0,0c3.07-3,11.22-7.43,32.76-7.94h.17l2.26,0c23.51.23,32.37,4.73,35.67,8.47.25.29.46.57.65.84l.16.26c.11.18.22.35.3.51l.13.28c.07.14.13.28.18.41a2.58,2.58,0,0,1,.08.26,2.44,2.44,0,0,1,.1.33.44.44,0,0,1,0,.1h-6.53v6.38h3.73v76.54Zm17.42,4.2H447.84v-2h15.24Zm65.19-4.2v4.2h-63v-4.2h-3.74V240.05h3.74v-6.38h-5.74v-.5c.29-.85,3.19-7.56,21.16-10l.72-.09c1.16-.15,2.36-.29,3.64-.4,2.29-.2,4.79-.34,7.51-.4,1,0,2.06,0,3.15,0,26,0,34.63,5.29,37.44,8.45a8.8,8.8,0,0,1,.58.73.86.86,0,0,1,.07.1,5.89,5.89,0,0,1,.4.63s0,.08.07.13a5.53,5.53,0,0,1,.26.56s0,.07.05.1l.17.5a.13.13,0,0,0,0,.06c0,.08,0,.14,0,.21h-6.53v6.38H532v76.54Zm17.41,4.2H530.44v-2h15.24Zm65.19-4.2v4.2h-63v-4.2h-3.73V240.05h3.73v-6.38h-5.74v-.5c.36-1,4.66-11,36.18-11,26,0,34.64,5.29,37.44,8.45a7.27,7.27,0,0,1,.59.73l.07.09c.15.23.28.44.4.65l.06.11c.1.2.2.39.27.57l0,.1a5,5,0,0,1,.17.5s0,0,0,.06a2.09,2.09,0,0,1,0,.21h-6.53v6.38h3.73v76.54Zm17.42,4.2H613.05v-2h15.24Zm65.19-4.2v4.2h-63v-4.2h-3.73V240.05h3.73v-6.38h-5.73v-.5c.29-.85,3.18-7.56,21.16-10,.23,0,.48-.06.72-.09,1.16-.15,2.36-.29,3.64-.4,2.29-.2,4.79-.34,7.51-.4,1,0,2.06,0,3.14,0,26.05,0,34.64,5.29,37.45,8.45a8.8,8.8,0,0,1,.58.73.86.86,0,0,1,.07.1c.16.22.28.43.4.63l.07.13a5.53,5.53,0,0,1,.26.56.42.42,0,0,1,0,.1,5,5,0,0,1,.17.5s0,0,0,.06,0,.14,0,.21h-6.53v6.38h3.73v76.54Zm17.41,4.2H695.65v-2h15.24Zm65.19-4.2v4.2h-63v-4.2h-3.73V240.05h3.73v-6.38h-5.74v-.5c.29-.85,3.19-7.56,21.17-10,.23,0,.48-.06.71-.09,1.16-.15,2.36-.29,3.64-.4,2.29-.2,4.8-.34,7.52-.4,1,0,2.06,0,3.14,0,26,0,34.64,5.29,37.44,8.45a8.8,8.8,0,0,1,.58.73l.08.1q.23.33.39.63a.54.54,0,0,1,.07.13c.1.19.19.38.27.56a.42.42,0,0,0,0,.1c.07.18.12.35.17.5s0,0,0,.06,0,.14.05.21h-6.53v6.38h3.73v76.54Zm17.41,2.18v2H778.26v-2h15.23Zm-3.73-2.18H782V240.05h7.77Zm3.73-80.74v2H778.26v-2h15.23Zm.48-31.46H35.83V203H794Zm-5-13.93v10.33H778.61V190.46h10.33Zm-2.55-2.17h-5.22V104.86h5.22Zm3.46-85.61H777.7v-3h12.15ZM794,96.11v1.41H35.83V96.11H794Zm3.48-11.56H32.35V83.14h765.1Zm3.2-3.59H29.16V79.55H800.65Zm2.72-3.59H26.43V76H803.37Z"/></svg>