<svg id="Capa_1" data-name="Capa 1" xmlns="http://www.w3.org/2000/svg" viewBox="0 0 1000 417.78"><defs><style>.cls-1{fill:#282c62;}.cls-2{fill:#a59fbb;}.cls-3{fill:#6a648e;}.cls-4{fill:#282d62;}.cls-5{fill:#80b42a;}.cls-6{fill:#7cb32b;}.cls-7{fill:#77b32c;}.cls-8{fill:#e3700e;}.cls-9{fill:#6bb230;}.cls-10{fill:#303988;}.cls-11{fill:#a39fcb;}.cls-12{fill:#f4ba8a;}.cls-13{fill:#bfd99d;}.cls-14{fill:#bdd48e;}.cls-15{fill:#2c418f;}.cls-16{fill:#73b22d;}.cls-17{fill:#2b4391;}.cls-18{fill:#2e3e8d;}.cls-19{fill:#294593;}.cls-20{fill:#e5770b;}.cls-21{fill:#83b529;}.cls-22{fill:#e57a0a;}.cls-23{fill:#6fb32f;}.cls-24{fill:#e57f0b;}.cls-25{fill:#284895;}.cls-26{fill:#2f3b8b;}.cls-27{fill:#e4730d;}.cls-28{fill:#86b428;}.cls-29{fill:#e67e0a;}.cls-30{fill:#2e3f8e;}.cls-31{fill:#e68807;}.cls-32{fill:#e58608;}.cls-33{fill:#8bb527;}.cls-34{fill:#e68b07;}.cls-35{fill:#e5820a;}.cls-36{fill:#e78e08;}.cls-37{fill:#e6840a;}.cls-38{fill:#313b8a;}.cls-39{fill:#333367;}.cls-40{fill:#353468;}.cls-41{fill:#b4aec7;}.cls-42{fill:#363569;}.cls-43{fill:#5ea7dc;}.cls-44{fill:#71aee0;}.cls-45{fill:#c3d8f2;}</style></defs><title>Mesa de trabajo 1 copia 3 copy 2</title><path class="cls-1" d="M85.86,173.14v85.14H94.3v15.78H57.24V258.28h8.25V188.92H52.1V173.14Zm-26.6-25.69q0-6.06,3.85-9a15.57,15.57,0,0,1,9.72-2.94,16.41,16.41,0,0,1,9.64,2.76q3.94,2.75,3.94,9.17t-3.94,9.27a16.1,16.1,0,0,1-9.64,2.84,16.35,16.35,0,0,1-9.72-2.75Q59.26,154.05,59.26,147.45Z"/><path class="cls-1" d="M122.38,274.06V258.28h8.44l1.83-98.72H120.17V143.78h40.19l35.23,81.47L233,143.78h39.45v15.78H260q.19,12.84.46,25.05t.55,24.31q.28,12.11.46,24.4t.37,25h8.44v15.78H241.46l-1.65-101.84-35.6,78.17H187.33L153,171.86q-.37,11.37-.55,22.29t-.37,23q-.18,12.1-.37,26t-.18,30.92Z"/><path class="cls-1" d="M291.55,274.06V258.28H304l37.43-114.5H367.7L405,258.28h12.48v15.78h-29l-10.83-32.48H331.19l-10.64,32.48Zm62.94-104.22-18.16,55.23H373Z"/><path class="cls-1" d="M505.5,177.73,505,164a70.69,70.69,0,0,0-11.56-4.54,44.57,44.57,0,0,0-13-2,47.09,47.09,0,0,0-13.31,1.75,21.06,21.06,0,0,0-10.18,6.62q-4.23,4.86-6.51,13.23t-2.3,21.6v16.91q0,12.51,2.11,20.68t6.15,13a21.41,21.41,0,0,0,10,6.71A44.24,44.24,0,0,0,480,259.93a66.67,66.67,0,0,0,14.31-1.38q6.24-1.37,11-2.84a65.19,65.19,0,0,1-.73-10.83V230.94h-13.4V215.53H525v33.21a84.11,84.11,0,0,0,1.1,15.5c.73,3.74,1.58,6.4,2.57,8-2.09.73-4.16,1.43-6.24,2.11s-4.16,1.31-6.24,1.92a6.57,6.57,0,0,1-2.66-1.65,12.86,12.86,0,0,1-2.66-4,136.76,136.76,0,0,1-13.4,3.77A77.88,77.88,0,0,1,480,276.08a103,103,0,0,1-20.83-2,40.39,40.39,0,0,1-17.24-7.89q-7.44-5.87-11.84-16.79t-4.4-28.9V201.76q0-18.7,3.94-30.46t11.1-18.25a38.17,38.17,0,0,1,17.07-8.9,92.4,92.4,0,0,1,21.65-2.39,137.53,137.53,0,0,1,40.92,6.42l-1.29,29.55Z"/><path class="cls-1" d="M669.72,159.56V143.78h34.87l63.49,99.09V159.56H755.6V143.78h46.24v15.78H789.36v98.72h12.48v15.78H767.16L703.49,175v99.09H672.84V258.28h9.36V159.56Z"/><path class="cls-1" d="M818.53,274.06V258.28H831l37.43-114.5h26.24l37.25,114.5h12.48v15.78h-29l-10.83-32.48H858.17l-10.64,32.48Zm62.94-104.22-18.16,55.23H900Z"/><path class="cls-2" d="M589.18,276.43c.14-.39.48-.31.77-.31l13.77,0a.83.83,0,0,0,0,.27Z"/><path class="cls-3" d="M662.69,182.84l-.11.09-.14,0a1.09,1.09,0,0,1,0-1.67.16.16,0,0,1,.25.06Z"/><path class="cls-4" d="M556.74,157.66c0,2.16-2.19,3.29-4.24,2.13-3.66-2.07-7.3-4.19-10.94-6.3-.58-.33-1.18-.63-1.73-1a2.63,2.63,0,0,1-.83-3.54,2.53,2.53,0,0,1,3.47-1c4.39,2.46,8.74,5,13.09,7.53A2.41,2.41,0,0,1,556.74,157.66Z"/><path class="cls-4" d="M556.74,206.73a2.58,2.58,0,0,1-1.44,2.11c-4.18,2.42-8.34,4.86-12.54,7.24a2.65,2.65,0,1,1-2.67-4.57c4.16-2.45,8.34-4.88,12.54-7.25A2.67,2.67,0,0,1,556.74,206.73Z"/><path class="cls-4" d="M620.75,142.41a2.55,2.55,0,0,1-2.35-3.7c2.44-4.45,5-8.84,7.6-13.21a2.58,2.58,0,0,1,3.54-.78,2.53,2.53,0,0,1,1,3.48c-2.44,4.34-4.95,8.64-7.45,12.94A2.46,2.46,0,0,1,620.75,142.41Z"/><path class="cls-4" d="M564.59,124.35A2.63,2.63,0,0,1,567,125.8c2.41,4.18,4.85,8.34,7.23,12.54a2.65,2.65,0,1,1-4.6,2.63c-2.44-4.16-4.87-8.33-7.23-12.53A2.63,2.63,0,0,1,564.59,124.35Z"/><path class="cls-4" d="M654.09,150.23a2.58,2.58,0,0,1-1.41,2.39c-4.18,2.41-8.34,4.85-12.54,7.24a2.6,2.6,0,0,1-3.75-.85,2.64,2.64,0,0,1,1.05-3.71c4.21-2.47,8.42-4.93,12.67-7.31A2.6,2.6,0,0,1,654.09,150.23Z"/><path class="cls-4" d="M651.15,216.52a3.12,3.12,0,0,1-1.45-.6q-6-3.45-12-6.93c-1.63-.94-2.13-2.49-1.31-3.87s2.28-1.68,3.89-.77c4.14,2.37,8.27,4.78,12.4,7.16a2.55,2.55,0,0,1,1.29,3.15C653.63,215.86,652.7,216.48,651.15,216.52Z"/><path class="cls-1" d="M540.12,184.7c-2.36,0-4.73,0-7.09,0-1.82,0-2.9-1-2.88-2.68a2.56,2.56,0,0,1,2.82-2.59q7.17,0,14.34,0a2.66,2.66,0,0,1,2.92,2.68c0,1.55-1.21,2.58-3,2.59C544.85,184.71,542.49,184.7,540.12,184.7Z"/><path class="cls-4" d="M593.75,125.72c0-2.32,0-4.63,0-6.94,0-1.84,1-3,2.61-3a2.68,2.68,0,0,1,2.68,2.94q0,7.09,0,14.18a2.67,2.67,0,0,1-2.65,3c-1.6,0-2.62-1.09-2.63-2.93C593.73,130.55,593.75,128.13,593.75,125.72Z"/><path class="cls-1" d="M662.44,181.23v1.67a2.5,2.5,0,0,1-2.7,1.8c-4.78,0-9.55,0-14.33,0a2.64,2.64,0,1,1,0-5.26c4.78,0,9.55,0,14.33,0A2.52,2.52,0,0,1,662.44,181.23Z"/><path class="cls-1" d="M637.09,175.54A41.21,41.21,0,0,0,590,140.89c-30.48,4.89-45.09,40.48-26.67,65.2,9.68,13,14.59,27.45,14.36,43.67-.07,4.53,0,9.06,0,13.59a12.73,12.73,0,0,0,9.86,12.58c.45.12,1.07-.08,1.36.5h.31a3.19,3.19,0,0,1,1.65-.15c4.3-.08,8.6.13,12.89-.12a12.76,12.76,0,0,0,11.1-9.7c.58-2.44.3-4.92.34-7.38.1-6.12-.28-12.26.36-18.37a68.64,68.64,0,0,1,13.74-34.33A40.24,40.24,0,0,0,637.09,175.54Zm-34,95.33c-4.46,0-8.93.08-13.39,0a6.63,6.63,0,0,1-5.59-3.75l22.23,2.55A5,5,0,0,1,603.06,270.87Zm5.72-6.25c-8.06-.94-16.12-1.84-24.17-2.81-.55-.07-1.42.28-1.65-.68-.3-1.24,0-1.54,2.25-1.34,7.43.85,15.59,1.81,23.76,2.7,1.07.11.88.7.9,1.35C609.91,264.69,609.43,264.69,608.78,264.62Zm1.11-11.6c-.12,1.37-.1,2.75-.14,4.13-1.36-.13-2.72-.24-4.08-.4-7.2-.81-14.38-1.68-21.58-2.43-1.27-.13-1.1-.79-1.15-1.61-.08-1.11.65-.93,1.3-.93h12.18c4.06,0,8.12,0,12.18,0C609.57,251.75,610,252,609.89,253Zm15.21-50a74.38,74.38,0,0,0-14.43,33.46,53.38,53.38,0,0,0-.78,8.74c0,1-.32,1.28-1.31,1.27-4.06-.06-8.13,0-12.2,0s-8,0-12,0c-1,0-1.4-.11-1.44-1.28a73.42,73.42,0,0,0-15.1-41.95,35.86,35.86,0,1,1,64.06-26.71A34.75,34.75,0,0,1,625.1,203Z"/><path class="cls-5" d="M71.46,163.07c-1.14-.7-2.59-.52-3.7-1.3a1.94,1.94,0,0,1-.35-1.31c.36-7.14,0-14.28.19-21.42,0-1.25-.66-2.55.16-3.76a8.05,8.05,0,0,1,4-1,2.51,2.51,0,0,1,.51,2q0,12.38,0,24.74a2.87,2.87,0,0,1-.5,2Z"/><path class="cls-6" d="M71.77,163.07l0-28.8a5.39,5.39,0,0,1,3.18,0A10.37,10.37,0,0,1,75,136.9q0,11.82,0,23.66a3.53,3.53,0,0,1-.49,2.51h-.31a3.09,3.09,0,0,0-2.16,0Z"/><path class="cls-7" d="M74.55,163.07q0-13.53,0-27.06c0-.58-.24-1.25.37-1.72a5.61,5.61,0,0,1,2.81.61,74.29,74.29,0,0,0-.23,9.55c0,4.89,0,9.77,0,14.66a11.5,11.5,0,0,0,.25,2.75c.07.72-.42.78-1,.92s-1.33,0-1.94.29Z"/><path class="cls-8" d="M87.83,117.66c-1.07.55-.55,1.68-.84,2.51a11.1,11.1,0,0,1-3.16,5.21c-1-.23-1-1.07-1-1.8-.12-5.23-.1-10.47,0-15.7,0-.68.06-1.49,1-1.65A10.4,10.4,0,0,1,87.23,113a2,2,0,0,0,.6,1.29v.31a4,4,0,0,0,0,2.47Z"/><path class="cls-9" d="M87.83,150.4c-.51.2-.36.7-.42,1.06a14,14,0,0,1-3,6c-.81-.24-.71-.94-.72-1.52q-.07-7.44,0-14.88c0-.57-.1-1.28.73-1.49a12.64,12.64,0,0,1,3.11,6.63c0,.28-.07.64.32.77v.31a4,4,0,0,0,0,2.47Z"/><path class="cls-10" d="M84.66,74.43a13.14,13.14,0,0,1,2.91,7.06c.31,1-.13,2.1.26,3.12v.3c-.73,1.5-.78,3.22-1.64,4.67a8.09,8.09,0,0,1-1.43,2.14c-.87-.15-.77-.88-.78-1.44Q83.89,83,84,75.82C84,75.29,83.94,74.65,84.66,74.43Z"/><path class="cls-11" d="M87.83,84.61c-.62-1-.19-2.08-.26-3.12a.57.57,0,0,1,.26,0Z"/><path class="cls-12" d="M87.83,117a2.32,2.32,0,0,1,0-2.47Z"/><path class="cls-13" d="M87.83,149.78a2.32,2.32,0,0,1,0-2.47Z"/><path class="cls-14" d="M72.08,163.07a1.73,1.73,0,0,1,2.16,0Z"/><path class="cls-15" d="M71.45,68.9a10.55,10.55,0,0,1,3.41,0,3.42,3.42,0,0,1,.48,2.51q0,11,0,22a32.9,32.9,0,0,0,.18,3.84,8.32,8.32,0,0,1-4.69,0,2.91,2.91,0,0,1-.49-2q0-12,0-24.06C70.36,70.26,70.21,69.23,71.45,68.9Z"/><path class="cls-16" d="M81.37,160.33a8.17,8.17,0,0,1-3.72,1.82c-.72-.33-.63-1-.63-1.59v-24c0-.66-.09-1.36.72-1.69a8.39,8.39,0,0,1,3.71,1.85c.18,3.08,0,6.17.07,9.25,0,4.22,0,8.43,0,12.65A5.93,5.93,0,0,1,81.37,160.33Z"/><path class="cls-17" d="M71.45,68.9c-.78.46-.6,1.22-.6,1.92q0,13.23,0,26.45a8.4,8.4,0,0,1-3.74-1.13,3.69,3.69,0,0,1-.46-2.23V72.37a3.36,3.36,0,0,1,.5-2.21A10.38,10.38,0,0,1,71.45,68.9Z"/><path class="cls-18" d="M81.11,95.14A9.07,9.07,0,0,1,77,97c-1.08-.36-.8-1.31-.81-2,0-4.15,0-8.31,0-12.46,0-3.74,0-7.49,0-11.23,0-.71-.34-1.91,1.15-1.78,1.13.45,2.43.55,3.36,1.48A2.12,2.12,0,0,1,81,72.12c-.16,6.76,0,13.52-.08,20.27C80.89,93.32,81.08,94.22,81.11,95.14Z"/><path class="cls-19" d="M67.14,70.16q0,13,0,26A11,11,0,0,1,62.8,93a5.94,5.94,0,0,1-.19-1.68c0-5.18,0-10.36,0-15.54a6.23,6.23,0,0,1,.46-2.7A10.39,10.39,0,0,1,67.14,70.16Z"/><path class="cls-20" d="M78.56,102.52A5.56,5.56,0,0,1,81,103.77a6.17,6.17,0,0,1,.21,1.82q0,10.3,0,20.59a9.38,9.38,0,0,1-.16,1.68,5.21,5.21,0,0,1-2.42,1.25c-.7.27-1.06-.12-1.3-.69a2.71,2.71,0,0,1-.17-1.06q-.06-11.52,0-23a2.74,2.74,0,0,1,.16-1.06C77.55,102.72,77.82,102.22,78.56,102.52Z"/><path class="cls-21" d="M67.76,135.28a234.09,234.09,0,0,1,0,26.49A7.25,7.25,0,0,1,65,160.23a3.53,3.53,0,0,1-.5-2.22V139a3.83,3.83,0,0,1,.5-2.22A6.45,6.45,0,0,1,67.76,135.28Z"/><path class="cls-22" d="M78.56,102.52c-.83.07-.92.64-.92,1.32v23.85c0,.73.09,1.35,1,1.42a6.82,6.82,0,0,1-3.47.91,2.6,2.6,0,0,1-.49-1.89q0-12.15,0-24.32c0-1.9.23-2.09,1.79-1.93A3.78,3.78,0,0,1,78.56,102.52Z"/><path class="cls-23" d="M81.37,160.33a3.22,3.22,0,0,1-.34-1.78c0-6.75,0-13.51,0-20.26,0-.54-.18-1.15.41-1.54a7.29,7.29,0,0,1,3,2.85c-.31.27-.27.64-.27,1v15.88a1.24,1.24,0,0,0,.25,1A7.9,7.9,0,0,1,81.37,160.33Z"/><path class="cls-24" d="M74.94,130.05a6.7,6.7,0,0,1-3.79-.05,2.79,2.79,0,0,1-.49-2q0-12.13,0-24.29a2.68,2.68,0,0,1,.49-2,6.38,6.38,0,0,1,3.16-.08,6.15,6.15,0,0,0-.52,2.54c0,7.76,0,15.53,0,23.29A2.91,2.91,0,0,0,74.94,130.05Z"/><path class="cls-25" d="M63.08,73.06q0,9.3.05,18.6A2.87,2.87,0,0,1,62.8,93,14.16,14.16,0,0,1,63.08,73.06Z"/><path class="cls-26" d="M81.11,95.14c-.73-.29-.69-.92-.69-1.55,0-6.9,0-13.8,0-20.7a9.94,9.94,0,0,1,.35-2,6,6,0,0,1,2.7,2.26c-.18,6.68-.1,13.36,0,20A5.7,5.7,0,0,1,81.11,95.14Z"/><path class="cls-27" d="M81.06,127.86c-.45-.33-.33-.83-.33-1.27V104.92c0-.4-.09-.83.28-1.15a6.37,6.37,0,0,1,2.78,2.46,2.38,2.38,0,0,0-.59,2v14.88a3.27,3.27,0,0,0,.63,2.29A6.28,6.28,0,0,1,81.06,127.86Z"/><path class="cls-28" d="M65,136.81v23.42a7.38,7.38,0,0,1-2.52-2.29A5.84,5.84,0,0,1,62,156c0-5.49-.08-11,.06-16.47A8.43,8.43,0,0,1,65,136.81Z"/><path class="cls-29" d="M74.94,130.05c-1.2.12-1.67-.3-1.66-1.63.07-8.46,0-16.93,0-25.39,0-.73-.12-1.52,1-1.47a3.73,3.73,0,0,1,2.16.32c-1.32-.16-1.31.67-1.31,1.63q0,13.26,0,26.51l-.11.07Z"/><path class="cls-30" d="M77.4,69.45c-.74.08-.69.63-.69,1.15V96A1,1,0,0,0,77,97a2.17,2.17,0,0,1-1.51.32c-1-.21-.65-1-.66-1.62q0-13.4,0-26.78A5.22,5.22,0,0,1,77.4,69.45Z"/><path class="cls-31" d="M64,104.88a5.5,5.5,0,0,1,2.17-1.51c.8.38.8,1.14.8,1.85q.06,10.66,0,21.35a3.39,3.39,0,0,1-.46,1.91,6.41,6.41,0,0,1-2.47-1.64,1.94,1.94,0,0,1-.29-1.31c.19-6.44.17-12.88,0-19.32A2.34,2.34,0,0,1,64,104.88Z"/><path class="cls-32" d="M66.52,128.48c0-7.37,0-14.73,0-22.1a5.63,5.63,0,0,0-.33-3,5.75,5.75,0,0,1,2.5-1.13,3,3,0,0,1,.19,1.51c0,7.7,0,15.4,0,23.09,0,.85.18,1.77-.49,2.5A4,4,0,0,1,66.52,128.48Z"/><path class="cls-33" d="M62.07,139.53c.51.28.43.77.43,1.22q0,8.59,0,17.19A14.11,14.11,0,0,1,62.07,139.53Z"/><path class="cls-34" d="M64,104.88c.68,3.2.33,6.44.32,9.67,0,4.09.33,8.21-.28,12.29a6.67,6.67,0,0,1-2.19-2.32,7.6,7.6,0,0,1-.15-2.73c0-4.34,0-8.68,0-13a3.3,3.3,0,0,1,.18-1.65A6.56,6.56,0,0,1,64,104.88Z"/><path class="cls-35" d="M71.15,101.64V130a2.26,2.26,0,0,1-1.54-.31,2.75,2.75,0,0,1-.49-2q0-11.84,0-23.66a2.71,2.71,0,0,1,.49-2A3,3,0,0,1,71.15,101.64Z"/><path class="cls-36" d="M61.87,107.12a8.46,8.46,0,0,1,.34,2.56q0,6.13,0,12.28a8.47,8.47,0,0,1-.35,2.56A14,14,0,0,1,61.87,107.12Z"/><path class="cls-37" d="M69.61,102v27.74a2,2,0,0,1-1.24-.35V104.19a3.3,3.3,0,0,1,.31-2A1.3,1.3,0,0,1,69.61,102Z"/><path class="cls-38" d="M83.42,93.24a2.77,2.77,0,0,1-.53-2c0-5.34,0-10.68,0-16a2.49,2.49,0,0,1,.57-2c.42.39,1,.61,1.2,1.24,0,.09-.15.17-.15.26q0,8.27,0,16.51c0,.18.19.35.29.52C84.52,92.41,83.91,92.77,83.42,93.24Z"/><path class="cls-4" d="M947.81,288.79l-7.41,9a8.94,8.94,0,0,1-9.3,2.89c-1.13-.35-1.18-1.29-.73-2.13,1.67-3.06,3.35-6.12,5.17-9.1a4.89,4.89,0,0,1,4.59-2.33c1.85.05,3.7.06,5.55,0a2,2,0,0,1,2.13,1Z"/><path class="cls-39" d="M829.22,348.71H857.1c.58,0,1.24-.23,1.75.3H829.19Z"/><path class="cls-40" d="M898.11,348.73l0,.29h-10.2c0-2.71,0-5.41,0-8.12,0-2.06,0-2.06,2.15-2-1.53,1-1.45,2.58-1.39,4.15.05,1.13,0,2.26,0,3.39,0,1.66.18,1.81,1.89,1.83,1.9,0,3.79,0,5.69,0A2.3,2.3,0,0,1,898.11,348.73Z"/><path class="cls-41" d="M947.43,338.89l.38-.06c0,3.14,0,6.28,0,9.42,0,.23.39.75-.29.77a2,2,0,0,1-.31-.5,68,68,0,0,1-.1-8.8A1.19,1.19,0,0,1,947.43,338.89Z"/><path class="cls-42" d="M947.45,348.71l0,.31h-8a1.14,1.14,0,0,0-.09-.26,1.4,1.4,0,0,1,1.1-.49c2-.08,4-.1,6,0A1.38,1.38,0,0,1,947.45,348.71Z"/><path class="cls-1" d="M886.62,310.44a19.83,19.83,0,0,0-13.13-14.21,36.38,36.38,0,0,0-11.15-2.15c-10.69-.4-21.39-.09-32.09-.2-.9,0-1.12.29-1.1,1.14q.06,3.93,0,7.87c0,.83.17,1.13,1.08,1.14,2.73,0,3.45.81,3.45,3.53q0,13.8,0,27.62c0,2.8-.73,3.59-3.52,3.67-.84,0-1,.3-1,1.07.05,2.93.05,5.86.07,8.79a3.25,3.25,0,0,0,1.66.15h26.31a3.14,3.14,0,0,1,1.66.15h4c2.24-.41,4.5-.75,6.71-1.26,8.91-2.05,15-7.15,17.24-16.25A42.47,42.47,0,0,0,886.62,310.44Zm-10.83,17.95c-1.27,5.77-5.22,8.7-10.78,9.83-4.38.9-8.81.59-13.23.65h-3.24c-2.49,0-3.35-.85-3.36-3.31,0-5.09,0-10.18,0-15.27,0-4.38,0-8.75,0-13.12,0-2.29.87-3.15,3.18-3.16h6.79a47.94,47.94,0,0,1,10.89.84c5.47,1.22,8.89,4.44,9.88,10.06A34.36,34.36,0,0,1,875.79,328.39Z"/><path class="cls-1" d="M947.43,338.89c-3.21.32-5-1.26-6.12-4.18-4.68-11.71-9.52-23.36-14.28-35a8.5,8.5,0,0,0-8.43-5.78c-5,0-10.08,0-15.12,0-1,0-1.34.25-1.31,1.29.07,2.47.08,4.94,0,7.4,0,1.16.29,1.5,1.45,1.47,2.37-.07,2.82.68,1.91,2.91-3.84,9.4-7.7,18.79-11.5,28.2a5.66,5.66,0,0,1-4,3.72c-1.92.07-1.95,1.34-1.87,2.8a51.19,51.19,0,0,1,0,5.4c-.07,1.25.29,1.72,1.61,1.67,2.78-.09,5.56,0,8.33,0a5.27,5.27,0,0,0,4-3.45q1.25-3,2.39-6a1.14,1.14,0,0,1,1.22-.89q12,0,23.93,0a1.21,1.21,0,0,1,1.31,1c.51,1.4,1,2.8,1.67,4.14a8.66,8.66,0,0,0,6.74,5.25l8.07-.05C947.44,345.44,947.44,342.16,947.43,338.89Zm-21.72-10.08c-5.35,0-10.69,0-16,0-.94,0-.83-.37-.56-1,2.84-7.2,5.65-14.4,8.6-21.95,2.29,5.86,4.45,11.39,6.6,16.93.67,1.71,1.31,3.45,2,5.15C926.62,328.63,926.43,328.81,925.71,328.81Z"/><path class="cls-43" d="M794,349c-1.38-.85-3-.79-4.51-1.35-7.39-2.8-11.43-8.4-13.39-15.79a41.1,41.1,0,0,1-1.17-9.93c-.07-5.5,0-11,0-16.52,0-2.58-.78-3.48-3.33-3.55-1.08,0-1.43-.34-1.38-1.42a50.83,50.83,0,0,0,0-5.09c-.07-1.14.39-1.38,1.42-1.34,1.95.07,3.91,0,5.86,0,3.84,0,6.3,2.45,6.3,6.26,0,7.77,0,15.54,0,23.31a24.93,24.93,0,0,0,1.37,8c2.07,6,6.77,9.58,12.75,9.62s10.58-3.41,12.75-9.4a26.71,26.71,0,0,0,1.53-9.07c0-6.85,0-13.69,0-20.54,0-5,3.19-8.19,8.19-8.2h4.79v7.72a2.82,2.82,0,0,1-1.57.6,2.59,2.59,0,0,0-2.26,2.54,14.24,14.24,0,0,0-.07,1.85c0,6.17.12,12.34,0,18.5a27.3,27.3,0,0,1-4.32,14.61c-3.52,5.32-8.36,8.7-15,9a.59.59,0,0,0-.27.14h-2.16a7.8,7.8,0,0,0-3.4,0Z"/><path class="cls-43" d="M720.77,349c-2-.84-4.28-.8-6.37-1.49-10.41-3.45-16.75-10.47-18.66-21.3a28.94,28.94,0,0,1,3.77-20.9c4.41-7.1,11-10.92,19.13-12.19a29.28,29.28,0,0,1,18.84,3c.68.36,1.15.3,1.13-.52,0-1,.54-1,1.28-1,1.44,0,2.88.08,4.32,0,1.13-.07,1.37.4,1.36,1.43-.05,3.81-.06,7.62,0,11.43,0,1.13-.41,1.41-1.44,1.35q-2.08-.09-4.17,0c-.85,0-1.34-.16-1.45-1.1a4,4,0,0,0-1.48-2.45c-7.84-7-21.55-6.18-28.46,1.71a18.79,18.79,0,0,0-4.38,11c-.52,5.55.12,10.91,3.46,15.62,3.22,4.54,7.84,6.74,13.21,7.32s10.47-.19,15-3.38a5.51,5.51,0,0,0,2.55-3.86c.14-1,.5-1.41,1.57-1.34a44.63,44.63,0,0,0,4.48,0c.8,0,1.08.26,1.08,1.06q0,6,0,12.05c0,.77-.24,1.11-1.06,1.09-1.65,0-3.3,0-4.94,0-.21,0-.54,0-.6-.06-1-1.74-2.07-.49-3.07-.07a31.22,31.22,0,0,1-9.07,2.32c-.29,0-.63,0-.8.31h-1.24a4,4,0,0,0-2.47,0Z"/><path class="cls-44" d="M796.14,349a4,4,0,0,1,3.4,0Z"/><path class="cls-45" d="M722.31,349a2.34,2.34,0,0,1,2.47,0Z"/><path class="cls-43" d="M764.08,317.91v18.38c0,2.77.59,3.47,3.32,3.72.78.07.93.4.92,1.06,0,1.91,0,3.81,0,5.72,0,.84-.34,1-1.11,1q-7.49,0-15,0c-.86,0-1.19-.26-1.17-1.15q.07-2.7,0-5.4c0-.9.21-1.24,1.19-1.28,2.22-.08,3.06-1,3.06-3.19V305.63c0-2.45-.73-3.3-3.16-3.64-.74-.1-1.1-.35-1.08-1.15,0-1.91,0-3.81,0-5.72,0-.78.22-1.1,1-1.09,2.41.05,4.84,0,7.25,0a4.85,4.85,0,0,1,4.64,5c0,6.28,0,12.56,0,18.83Z"/><path class="cls-1" d="M582.52,307.16h-6.23v-13h46v13h-6.23v-6.67H603.34v39.86h5.41v6.38H589.63v-6.38h5.48V300.49H582.52Z"/><path class="cls-1" d="M679.06,300.49H675.8v25.08a33,33,0,0,1-.92,8.25,21.18,21.18,0,0,1-2.48,5.95,14.35,14.35,0,0,1-3.64,4,17.88,17.88,0,0,1-4.4,2.37,21.57,21.57,0,0,1-4.82,1.15,42.59,42.59,0,0,1-4.85.29,37.19,37.19,0,0,1-7.26-.74,16.31,16.31,0,0,1-6.78-3.07,16.84,16.84,0,0,1-5-6.66q-2-4.32-2-11.5V300.49h-3.26v-6.37h11.86v30.45a27.56,27.56,0,0,0,1.11,8.71,12.19,12.19,0,0,0,2.89,4.93,8.63,8.63,0,0,0,4,2.22,19.81,19.81,0,0,0,4.45.52,22.39,22.39,0,0,0,4-.41,8.59,8.59,0,0,0,4.07-2,12,12,0,0,0,3.15-4.93,25.87,25.87,0,0,0,1.26-9V294.12h11.85Z"/></svg>