<?xml version="1.0" encoding="utf-8"?>
<!-- Generator: Adobe Illustrator 23.0.4, SVG Export Plug-In . SVG Version: 6.00 Build 0)  -->
<svg version="1.1" id="Capa_1" xmlns="http://www.w3.org/2000/svg" xmlns:xlink="http://www.w3.org/1999/xlink" x="0px" y="0px"
	 viewBox="0 0 1000 1000" style="enable-background:new 0 0 1000 1000;" xml:space="preserve">
<style type="text/css">
	.st0{opacity:0.5;}
	.st1{fill:#3EA635;}
	.st2{fill:#D5A105;}
	.st3{fill:#C11728;}
	.st4{fill:#299438;}
	.st5{fill:#4B7735;}
	.st6{fill:#FBB809;}
	.st7{fill:#E63520;}
	.st8{fill:#F59D10;}
	.st9{fill:#0077B9;}
	.st10{fill:#941732;}
	.st11{fill:#07A7D7;}
	.st12{fill:#EB6512;}
	.st13{fill:#E20B20;}
	.st14{fill:#DE0A79;}
	.st15{fill:#203261;}
	.st16{fill:#D28D10;}
	.st17{fill:#004C85;}
	.st18{fill:#E2E1E1;}
	.st19{fill:#243060;}
	.st20{fill:#B2B4B6;}
	.st21{fill:#FFFFFF;}
	.st22{fill:#626161;}
	.st23{fill:#54A9DF;}
</style>
<title>paquete</title>
<g>
	<g class="st0">
		<path class="st1" d="M309.6,388.3c9.7-16.5,21.5-31.7,35.1-45.1L229.6,217c-29.1,27.8-53.7,59.9-73.1,95.1L309.6,388.3z"/>
		<path class="st2" d="M591.7,299.2c17.3,7.9,33.6,18.1,48.3,30.2l115.4-126c-30.6-26.4-65.1-47.9-102.3-63.8L591.7,299.2z"/>
		<path class="st3" d="M856.1,337.1l-153,76.2c7.4,17.3,12.5,35.4,15.3,54l170.2-16.1C883.6,411.8,872.7,373.3,856.1,337.1"/>
		<path class="st4" d="M692.1,391.2L845.1,315c-18.9-35.1-43-67.1-71.5-94.9l-115.4,126C671.4,359.7,682.8,374.8,692.1,391.2"/>
		<path class="st5" d="M279.2,499.9c0-3.4,0.1-6.9,0.3-10.3l-170.2-15.2c-0.5,8.4-0.9,17-0.9,25.5c0,31.9,3.9,63.7,11.6,94.7
			l164.4-47.1C281,531.9,279.2,516,279.2,499.9"/>
		<path class="st6" d="M670.7,639.8c-12.1,14.7-26.1,27.8-41.5,39L719,824.3c33.3-22.6,63-50.2,88-81.7L670.7,639.8z"/>
		<path class="st7" d="M720.8,499.9c0,15.8-1.7,31.6-5.1,47l164.4,47.2c7.6-30.8,11.5-62.4,11.5-94.2c0-8.1-0.3-16.1-0.8-24
			l-170.2,16C720.7,494.6,720.8,497.3,720.8,499.9"/>
		<path class="st8" d="M332.1,643.1L196,746.5c25.3,31.2,55.3,58.3,88.8,80.5l89.8-145.3C358.9,670.7,344.6,657.7,332.1,643.1"/>
		<path class="st9" d="M282,465.1c3-18.9,8.5-37.3,16.3-54.8l-152.9-76.2c-17.2,36.6-28.6,75.6-33.7,115.7L282,465.1z"/>
		<path class="st10" d="M698.1,837.5l-89.8-145.3c-16.5,9.3-34,16.5-52.3,21.3l31.7,168.1C626.6,872.6,663.8,857.8,698.1,837.5"/>
		<path class="st11" d="M709.2,570.7c-5.9,17.3-13.9,33.8-23.9,49.2l136.5,102.9c22.4-32.2,39.8-67.6,51.6-104.9L709.2,570.7z"/>
		<path class="st12" d="M531.8,718.4c-19.1,2.8-38.4,3.1-57.5,0.8l-31.7,168.1c40.1,5.9,80.9,5.6,120.8-1L531.8,718.4z"/>
		<path class="st13" d="M514.1,279.6c18.6,1.2,36.9,4.7,54.6,10.5l61.4-159.5c-37.3-13.2-76.4-20.6-116-22L514.1,279.6z"/>
		<path class="st14" d="M450,715c-18.9-4.4-37.1-11.3-54.2-20.5l-89.9,145.4c35,20.1,73,34.6,112.5,43L450,715z"/>
		<path class="st15" d="M433.6,289.4c18.1-5.7,36.8-9,55.7-9.9V108.5c-40.1,1.1-79.7,8.3-117.6,21.4L433.6,289.4z"/>
		<path class="st16" d="M317.1,623.4c-11-16.2-19.7-33.7-26-52.2l-164.3,47.1c12.3,38.8,30.6,75.4,54.2,108.5L317.1,623.4z"/>
		<path class="st17" d="M363.2,326.8c14.5-11.5,30.4-21.1,47.4-28.6l-61.8-159.3c-36.5,15.4-70.5,36.2-100.7,61.7L363.2,326.8z"/>
	</g>
	<g>
		<path class="st18" d="M276.8,586.7c-20.1-16.1-62.2-79.6-62.2-79.6l11.3-6.4C281.4,529,276.8,586.7,276.8,586.7z"/>
		<path class="st18" d="M333.7,576.3c-10-10.8-49.6-88-49.6-88l12.1-4.7C346.9,520,333.7,576.4,333.7,576.3z"/>
		<path class="st19" d="M333.1,592.1c-28.9-34.1-45.4-58.4-42.9-73c2-11.7,20.9-16.9,20.9-16.9c11.8-10.4,20.4-7.9,20.4-7.9
			c0.5,22,17.2,49.4,67.6,109.5L333.1,592.1z"/>
		<path class="st19" d="M516.3,672.4c-164.9,44.1-282.5-119-282.5-119c-16.6-11.8,4.3-29,4.3-29c13.9-18.2,27.3-3.8,27.3-3.8
			c36.5,70.8,123.9,81.5,158.2,74.5c35.4-7.2,44-3.2,81.6,27.1L516.3,672.4z"/>
		<path class="st20" d="M489,508.6c0,0-26.2-33.5-38.6-34.5s-30.3,17.6-30.4,27.1s45.9,32,45.9,32L489,508.6z"/>
		<path class="st19" d="M742.3,707c-5.5,1,3,15.8,3,15.8c-24.9-13.5-1.1,6.5-1.1,6.5c-14-8.1-16.6-6.6-15.2-2.6
			c17.2,8.4,35.4,16.3,36.8,12.8C767.1,736.1,754.8,721,742.3,707z"/>
		<path class="st19" d="M714.6,678.1L498.3,512.5l-27.5,28.2l221.5,165.6c-0.9-5.6,1.6-9.4,15.6-1.4c0,0-21.4-23,6.5-10.5
			C714.4,694.4,710.2,683.5,714.6,678.1z"/>
		<path class="st21" d="M745.3,722.8c0,0-8.5-14.8-3-15.8c-12.2-13.7-24.7-26.5-24.7-26.5l-3-2.3c-4.3,5.4-0.2,16.3-0.2,16.3
			c-27.9-12.5-6.5,10.5-6.5,10.5c-14-8-16.5-4.2-15.6,1.4l6,4.5c0,0,14.9,8.1,30.6,15.8c-1.4-4.1,1.2-5.5,15.2,2.6
			C744.2,729.2,720.4,709.2,745.3,722.8z"/>
		<path class="st21" d="M481.7,529.5l213.5,164.8c0,0,0.1,0.1,0.1,0.1c0.3,0.3,0.3,0.8,0,1.1c-0.4,0.3-1,0.3-1.4,0L480.5,530.7
			c0,0-0.1-0.1-0.1-0.1c-0.3-0.3-0.3-0.8,0-1.1c0.2-0.2,0.6-0.3,0.9-0.2C481.4,529.4,481.6,529.4,481.7,529.5z"/>
		<path class="st21" d="M488,523.1l218.7,160.2c0,0,0.1,0.1,0.1,0.1c0.3,0.3,0.3,0.8,0.1,1.1c-0.4,0.3-1,0.3-1.4,0L486.8,524.3
			c0,0-0.1-0.1-0.1-0.1c-0.3-0.3-0.3-0.8-0.1-1.1c0.2-0.2,0.6-0.3,0.9-0.2C487.7,522.9,487.8,523,488,523.1z"/>
		<path class="st19" d="M498.3,512.5c7.1-7.3-8.2-10.2-8.2-10.2c-9.6-1.9-29.8,31.8-29.8,31.8c-0.6,7.9,10.5,6.6,10.5,6.6
			L498.3,512.5z"/>
		<path class="st22" d="M602.2,592.1l87.6,67.1c-2.8-64.4-79.5-73.7-79.5-73.7L602.2,592.1z"/>
		<path class="st20" d="M239.4,501.5c-13.3,2.6-33.8-2-33.8-2c6-5.6,29.2-11.4,29.2-11.4c3.3-1.6-1.9-14-1.9-14
			c4.3-4,17.5,17.3,17.5,17.3L239.4,501.5z"/>
		<path class="st20" d="M287,494.1c-14.6,0.2-36.2-7.9-36.2-7.9c7.4-4.8,33.1-6.7,33.1-6.7c3.8-1.1,0.6-15.2,0.6-15.2
			c5.3-3.4,15.5,22.4,15.5,22.4L287,494.1z"/>
		<path class="st18" d="M659.4,689.5c12.2,3.1,39.9-9.8,42.9-11.7c4.4-2.7,5.3-6.4,4.5-9.8c-0.8-3.4-31.5,2.7-31.3,2.6
			c16.4-12.5,14.4-14.2,14.4-14.2c-2.1-2.5-31.7,15.8-31.7,15.8L659.4,689.5z"/>
		<path class="st22" d="M626.5,662.3c-34.8-3.7-43.9-67.8-43.9-67.8c-38.6-14.6-24.1,44.9-24.1,44.9c14.1,43.6,33.6,72.8,80.3,67.6
			s41.3-32.8,29-38.5C650.1,660.3,626.5,662.3,626.5,662.3z"/>
		<path class="st22" d="M578.1,655.1c0,0-10.6,31.4-65.5,31.4c-16.8,0-32.6-54.3-10-74c22.6-19.7,44-37.4,83.6-51L578.1,655.1z"/>
		<path class="st18" d="M624.8,558.4c-6.8-9.5-23-9.6-36.2-0.2c-13.2,9.4-18.4,24.8-11.7,34.3c6.8,9.5,23,9.6,36.2,0.2
			C626.3,583.2,631.5,567.9,624.8,558.4z"/>
		<path class="st23" d="M496.8,334.3l-5,236.1l-39.3,107.9c4.5,3.9,11.2-0.1,11.2-0.1l32.1-93.3l15.3,101.3c3.4,3.4,12.1,0,12.1,0
			l-19.3-109.5l2-242.5H496.8z"/>
		<path class="st20" d="M600,517.9c-24.3-15.2-21.8,12.7-51,2.7s-15.9,11.8-40.1,9.2c-24.2-2.5-20.9,8.3-15.9,35
			s38.4,24.3,71.9,10.9c33.4-13.4,15.9-0.8,32.6,3.4s-0.8-14.3,18.4-4.2c19.2,10,19.1,2.5,20-25.1
			C636.2,540.6,624.3,533.1,600,517.9z"/>
		<path class="st23" d="M506,348.7L506.7-15h-8.3l-1.9,352.3C499.7,341.2,502.8,345,506,348.7z"/>
	</g>
</g>
</svg>
