<svg xmlns="http://www.w3.org/2000/svg" viewBox="0 0 334.61 318.21"><defs><style>.cls-1{fill:#4d4d4d;}</style></defs><title>Artboard 3</title><g id="Layer_1" data-name="Layer 1"><path class="cls-1" d="M12.08,309.52V295l18.81-3.23V159.36l-18.81-3.23V141.47H72.44v14.66l-18.81,3.23V291.75H112l1.73-19.28h19.39v37Z"/><path class="cls-1" d="M234,309.52q-1-5.07-1.62-9.12c-.39-2.69-.65-5.38-.81-8.07a55.09,55.09,0,0,1-16.44,14,42.07,42.07,0,0,1-21.07,5.6q-19.5,0-29.66-9.53t-10.16-26.83q0-17.77,14.37-27.41t39.42-9.64h23.43V224q0-11-6.93-17.37t-19.27-6.41a46.93,46.93,0,0,0-15.06,2.2,28.32,28.32,0,0,0-10.57,6l-2.42,13.15H159.7V197.34a67.38,67.38,0,0,1,20.66-10.91,81.71,81.71,0,0,1,26.31-4.1q21.24,0,34.4,10.85t13.15,31v60.13c0,1.62,0,3.2.06,4.73s.14,3.08.29,4.62L263.8,295v14.54ZM197.44,292.9a40.38,40.38,0,0,0,20.66-5.42q9.35-5.43,13.39-13V253.89H207.25q-14,0-22.1,6.46T177,276.05q0,8.2,5.08,12.52T197.44,292.9Z"/><path class="cls-1" d="M14.72,71.23C15.78,69.09,17,67,18.21,65s2.55-4.06,3.91-6S24.9,55,26.37,53.12s3-3.78,4.55-5.6,3.18-3.62,4.85-5.36,3.38-3.45,5.15-5.1a124.62,124.62,0,0,1,11.16-9.32,111.74,111.74,0,0,1,12.26-7.95c2.13-1.2,4.31-2.31,6.52-3.38,1.11-.52,2.23-1,3.35-1.52s2.26-1,3.4-1.4A104.63,104.63,0,0,1,91.7,9.07,105.89,105.89,0,0,1,106.31,6.7a109.29,109.29,0,0,1,14.81-.32c2.47.1,4.93.31,7.39.57l3.68.44,3.65.58a143.72,143.72,0,0,1,14.4,3.31l3.53,1.05c1.18.37,2.34.77,3.5,1.16.58.2,1.17.39,1.74.6l1.73.64,1.73.64.86.33.12,0,.16.06.24.11.47.2c2.4,1.05,4.61,2.19,6.8,3.41s4.32,2.53,6.4,3.89a108.75,108.75,0,0,1,11.89,9A112.28,112.28,0,0,1,200,43a108.91,108.91,0,0,1,16.43,25,114.76,114.76,0,0,1,5.44,14l1,3.59.26.9.24.86.46,1.72,1.87,6.88,1.9,6.86c.62,2.29,1.29,4.56,1.93,6.84,1.31,4.55,2.66,9.08,4.09,13.57l.52,1.69.55,1.67,1.1,3.35c.35,1.12.76,2.21,1.14,3.32s.77,2.21,1.18,3.3c1.61,4.37,3.37,8.66,5.31,12.8a78.85,78.85,0,0,0,6.76,11.7,65.48,65.48,0,0,0,4.16,5.24c.36.42.75.85,1.14,1.28l1.18,1.28c.79.85,1.6,1.7,2.41,2.55l5,5.14c.85.89,1.71,1.8,2.56,2.79a28.34,28.34,0,0,1,2.51,3.31,13.93,13.93,0,0,1,1.91,4.56,11.1,11.1,0,0,1-.24,5.33,16.76,16.76,0,0,1-1.94,4.17l-.28.44-.15.22c0,.06,0,0,0,0l0,0c0-.13.08-.19.07-.25s0,.12,0,.38a9.34,9.34,0,0,0,.89,2.39,29.34,29.34,0,0,0,1.6,2.74,66.87,66.87,0,0,0,4.06,5.45c2.92,3.59,6.13,7,9.39,10.44s6.65,6.72,10.07,10,6.89,6.53,10.4,9.74,7.06,6.38,10.62,9.51l-.22-.15c.22.13.35.23.52.34l.45.33c.29.22.58.45.85.69a17.22,17.22,0,0,1,1.54,1.54,16,16,0,0,1,2.38,3.61,14.61,14.61,0,0,1,1.18,8.36,18.78,18.78,0,0,1-1.05,4c-.22.65-.53,1.26-.8,1.89s-.62,1.21-.94,1.8-.68,1.17-1.05,1.73-.74,1.12-1.15,1.65-.8,1.08-1.23,1.59l-1.29,1.53,1.12-1.66c.36-.55.69-1.13,1-1.7s.64-1.16,1-1.73.57-1.19.86-1.78.51-1.21.74-1.83.43-1.23.58-1.86a17.74,17.74,0,0,0,.62-3.79,12.76,12.76,0,0,0-1.63-7.16,13.58,13.58,0,0,0-2.25-2.87,15.36,15.36,0,0,0-1.38-1.18c-.25-.18-.5-.36-.75-.52l-.37-.23-.34-.18-.07,0-.15-.12c-7.69-5.73-15.16-11.69-22.5-17.88q-5.49-4.65-10.8-9.55c-3.54-3.28-7-6.67-10.29-10.31a72,72,0,0,1-4.77-5.79,34.25,34.25,0,0,1-2.16-3.34,16.58,16.58,0,0,1-1.72-4.25l-.12-.7-.05-.36,0-.4a7.24,7.24,0,0,1,0-.81c0-.3.06-.6.1-.9a6.78,6.78,0,0,1,.67-1.92l.13-.24.11-.19.09-.16.19-.31a9.25,9.25,0,0,0,1-2.34,3.53,3.53,0,0,0,0-1.74,7,7,0,0,0-1-1.94,34.78,34.78,0,0,0-4.26-4.71l-5.15-4.94c-.87-.84-1.74-1.69-2.6-2.56l-1.29-1.3c-.43-.44-.85-.87-1.28-1.35a71.5,71.5,0,0,1-4.89-5.83,87.12,87.12,0,0,1-7.91-12.82c-1.09-2.22-2.17-4.45-3.13-6.71s-1.88-4.52-2.8-6.78c-3.54-9.08-6.46-18.27-9.23-27.46-.68-2.3-1.38-4.6-2-6.9l-2-6.91-1.9-6.92-.48-1.73-.24-.86-.24-.82-1-3.27a112.81,112.81,0,0,0-5-12.67,100.59,100.59,0,0,0-14.83-22.73A100.91,100.91,0,0,0,183,39.79l-1.27-1.13-1.31-1.1c-.87-.74-1.77-1.43-2.66-2.15-1.81-1.39-3.63-2.75-5.52-4s-3.79-2.52-5.75-3.65-4-2.22-5.91-3.12l-.35-.16-.17-.08,0,0-.09,0-.81-.31-1.61-.64-1.61-.64c-.54-.21-1.09-.39-1.63-.59-1.09-.38-2.17-.8-3.26-1.17l-3.3-1.08a134.77,134.77,0,0,0-13.38-3.47,110.27,110.27,0,0,0-27.42-2.13,100.76,100.76,0,0,0-27.07,5.12,111.9,111.9,0,0,0-25,12.17,132.39,132.39,0,0,0-11.37,8.28q-5.48,4.45-10.52,9.46c-3.34,3.34-6.56,6.83-9.6,10.47A120.9,120.9,0,0,0,14.72,71.23Z"/><path class="cls-1" d="M170.49,164.82c-1.27-1.19-2.5-2.41-3.74-3.62s-2.44-2.47-3.65-3.71c-2.43-2.47-4.81-5-7.17-7.55q-7.05-7.65-13.73-15.65c-2.22-2.68-4.42-5.37-6.56-8.11s-4.25-5.52-6.3-8.34a166.85,166.85,0,0,1-11.42-17.68c-.85-1.55-1.65-3.15-2.41-4.78a51,51,0,0,1-2-5.1,21.57,21.57,0,0,1-1.13-5.76,10.6,10.6,0,0,1,.36-3.37,7.67,7.67,0,0,1,.77-1.78,6.71,6.71,0,0,1,1.29-1.57l.19-.17.15-.12.28-.22c.19-.15.38-.3.58-.44.39-.29.8-.56,1.22-.83A13.08,13.08,0,0,1,120,74.63a8.1,8.1,0,0,1,3.61-.45,6.46,6.46,0,0,1,1.92.53,7.38,7.38,0,0,1,1.64,1,9.59,9.59,0,0,1,2.12,2.66,15.61,15.61,0,0,1,1.17,2.77,29.32,29.32,0,0,1,1.13,5.46,49,49,0,0,1,.32,5.39c0,.9,0,1.78-.05,2.7s-.16,1.84-.28,2.73a46,46,0,0,1-1.05,5.25,49.28,49.28,0,0,1-1.6,5.09,45.67,45.67,0,0,1-4.78,9.43,39.63,39.63,0,0,1-6.82,7.92,46.92,46.92,0,0,0,5.64-8.61,50.93,50.93,0,0,0,2.06-4.67q.9-2.37,1.58-4.83a52,52,0,0,0,1.69-9.92c.06-.83.1-1.67.08-2.44s-.08-1.66-.15-2.49a47.49,47.49,0,0,0-.65-5,24.86,24.86,0,0,0-1.24-4.62,12.29,12.29,0,0,0-.94-2,5.24,5.24,0,0,0-1.15-1.34,2.07,2.07,0,0,0-1.14-.43,3.75,3.75,0,0,0-1.49.28,9,9,0,0,0-1.78,1c-.3.21-.6.42-.9.66s-.3.24-.45.36l-.22.19-.1.09,0,0a2.12,2.12,0,0,0-.58,1,6,6,0,0,0-.13,1.76,18.23,18.23,0,0,0,1,4.38,59.72,59.72,0,0,0,4.1,9c1.6,3,3.37,5.88,5.19,8.76s3.73,5.73,5.66,8.57c3.89,5.66,7.93,11.24,12,16.77s8.28,11.05,12.47,16.54Z"/></g></svg>