<svg id="Capa_1" data-name="Capa 1" xmlns="http://www.w3.org/2000/svg" xmlns:xlink="http://www.w3.org/1999/xlink" viewBox="0 0 512 512"><defs><style>.cls-1{fill:none;}.cls-2{clip-path:url(#clip-path);}.cls-3{fill:red;}.cls-4{fill:#ffe01b;}.cls-5{fill:#090;}.cls-6{fill:#fff;}.cls-7{fill:#4d4d4d;}</style><clipPath id="clip-path"><path class="cls-1" d="M512,256a98.27,98.27,0,0,0-41.3-80.46l2.26-8.29c0-.15.07-.29.11-.44A72,72,0,0,0,402.86,79a71.64,71.64,0,0,0-21.52,3.27,142.8,142.8,0,0,0-266.42,20.54A96.56,96.56,0,0,0,0,197.52,95.64,95.64,0,0,0,26.4,263.79a99,99,0,0,0,145.7,79.32,120.85,120.85,0,0,0,177.76-10.85A98,98,0,0,0,413,355a99.35,99.35,0,0,0,21.39-2.34v0c61.9-12.09,71.95-63.62,71.95-63.62h0A98.44,98.44,0,0,0,512,256Z"/></clipPath></defs><title>dream</title><g class="cls-2"><circle class="cls-3" cx="244.84" cy="188.49" r="337.24"/><circle class="cls-4" cx="244.84" cy="188.49" r="112.2"/><circle class="cls-5" cx="244.84" cy="188.49" r="83.5"/><polygon class="cls-6" points="256.04 161.68 286.05 147.52 271.72 177.45 302.95 188.66 271.65 199.69 285.81 229.7 255.88 215.37 244.67 246.6 233.64 215.3 203.63 229.46 217.96 199.53 186.73 188.32 218.03 177.29 203.87 147.28 233.8 161.61 245.01 130.38 256.04 161.68"/></g><path class="cls-7" d="M320.7,96.15a83.23,83.23,0,0,0-66.17-36.38,10,10,0,0,1,.62-20,103.27,103.27,0,0,1,82.11,45.16A10,10,0,1,1,320.7,96.15Z"/><path class="cls-7" d="M208.36,60A10,10,0,0,1,214,47l.29-.11a10,10,0,1,1,7.36,18.59l-.29.11a10,10,0,0,1-13-5.61Z"/><path class="cls-7" d="M172.1,343.11A99,99,0,0,1,26.4,263.79,96.44,96.44,0,0,1,96.48,101.06h0a97.08,97.08,0,0,1,18.44,1.76A142.83,142.83,0,0,1,252,0,142.79,142.79,0,0,1,381.34,82.28,72,72,0,0,1,474.82,151a72.44,72.44,0,0,1-1.76,15.82c0,.15-.07.29-.11.44l-2.26,8.29a99.1,99.1,0,0,1,34.12,117.53,10,10,0,0,1-18.54-7.49,79.09,79.09,0,0,0-32.33-97.14,10,10,0,0,1-4.45-11.17l4.1-15.05A52,52,0,0,0,402.86,99a51.45,51.45,0,0,0-22.56,5.14,10,10,0,0,1-13.68-5.41A123.51,123.51,0,0,0,252,20c-57.57,0-108.06,40.81-120,97a10,10,0,0,1-12.74,7.47A76.46,76.46,0,0,0,43.14,252.28a10,10,0,0,1,3,6.78A79,79,0,0,0,168.3,322.12a10,10,0,0,1,12.89,1.65,100.88,100.88,0,0,0,159-12,10,10,0,0,1,15.58-1.37,79.14,79.14,0,0,0,82.57,20.46,10,10,0,0,1,6.4,18.94,99.17,99.17,0,0,1-94.83-17.53A120.85,120.85,0,0,1,172.1,343.11Z"/><path class="cls-7" d="M39,331.71a10,10,0,0,1-6.73-2.61l-.42-.38A10,10,0,0,1,45.4,314l.33.31A10,10,0,0,1,39,331.71Z"/><path class="cls-7" d="M119.2,404.31a34,34,0,1,1,34,34A34,34,0,0,1,119.2,404.31Zm20,0a14,14,0,1,0,14-14A14,14,0,0,0,139.2,404.31Z"/><path class="cls-7" d="M185.67,461.06a26,26,0,1,1,26,26A26,26,0,0,1,185.67,461.06Zm20,0a6,6,0,1,0,6-6A6,6,0,0,0,205.66,461.06Z"/><path class="cls-7" d="M246.65,505.68a10,10,0,0,1,5.62-13,10.49,10.49,0,0,1,1.31-.42,10,10,0,0,1,6.15,19,10.13,10.13,0,0,1-1.32.42A9.87,9.87,0,0,1,256,512,10,10,0,0,1,246.65,505.68Z"/></svg>