<svg id="Layer_1" data-name="Layer 1" xmlns="http://www.w3.org/2000/svg" viewBox="0 0 1496.57 798.78"><defs><style>.cls-1{fill:#b3b3b3;}.cls-2{fill:#ffe01b;}</style></defs><title>first-bg</title><path class="cls-1" d="M148.08,476.26l8.86,22.43L599.76,323.81a238.28,238.28,0,0,1,1.71-26.6Z"/><path class="cls-2" d="M1005.29,163.66l156.49-61.8-8.86-22.43-167.09,66A236.26,236.26,0,0,1,1005.29,163.66Z"/><path class="cls-1" d="M1413.7,101.86l-8.86-22.43L1045.67,221.27a232.85,232.85,0,0,1,9.62,22.13Z"/><path class="cls-1" d="M400,476.26l8.86,22.43,208.86-82.48a234.75,234.75,0,0,1-8.1-22.73Z"/><path class="cls-2" d="M82.87,696.92l8.86,22.43L668.16,491.71a237.32,237.32,0,0,1-17.09-19.18Z"/><path class="cls-1" d="M1087.71,300.09l-18.27,7.22q.72,9.18.73,18.55c0,2.39-.05,4.76-.12,7.13l26.52-10.47Z"/><path class="cls-1" d="M835,90.64c-120.21,0-219.34,90.18-233.48,206.57L985.83,145.42A234.23,234.23,0,0,0,835,90.64Z"/><path class="cls-1" d="M1055.29,243.4,617.72,416.21a235.37,235.37,0,0,0,33.35,56.32l418.37-165.22A233.88,233.88,0,0,0,1055.29,243.4Z"/><path class="cls-1" d="M835,561.08c127.52,0,231.33-101.48,235.1-228.09L668.16,491.71A234.5,234.5,0,0,0,835,561.08Z"/><path class="cls-2" d="M1005.29,163.66,599.76,323.81c0,.69,0,1.37,0,2.05a235.14,235.14,0,0,0,9.89,67.62l436.05-172.21A235.54,235.54,0,0,0,1005.29,163.66Z"/></svg>