<svg xmlns="http://www.w3.org/2000/svg" viewBox="0 0 864.76 318.21"><defs><style>.cls-1{fill:#4d4d4d;}.cls-2{fill:#ffe01b;}</style></defs><title>Artboard 2</title><g id="Layer_1" data-name="Layer 1"><path class="cls-1" d="M553.34,299.64V286.06l17.58-3V159.35l-17.58-3v-13.7h56.4v13.7l-17.58,3V283h54.57l1.61-18h18.12v34.61Z"/><path class="cls-1" d="M760.71,299.64q-1-4.74-1.51-8.52c-.36-2.51-.61-5-.76-7.54a51.52,51.52,0,0,1-15.36,13.1,39.34,39.34,0,0,1-19.68,5.23q-18.23,0-27.72-8.9t-9.49-25.07q0-16.6,13.43-25.61t36.83-9h21.89V219.74q0-10.25-6.47-16.23t-18-6a44.27,44.27,0,0,0-14.07,2,26.42,26.42,0,0,0-9.87,5.61l-2.27,12.29H691.26V194.83a63,63,0,0,1,19.31-10.19,76,76,0,0,1,24.58-3.83q19.85,0,32.14,10.13t12.29,29v56.19c0,1.5,0,3,0,4.42s.13,2.87.27,4.31l8.63,1.19v13.58Zm-34.18-15.52a37.78,37.78,0,0,0,19.3-5.07q8.73-5.07,12.51-12.19V247.67H735.69q-13.05,0-20.65,6t-7.6,14.67q0,7.67,4.74,11.7T726.53,284.12Z"/><path class="cls-1" d="M21.36,161.61v-19h65v19l-16.83,3.24V277.54l16.83,3.23v18.87h-65V280.77l16.82-3.23V164.85Z"/><path class="cls-1" d="M175,285.41a38.64,38.64,0,0,1-13,12.29,34.23,34.23,0,0,1-17.09,4.21q-21.57,0-33.48-15.75T99.54,244.54v-2.27q0-27.6,12-44.53t33.65-16.93a32.2,32.2,0,0,1,15.74,3.83,38.6,38.6,0,0,1,12.3,10.83V153.63l-16.83-3.23v-19h48.31V277.54l15.1,3.23v18.87H177.4Zm-44-40.87q0,15.32,5.12,24.1t16.77,8.79a24.35,24.35,0,0,0,12-2.8,22.42,22.42,0,0,0,8.31-8.09V217a24,24,0,0,0-8.25-8.68,22.16,22.16,0,0,0-11.81-3.07q-11.55,0-16.83,10.24T131,242.27Z"/><path class="cls-1" d="M285.67,301.91q-25.23,0-40.33-16.18t-15.1-41.08v-4.32q0-26,14.29-42.81t38.34-16.71q23.61,0,36.66,14.23t13.05,38.5v17.15H262.92l-.22.64q.85,11.55,7.71,19t18.6,7.44a60.66,60.66,0,0,0,17.36-2.1,79.57,79.57,0,0,0,15.1-6.63L330,288.43q-7.23,5.71-18.71,9.6A79.87,79.87,0,0,1,285.67,301.91Zm-2.8-96.84a16.4,16.4,0,0,0-13.81,6.69q-5.07,6.68-6.25,17.57l.32.54h38.61v-2.8q0-10-4.69-16T282.87,205.07Z"/><path class="cls-1" d="M421.76,299.64a55.72,55.72,0,0,1-2.26-6,45.51,45.51,0,0,1-1.51-6.2,43.38,43.38,0,0,1-13.65,10.46,40.76,40.76,0,0,1-18.38,4q-17.15,0-27.23-9.33t-10.08-25.4q0-16.38,13.15-25.34t38.61-9h16.07V221.46c0-5.61-1.62-10-4.86-13.05s-8-4.63-14.34-4.63a33.92,33.92,0,0,0-9.6,1.24,24.86,24.86,0,0,0-6.79,3l-2.05,12.51H355.12l.1-25.88A88.46,88.46,0,0,1,375,184.8a71.77,71.77,0,0,1,24.32-4q21.68,0,35.21,10.62t13.53,30.25v48.2q0,2.7.06,5.07a36.11,36.11,0,0,0,.37,4.53l9.6,1.29v18.87Zm-27.28-21a27.29,27.29,0,0,0,12.94-3.08,25.06,25.06,0,0,0,9.06-7.71V250H400.41q-10,0-15.21,4.69A14.68,14.68,0,0,0,380,266q0,5.92,3.82,9.27T394.48,278.62Z"/><path class="cls-2" d="M555.81,77c.8-1.66,1.7-3.26,2.64-4.84s1.92-3.15,2.95-4.68c2.05-3.07,4.27-6,6.6-8.92s4.83-5.66,7.44-8.34,5.36-5.23,8.23-7.68a110.74,110.74,0,0,1,18.76-12.89A99.93,99.93,0,0,1,623.91,21a96.65,96.65,0,0,1,11.48-2.4,101.82,101.82,0,0,1,11.72-1,108,108,0,0,1,23.41,2c1.93.37,3.84.79,5.74,1.24s3.78,1,5.65,1.53c3.74,1.09,7.41,2.36,11,3.77l2.7,1.08c.89.35,1.77.71,2.67,1.09,1.79.76,3.6,1.57,5.42,2.48.91.43,1.82.92,2.72,1.39s1.81,1,2.7,1.54,1.78,1.11,2.67,1.67,1.75,1.17,2.6,1.8a69.31,69.31,0,0,1,9.46,8.37c.36.38.71.76,1.06,1.15l1,1.17q1,1.17,2,2.37c.62.81,1.27,1.61,1.87,2.43s1.21,1.64,1.77,2.47a111.22,111.22,0,0,1,6.23,10.16l1.37,2.59,1.3,2.6c.44.87.83,1.74,1.24,2.61l.62,1.31.58,1.32c1.56,3.5,3,7,4.31,10.57l1,2.65c.33.89.62,1.78.93,2.67.63,1.78,1.2,3.54,1.78,5.3q3.44,10.61,6.16,21.4c1.81,7.19,3.34,14.43,4.78,21.52l1.08,5.27c.38,1.74.75,3.45,1.14,5.14s.83,3.34,1.3,4.94,1,3.15,1.6,4.65c.16.36.3.74.47,1.11L768,162l.54,1.06c.18.36.39.7.58,1.05s.41.68.62,1,.43.67.66,1l.34.5.38.51.79,1a89,89,0,0,0,7.2,7.7c1.29,1.27,2.63,2.5,4,3.81a51.51,51.51,0,0,1,3.88,4.16,16.5,16.5,0,0,1,1.69,2.44,8.38,8.38,0,0,1,1.06,2.88,5.93,5.93,0,0,1-.31,3,8,8,0,0,1-1.51,2.38,12.31,12.31,0,0,0,.47-1.28,6.53,6.53,0,0,0,.25-1.29,4.77,4.77,0,0,0-.41-2.39,10.18,10.18,0,0,0-3.32-3.61,52.12,52.12,0,0,0-4.43-2.91c-1.56-.93-3.12-1.88-4.7-2.86a78.23,78.23,0,0,1-9.28-6.59c-.38-.31-.75-.63-1.11-.95l-.56-.49-.56-.51c-.38-.35-.76-.7-1.11-1.07s-.74-.72-1.08-1.11a39.45,39.45,0,0,1-3.81-4.87,54.23,54.23,0,0,1-3.06-5.22c-.91-1.76-1.73-3.53-2.5-5.29s-1.47-3.52-2.15-5.27-1.33-3.48-2-5.21c-2.53-6.92-4.9-13.7-7.37-20.42s-5-13.39-7.66-20c-.66-1.66-1.31-3.33-2-4.94l-1-2.44-1-2.42c-1.4-3.21-2.79-6.4-4.29-9.49a130.2,130.2,0,0,0-9.88-17.52,61,61,0,0,0-12.54-13.77c-.59-.48-1.21-.93-1.82-1.39s-1.25-.9-1.91-1.32c-1.29-.86-2.65-1.67-4-2.47s-2.87-1.57-4.39-2.33l-2.31-1.14L686,42.88a122.85,122.85,0,0,0-19.12-6.77A100.77,100.77,0,0,0,647,33a91.43,91.43,0,0,0-10.07,0,89.87,89.87,0,0,0-10.07,1.11A105.87,105.87,0,0,0,588.4,49c-3,1.85-5.94,3.85-8.8,6s-5.68,4.34-8.4,6.69-5.38,4.79-8,7.33S558.16,74.19,555.81,77Z"/><path class="cls-1" d="M555.81,77c1-2,2.1-4,3.26-5.86s2.38-3.79,3.65-5.64,2.6-3.65,4-5.43,2.78-3.53,4.25-5.23,3-3.38,4.54-5,3.15-3.22,4.81-4.76a116.18,116.18,0,0,1,10.42-8.72,105.82,105.82,0,0,1,11.46-7.42c2-1.13,4-2.16,6.09-3.16,1-.49,2.08-1,3.13-1.42s2.11-.9,3.18-1.31a97,97,0,0,1,13.16-4.12,98.3,98.3,0,0,1,13.65-2.22,101.5,101.5,0,0,1,13.84-.3c2.31.1,4.61.29,6.9.53l3.44.42,3.41.54A134.51,134.51,0,0,1,682.43,21l3.3,1c1.09.35,2.18.72,3.27,1.09.54.18,1.09.35,1.62.55l1.62.6,1.61.6.81.3.11.05.14.06.23.09.44.19c2.24,1,4.31,2.05,6.36,3.19s4,2.36,6,3.63A103.44,103.44,0,0,1,719,40.76a104.59,104.59,0,0,1,9.91,9.84A102,102,0,0,1,744.3,73.92a107.6,107.6,0,0,1,5.08,13l1,3.36.25.84.22.8.43,1.61L753,100l1.78,6.41c.58,2.13,1.2,4.25,1.8,6.39,1.23,4.25,2.49,8.48,3.82,12.67l.49,1.58.51,1.57,1,3.12c.33,1,.71,2.07,1.07,3.11s.72,2.06,1.1,3.08c1.51,4.09,3.15,8.09,5,12a74.06,74.06,0,0,0,6.32,10.93,58.72,58.72,0,0,0,3.89,4.89c.33.4.7.8,1.06,1.2l1.1,1.2c.74.8,1.5,1.59,2.26,2.38l4.67,4.8c.79.83,1.59,1.69,2.39,2.61a25.84,25.84,0,0,1,2.34,3.1,13,13,0,0,1,1.79,4.25,10.45,10.45,0,0,1-.23,5,15.3,15.3,0,0,1-1.81,3.88l-.27.42-.13.21h0l0,0a.51.51,0,0,0,.06-.23c0-.07,0,.12,0,.36a8.7,8.7,0,0,0,.83,2.23,24.6,24.6,0,0,0,1.5,2.56,60.53,60.53,0,0,0,3.79,5.1c2.73,3.34,5.73,6.56,8.77,9.75s6.22,6.28,9.41,9.35,6.44,6.1,9.72,9.1,6.59,6,9.92,8.89l-.2-.14.48.31.42.31c.28.21.54.43.8.65a16.2,16.2,0,0,1,1.43,1.44,14.82,14.82,0,0,1,2.23,3.37,13.65,13.65,0,0,1,1.1,7.81,17.11,17.11,0,0,1-1,3.75c-.21.6-.49,1.17-.75,1.76s-.57,1.13-.87,1.68-.64,1.09-1,1.62-.69,1.05-1.07,1.55-.75,1-1.15,1.48l-1.2,1.43,1-1.55c.34-.52.65-1.06,1-1.59s.6-1.08.91-1.62.53-1.11.8-1.66.48-1.13.69-1.71.41-1.15.54-1.74a16.05,16.05,0,0,0,.58-3.54,11.84,11.84,0,0,0-1.52-6.69,12.37,12.37,0,0,0-2.1-2.68,13.5,13.5,0,0,0-1.29-1.11c-.23-.17-.46-.33-.7-.48a4.05,4.05,0,0,0-.35-.21l-.31-.17-.07,0-.14-.11q-10.77-8-21-16.71-5.13-4.35-10.09-8.92c-3.31-3.07-6.53-6.23-9.62-9.64a64.73,64.73,0,0,1-4.45-5.41,31.62,31.62,0,0,1-2-3.12,15.21,15.21,0,0,1-1.6-4c-.05-.21-.08-.44-.12-.65l-.05-.33,0-.38c0-.25,0-.48,0-.76s.05-.56.09-.84a5.82,5.82,0,0,1,.63-1.79l.12-.22.1-.18.09-.15.17-.3a8.83,8.83,0,0,0,.93-2.18,3.28,3.28,0,0,0,0-1.62,6.26,6.26,0,0,0-.91-1.82,33.5,33.5,0,0,0-4-4.4L778.72,176c-.82-.79-1.63-1.59-2.43-2.39l-1.21-1.22c-.4-.41-.8-.82-1.19-1.26a65.9,65.9,0,0,1-4.57-5.45,81,81,0,0,1-7.39-12c-1-2.07-2-4.16-2.93-6.27s-1.76-4.22-2.62-6.33c-3.3-8.49-6-17.07-8.62-25.66-.63-2.15-1.28-4.3-1.9-6.45L744,102.49,742.23,96l-.44-1.61-.23-.81-.22-.76-.91-3.06A103.69,103.69,0,0,0,735.78,78a91.83,91.83,0,0,0-6.2-11.09,94.25,94.25,0,0,0-7.65-10.15A95.77,95.77,0,0,0,713,47.63l-1.19-1.06-1.23-1c-.8-.69-1.65-1.34-2.48-2-1.69-1.3-3.39-2.57-5.15-3.77s-3.55-2.34-5.38-3.41-3.7-2.07-5.52-2.91l-.33-.15-.15-.07,0,0-.09,0-.75-.3-1.51-.59-1.5-.6c-.51-.2-1-.37-1.52-.55-1-.36-2-.75-3-1.1L680,29c-4.12-1.28-8.29-2.38-12.5-3.24a103,103,0,0,0-25.62-2,94.47,94.47,0,0,0-25.3,4.78A104.94,104.94,0,0,0,593.2,40a121.07,121.07,0,0,0-10.63,7.74c-3.41,2.77-6.68,5.73-9.82,8.84s-6.13,6.38-9,9.79A111.52,111.52,0,0,0,555.81,77Z"/><path class="cls-2" d="M701.34,164.45c-2.14-1.43-4.19-3-6.23-4.5l-3-2.36-3-2.42q-5.89-4.89-11.47-10.13t-10.83-10.85c-3.5-3.75-6.88-7.62-10.11-11.66a127.6,127.6,0,0,1-9.09-12.82,66.87,66.87,0,0,1-3.88-7.22,40.18,40.18,0,0,1-1.61-4A26.26,26.26,0,0,1,641,93.8a15.44,15.44,0,0,1,.19-5.85,11.38,11.38,0,0,1,1.41-3.36c.16-.27.35-.53.54-.79l.15-.19.1-.12.21-.25c.28-.33.59-.67.93-1a12.78,12.78,0,0,1,2.65-2.06,9.17,9.17,0,0,1,2.13-.87,7.68,7.68,0,0,1,5.54.56,8.33,8.33,0,0,1,1.9,1.33,10.94,10.94,0,0,1,2.07,2.63,17.06,17.06,0,0,1,1.12,2.35c.29.75.53,1.47.73,2.18a37.35,37.35,0,0,1,.92,4.17c.23,1.35.38,2.7.5,4,.07.67.11,1.33.15,2l0,1,0,1.05,0,.56c0,.27-.05.45-.08.66l-.09.6c-.06.39-.12.78-.19,1.17-.13.78-.28,1.55-.43,2.31-.31,1.53-.71,3-1.12,4.53a63.93,63.93,0,0,1-3.11,8.74,50.08,50.08,0,0,1-4.44,8.1,35.53,35.53,0,0,1-6,6.87c.76-1.31,1.46-2.62,2.08-4s1.2-2.68,1.68-4.06,1-2.75,1.33-4.15.76-2.79,1-4.21a76.81,76.81,0,0,0,1.34-8.51c.16-1.42.24-2.85.33-4.26,0-.71.07-1.42.09-2.12,0-.35,0-.7,0-1v-.51c0-.16,0-.35,0-.46l0,.57-.43-1.7c-.14-.58-.31-1.16-.46-1.73-.32-1.15-.67-2.28-1-3.37s-.76-2.15-1.2-3.11a11.12,11.12,0,0,0-1.32-2.33c-.19-.24-.37-.38-.33-.28a1,1,0,0,0,.34.27,2.44,2.44,0,0,0,.91.29,2.79,2.79,0,0,0,.94,0c.23,0,.36-.1.4-.11s-.07.1-.25.34-.2.26-.32.42l-.08.12-.05.06h0s0,0,0,.14a6.18,6.18,0,0,0,.11,1.68,18.56,18.56,0,0,0,.76,2.68c.35,1,.78,2,1.25,3,1,2,2.08,4.06,3.3,6.1,2.44,4.08,5.2,8.13,8,12.15,5.72,8,11.82,16,17.89,24S695.5,156,701.34,164.45Z"/><path class="cls-1" d="M701.34,164.45c-1.18-1.11-2.33-2.26-3.49-3.39s-2.28-2.3-3.41-3.46c-2.27-2.32-4.49-4.68-6.69-7.06q-6.6-7.14-12.84-14.62c-2.07-2.5-4.12-5-6.12-7.58s-4-5.15-5.89-7.79A156.25,156.25,0,0,1,652.23,104q-1.2-2.19-2.25-4.48a44.49,44.49,0,0,1-1.89-4.76A20.46,20.46,0,0,1,647,89.42a10.06,10.06,0,0,1,.34-3.15,6.9,6.9,0,0,1,.72-1.66,6.13,6.13,0,0,1,1.21-1.47l.18-.16.13-.11.27-.21c.17-.14.35-.27.54-.41.36-.27.74-.52,1.13-.78a12.8,12.8,0,0,1,2.65-1.29,7.5,7.5,0,0,1,3.37-.42,6,6,0,0,1,1.8.5,7,7,0,0,1,1.53,1,9,9,0,0,1,2,2.49A14.73,14.73,0,0,1,664,86.3,27.91,27.91,0,0,1,665,91.4a47.45,47.45,0,0,1,.3,5c0,.84,0,1.67-.05,2.53s-.14,1.71-.26,2.55a42.65,42.65,0,0,1-1,4.91,48.45,48.45,0,0,1-1.49,4.75,42.67,42.67,0,0,1-4.47,8.81,39.11,39.11,0,0,1-3,3.93,38.65,38.65,0,0,1-3.42,3.47,43.78,43.78,0,0,0,5.26-8q1.08-2.15,1.93-4.36c.56-1.49,1.06-3,1.47-4.52a48.35,48.35,0,0,0,1.59-9.27c0-.77.09-1.56.07-2.28s-.08-1.55-.14-2.33c-.13-1.56-.33-3.11-.6-4.62a25.34,25.34,0,0,0-1.16-4.32,11.51,11.51,0,0,0-.89-1.83,4.87,4.87,0,0,0-1.07-1.25,1.94,1.94,0,0,0-1.07-.4,3.35,3.35,0,0,0-1.38.26,8.07,8.07,0,0,0-1.67.9c-.28.2-.56.4-.84.62l-.42.34-.2.18-.1.08,0,0a2,2,0,0,0-.54,1,5.55,5.55,0,0,0-.12,1.65,16.8,16.8,0,0,0,.9,4.09,54.78,54.78,0,0,0,3.83,8.41c1.49,2.78,3.15,5.49,4.84,8.19s3.49,5.36,5.3,8c3.63,5.28,7.4,10.49,11.24,15.67s7.74,10.31,11.66,15.45Z"/><circle class="cls-1" cx="507.7" cy="243.51" r="13.17"/></g></svg>