<svg id="Layer_1" data-name="Layer 1" xmlns="http://www.w3.org/2000/svg" viewBox="0 0 645.57 645.57"><defs><style>.cls-1,.cls-2{fill:none;stroke-miterlimit:10;stroke-width:5px;}.cls-1{stroke:#ff0;}.cls-2{stroke:#000;}</style></defs><title>ODS copy</title><path class="cls-1" d="M109.81,81v13a12.33,12.33,0,0,0,12.32,12.32h168.6V68.64H122.13A12.32,12.32,0,0,0,109.81,81Z"/><path class="cls-1" d="M546.83,93.91V81a12.32,12.32,0,0,0-12.32-12.31H365.91v37.59h168.6A12.33,12.33,0,0,0,546.83,93.91Z"/><path class="cls-1" d="M513.38,173.84q2.55-5.4,5.25-10.7a13.33,13.33,0,0,0-11.92-19.32H365.91v37.59H501.36A13.29,13.29,0,0,0,513.38,173.84Z"/><path class="cls-1" d="M290.73,181.41V143.82H149.49a13.32,13.32,0,0,0-11.92,19.32q2.7,5.31,5.25,10.7a13.27,13.27,0,0,0,12,7.57Z"/><path class="cls-1" d="M290.73,219H179.13a13.35,13.35,0,0,0-12.8,17.09q1.5,5.22,2.86,10.49a13.36,13.36,0,0,0,12.91,10H290.73Z"/><path class="cls-1" d="M365.91,256.6H474.09a13.36,13.36,0,0,0,12.92-10q1.37-5.28,2.86-10.49A13.35,13.35,0,0,0,477.07,219H365.91Z"/><path class="cls-1" d="M290.73,294.19H193.56A13.38,13.38,0,0,0,180.29,309q.53,5.19.91,10.41a13.35,13.35,0,0,0,13.3,12.39h96.23Z"/><path class="cls-1" d="M365.91,331.78H461.7A13.35,13.35,0,0,0,475,319.39q.39-5.22.91-10.41a13.39,13.39,0,0,0-13.27-14.79H365.91Z"/><path class="cls-1" d="M290.73,369.37H194.5a13.35,13.35,0,0,0-13.3,12.39q-.39,5.24-.91,10.42A13.38,13.38,0,0,0,193.56,407h97.17Z"/><path class="cls-1" d="M365.91,407h96.73a13.39,13.39,0,0,0,13.27-14.79q-.53-5.19-.91-10.42a13.35,13.35,0,0,0-13.3-12.39H365.91Z"/><path class="cls-1" d="M365.91,482.15H477.07a13.35,13.35,0,0,0,12.8-17.08q-1.5-5.22-2.86-10.49a13.36,13.36,0,0,0-12.92-10H365.91Z"/><path class="cls-1" d="M290.73,444.56H182.1a13.36,13.36,0,0,0-12.91,10q-1.37,5.26-2.86,10.49a13.35,13.35,0,0,0,12.8,17.08h111.6Z"/><path class="cls-1" d="M365.91,519.74v37.6h140.8A13.33,13.33,0,0,0,518.63,538q-2.7-5.31-5.25-10.7a13.3,13.3,0,0,0-12-7.58Z"/><path class="cls-1" d="M142.82,527.32q-2.55,5.38-5.25,10.7a13.32,13.32,0,0,0,11.92,19.32H290.73v-37.6H154.84A13.28,13.28,0,0,0,142.82,527.32Z"/><path class="cls-1" d="M546.83,620.2v-13a12.32,12.32,0,0,0-12.32-12.32H365.91v37.59h168.6A12.32,12.32,0,0,0,546.83,620.2Z"/><path class="cls-1" d="M109.81,607.25v13a12.32,12.32,0,0,0,12.32,12.32h168.6V594.93H122.13A12.32,12.32,0,0,0,109.81,607.25Z"/><path class="cls-1" d="M347.75,22.05H308.89a18.16,18.16,0,0,0-18.16,18.16V632.52h75.18V40.21A18.16,18.16,0,0,0,347.75,22.05Z"/><path class="cls-1" d="M321.52,55.39h13.61a4.54,4.54,0,0,1,4.54,4.54V632.52a0,0,0,0,1,0,0H317a0,0,0,0,1,0,0V59.93A4.54,4.54,0,0,1,321.52,55.39Z"/><path class="cls-2" d="M104.28,76.45v13a12.32,12.32,0,0,0,12.32,12.32H285.19V64.14H116.6A12.31,12.31,0,0,0,104.28,76.45Z"/><path class="cls-2" d="M541.29,89.41v-13A12.31,12.31,0,0,0,529,64.14H360.38v37.59H529A12.32,12.32,0,0,0,541.29,89.41Z"/><path class="cls-2" d="M507.84,169.34q2.57-5.4,5.26-10.7a13.33,13.33,0,0,0-11.93-19.32H360.38v37.59H495.82A13.27,13.27,0,0,0,507.84,169.34Z"/><path class="cls-2" d="M285.19,176.91V139.32H144A13.33,13.33,0,0,0,132,158.64q2.7,5.31,5.25,10.7a13.3,13.3,0,0,0,12,7.57Z"/><path class="cls-2" d="M285.19,214.51H173.59a13.35,13.35,0,0,0-12.8,17.08q1.5,5.22,2.87,10.49a13.35,13.35,0,0,0,12.91,10H285.19Z"/><path class="cls-2" d="M360.38,252.1H468.56a13.35,13.35,0,0,0,12.91-10q1.36-5.28,2.87-10.49a13.35,13.35,0,0,0-12.8-17.08H360.38Z"/><path class="cls-2" d="M285.19,289.69H188a13.37,13.37,0,0,0-13.26,14.79c.34,3.46.65,6.93.91,10.42A13.34,13.34,0,0,0,189,327.28h96.23Z"/><path class="cls-2" d="M360.38,327.28h95.79a13.34,13.34,0,0,0,13.29-12.38c.26-3.49.57-7,.91-10.42a13.38,13.38,0,0,0-13.26-14.79H360.38Z"/><path class="cls-2" d="M285.19,364.88H189a13.34,13.34,0,0,0-13.29,12.38c-.26,3.49-.57,7-.91,10.42A13.37,13.37,0,0,0,188,402.47h97.17Z"/><path class="cls-2" d="M360.38,402.47h96.73a13.38,13.38,0,0,0,13.26-14.79c-.34-3.46-.65-6.93-.91-10.42a13.34,13.34,0,0,0-13.29-12.38H360.38Z"/><path class="cls-2" d="M360.38,477.65H471.54a13.35,13.35,0,0,0,12.8-17.08q-1.5-5.22-2.87-10.49a13.35,13.35,0,0,0-12.91-10H360.38Z"/><path class="cls-2" d="M285.19,440.06H176.57a13.35,13.35,0,0,0-12.91,10q-1.36,5.26-2.87,10.49a13.35,13.35,0,0,0,12.8,17.08h111.6Z"/><path class="cls-2" d="M360.38,515.25v37.59H501.17a13.33,13.33,0,0,0,11.93-19.32q-2.7-5.31-5.26-10.7a13.27,13.27,0,0,0-12-7.57Z"/><path class="cls-2" d="M137.28,522.82q-2.55,5.4-5.25,10.7A13.33,13.33,0,0,0,144,552.84H285.19V515.25H149.31A13.3,13.3,0,0,0,137.28,522.82Z"/><path class="cls-2" d="M541.29,615.7v-13A12.32,12.32,0,0,0,529,590.43H360.38V628H529A12.31,12.31,0,0,0,541.29,615.7Z"/><path class="cls-2" d="M104.28,602.75v13A12.31,12.31,0,0,0,116.6,628H285.19V590.43H116.6A12.32,12.32,0,0,0,104.28,602.75Z"/><path class="cls-2" d="M342.21,17.55H303.36a18.17,18.17,0,0,0-18.17,18.16V628h75.19V35.71A18.17,18.17,0,0,0,342.21,17.55Z"/><path class="cls-2" d="M316,50.89h13.61a4.54,4.54,0,0,1,4.54,4.54V628a0,0,0,0,1,0,0H311.44a0,0,0,0,1,0,0V55.43A4.54,4.54,0,0,1,316,50.89Z"/></svg>