<svg id="Layer_1" data-name="Layer 1" xmlns="http://www.w3.org/2000/svg" viewBox="0 0 645.57 645.57"><defs><style>.cls-1{fill:#fff;}.cls-2{fill:#4d4d4d;}</style></defs><title>ODS</title><path class="cls-1" d="M545.85,201.08c-5.61,13.46-6.05,28.09-7.85,42.36a108.42,108.42,0,0,1-9.27,32.62,112.52,112.52,0,0,1-20.31,29.83c-8.5,8.88-18.44,15.25-28.47,22.18-11.36,7.83-21.2,16.93-27.73,29.26-5.77,10.89-9,22.76-10.66,34.91-3.9,28.38,1.91,57-1.76,85.37a90.72,90.72,0,0,1-40.64,64.65,11.15,11.15,0,0,0,2.63,20.11,27.32,27.32,0,0,1,10.56,6.57,37,37,0,0,1,7.16,11.13c3.4,9.33,3.21,18.24-1.58,26.21-7.31,12.17,11.71,23.24,19,11.1,16.67-27.74,1.26-66.55-29.29-76.23l2.63,20.11a113.41,113.41,0,0,0,47-61c9.23-29.14,3.8-59.59,4.71-89.47.71-23.44,6.3-47.33,26.3-61.73,11-7.93,22.57-14.77,32.39-24.25a131.45,131.45,0,0,0,23.49-30.65,127.64,127.64,0,0,0,14.47-40.79c2.57-15.55,2.28-31.64,8.44-46.4,2.28-5.48-2.47-12.1-7.69-13.53-6.33-1.74-11.23,2.18-13.53,7.68Z"/><path class="cls-1" d="M225.83,573.46c-3.71,8.83-.65,18.74,5,25.94,6.5,8.25,16.11,11.82,26.27,13.06,9.51,1.15,19.13.47,28.67,1.52a131.56,131.56,0,0,1,30,7.33c5.59,2,12.05-2.27,13.53-7.69,1.68-6.1-2.07-11.51-7.68-13.53A156.22,156.22,0,0,0,271,591.15c-6.26-.09-13.78.5-19.5-2.52-4.61-2.44-6-5.74-4.5-9.32,2.3-5.48-2.48-12.11-7.68-13.54C233,564,228.14,568,225.83,573.46Z"/><path class="cls-2" d="M624.43,148.12l0-.05h0L502.54,26.23a10,10,0,0,0-7.36-3,10.13,10.13,0,0,0-7.25,3.24L450.21,67.11a10.15,10.15,0,0,0,.16,14L453.23,84l-15,15-23.66-5.91a62,62,0,0,0-58.93,16.74l-43.15,50.3L262.36,110a53.26,53.26,0,0,0-54.74-12.93,10.45,10.45,0,0,0-3.16,1.72L201.71,101,195,94.33,208.15,81.2a10.13,10.13,0,0,0,0-14.35h0L167.54,26.23a10.16,10.16,0,0,0-14.36,0h0l-132,132a10.15,10.15,0,0,0,0,14.35h0L61.8,213.2a10.14,10.14,0,0,0,14.35,0h0l4.58-4.59,24.06,24.06-5.91,23.66A61.75,61.75,0,0,0,115,314.64l86,88.48V482.5a49.22,49.22,0,0,0,26.56,43.19,26.53,26.53,0,0,1,14.06,23.44v2.11H231.43a10.15,10.15,0,0,0-10.15,10.14h0v50.77a10.16,10.16,0,0,0,10.14,10.16H424.35a10.14,10.14,0,0,0,10.15-10.15h0V561.39a10.14,10.14,0,0,0-10.14-10.15H414.2V541l16.09-14.84a61.84,61.84,0,0,0,24.52-49.15V358.11a53.47,53.47,0,0,0,31.7-15.55l53.68-58.29a46.62,46.62,0,0,0,11.32-48c-1.63-4.89,7.12-20.92,17.54-33.21a10.11,10.11,0,0,0,7,2.94h.1a10.16,10.16,0,0,0,7.14-2.94l41.08-40.61A10.15,10.15,0,0,0,624.43,148.12ZM69,191.66,42.72,165.41,160.36,47.77,186.62,74ZM201.87,374.91l-72.45-74.53a41.46,41.46,0,0,1-10.84-39.13L125.89,232a10.12,10.12,0,0,0-2.67-9.64L95.1,194.26l85.57-85.57,13.12,13.13a10.17,10.17,0,0,0,13.55.73l8.34-6.71A33,33,0,0,1,248,124.36l56,56-.09.07a35.63,35.63,0,0,0-9.8,15.28,35.65,35.65,0,0,0-20.58-4.13,36.64,36.64,0,0,0-31.91,36.8V334.54A50.9,50.9,0,0,0,201.87,374.91ZM414.2,602H241.59V571.55H414.2Zm20.3-125a42.07,42.07,0,0,1-17.19,33.56l-20.14,18.5a10.17,10.17,0,0,0-3.28,7.48v14.65h-132v-2.11a46.75,46.75,0,0,0-24.81-41.36,29,29,0,0,1-15.8-25.27V384.28a30.42,30.42,0,0,1,20.31-28.59v63.56h20.3V228.35a16.19,16.19,0,0,1,13.63-16.6,15.33,15.33,0,0,1,11.82,3.86,15,15,0,0,1,5,11.29V378.63h20.31v-172a15.24,15.24,0,0,1,15.22-15.24c.47,0,.93,0,1.4.06a16.58,16.58,0,0,1,13.84,17V378.63h20.31V237.06a15.22,15.22,0,0,1,15.21-15.24q.71,0,1.41.06a16.59,16.59,0,0,1,13.84,17V378.63H414.2V294.77a30.4,30.4,0,0,1,20.3,28.59Zm97.75-234.33h0a26.59,26.59,0,0,1-6.71,27.49L471.87,328.5a33.25,33.25,0,0,1-17.06,9.19V323.36a50.84,50.84,0,0,0-40.61-49.74V238.85a36.77,36.77,0,0,0-32.39-37.19A36.1,36.1,0,0,0,363.28,205,36.56,36.56,0,0,0,331,171.2c-.43,0-.85,0-1.28,0l40.79-47.58a41.46,41.46,0,0,1,39.12-10.84l29.23,7.31a10.14,10.14,0,0,0,9.64-2.66L467.38,98.6l87.49,90C545.5,199.44,526.25,224.71,532.25,242.72Zm44-61.27L471.66,73.86l24-25.83L602.81,155.21Z"/></svg>